# MuJoCo material-split OBJ
v -9 1.84845793 -1
v 9 1.65154135 -1
v -9 1.65154135 -1
v 9 1.84845793 -1
v 9 1.65154135 1
v 9 1.65154135 -1
v 9 1.84845793 1
v -9 1.65154135 1
v 9 1.65154135 1
v -9 1.84845793 1
v -9 1.65154135 -1
v -9 1.65154135 1
v 9 1.65154135 1
v -9 1.65154135 -1
v 9 1.65154135 -1
v 9 1.84845793 -1
v -9 1.84845793 1
v 9 1.84845793 1
v -9 0.252713591 -1
v 9 0.055796992 -1
v -9 0.055796992 -1
v 9 0.252713591 -1
v 9 0.055796992 1
v 9 0.055796992 -1
v 9 0.252713591 1
v -9 0.055796992 1
v 9 0.055796992 1
v -9 0.252713591 1
v -9 0.055796992 -1
v -9 0.055796992 1
v 9 0.055796992 1
v -9 0.055796992 -1
v 9 0.055796992 -1
v 9 0.252713591 -1
v -9 0.252713591 1
v 9 0.252713591 1
v -9 4.78600645 -1
v 9 4.58908987 -1
v -9 4.58908987 -1
v 9 4.78600645 -1
v 9 4.58908987 1
v 9 4.58908987 -1
v 9 4.78600645 1
v -9 4.58908987 1
v 9 4.58908987 1
v -9 4.78600645 1
v -9 4.58908987 -1
v -9 4.58908987 1
v 9 4.58908987 1
v -9 4.58908987 -1
v 9 4.58908987 -1
v 9 4.78600645 -1
v -9 4.78600645 1
v 9 4.78600645 1
v -9 1.84845793 -1
v 9 1.84845793 -1
v 9 1.65154135 -1
v 9 1.84845793 -1
v 9 1.84845793 1
v 9 1.65154135 1
v 9 1.84845793 1
v -9 1.84845793 1
v -9 1.65154135 1
v -9 1.84845793 1
v -9 1.84845793 -1
v -9 1.65154135 -1
v 9 1.65154135 1
v -9 1.65154135 1
v -9 1.65154135 -1
v 9 1.84845793 -1
v -9 1.84845793 -1
v -9 1.84845793 1
v -9 0.252713591 -1
v 9 0.252713591 -1
v 9 0.055796992 -1
v 9 0.252713591 -1
v 9 0.252713591 1
v 9 0.055796992 1
v 9 0.252713591 1
v -9 0.252713591 1
v -9 0.055796992 1
v -9 0.252713591 1
v -9 0.252713591 -1
v -9 0.055796992 -1
v 9 0.055796992 1
v -9 0.055796992 1
v -9 0.055796992 -1
v 9 0.252713591 -1
v -9 0.252713591 -1
v -9 0.252713591 1
v -9 4.78600645 -1
v 9 4.78600645 -1
v 9 4.58908987 -1
v 9 4.78600645 -1
v 9 4.78600645 1
v 9 4.58908987 1
v 9 4.78600645 1
v -9 4.78600645 1
v -9 4.58908987 1
v -9 4.78600645 1
v -9 4.78600645 -1
v -9 4.58908987 -1
v 9 4.58908987 1
v -9 4.58908987 1
v -9 4.58908987 -1
v 9 4.78600645 -1
v -9 4.78600645 -1
v -9 4.78600645 1
vt 0.625 0 0
vt 0.375 0.25 0
vt 0.375 0 0
vt 0.625 0.25 0
vt 0.375 0.5 0
vt 0.625 0.5 0
vt 0.375 0.75 0
vt 0.625 0.75 0
vt 0.375 1 0
vt 0.125 0.75 0
vt 0.125 0.5 0
vt 0.875 0.5 0
vt 0.625 1 0
vt 0.875 0.75 0
vn 0 0 -1
vn 9 0 0
vn 0 0 1
vn -9 0 0
vn 0 -0.0984582901 0
vn 0 0.0984582901 0
f 1/1/1 2/2/1 3/3/1
f 4/4/2 5/5/2 6/2/2
f 7/6/3 8/7/3 9/5/3
f 10/8/4 11/9/4 12/7/4
f 13/5/5 14/10/5 15/11/5
f 16/12/6 17/8/6 18/6/6
f 19/1/1 20/2/1 21/3/1
f 22/4/2 23/5/2 24/2/2
f 25/6/3 26/7/3 27/5/3
f 28/8/4 29/9/4 30/7/4
f 31/5/5 32/10/5 33/11/5
f 34/12/6 35/8/6 36/6/6
f 37/1/1 38/2/1 39/3/1
f 40/4/2 41/5/2 42/2/2
f 43/6/3 44/7/3 45/5/3
f 46/8/4 47/9/4 48/7/4
f 49/5/5 50/10/5 51/11/5
f 52/12/6 53/8/6 54/6/6
f 55/1/1 56/4/1 57/2/1
f 58/4/2 59/6/2 60/5/2
f 61/6/3 62/8/3 63/7/3
f 64/8/4 65/13/4 66/9/4
f 67/5/5 68/7/5 69/10/5
f 70/12/6 71/14/6 72/8/6
f 73/1/1 74/4/1 75/2/1
f 76/4/2 77/6/2 78/5/2
f 79/6/3 80/8/3 81/7/3
f 82/8/4 83/13/4 84/9/4
f 85/5/5 86/7/5 87/10/5
f 88/12/6 89/14/6 90/8/6
f 91/1/1 92/4/1 93/2/1
f 94/4/2 95/6/2 96/5/2
f 97/6/3 98/8/3 99/7/3
f 100/8/4 101/13/4 102/9/4
f 103/5/5 104/7/5 105/10/5
f 106/12/6 107/14/6 108/8/6
