# MuJoCo material-split OBJ
v 0.294000 0.272500 1.549147
v -0.284813 0.272500 1.549147
v -0.284813 -0.238438 1.549147
v 0.294000 -0.238437 1.549147
v -0.284813 -0.238438 0.987941
v -0.294000 -0.248487 0.957988
v -0.284813 -0.248487 0.957988
v -0.284813 -0.262451 0.957988
v -0.294000 -0.262451 0.957988
v -0.284813 -0.238438 0.020030
v -0.284813 0.272500 0.020030
v 0.294000 0.272500 0.020030
v 0.294000 -0.238437 0.020030
v 0.294000 -0.238437 0.978800
v 0.294000 -0.238437 0.987941
v -0.284813 -0.238438 0.978800
v -0.294000 -0.248487 1.011286
v -0.284813 -0.248487 1.011286
v -0.284813 -0.248487 1.199072
v -0.294000 -0.248487 1.199072
v -0.284813 -0.248487 0.748938
v -0.284813 -0.262451 0.748938
v -0.284813 -0.262451 1.011286
v -0.284813 -0.262451 1.199072
v -0.294000 -0.262451 1.199072
v -0.294000 -0.262451 1.011286
v -0.294000 -0.262451 0.748938
v -0.294000 -0.248487 0.748938
v -0.258637 0.261474 0.000030
v -0.241316 0.231474 0.000030
v -0.241316 0.231474 0.020030
v -0.258637 0.261474 0.020030
v -0.275957 0.231474 0.000030
v -0.275957 0.231474 0.020030
v -0.258637 -0.201487 0.000030
v -0.241316 -0.231487 0.000030
v -0.241316 -0.231487 0.020030
v -0.258637 -0.201487 0.020030
v -0.275957 -0.231487 0.000030
v -0.275957 -0.231487 0.020030
v 0.266800 0.261474 0.000030
v 0.284120 0.231474 0.000030
v 0.284120 0.231474 0.020030
v 0.266800 0.261474 0.020030
v 0.249479 0.231474 0.000030
v 0.249479 0.231474 0.020030
v 0.266800 -0.201487 0.000030
v 0.284120 -0.231487 0.000030
v 0.284120 -0.231487 0.020030
v 0.266800 -0.201487 0.020030
v 0.249479 -0.231487 0.000030
v 0.249479 -0.231487 0.020030
v -0.294000 -0.262451 1.011286
v -0.294000 -0.267050 0.987941
v -0.294000 -0.267050 1.559230
v -0.294000 -0.262451 1.199072
v -0.284813 -0.238438 1.549147
v -0.294000 -0.238438 1.559230
v 0.294000 -0.238437 1.559230
v 0.294000 -0.238437 1.549147
v -0.294000 -0.248487 1.011286
v -0.294000 -0.238438 0.987941
v 0.294000 -0.238437 0.020030
v 0.294000 -0.238437 0.978800
v 0.294000 -0.267050 0.978800
v 0.294000 -0.267050 0.020030
v 0.288120 -0.272500 0.020030
v 0.288120 -0.272500 0.978800
v -0.288120 -0.272500 0.978800
v -0.288120 -0.272500 0.020030
v 0.294000 -0.267050 1.559230
v 0.294000 -0.267050 0.987941
v 0.294000 -0.238437 0.987941
v -0.294000 -0.238438 0.978800
v -0.294000 -0.267050 0.978800
v -0.284813 -0.238438 0.978800
v -0.284813 -0.238438 0.987941
v -0.294000 -0.238438 0.020030
v -0.284813 -0.238438 0.020030
v -0.294000 -0.262451 0.957988
v -0.294000 -0.248487 0.957988
v -0.294000 -0.262451 0.748938
v -0.294000 -0.267050 0.020030
v 0.288120 -0.272500 1.559230
v -0.288120 -0.272500 1.559230
v -0.288120 -0.272500 0.987941
v 0.288120 -0.272500 0.987941
v -0.294000 -0.248487 0.748938
v -0.294000 -0.248487 1.199072
vt 0.261140 0.627690
vt 0.261140 0.370129
vt 0.015845 0.370129
vt 0.015845 0.627690
vt 0.267028 0.626686
vt 0.357543 0.381994
vt 0.264082 0.383125
vt 0.190296 0.365466
vt 0.190296 0.361378
vt 0.183592 0.361378
vt 0.183592 0.365466
vt 0.264082 0.136417
vt 0.264082 0.381712
vt 0.521642 0.381712
vt 0.521642 0.136417
vt 0.264082 0.626968
vt 0.264082 0.882594
vt 0.508571 0.787248
vt 0.508571 0.626968
vt 0.508552 0.885532
vt 0.509679 0.791721
vt 0.522865 0.381994
vt 0.362453 0.381994
vt 0.522865 0.626686
vt 0.149809 0.366210
vt 0.149809 0.362122
vt 0.118313 0.362122
vt 0.118313 0.366210
vt 0.263799 0.627972
vt 0.007331 0.627972
vt 0.007331 0.885532
vt 0.263799 0.885532
vt 0.197565 0.357007
vt 0.197565 0.363712
vt 0.232628 0.363712
vt 0.232628 0.357007
vt 0.015845 0.369847
vt 0.047341 0.369847
vt 0.047341 0.363143
vt 0.015845 0.363143
vt 0.181588 0.366210
vt 0.181588 0.362122
vt 0.150092 0.362122
vt 0.150092 0.366210
vt 0.197283 0.365466
vt 0.197283 0.361378
vt 0.190579 0.361378
vt 0.190579 0.365466
vt 0.047623 0.362122
vt 0.047623 0.366210
vt 0.082686 0.366210
vt 0.082686 0.362122
vt 0.183592 0.357007
vt 0.183592 0.361096
vt 0.190296 0.361096
vt 0.190296 0.357007
vt 0.190579 0.357008
vt 0.190579 0.361096
vt 0.197283 0.361096
vt 0.197283 0.357008
vt 0.082968 0.362122
vt 0.082968 0.366210
vt 0.118031 0.366210
vt 0.118031 0.362122
vt 0.095708 0.366493
vt 0.079373 0.366493
vt 0.079373 0.369847
vt 0.095708 0.369847
vt 0.063958 0.366493
vt 0.063958 0.369847
vt 0.047623 0.366493
vt 0.047623 0.369847
vt 0.144075 0.366493
vt 0.127740 0.366493
vt 0.127740 0.369847
vt 0.144075 0.369847
vt 0.112326 0.366493
vt 0.112326 0.369847
vt 0.095990 0.366493
vt 0.095990 0.369847
vt 0.232296 0.366493
vt 0.215961 0.366493
vt 0.215961 0.369847
vt 0.232296 0.369847
vt 0.200546 0.366493
vt 0.200546 0.369847
vt 0.209060 0.366493
vt 0.192725 0.366493
vt 0.192725 0.369847
vt 0.209060 0.369847
vt 0.144358 0.369847
vt 0.160693 0.369847
vt 0.160693 0.366493
vt 0.144358 0.366493
vt 0.176107 0.369847
vt 0.176107 0.366493
vt 0.192442 0.369847
vt 0.192442 0.366493
vt 0.693008 0.234400
vt 0.696185 0.230487
vt 0.588184 0.230487
vt 0.637184 0.234400
vt 0.810139 0.188668
vt 0.814616 0.183781
vt 0.530172 0.183781
vt 0.530118 0.188668
vt 0.693008 0.246283
vt 0.699948 0.254834
vt 0.699948 0.230487
vt 0.815137 0.255150
vt 0.530118 0.255150
vt 0.530118 0.279497
vt 0.815137 0.279497
vt 0.988692 0.891711
vt 0.988692 0.606693
vt 0.534217 0.606692
vt 0.534217 0.891712
vt 0.530118 0.220895
vt 0.699948 0.220895
vt 0.699948 0.196548
vt 0.533116 0.196548
vt 0.530118 0.313753
vt 0.530118 0.338100
vt 0.537364 0.313752
vt 0.533116 0.178496
vt 0.699950 0.178495
vt 0.699950 0.171249
vt 0.530118 0.171250
vt 0.530118 0.196231
vt 0.815132 0.196231
vt 0.815132 0.188985
vt 0.530118 0.188985
vt 0.808950 0.304885
vt 0.811781 0.308798
vt 0.815136 0.284451
vt 0.808950 0.293002
vt 0.530118 0.196548
vt 0.746803 0.304885
vt 0.647634 0.308798
vt 0.531243 0.338238
vt 0.534756 0.342737
vt 0.989226 0.342737
vt 0.993863 0.338099
vt 0.993864 0.313752
vt 0.796788 0.178812
vt 0.530172 0.178812
vt 0.530118 0.183465
vt 0.796735 0.183465
vt 0.989333 0.433429
vt 0.534859 0.433429
vt 0.534859 0.603259
vt 0.989333 0.603259
vt 0.530118 0.284451
vt 0.746803 0.293002
vt 0.537467 0.433111
vt 0.993968 0.433112
vt 0.993968 0.408765
vt 0.989331 0.404127
vt 0.534859 0.404127
vt 0.531346 0.408626
vt 0.530221 0.433111
vt 0.986722 0.374826
vt 0.530221 0.374826
vt 0.530221 0.399173
vt 0.534859 0.403811
vt 0.989331 0.403810
vt 0.992844 0.399311
vt 0.993968 0.374826
vt 0.637184 0.246282
vt 0.530118 0.254833
vt 0.530118 0.308798
vt 0.530118 0.284134
vt 0.815137 0.284135
vt 0.529580 0.610048
vt 0.529580 0.774195
vt 0.530221 0.491494
vt 0.530221 0.599495
vt 0.530118 0.225532
vt 0.699948 0.225532
vt 0.993971 0.345525
vt 0.530221 0.345525
vt 0.530221 0.369872
vt 0.534859 0.374509
vt 0.989334 0.374509
vt 0.993971 0.369872
vn -0.0000 0.0000 1.0000
vn -1.0000 0.0000 0.0000
vn 0.0000 0.0000 -1.0000
vn 1.0000 -0.0000 0.0000
vn 0.0000 -1.0000 0.0000
vn 0.0000 1.0000 0.0000
vn -0.8660 -0.5000 0.0000
vn 0.8660 -0.5000 0.0000
vn 0.6798 -0.7334 0.0000
vn -0.6798 -0.7334 0.0000
f 1/1/1 2/2/1 3/3/1
f 1/1/1 3/3/1 4/4/1
f 2/5/2 5/6/2 3/7/2
f 6/8/3 7/9/3 8/10/3
f 6/8/3 8/10/3 9/11/3
f 10/12/3 11/13/3 12/14/3
f 10/12/3 12/14/3 13/15/3
f 12/16/4 1/17/4 14/18/4
f 12/16/4 14/18/4 13/19/4
f 1/17/4 4/20/4 15/21/4
f 10/22/2 16/23/2 2/5/2
f 10/22/2 2/5/2 11/24/2
f 17/25/5 18/26/5 19/27/5
f 17/25/5 19/27/5 20/28/5
f 11/29/6 2/30/6 1/31/6
f 11/29/6 1/31/6 12/32/6
f 1/17/4 15/21/4 14/18/4
f 2/5/2 16/23/2 5/6/2
f 21/33/2 22/34/2 8/35/2
f 21/33/2 8/35/2 7/36/2
f 19/37/2 18/38/2 23/39/2
f 19/37/2 23/39/2 24/40/2
f 25/41/6 24/42/6 23/43/6
f 25/41/6 23/43/6 26/44/6
f 20/45/3 19/46/3 24/47/3
f 20/45/3 24/47/3 25/48/3
f 9/49/6 8/50/6 22/51/6
f 9/49/6 22/51/6 27/52/6
f 26/53/1 23/54/1 18/55/1
f 26/53/1 18/55/1 17/56/1
f 27/57/1 22/58/1 21/59/1
f 27/57/1 21/59/1 28/60/1
f 28/61/5 21/62/5 7/63/5
f 28/61/5 7/63/5 6/64/5
f 29/65/7 30/66/7 31/67/7
f 29/65/7 31/67/7 32/68/7
f 30/66/6 33/69/6 34/70/6
f 30/66/6 34/70/6 31/67/6
f 33/69/8 29/71/8 32/72/8
f 33/69/8 32/72/8 34/70/8
f 35/73/7 36/74/7 37/75/7
f 35/73/7 37/75/7 38/76/7
f 36/74/6 39/77/6 40/78/6
f 36/74/6 40/78/6 37/75/6
f 39/77/8 35/79/8 38/80/8
f 39/77/8 38/80/8 40/78/8
f 41/81/7 42/82/7 43/83/7
f 41/81/7 43/83/7 44/84/7
f 42/82/6 45/85/6 46/86/6
f 42/82/6 46/86/6 43/83/6
f 45/87/8 41/88/8 44/89/8
f 45/87/8 44/89/8 46/90/8
f 47/91/7 48/92/7 49/93/7
f 47/91/7 49/93/7 50/94/7
f 48/92/6 51/95/6 52/96/6
f 48/92/6 52/96/6 49/93/6
f 51/95/8 47/97/8 50/98/8
f 51/95/8 50/98/8 52/96/8
f 53/99/2 54/100/2 55/101/2
f 53/99/2 55/101/2 56/102/2
f 57/103/6 58/104/6 59/105/6
f 57/103/6 59/105/6 60/106/6
f 61/107/2 62/108/2 54/109/2
f 61/107/2 54/109/2 53/99/2
f 63/110/4 64/111/4 65/112/4
f 63/110/4 65/112/4 66/113/4
f 67/114/5 68/115/5 69/116/5
f 67/114/5 69/116/5 70/117/5
f 71/118/4 72/119/4 73/120/4
f 71/118/4 73/120/4 60/121/4
f 74/122/1 75/123/1 76/124/1
f 57/125/6 77/126/6 62/127/6
f 57/125/6 62/127/6 58/128/6
f 78/129/6 74/130/6 76/131/6
f 78/129/6 76/131/6 79/132/6
f 80/133/2 75/134/2 74/135/2
f 80/133/2 74/135/2 81/136/2
f 60/121/4 59/137/4 71/118/4
f 82/138/2 83/139/2 75/134/2
f 82/138/2 75/134/2 80/133/2
f 76/124/1 75/140/1 69/141/1
f 76/124/1 69/141/1 68/142/1
f 76/124/1 68/142/1 65/143/1
f 76/124/1 65/143/1 64/144/1
f 73/145/5 77/146/5 76/147/5
f 73/145/5 76/147/5 64/148/5
f 84/149/5 85/150/5 86/151/5
f 84/149/5 86/151/5 87/152/5
f 81/136/2 74/135/2 78/153/2
f 81/136/2 78/153/2 88/154/2
f 79/155/3 63/156/3 66/157/3
f 79/155/3 66/157/3 67/158/3
f 79/155/3 67/158/3 70/159/3
f 79/155/3 70/159/3 83/160/3
f 83/160/3 78/161/3 79/155/3
f 77/162/3 73/163/3 72/164/3
f 77/162/3 72/164/3 87/165/3
f 77/162/3 87/165/3 86/166/3
f 77/162/3 86/166/3 54/167/3
f 62/168/3 77/162/3 54/167/3
f 89/169/2 58/170/2 62/108/2
f 89/169/2 62/108/2 61/107/2
f 88/154/2 78/153/2 83/171/2
f 88/154/2 83/171/2 82/138/2
f 56/102/2 55/101/2 58/170/2
f 56/102/2 58/170/2 89/169/2
f 65/112/9 68/172/9 67/173/9
f 65/112/9 67/173/9 66/113/9
f 69/116/10 75/174/10 83/175/10
f 69/116/10 83/175/10 70/117/10
f 85/150/10 55/176/10 54/177/10
f 85/150/10 54/177/10 86/151/10
f 71/118/9 84/178/9 87/179/9
f 71/118/9 87/179/9 72/119/9
f 59/180/1 58/181/1 55/182/1
f 59/180/1 55/182/1 85/183/1
f 59/180/1 85/183/1 84/184/1
f 59/180/1 84/184/1 71/185/1
