# MuJoCo material-split OBJ
v -9.03000069 5.57999992 1.00000012
v -8.87000084 5.57999992 -0.999999762
v -9.03000069 5.57999992 -0.999999762
v -8.87000084 5.57999992 1.00000012
v -8.87000084 5.42000008 -0.999999762
v -8.87000084 5.57999992 -0.999999762
v -8.87000084 5.42000008 1
v -9.03000069 5.42000008 -0.999999762
v -8.87000084 5.42000008 -0.999999762
v -9.03000069 5.42000008 1
v -9.03000069 5.57999992 -0.999999762
v -9.03000069 5.42000008 -0.999999762
v -8.87000084 5.42000008 -0.999999762
v -9.03000069 5.57999992 -0.999999762
v -8.87000084 5.57999992 -0.999999762
v -8.87000084 5.57999992 1.00000012
v -9.03000069 5.42000008 1
v -8.87000084 5.42000008 1
v -9.03000069 6 -1.06999981
v -8.87000084 4.67711985e-08 -1.07000005
v -9.03000069 4.67711985e-08 -1.07000005
v -8.87000084 6 -1.06999981
v -8.87000084 3.97773725e-08 -0.910000026
v -8.87000084 4.67711985e-08 -1.07000005
v -8.87000084 6 -0.910000086
v -9.03000069 3.97773725e-08 -0.910000026
v -8.87000084 3.97773725e-08 -0.910000026
v -9.03000069 6 -0.910000086
v -9.03000069 4.67711985e-08 -1.07000005
v -9.03000069 3.97773725e-08 -0.910000026
v -8.87000084 3.97773725e-08 -0.910000026
v -9.03000069 4.67711985e-08 -1.07000005
v -8.87000084 4.67711985e-08 -1.07000005
v -8.87000084 6 -1.06999981
v -9.03000069 6 -0.910000086
v -8.87000084 6 -0.910000086
v -9.03000069 6 0.909999967
v -8.87000084 -3.97773725e-08 0.910000026
v -9.03000069 -3.97773725e-08 0.910000026
v -8.87000084 6 0.909999967
v -8.87000084 -4.67711985e-08 1.07000005
v -8.87000084 -3.97773725e-08 0.910000026
v -8.87000084 6 1.07000029
v -9.03000069 -4.67711985e-08 1.07000005
v -8.87000084 -4.67711985e-08 1.07000005
v -9.03000069 6 1.07000029
v -9.03000069 -3.97773725e-08 0.910000026
v -9.03000069 -4.67711985e-08 1.07000005
v -8.87000084 -4.67711985e-08 1.07000005
v -9.03000069 -3.97773725e-08 0.910000026
v -8.87000084 -3.97773725e-08 0.910000026
v -8.87000084 6 0.909999967
v -9.03000069 6 1.07000029
v -8.87000084 6 1.07000029
v -9.03000069 1.65382397 0.937096357
v -8.87000084 0.277240038 -1.02886903
v -9.03000069 0.277240038 -1.02886903
v -8.87000084 0.277240038 -1.02886903
v -8.87000084 1.52276003 1.02886915
v -8.87000084 0.146176204 -0.937096417
v -8.87000084 1.52276003 1.02886915
v -9.03000069 0.146176204 -0.937096417
v -8.87000084 0.146176204 -0.937096417
v -9.03000069 1.52276003 1.02886915
v -9.03000069 0.277240038 -1.02886903
v -9.03000069 0.146176204 -0.937096417
v -8.87000084 0.146176204 -0.937096417
v -9.03000069 0.277240038 -1.02886903
v -8.87000084 0.277240038 -1.02886903
v -8.87000084 1.65382397 0.937096357
v -9.03000069 1.52276003 1.02886915
v -8.87000084 1.52276003 1.02886915
v -9.03000069 3.1227591 -1.02886891
v -8.87000084 1.746176 0.937096477
v -9.03000069 1.746176 0.937096477
v -8.87000084 3.1227591 -1.02886891
v -8.87000084 1.87724066 1.02886915
v -8.87000084 1.746176 0.937096477
v -8.87000084 3.25382376 -0.937096477
v -9.03000069 1.87724066 1.02886915
v -8.87000084 1.87724066 1.02886915
v -9.03000069 1.87724066 1.02886915
v -9.03000069 3.1227591 -1.02886891
v -9.03000069 1.746176 0.937096477
v -8.87000084 1.87724066 1.02886915
v -9.03000069 1.746176 0.937096477
v -8.87000084 1.746176 0.937096477
v -8.87000084 3.1227591 -1.02886891
v -9.03000069 3.25382376 -0.937096477
v -8.87000084 3.25382376 -0.937096477
v -9.03000069 4.75382376 0.937096357
v -8.87000084 3.37723994 -1.02886891
v -9.03000069 3.37723994 -1.02886891
v -8.87000084 3.37723994 -1.02886891
v -8.87000084 4.62275982 1.0288682
v -8.87000084 3.246176 -0.937096357
v -8.87000084 4.62275982 1.0288682
v -9.03000069 3.246176 -0.937096357
v -8.87000084 3.246176 -0.937096357
v -9.03000069 4.62275982 1.0288682
v -9.03000069 3.37723994 -1.02886891
v -9.03000069 3.246176 -0.937096357
v -8.87000084 3.246176 -0.937096357
v -9.03000069 3.37723994 -1.02886891
v -8.87000084 3.37723994 -1.02886891
v -8.87000084 4.75382376 0.937096357
v -9.03000069 4.62275982 1.0288682
v -8.87000084 4.62275982 1.0288682
v 8.86999893 5.57999992 1.00000012
v 9.02999878 5.57999992 -0.999999762
v 8.86999893 5.57999992 -0.999999762
v 9.02999878 5.57999992 1.00000012
v 9.02999878 5.42000008 -0.999999762
v 9.02999878 5.57999992 -0.999999762
v 9.02999878 5.42000008 1
v 8.86999893 5.42000008 -0.999999762
v 9.02999878 5.42000008 -0.999999762
v 8.86999893 5.42000008 1
v 8.86999893 5.57999992 -0.999999762
v 8.86999893 5.42000008 -0.999999762
v 9.02999878 5.42000008 -0.999999762
v 8.86999893 5.57999992 -0.999999762
v 9.02999878 5.57999992 -0.999999762
v 9.02999878 5.57999992 1.00000012
v 8.86999893 5.42000008 1
v 9.02999878 5.42000008 1
v 8.86999893 6 -1.06999981
v 9.02999878 4.67711985e-08 -1.07000005
v 8.86999893 4.67711985e-08 -1.07000005
v 9.02999878 6 -1.06999981
v 9.02999878 3.97773725e-08 -0.910000026
v 9.02999878 4.67711985e-08 -1.07000005
v 9.02999878 6 -0.910000086
v 8.86999893 3.97773725e-08 -0.910000026
v 9.02999878 3.97773725e-08 -0.910000026
v 8.86999893 6 -0.910000086
v 8.86999893 4.67711985e-08 -1.07000005
v 8.86999893 3.97773725e-08 -0.910000026
v 9.02999878 3.97773725e-08 -0.910000026
v 8.86999893 4.67711985e-08 -1.07000005
v 9.02999878 4.67711985e-08 -1.07000005
v 9.02999878 6 -1.06999981
v 8.86999893 6 -0.910000086
v 9.02999878 6 -0.910000086
v 8.86999893 6 0.909999967
v 9.02999878 -3.97773725e-08 0.910000026
v 8.86999893 -3.97773725e-08 0.910000026
v 9.02999878 6 0.909999967
v 9.02999878 -4.67711985e-08 1.07000005
v 9.02999878 -3.97773725e-08 0.910000026
v 9.02999878 6 1.07000029
v 8.86999893 -4.67711985e-08 1.07000005
v 9.02999878 -4.67711985e-08 1.07000005
v 8.86999893 6 1.07000029
v 8.86999893 -3.97773725e-08 0.910000026
v 8.86999893 -4.67711985e-08 1.07000005
v 9.02999878 -4.67711985e-08 1.07000005
v 8.86999893 -3.97773725e-08 0.910000026
v 9.02999878 -3.97773725e-08 0.910000026
v 9.02999878 6 0.909999967
v 8.86999893 6 1.07000029
v 9.02999878 6 1.07000029
v 8.86999893 1.65382397 0.937096357
v 9.02999878 0.277240038 -1.02886903
v 8.86999893 0.277240038 -1.02886903
v 9.02999878 0.277240038 -1.02886903
v 9.02999878 1.52276003 1.02886915
v 9.02999878 0.146176204 -0.937096417
v 9.02999878 1.52276003 1.02886915
v 8.86999893 0.146176204 -0.937096417
v 9.02999878 0.146176204 -0.937096417
v 8.86999893 1.52276003 1.02886915
v 8.86999893 0.277240038 -1.02886903
v 8.86999893 0.146176204 -0.937096417
v 9.02999878 0.146176204 -0.937096417
v 8.86999893 0.277240038 -1.02886903
v 9.02999878 0.277240038 -1.02886903
v 9.02999878 1.65382397 0.937096357
v 8.86999893 1.52276003 1.02886915
v 9.02999878 1.52276003 1.02886915
v 8.86999893 3.1227591 -1.02886891
v 9.02999878 1.746176 0.937096477
v 8.86999893 1.746176 0.937096477
v 9.02999878 3.1227591 -1.02886891
v 9.02999878 1.87724066 1.02886915
v 9.02999878 1.746176 0.937096477
v 9.02999878 3.25382376 -0.937096477
v 8.86999893 1.87724066 1.02886915
v 9.02999878 1.87724066 1.02886915
v 8.86999893 1.87724066 1.02886915
v 8.86999893 3.1227591 -1.02886891
v 8.86999893 1.746176 0.937096477
v 9.02999878 1.87724066 1.02886915
v 8.86999893 1.746176 0.937096477
v 9.02999878 1.746176 0.937096477
v 9.02999878 3.1227591 -1.02886891
v 8.86999893 3.25382376 -0.937096477
v 9.02999878 3.25382376 -0.937096477
v 8.86999893 4.75382376 0.937096357
v 9.02999878 3.37723994 -1.02886891
v 8.86999893 3.37723994 -1.02886891
v 9.02999878 3.37723994 -1.02886891
v 9.02999878 4.62275982 1.0288682
v 9.02999878 3.246176 -0.937096357
v 9.02999878 4.62275982 1.0288682
v 8.86999893 3.246176 -0.937096357
v 9.02999878 3.246176 -0.937096357
v 8.86999893 4.62275982 1.0288682
v 8.86999893 3.37723994 -1.02886891
v 8.86999893 3.246176 -0.937096357
v 9.02999878 3.246176 -0.937096357
v 8.86999893 3.37723994 -1.02886891
v 9.02999878 3.37723994 -1.02886891
v 9.02999878 4.75382376 0.937096357
v 8.86999893 4.62275982 1.0288682
v 9.02999878 4.62275982 1.0288682
v -4.5600009 5.57999992 1.00000012
v -4.40000105 5.57999992 -0.999999762
v -4.5600009 5.57999992 -0.999999762
v -4.40000105 5.57999992 1.00000012
v -4.40000105 5.42000008 -0.999999762
v -4.40000105 5.57999992 -0.999999762
v -4.40000105 5.42000008 1
v -4.5600009 5.42000008 -0.999999762
v -4.40000105 5.42000008 -0.999999762
v -4.5600009 5.42000008 1
v -4.5600009 5.57999992 -0.999999762
v -4.5600009 5.42000008 -0.999999762
v -4.40000105 5.42000008 -0.999999762
v -4.5600009 5.57999992 -0.999999762
v -4.40000105 5.57999992 -0.999999762
v -4.40000105 5.57999992 1.00000012
v -4.5600009 5.42000008 1
v -4.40000105 5.42000008 1
v -4.56000185 6 -1.06999981
v -4.400002 4.67711985e-08 -1.07000005
v -4.56000185 4.67711985e-08 -1.07000005
v -4.400002 6 -1.06999981
v -4.400002 3.97773725e-08 -0.910000026
v -4.400002 4.67711985e-08 -1.07000005
v -4.400002 6 -0.910000086
v -4.56000185 3.97773725e-08 -0.910000026
v -4.400002 3.97773725e-08 -0.910000026
v -4.56000185 6 -0.910000086
v -4.56000185 4.67711985e-08 -1.07000005
v -4.56000185 3.97773725e-08 -0.910000026
v -4.400002 3.97773725e-08 -0.910000026
v -4.56000185 4.67711985e-08 -1.07000005
v -4.400002 4.67711985e-08 -1.07000005
v -4.400002 6 -1.06999981
v -4.56000185 6 -0.910000086
v -4.400002 6 -0.910000086
v -4.56000185 6 0.909999967
v -4.400002 -3.97773725e-08 0.910000026
v -4.56000185 -3.97773725e-08 0.910000026
v -4.400002 6 0.909999967
v -4.400002 -4.67711985e-08 1.07000005
v -4.400002 -3.97773725e-08 0.910000026
v -4.400002 6 1.07000029
v -4.56000185 -4.67711985e-08 1.07000005
v -4.400002 -4.67711985e-08 1.07000005
v -4.56000185 6 1.07000029
v -4.56000185 -3.97773725e-08 0.910000026
v -4.56000185 -4.67711985e-08 1.07000005
v -4.400002 -4.67711985e-08 1.07000005
v -4.56000185 -3.97773725e-08 0.910000026
v -4.400002 -3.97773725e-08 0.910000026
v -4.400002 6 0.909999967
v -4.56000185 6 1.07000029
v -4.400002 6 1.07000029
v -4.56000185 1.65382397 0.937096357
v -4.400002 0.277240038 -1.02886903
v -4.56000185 0.277240038 -1.02886903
v -4.400002 0.277240038 -1.02886903
v -4.400002 1.52276003 1.02886915
v -4.400002 0.146176204 -0.937096417
v -4.400002 1.52276003 1.02886915
v -4.56000185 0.146176204 -0.937096417
v -4.400002 0.146176204 -0.937096417
v -4.56000185 1.52276003 1.02886915
v -4.56000185 0.277240038 -1.02886903
v -4.56000185 0.146176204 -0.937096417
v -4.400002 0.146176204 -0.937096417
v -4.56000185 0.277240038 -1.02886903
v -4.400002 0.277240038 -1.02886903
v -4.400002 1.65382397 0.937096357
v -4.56000185 1.52276003 1.02886915
v -4.400002 1.52276003 1.02886915
v -4.56000185 3.1227591 -1.02886891
v -4.400002 1.746176 0.937096477
v -4.56000185 1.746176 0.937096477
v -4.400002 3.1227591 -1.02886891
v -4.400002 1.87724066 1.02886915
v -4.400002 1.746176 0.937096477
v -4.400002 3.25382376 -0.937096477
v -4.56000185 1.87724066 1.02886915
v -4.400002 1.87724066 1.02886915
v -4.56000185 1.87724066 1.02886915
v -4.56000185 3.1227591 -1.02886891
v -4.56000185 1.746176 0.937096477
v -4.400002 1.87724066 1.02886915
v -4.56000185 1.746176 0.937096477
v -4.400002 1.746176 0.937096477
v -4.400002 3.1227591 -1.02886891
v -4.56000185 3.25382376 -0.937096477
v -4.400002 3.25382376 -0.937096477
v -4.56000185 4.75382376 0.937096357
v -4.400002 3.37723994 -1.02886891
v -4.56000185 3.37723994 -1.02886891
v -4.400002 3.37723994 -1.02886891
v -4.400002 4.62275982 1.0288682
v -4.400002 3.246176 -0.937096357
v -4.400002 4.62275982 1.0288682
v -4.56000185 3.246176 -0.937096357
v -4.400002 3.246176 -0.937096357
v -4.56000185 4.62275982 1.0288682
v -4.56000185 3.37723994 -1.02886891
v -4.56000185 3.246176 -0.937096357
v -4.400002 3.246176 -0.937096357
v -4.56000185 3.37723994 -1.02886891
v -4.400002 3.37723994 -1.02886891
v -4.400002 4.75382376 0.937096357
v -4.56000185 4.62275982 1.0288682
v -4.400002 4.62275982 1.0288682
v 4.29999971 5.57999992 1.00000012
v 4.46000004 5.57999992 -0.999999762
v 4.29999971 5.57999992 -0.999999762
v 4.46000004 5.57999992 1.00000012
v 4.46000004 5.42000008 -0.999999762
v 4.46000004 5.57999992 -0.999999762
v 4.46000004 5.42000008 1
v 4.29999971 5.42000008 -0.999999762
v 4.46000004 5.42000008 -0.999999762
v 4.29999971 5.42000008 1
v 4.29999971 5.57999992 -0.999999762
v 4.29999971 5.42000008 -0.999999762
v 4.46000004 5.42000008 -0.999999762
v 4.29999971 5.57999992 -0.999999762
v 4.46000004 5.57999992 -0.999999762
v 4.46000004 5.57999992 1.00000012
v 4.29999971 5.42000008 1
v 4.46000004 5.42000008 1
v 4.29999971 6 -1.06999981
v 4.46000004 4.67711985e-08 -1.07000005
v 4.29999971 4.67711985e-08 -1.07000005
v 4.46000004 6 -1.06999981
v 4.46000004 3.97773725e-08 -0.910000026
v 4.46000004 4.67711985e-08 -1.07000005
v 4.46000004 6 -0.910000086
v 4.29999971 3.97773725e-08 -0.910000026
v 4.46000004 3.97773725e-08 -0.910000026
v 4.29999971 6 -0.910000086
v 4.29999971 4.67711985e-08 -1.07000005
v 4.29999971 3.97773725e-08 -0.910000026
v 4.46000004 3.97773725e-08 -0.910000026
v 4.29999971 4.67711985e-08 -1.07000005
v 4.46000004 4.67711985e-08 -1.07000005
v 4.46000004 6 -1.06999981
v 4.29999971 6 -0.910000086
v 4.46000004 6 -0.910000086
v 4.29999971 6 0.909999967
v 4.46000004 -3.97773725e-08 0.910000026
v 4.29999971 -3.97773725e-08 0.910000026
v 4.46000004 6 0.909999967
v 4.46000004 -4.67711985e-08 1.07000005
v 4.46000004 -3.97773725e-08 0.910000026
v 4.46000004 6 1.07000029
v 4.29999971 -4.67711985e-08 1.07000005
v 4.46000004 -4.67711985e-08 1.07000005
v 4.29999971 6 1.07000029
v 4.29999971 -3.97773725e-08 0.910000026
v 4.29999971 -4.67711985e-08 1.07000005
v 4.46000004 -4.67711985e-08 1.07000005
v 4.29999971 -3.97773725e-08 0.910000026
v 4.46000004 -3.97773725e-08 0.910000026
v 4.46000004 6 0.909999967
v 4.29999971 6 1.07000029
v 4.46000004 6 1.07000029
v 4.29999971 1.65382397 0.937096357
v 4.46000004 0.277240038 -1.02886903
v 4.29999971 0.277240038 -1.02886903
v 4.46000004 0.277240038 -1.02886903
v 4.46000004 1.52276003 1.02886915
v 4.46000004 0.146176204 -0.937096417
v 4.46000004 1.52276003 1.02886915
v 4.29999971 0.146176204 -0.937096417
v 4.46000004 0.146176204 -0.937096417
v 4.29999971 1.52276003 1.02886915
v 4.29999971 0.277240038 -1.02886903
v 4.29999971 0.146176204 -0.937096417
v 4.46000004 0.146176204 -0.937096417
v 4.29999971 0.277240038 -1.02886903
v 4.46000004 0.277240038 -1.02886903
v 4.46000004 1.65382397 0.937096357
v 4.29999971 1.52276003 1.02886915
v 4.46000004 1.52276003 1.02886915
v 4.29999971 3.1227591 -1.02886891
v 4.46000004 1.746176 0.937096477
v 4.29999971 1.746176 0.937096477
v 4.46000004 3.1227591 -1.02886891
v 4.46000004 1.87724066 1.02886915
v 4.46000004 1.746176 0.937096477
v 4.46000004 3.25382376 -0.937096477
v 4.29999971 1.87724066 1.02886915
v 4.46000004 1.87724066 1.02886915
v 4.29999971 1.87724066 1.02886915
v 4.29999971 3.1227591 -1.02886891
v 4.29999971 1.746176 0.937096477
v 4.46000004 1.87724066 1.02886915
v 4.29999971 1.746176 0.937096477
v 4.46000004 1.746176 0.937096477
v 4.46000004 3.1227591 -1.02886891
v 4.29999971 3.25382376 -0.937096477
v 4.46000004 3.25382376 -0.937096477
v 4.29999971 4.75382376 0.937096357
v 4.46000004 3.37723994 -1.02886891
v 4.29999971 3.37723994 -1.02886891
v 4.46000004 3.37723994 -1.02886891
v 4.46000004 4.62275982 1.0288682
v 4.46000004 3.246176 -0.937096357
v 4.46000004 4.62275982 1.0288682
v 4.29999971 3.246176 -0.937096357
v 4.46000004 3.246176 -0.937096357
v 4.29999971 4.62275982 1.0288682
v 4.29999971 3.37723994 -1.02886891
v 4.29999971 3.246176 -0.937096357
v 4.46000004 3.246176 -0.937096357
v 4.29999971 3.37723994 -1.02886891
v 4.46000004 3.37723994 -1.02886891
v 4.46000004 4.75382376 0.937096357
v 4.29999971 4.62275982 1.0288682
v 4.46000004 4.62275982 1.0288682
v -0.179991186 5.57999992 1.00000012
v -0.0199911855 5.57999992 -0.999999762
v -0.179991186 5.57999992 -0.999999762
v -0.0199911855 5.57999992 1.00000012
v -0.0199911855 5.42000008 -0.999999762
v -0.0199911855 5.57999992 -0.999999762
v -0.0199911855 5.42000008 1
v -0.179991186 5.42000008 -0.999999762
v -0.0199911855 5.42000008 -0.999999762
v -0.179991186 5.42000008 1
v -0.179991186 5.57999992 -0.999999762
v -0.179991186 5.42000008 -0.999999762
v -0.0199911855 5.42000008 -0.999999762
v -0.179991186 5.57999992 -0.999999762
v -0.0199911855 5.57999992 -0.999999762
v -0.0199911855 5.57999992 1.00000012
v -0.179991186 5.42000008 1
v -0.0199911855 5.42000008 1
v -0.179991826 6 -1.06999981
v -0.0199917927 4.67711985e-08 -1.07000005
v -0.179991826 4.67711985e-08 -1.07000005
v -0.0199917927 6 -1.06999981
v -0.0199917927 3.97773725e-08 -0.910000026
v -0.0199917927 4.67711985e-08 -1.07000005
v -0.0199917927 6 -0.910000086
v -0.179991826 3.97773725e-08 -0.910000026
v -0.0199917927 3.97773725e-08 -0.910000026
v -0.179991826 6 -0.910000086
v -0.179991826 4.67711985e-08 -1.07000005
v -0.179991826 3.97773725e-08 -0.910000026
v -0.0199917927 3.97773725e-08 -0.910000026
v -0.179991826 4.67711985e-08 -1.07000005
v -0.0199917927 4.67711985e-08 -1.07000005
v -0.0199917927 6 -1.06999981
v -0.179991826 6 -0.910000086
v -0.0199917927 6 -0.910000086
v -0.179991826 6 0.909999967
v -0.0199917927 -3.97773725e-08 0.910000026
v -0.179991826 -3.97773725e-08 0.910000026
v -0.0199917927 6 0.909999967
v -0.0199917927 -4.67711985e-08 1.07000005
v -0.0199917927 -3.97773725e-08 0.910000026
v -0.0199917927 6 1.07000029
v -0.179991826 -4.67711985e-08 1.07000005
v -0.0199917927 -4.67711985e-08 1.07000005
v -0.179991826 6 1.07000029
v -0.179991826 -3.97773725e-08 0.910000026
v -0.179991826 -4.67711985e-08 1.07000005
v -0.0199917927 -4.67711985e-08 1.07000005
v -0.179991826 -3.97773725e-08 0.910000026
v -0.0199917927 -3.97773725e-08 0.910000026
v -0.0199917927 6 0.909999967
v -0.179991826 6 1.07000029
v -0.0199917927 6 1.07000029
v -0.179991826 1.65382397 0.937096357
v -0.0199917927 0.277240038 -1.02886903
v -0.179991826 0.277240038 -1.02886903
v -0.0199917927 0.277240038 -1.02886903
v -0.0199917927 1.52276003 1.02886915
v -0.0199917927 0.146176204 -0.937096417
v -0.0199917927 1.52276003 1.02886915
v -0.179991826 0.146176204 -0.937096417
v -0.0199917927 0.146176204 -0.937096417
v -0.179991826 1.52276003 1.02886915
v -0.179991826 0.277240038 -1.02886903
v -0.179991826 0.146176204 -0.937096417
v -0.0199917927 0.146176204 -0.937096417
v -0.179991826 0.277240038 -1.02886903
v -0.0199917927 0.277240038 -1.02886903
v -0.0199917927 1.65382397 0.937096357
v -0.179991826 1.52276003 1.02886915
v -0.0199917927 1.52276003 1.02886915
v -0.179991826 3.1227591 -1.02886891
v -0.0199917927 1.746176 0.937096477
v -0.179991826 1.746176 0.937096477
v -0.0199917927 3.1227591 -1.02886891
v -0.0199917927 1.87724066 1.02886915
v -0.0199917927 1.746176 0.937096477
v -0.0199917927 3.25382376 -0.937096477
v -0.179991826 1.87724066 1.02886915
v -0.0199917927 1.87724066 1.02886915
v -0.179991826 1.87724066 1.02886915
v -0.179991826 3.1227591 -1.02886891
v -0.179991826 1.746176 0.937096477
v -0.0199917927 1.87724066 1.02886915
v -0.179991826 1.746176 0.937096477
v -0.0199917927 1.746176 0.937096477
v -0.0199917927 3.1227591 -1.02886891
v -0.179991826 3.25382376 -0.937096477
v -0.0199917927 3.25382376 -0.937096477
v -0.179991826 4.75382376 0.937096357
v -0.0199917927 3.37723994 -1.02886891
v -0.179991826 3.37723994 -1.02886891
v -0.0199917927 3.37723994 -1.02886891
v -0.0199917927 4.62275982 1.0288682
v -0.0199917927 3.246176 -0.937096357
v -0.0199917927 4.62275982 1.0288682
v -0.179991826 3.246176 -0.937096357
v -0.0199917927 3.246176 -0.937096357
v -0.179991826 4.62275982 1.0288682
v -0.179991826 3.37723994 -1.02886891
v -0.179991826 3.246176 -0.937096357
v -0.0199917927 3.246176 -0.937096357
v -0.179991826 3.37723994 -1.02886891
v -0.0199917927 3.37723994 -1.02886891
v -0.0199917927 4.75382376 0.937096357
v -0.179991826 4.62275982 1.0288682
v -0.0199917927 4.62275982 1.0288682
v -9.03000069 5.57999992 1.00000012
v -8.87000084 5.57999992 1.00000012
v -8.87000084 5.57999992 -0.999999762
v -8.87000084 5.57999992 1.00000012
v -8.87000084 5.42000008 1
v -8.87000084 5.42000008 -0.999999762
v -8.87000084 5.42000008 1
v -9.03000069 5.42000008 1
v -9.03000069 5.42000008 -0.999999762
v -9.03000069 5.42000008 1
v -9.03000069 5.57999992 1.00000012
v -9.03000069 5.57999992 -0.999999762
v -8.87000084 5.42000008 -0.999999762
v -9.03000069 5.42000008 -0.999999762
v -9.03000069 5.57999992 -0.999999762
v -8.87000084 5.57999992 1.00000012
v -9.03000069 5.57999992 1.00000012
v -9.03000069 5.42000008 1
v -9.03000069 6 -1.06999981
v -8.87000084 6 -1.06999981
v -8.87000084 4.67711985e-08 -1.07000005
v -8.87000084 6 -1.06999981
v -8.87000084 6 -0.910000086
v -8.87000084 3.97773725e-08 -0.910000026
v -8.87000084 6 -0.910000086
v -9.03000069 6 -0.910000086
v -9.03000069 3.97773725e-08 -0.910000026
v -9.03000069 6 -0.910000086
v -9.03000069 6 -1.06999981
v -9.03000069 4.67711985e-08 -1.07000005
v -8.87000084 3.97773725e-08 -0.910000026
v -9.03000069 3.97773725e-08 -0.910000026
v -9.03000069 4.67711985e-08 -1.07000005
v -8.87000084 6 -1.06999981
v -9.03000069 6 -1.06999981
v -9.03000069 6 -0.910000086
v -9.03000069 6 0.909999967
v -8.87000084 6 0.909999967
v -8.87000084 -3.97773725e-08 0.910000026
v -8.87000084 6 0.909999967
v -8.87000084 6 1.07000029
v -8.87000084 -4.67711985e-08 1.07000005
v -8.87000084 6 1.07000029
v -9.03000069 6 1.07000029
v -9.03000069 -4.67711985e-08 1.07000005
v -9.03000069 6 1.07000029
v -9.03000069 6 0.909999967
v -9.03000069 -3.97773725e-08 0.910000026
v -8.87000084 -4.67711985e-08 1.07000005
v -9.03000069 -4.67711985e-08 1.07000005
v -9.03000069 -3.97773725e-08 0.910000026
v -8.87000084 6 0.909999967
v -9.03000069 6 0.909999967
v -9.03000069 6 1.07000029
v -9.03000069 1.65382397 0.937096357
v -8.87000084 1.65382397 0.937096357
v -8.87000084 0.277240038 -1.02886903
v -8.87000084 0.277240038 -1.02886903
v -8.87000084 1.65382397 0.937096357
v -8.87000084 1.52276003 1.02886915
v -8.87000084 1.52276003 1.02886915
v -9.03000069 1.52276003 1.02886915
v -9.03000069 0.146176204 -0.937096417
v -9.03000069 1.52276003 1.02886915
v -9.03000069 1.65382397 0.937096357
v -9.03000069 0.277240038 -1.02886903
v -8.87000084 0.146176204 -0.937096417
v -9.03000069 0.146176204 -0.937096417
v -9.03000069 0.277240038 -1.02886903
v -8.87000084 1.65382397 0.937096357
v -9.03000069 1.65382397 0.937096357
v -9.03000069 1.52276003 1.02886915
v -9.03000069 3.1227591 -1.02886891
v -8.87000084 3.1227591 -1.02886891
v -8.87000084 1.746176 0.937096477
v -8.87000084 3.1227591 -1.02886891
v -8.87000084 3.25382376 -0.937096477
v -8.87000084 1.87724066 1.02886915
v -8.87000084 3.25382376 -0.937096477
v -9.03000069 3.25382376 -0.937096477
v -9.03000069 1.87724066 1.02886915
v -9.03000069 1.87724066 1.02886915
v -9.03000069 3.25382376 -0.937096477
v -9.03000069 3.1227591 -1.02886891
v -8.87000084 1.87724066 1.02886915
v -9.03000069 1.87724066 1.02886915
v -9.03000069 1.746176 0.937096477
v -8.87000084 3.1227591 -1.02886891
v -9.03000069 3.1227591 -1.02886891
v -9.03000069 3.25382376 -0.937096477
v -9.03000069 4.75382376 0.937096357
v -8.87000084 4.75382376 0.937096357
v -8.87000084 3.37723994 -1.02886891
v -8.87000084 3.37723994 -1.02886891
v -8.87000084 4.75382376 0.937096357
v -8.87000084 4.62275982 1.0288682
v -8.87000084 4.62275982 1.0288682
v -9.03000069 4.62275982 1.0288682
v -9.03000069 3.246176 -0.937096357
v -9.03000069 4.62275982 1.0288682
v -9.03000069 4.75382376 0.937096357
v -9.03000069 3.37723994 -1.02886891
v -8.87000084 3.246176 -0.937096357
v -9.03000069 3.246176 -0.937096357
v -9.03000069 3.37723994 -1.02886891
v -8.87000084 4.75382376 0.937096357
v -9.03000069 4.75382376 0.937096357
v -9.03000069 4.62275982 1.0288682
v 8.86999893 5.57999992 1.00000012
v 9.02999878 5.57999992 1.00000012
v 9.02999878 5.57999992 -0.999999762
v 9.02999878 5.57999992 1.00000012
v 9.02999878 5.42000008 1
v 9.02999878 5.42000008 -0.999999762
v 9.02999878 5.42000008 1
v 8.86999893 5.42000008 1
v 8.86999893 5.42000008 -0.999999762
v 8.86999893 5.42000008 1
v 8.86999893 5.57999992 1.00000012
v 8.86999893 5.57999992 -0.999999762
v 9.02999878 5.42000008 -0.999999762
v 8.86999893 5.42000008 -0.999999762
v 8.86999893 5.57999992 -0.999999762
v 9.02999878 5.57999992 1.00000012
v 8.86999893 5.57999992 1.00000012
v 8.86999893 5.42000008 1
v 8.86999893 6 -1.06999981
v 9.02999878 6 -1.06999981
v 9.02999878 4.67711985e-08 -1.07000005
v 9.02999878 6 -1.06999981
v 9.02999878 6 -0.910000086
v 9.02999878 3.97773725e-08 -0.910000026
v 9.02999878 6 -0.910000086
v 8.86999893 6 -0.910000086
v 8.86999893 3.97773725e-08 -0.910000026
v 8.86999893 6 -0.910000086
v 8.86999893 6 -1.06999981
v 8.86999893 4.67711985e-08 -1.07000005
v 9.02999878 3.97773725e-08 -0.910000026
v 8.86999893 3.97773725e-08 -0.910000026
v 8.86999893 4.67711985e-08 -1.07000005
v 9.02999878 6 -1.06999981
v 8.86999893 6 -1.06999981
v 8.86999893 6 -0.910000086
v 8.86999893 6 0.909999967
v 9.02999878 6 0.909999967
v 9.02999878 -3.97773725e-08 0.910000026
v 9.02999878 6 0.909999967
v 9.02999878 6 1.07000029
v 9.02999878 -4.67711985e-08 1.07000005
v 9.02999878 6 1.07000029
v 8.86999893 6 1.07000029
v 8.86999893 -4.67711985e-08 1.07000005
v 8.86999893 6 1.07000029
v 8.86999893 6 0.909999967
v 8.86999893 -3.97773725e-08 0.910000026
v 9.02999878 -4.67711985e-08 1.07000005
v 8.86999893 -4.67711985e-08 1.07000005
v 8.86999893 -3.97773725e-08 0.910000026
v 9.02999878 6 0.909999967
v 8.86999893 6 0.909999967
v 8.86999893 6 1.07000029
v 8.86999893 1.65382397 0.937096357
v 9.02999878 1.65382397 0.937096357
v 9.02999878 0.277240038 -1.02886903
v 9.02999878 0.277240038 -1.02886903
v 9.02999878 1.65382397 0.937096357
v 9.02999878 1.52276003 1.02886915
v 9.02999878 1.52276003 1.02886915
v 8.86999893 1.52276003 1.02886915
v 8.86999893 0.146176204 -0.937096417
v 8.86999893 1.52276003 1.02886915
v 8.86999893 1.65382397 0.937096357
v 8.86999893 0.277240038 -1.02886903
v 9.02999878 0.146176204 -0.937096417
v 8.86999893 0.146176204 -0.937096417
v 8.86999893 0.277240038 -1.02886903
v 9.02999878 1.65382397 0.937096357
v 8.86999893 1.65382397 0.937096357
v 8.86999893 1.52276003 1.02886915
v 8.86999893 3.1227591 -1.02886891
v 9.02999878 3.1227591 -1.02886891
v 9.02999878 1.746176 0.937096477
v 9.02999878 3.1227591 -1.02886891
v 9.02999878 3.25382376 -0.937096477
v 9.02999878 1.87724066 1.02886915
v 9.02999878 3.25382376 -0.937096477
v 8.86999893 3.25382376 -0.937096477
v 8.86999893 1.87724066 1.02886915
v 8.86999893 1.87724066 1.02886915
v 8.86999893 3.25382376 -0.937096477
v 8.86999893 3.1227591 -1.02886891
v 9.02999878 1.87724066 1.02886915
v 8.86999893 1.87724066 1.02886915
v 8.86999893 1.746176 0.937096477
v 9.02999878 3.1227591 -1.02886891
v 8.86999893 3.1227591 -1.02886891
v 8.86999893 3.25382376 -0.937096477
v 8.86999893 4.75382376 0.937096357
v 9.02999878 4.75382376 0.937096357
v 9.02999878 3.37723994 -1.02886891
v 9.02999878 3.37723994 -1.02886891
v 9.02999878 4.75382376 0.937096357
v 9.02999878 4.62275982 1.0288682
v 9.02999878 4.62275982 1.0288682
v 8.86999893 4.62275982 1.0288682
v 8.86999893 3.246176 -0.937096357
v 8.86999893 4.62275982 1.0288682
v 8.86999893 4.75382376 0.937096357
v 8.86999893 3.37723994 -1.02886891
v 9.02999878 3.246176 -0.937096357
v 8.86999893 3.246176 -0.937096357
v 8.86999893 3.37723994 -1.02886891
v 9.02999878 4.75382376 0.937096357
v 8.86999893 4.75382376 0.937096357
v 8.86999893 4.62275982 1.0288682
v -4.5600009 5.57999992 1.00000012
v -4.40000105 5.57999992 1.00000012
v -4.40000105 5.57999992 -0.999999762
v -4.40000105 5.57999992 1.00000012
v -4.40000105 5.42000008 1
v -4.40000105 5.42000008 -0.999999762
v -4.40000105 5.42000008 1
v -4.5600009 5.42000008 1
v -4.5600009 5.42000008 -0.999999762
v -4.5600009 5.42000008 1
v -4.5600009 5.57999992 1.00000012
v -4.5600009 5.57999992 -0.999999762
v -4.40000105 5.42000008 -0.999999762
v -4.5600009 5.42000008 -0.999999762
v -4.5600009 5.57999992 -0.999999762
v -4.40000105 5.57999992 1.00000012
v -4.5600009 5.57999992 1.00000012
v -4.5600009 5.42000008 1
v -4.56000185 6 -1.06999981
v -4.400002 6 -1.06999981
v -4.400002 4.67711985e-08 -1.07000005
v -4.400002 6 -1.06999981
v -4.400002 6 -0.910000086
v -4.400002 3.97773725e-08 -0.910000026
v -4.400002 6 -0.910000086
v -4.56000185 6 -0.910000086
v -4.56000185 3.97773725e-08 -0.910000026
v -4.56000185 6 -0.910000086
v -4.56000185 6 -1.06999981
v -4.56000185 4.67711985e-08 -1.07000005
v -4.400002 3.97773725e-08 -0.910000026
v -4.56000185 3.97773725e-08 -0.910000026
v -4.56000185 4.67711985e-08 -1.07000005
v -4.400002 6 -1.06999981
v -4.56000185 6 -1.06999981
v -4.56000185 6 -0.910000086
v -4.56000185 6 0.909999967
v -4.400002 6 0.909999967
v -4.400002 -3.97773725e-08 0.910000026
v -4.400002 6 0.909999967
v -4.400002 6 1.07000029
v -4.400002 -4.67711985e-08 1.07000005
v -4.400002 6 1.07000029
v -4.56000185 6 1.07000029
v -4.56000185 -4.67711985e-08 1.07000005
v -4.56000185 6 1.07000029
v -4.56000185 6 0.909999967
v -4.56000185 -3.97773725e-08 0.910000026
v -4.400002 -4.67711985e-08 1.07000005
v -4.56000185 -4.67711985e-08 1.07000005
v -4.56000185 -3.97773725e-08 0.910000026
v -4.400002 6 0.909999967
v -4.56000185 6 0.909999967
v -4.56000185 6 1.07000029
v -4.56000185 1.65382397 0.937096357
v -4.400002 1.65382397 0.937096357
v -4.400002 0.277240038 -1.02886903
v -4.400002 0.277240038 -1.02886903
v -4.400002 1.65382397 0.937096357
v -4.400002 1.52276003 1.02886915
v -4.400002 1.52276003 1.02886915
v -4.56000185 1.52276003 1.02886915
v -4.56000185 0.146176204 -0.937096417
v -4.56000185 1.52276003 1.02886915
v -4.56000185 1.65382397 0.937096357
v -4.56000185 0.277240038 -1.02886903
v -4.400002 0.146176204 -0.937096417
v -4.56000185 0.146176204 -0.937096417
v -4.56000185 0.277240038 -1.02886903
v -4.400002 1.65382397 0.937096357
v -4.56000185 1.65382397 0.937096357
v -4.56000185 1.52276003 1.02886915
v -4.56000185 3.1227591 -1.02886891
v -4.400002 3.1227591 -1.02886891
v -4.400002 1.746176 0.937096477
v -4.400002 3.1227591 -1.02886891
v -4.400002 3.25382376 -0.937096477
v -4.400002 1.87724066 1.02886915
v -4.400002 3.25382376 -0.937096477
v -4.56000185 3.25382376 -0.937096477
v -4.56000185 1.87724066 1.02886915
v -4.56000185 1.87724066 1.02886915
v -4.56000185 3.25382376 -0.937096477
v -4.56000185 3.1227591 -1.02886891
v -4.400002 1.87724066 1.02886915
v -4.56000185 1.87724066 1.02886915
v -4.56000185 1.746176 0.937096477
v -4.400002 3.1227591 -1.02886891
v -4.56000185 3.1227591 -1.02886891
v -4.56000185 3.25382376 -0.937096477
v -4.56000185 4.75382376 0.937096357
v -4.400002 4.75382376 0.937096357
v -4.400002 3.37723994 -1.02886891
v -4.400002 3.37723994 -1.02886891
v -4.400002 4.75382376 0.937096357
v -4.400002 4.62275982 1.0288682
v -4.400002 4.62275982 1.0288682
v -4.56000185 4.62275982 1.0288682
v -4.56000185 3.246176 -0.937096357
v -4.56000185 4.62275982 1.0288682
v -4.56000185 4.75382376 0.937096357
v -4.56000185 3.37723994 -1.02886891
v -4.400002 3.246176 -0.937096357
v -4.56000185 3.246176 -0.937096357
v -4.56000185 3.37723994 -1.02886891
v -4.400002 4.75382376 0.937096357
v -4.56000185 4.75382376 0.937096357
v -4.56000185 4.62275982 1.0288682
v 4.29999971 5.57999992 1.00000012
v 4.46000004 5.57999992 1.00000012
v 4.46000004 5.57999992 -0.999999762
v 4.46000004 5.57999992 1.00000012
v 4.46000004 5.42000008 1
v 4.46000004 5.42000008 -0.999999762
v 4.46000004 5.42000008 1
v 4.29999971 5.42000008 1
v 4.29999971 5.42000008 -0.999999762
v 4.29999971 5.42000008 1
v 4.29999971 5.57999992 1.00000012
v 4.29999971 5.57999992 -0.999999762
v 4.46000004 5.42000008 -0.999999762
v 4.29999971 5.42000008 -0.999999762
v 4.29999971 5.57999992 -0.999999762
v 4.46000004 5.57999992 1.00000012
v 4.29999971 5.57999992 1.00000012
v 4.29999971 5.42000008 1
v 4.29999971 6 -1.06999981
v 4.46000004 6 -1.06999981
v 4.46000004 4.67711985e-08 -1.07000005
v 4.46000004 6 -1.06999981
v 4.46000004 6 -0.910000086
v 4.46000004 3.97773725e-08 -0.910000026
v 4.46000004 6 -0.910000086
v 4.29999971 6 -0.910000086
v 4.29999971 3.97773725e-08 -0.910000026
v 4.29999971 6 -0.910000086
v 4.29999971 6 -1.06999981
v 4.29999971 4.67711985e-08 -1.07000005
v 4.46000004 3.97773725e-08 -0.910000026
v 4.29999971 3.97773725e-08 -0.910000026
v 4.29999971 4.67711985e-08 -1.07000005
v 4.46000004 6 -1.06999981
v 4.29999971 6 -1.06999981
v 4.29999971 6 -0.910000086
v 4.29999971 6 0.909999967
v 4.46000004 6 0.909999967
v 4.46000004 -3.97773725e-08 0.910000026
v 4.46000004 6 0.909999967
v 4.46000004 6 1.07000029
v 4.46000004 -4.67711985e-08 1.07000005
v 4.46000004 6 1.07000029
v 4.29999971 6 1.07000029
v 4.29999971 -4.67711985e-08 1.07000005
v 4.29999971 6 1.07000029
v 4.29999971 6 0.909999967
v 4.29999971 -3.97773725e-08 0.910000026
v 4.46000004 -4.67711985e-08 1.07000005
v 4.29999971 -4.67711985e-08 1.07000005
v 4.29999971 -3.97773725e-08 0.910000026
v 4.46000004 6 0.909999967
v 4.29999971 6 0.909999967
v 4.29999971 6 1.07000029
v 4.29999971 1.65382397 0.937096357
v 4.46000004 1.65382397 0.937096357
v 4.46000004 0.277240038 -1.02886903
v 4.46000004 0.277240038 -1.02886903
v 4.46000004 1.65382397 0.937096357
v 4.46000004 1.52276003 1.02886915
v 4.46000004 1.52276003 1.02886915
v 4.29999971 1.52276003 1.02886915
v 4.29999971 0.146176204 -0.937096417
v 4.29999971 1.52276003 1.02886915
v 4.29999971 1.65382397 0.937096357
v 4.29999971 0.277240038 -1.02886903
v 4.46000004 0.146176204 -0.937096417
v 4.29999971 0.146176204 -0.937096417
v 4.29999971 0.277240038 -1.02886903
v 4.46000004 1.65382397 0.937096357
v 4.29999971 1.65382397 0.937096357
v 4.29999971 1.52276003 1.02886915
v 4.29999971 3.1227591 -1.02886891
v 4.46000004 3.1227591 -1.02886891
v 4.46000004 1.746176 0.937096477
v 4.46000004 3.1227591 -1.02886891
v 4.46000004 3.25382376 -0.937096477
v 4.46000004 1.87724066 1.02886915
v 4.46000004 3.25382376 -0.937096477
v 4.29999971 3.25382376 -0.937096477
v 4.29999971 1.87724066 1.02886915
v 4.29999971 1.87724066 1.02886915
v 4.29999971 3.25382376 -0.937096477
v 4.29999971 3.1227591 -1.02886891
v 4.46000004 1.87724066 1.02886915
v 4.29999971 1.87724066 1.02886915
v 4.29999971 1.746176 0.937096477
v 4.46000004 3.1227591 -1.02886891
v 4.29999971 3.1227591 -1.02886891
v 4.29999971 3.25382376 -0.937096477
v 4.29999971 4.75382376 0.937096357
v 4.46000004 4.75382376 0.937096357
v 4.46000004 3.37723994 -1.02886891
v 4.46000004 3.37723994 -1.02886891
v 4.46000004 4.75382376 0.937096357
v 4.46000004 4.62275982 1.0288682
v 4.46000004 4.62275982 1.0288682
v 4.29999971 4.62275982 1.0288682
v 4.29999971 3.246176 -0.937096357
v 4.29999971 4.62275982 1.0288682
v 4.29999971 4.75382376 0.937096357
v 4.29999971 3.37723994 -1.02886891
v 4.46000004 3.246176 -0.937096357
v 4.29999971 3.246176 -0.937096357
v 4.29999971 3.37723994 -1.02886891
v 4.46000004 4.75382376 0.937096357
v 4.29999971 4.75382376 0.937096357
v 4.29999971 4.62275982 1.0288682
v -0.179991186 5.57999992 1.00000012
v -0.0199911855 5.57999992 1.00000012
v -0.0199911855 5.57999992 -0.999999762
v -0.0199911855 5.57999992 1.00000012
v -0.0199911855 5.42000008 1
v -0.0199911855 5.42000008 -0.999999762
v -0.0199911855 5.42000008 1
v -0.179991186 5.42000008 1
v -0.179991186 5.42000008 -0.999999762
v -0.179991186 5.42000008 1
v -0.179991186 5.57999992 1.00000012
v -0.179991186 5.57999992 -0.999999762
v -0.0199911855 5.42000008 -0.999999762
v -0.179991186 5.42000008 -0.999999762
v -0.179991186 5.57999992 -0.999999762
v -0.0199911855 5.57999992 1.00000012
v -0.179991186 5.57999992 1.00000012
v -0.179991186 5.42000008 1
v -0.179991826 6 -1.06999981
v -0.0199917927 6 -1.06999981
v -0.0199917927 4.67711985e-08 -1.07000005
v -0.0199917927 6 -1.06999981
v -0.0199917927 6 -0.910000086
v -0.0199917927 3.97773725e-08 -0.910000026
v -0.0199917927 6 -0.910000086
v -0.179991826 6 -0.910000086
v -0.179991826 3.97773725e-08 -0.910000026
v -0.179991826 6 -0.910000086
v -0.179991826 6 -1.06999981
v -0.179991826 4.67711985e-08 -1.07000005
v -0.0199917927 3.97773725e-08 -0.910000026
v -0.179991826 3.97773725e-08 -0.910000026
v -0.179991826 4.67711985e-08 -1.07000005
v -0.0199917927 6 -1.06999981
v -0.179991826 6 -1.06999981
v -0.179991826 6 -0.910000086
v -0.179991826 6 0.909999967
v -0.0199917927 6 0.909999967
v -0.0199917927 -3.97773725e-08 0.910000026
v -0.0199917927 6 0.909999967
v -0.0199917927 6 1.07000029
v -0.0199917927 -4.67711985e-08 1.07000005
v -0.0199917927 6 1.07000029
v -0.179991826 6 1.07000029
v -0.179991826 -4.67711985e-08 1.07000005
v -0.179991826 6 1.07000029
v -0.179991826 6 0.909999967
v -0.179991826 -3.97773725e-08 0.910000026
v -0.0199917927 -4.67711985e-08 1.07000005
v -0.179991826 -4.67711985e-08 1.07000005
v -0.179991826 -3.97773725e-08 0.910000026
v -0.0199917927 6 0.909999967
v -0.179991826 6 0.909999967
v -0.179991826 6 1.07000029
v -0.179991826 1.65382397 0.937096357
v -0.0199917927 1.65382397 0.937096357
v -0.0199917927 0.277240038 -1.02886903
v -0.0199917927 0.277240038 -1.02886903
v -0.0199917927 1.65382397 0.937096357
v -0.0199917927 1.52276003 1.02886915
v -0.0199917927 1.52276003 1.02886915
v -0.179991826 1.52276003 1.02886915
v -0.179991826 0.146176204 -0.937096417
v -0.179991826 1.52276003 1.02886915
v -0.179991826 1.65382397 0.937096357
v -0.179991826 0.277240038 -1.02886903
v -0.0199917927 0.146176204 -0.937096417
v -0.179991826 0.146176204 -0.937096417
v -0.179991826 0.277240038 -1.02886903
v -0.0199917927 1.65382397 0.937096357
v -0.179991826 1.65382397 0.937096357
v -0.179991826 1.52276003 1.02886915
v -0.179991826 3.1227591 -1.02886891
v -0.0199917927 3.1227591 -1.02886891
v -0.0199917927 1.746176 0.937096477
v -0.0199917927 3.1227591 -1.02886891
v -0.0199917927 3.25382376 -0.937096477
v -0.0199917927 1.87724066 1.02886915
v -0.0199917927 3.25382376 -0.937096477
v -0.179991826 3.25382376 -0.937096477
v -0.179991826 1.87724066 1.02886915
v -0.179991826 1.87724066 1.02886915
v -0.179991826 3.25382376 -0.937096477
v -0.179991826 3.1227591 -1.02886891
v -0.0199917927 1.87724066 1.02886915
v -0.179991826 1.87724066 1.02886915
v -0.179991826 1.746176 0.937096477
v -0.0199917927 3.1227591 -1.02886891
v -0.179991826 3.1227591 -1.02886891
v -0.179991826 3.25382376 -0.937096477
v -0.179991826 4.75382376 0.937096357
v -0.0199917927 4.75382376 0.937096357
v -0.0199917927 3.37723994 -1.02886891
v -0.0199917927 3.37723994 -1.02886891
v -0.0199917927 4.75382376 0.937096357
v -0.0199917927 4.62275982 1.0288682
v -0.0199917927 4.62275982 1.0288682
v -0.179991826 4.62275982 1.0288682
v -0.179991826 3.246176 -0.937096357
v -0.179991826 4.62275982 1.0288682
v -0.179991826 4.75382376 0.937096357
v -0.179991826 3.37723994 -1.02886891
v -0.0199917927 3.246176 -0.937096357
v -0.179991826 3.246176 -0.937096357
v -0.179991826 3.37723994 -1.02886891
v -0.0199917927 4.75382376 0.937096357
v -0.179991826 4.75382376 0.937096357
v -0.179991826 4.62275982 1.0288682
vt 0.625 0 0
vt 0.375 0.25 0
vt 0.375 0 0
vt 0.625 0.25 0
vt 0.375 0.5 0
vt 0.625 0.5 0
vt 0.375 0.75 0
vt 0.625 0.75 0
vt 0.375 1 0
vt 0.125 0.75 0
vt 0.125 0.5 0
vt 0.875 0.5 0
vt 0.625 1 0
vt 0.875 0.75 0
vn 0 0.0799999982 3.49691009e-09
vn 0.0799999982 0 0
vn 0 -0.0799999982 -3.49691009e-09
vn -0.0799999982 0 0
vn 0 4.37113989e-08 -1
vn 0 -4.37113989e-08 1
vn 0 0.0090811234 -0.993536472
vn 0.0799999982 2.22328406e-12 -5.08627963e-05
vn 0 -0.0090811234 0.993536472
vn -0.0799999982 -8.33733798e-13 1.90736009e-05
vn 0 -0.00447429996 -0.998434782
vn 0 0.00447426643 0.998434782
vn 0 -0.00908103585 -0.993536472
vn 0.0799999982 1.38954603e-12 -3.1789099e-05
vn 0 0.00908103585 0.993536472
vn -0.0799999982 -2.22327517e-12 5.08625963e-05
vn 0 -0.00447434932 0.998434782
vn 0 0.00447434932 -0.998434782
vn -0.0799999982 -1.94537138e-12 4.45048972e-05
vn 0 -0.00447425665 -0.998434782
vn -0.0799999982 1.11164203e-12 -2.54313982e-05
vn 0.0799999982 -1.11163758e-12 2.54312981e-05
vn -0.0799999982 2.22327517e-12 -5.08625963e-05
vn 0.0799999982 -2.22328406e-12 5.08627963e-05
vn 0 0.00908109173 -0.993536592
vn 0 -0.00908109173 0.993536592
vn -0.0799999982 -1.38955484e-13 3.17893e-06
vn 0 -0.00447427621 -0.998434901
vn 0.0799999982 -2.7790964e-13 6.35782999e-06
vn 0.0799999982 1.11164203e-12 -2.54313982e-05
vn -0.0799999982 4.16865137e-13 -9.53676044e-06
vn 0 0.00908110756 -0.993536472
vn 0 -0.00908111595 0.993536472
vn -0.0799999982 -2.60541355e-14 5.96049006e-07
vn 0 0.00447427621 0.998434782
vn 0 -0.0090810284 -0.993536472
vn 0 0.0090810284 0.993536472
vn 0 0.00908111595 -0.993536472
vn -0.0799999982 2.60540491e-14 -5.96047016e-07
vn 0 -0.00447426643 -0.998434782
vn 0.0799999982 2.7790964e-13 -6.35782999e-06
vn 0 -0.00447426178 -0.998434782
vn 0 0.00447426178 0.998434782
vn 0.0799999982 -2.22327517e-12 5.08625963e-05
vn -0.0799999982 1.38954603e-12 -3.1789099e-05
vn 0.0799999982 2.22327517e-12 -5.08625963e-05
vn -0.0799999982 -1.11163758e-12 2.54312981e-05
vn 0 -0.00447428087 -0.998434901
vn 0 0.00447428087 0.998434901
vn -0.0799999982 -2.77909206e-13 6.35781998e-06
vn 0.0799999982 -8.33729407e-13 1.90735009e-05
vn -0.0799999982 6.94775184e-14 -1.58946e-06
vn 0 0.00447427155 0.998434901
vn -0.0799999982 8.68466862e-15 -1.98682002e-07
vn 0 -0.00447427155 -0.998434901
f 1/1/1 2/2/1 3/3/1
f 4/4/2 5/5/2 6/2/2
f 7/6/3 8/7/3 9/5/3
f 10/8/4 11/9/4 12/7/4
f 13/5/5 14/10/5 15/11/5
f 16/12/6 17/8/6 18/6/6
f 19/1/5 20/2/5 21/3/5
f 22/4/2 23/5/2 24/2/2
f 25/6/6 26/7/6 27/5/6
f 28/8/4 29/9/4 30/7/4
f 31/5/3 32/10/3 33/11/3
f 34/12/1 35/8/1 36/6/1
f 37/1/5 38/2/5 39/3/5
f 40/4/2 41/5/2 42/2/2
f 43/6/6 44/7/6 45/5/6
f 46/8/4 47/9/4 48/7/4
f 49/5/3 50/10/3 51/11/3
f 52/12/1 53/8/1 54/6/1
f 55/1/7 56/2/7 57/3/7
f 58/2/8 59/6/8 60/5/8
f 61/6/9 62/7/9 63/5/9
f 64/8/10 65/9/10 66/7/10
f 67/5/11 68/10/11 69/11/11
f 70/12/12 71/8/12 72/6/12
f 73/1/13 74/2/13 75/3/13
f 76/4/14 77/5/14 78/2/14
f 79/6/15 80/7/15 81/5/15
f 82/7/16 83/13/16 84/9/16
f 85/5/17 86/10/17 87/11/17
f 88/12/18 89/8/18 90/6/18
f 91/1/7 92/2/7 93/3/7
f 94/2/2 95/6/2 96/5/2
f 97/6/9 98/7/9 99/5/9
f 100/8/19 101/9/19 102/7/19
f 103/5/20 104/10/20 105/11/20
f 106/12/12 107/8/12 108/6/12
f 109/1/1 110/2/1 111/3/1
f 112/4/2 113/5/2 114/2/2
f 115/6/3 116/7/3 117/5/3
f 118/8/4 119/9/4 120/7/4
f 121/5/5 122/10/5 123/11/5
f 124/12/6 125/8/6 126/6/6
f 127/1/5 128/2/5 129/3/5
f 130/4/2 131/5/2 132/2/2
f 133/6/6 134/7/6 135/5/6
f 136/8/4 137/9/4 138/7/4
f 139/5/3 140/10/3 141/11/3
f 142/12/1 143/8/1 144/6/1
f 145/1/5 146/2/5 147/3/5
f 148/4/2 149/5/2 150/2/2
f 151/6/6 152/7/6 153/5/6
f 154/8/4 155/9/4 156/7/4
f 157/5/3 158/10/3 159/11/3
f 160/12/1 161/8/1 162/6/1
f 163/1/7 164/2/7 165/3/7
f 166/2/2 167/6/2 168/5/2
f 169/6/9 170/7/9 171/5/9
f 172/8/21 173/9/21 174/7/21
f 175/5/11 176/10/11 177/11/11
f 178/12/12 179/8/12 180/6/12
f 181/1/13 182/2/13 183/3/13
f 184/4/22 185/5/22 186/2/22
f 187/6/15 188/7/15 189/5/15
f 190/7/23 191/13/23 192/9/23
f 193/5/17 194/10/17 195/11/17
f 196/12/18 197/8/18 198/6/18
f 199/1/7 200/2/7 201/3/7
f 202/2/24 203/6/24 204/5/24
f 205/6/9 206/7/9 207/5/9
f 208/8/4 209/9/4 210/7/4
f 211/5/20 212/10/20 213/11/20
f 214/12/12 215/8/12 216/6/12
f 217/1/1 218/2/1 219/3/1
f 220/4/2 221/5/2 222/2/2
f 223/6/3 224/7/3 225/5/3
f 226/8/4 227/9/4 228/7/4
f 229/5/5 230/10/5 231/11/5
f 232/12/6 233/8/6 234/6/6
f 235/1/5 236/2/5 237/3/5
f 238/4/2 239/5/2 240/2/2
f 241/6/6 242/7/6 243/5/6
f 244/8/4 245/9/4 246/7/4
f 247/5/3 248/10/3 249/11/3
f 250/12/1 251/8/1 252/6/1
f 253/1/5 254/2/5 255/3/5
f 256/4/2 257/5/2 258/2/2
f 259/6/6 260/7/6 261/5/6
f 262/8/4 263/9/4 264/7/4
f 265/5/3 266/10/3 267/11/3
f 268/12/1 269/8/1 270/6/1
f 271/1/25 272/2/25 273/3/25
f 274/2/2 275/6/2 276/5/2
f 277/6/26 278/7/26 279/5/26
f 280/8/27 281/9/27 282/7/27
f 283/5/28 284/10/28 285/11/28
f 286/12/12 287/8/12 288/6/12
f 289/1/13 290/2/13 291/3/13
f 292/4/29 293/5/29 294/2/29
f 295/6/15 296/7/15 297/5/15
f 298/7/4 299/13/4 300/9/4
f 301/5/17 302/10/17 303/11/17
f 304/12/18 305/8/18 306/6/18
f 307/1/7 308/2/7 309/3/7
f 310/2/30 311/6/30 312/5/30
f 313/6/26 314/7/26 315/5/26
f 316/8/31 317/9/31 318/7/31
f 319/5/20 320/10/20 321/11/20
f 322/12/12 323/8/12 324/6/12
f 325/1/1 326/2/1 327/3/1
f 328/4/2 329/5/2 330/2/2
f 331/6/3 332/7/3 333/5/3
f 334/8/4 335/9/4 336/7/4
f 337/5/5 338/10/5 339/11/5
f 340/12/6 341/8/6 342/6/6
f 343/1/5 344/2/5 345/3/5
f 346/4/2 347/5/2 348/2/2
f 349/6/6 350/7/6 351/5/6
f 352/8/4 353/9/4 354/7/4
f 355/5/3 356/10/3 357/11/3
f 358/12/1 359/8/1 360/6/1
f 361/1/5 362/2/5 363/3/5
f 364/4/2 365/5/2 366/2/2
f 367/6/6 368/7/6 369/5/6
f 370/8/4 371/9/4 372/7/4
f 373/5/3 374/10/3 375/11/3
f 376/12/1 377/8/1 378/6/1
f 379/1/25 380/2/25 381/3/25
f 382/2/2 383/6/2 384/5/2
f 385/6/26 386/7/26 387/5/26
f 388/8/4 389/9/4 390/7/4
f 391/5/28 392/10/28 393/11/28
f 394/12/12 395/8/12 396/6/12
f 397/1/13 398/2/13 399/3/13
f 400/4/29 401/5/29 402/2/29
f 403/6/15 404/7/15 405/5/15
f 406/7/4 407/13/4 408/9/4
f 409/5/17 410/10/17 411/11/17
f 412/12/18 413/8/18 414/6/18
f 415/1/7 416/2/7 417/3/7
f 418/2/30 419/6/30 420/5/30
f 421/6/26 422/7/26 423/5/26
f 424/8/31 425/9/31 426/7/31
f 427/5/20 428/10/20 429/11/20
f 430/12/12 431/8/12 432/6/12
f 433/1/1 434/2/1 435/3/1
f 436/4/2 437/5/2 438/2/2
f 439/6/3 440/7/3 441/5/3
f 442/8/4 443/9/4 444/7/4
f 445/5/5 446/10/5 447/11/5
f 448/12/6 449/8/6 450/6/6
f 451/1/5 452/2/5 453/3/5
f 454/4/2 455/5/2 456/2/2
f 457/6/6 458/7/6 459/5/6
f 460/8/4 461/9/4 462/7/4
f 463/5/3 464/10/3 465/11/3
f 466/12/1 467/8/1 468/6/1
f 469/1/5 470/2/5 471/3/5
f 472/4/2 473/5/2 474/2/2
f 475/6/6 476/7/6 477/5/6
f 478/8/4 479/9/4 480/7/4
f 481/5/3 482/10/3 483/11/3
f 484/12/1 485/8/1 486/6/1
f 487/1/32 488/2/32 489/3/32
f 490/2/2 491/6/2 492/5/2
f 493/6/33 494/7/33 495/5/33
f 496/8/34 497/9/34 498/7/34
f 499/5/28 500/10/28 501/11/28
f 502/12/35 503/8/35 504/6/35
f 505/1/36 506/2/36 507/3/36
f 508/4/2 509/5/2 510/2/2
f 511/6/37 512/7/37 513/5/37
f 514/7/4 515/13/4 516/9/4
f 517/5/17 518/10/17 519/11/17
f 520/12/18 521/8/18 522/6/18
f 523/1/38 524/2/38 525/3/38
f 526/2/2 527/6/2 528/5/2
f 529/6/33 530/7/33 531/5/33
f 532/8/39 533/9/39 534/7/39
f 535/5/40 536/10/40 537/11/40
f 538/12/35 539/8/35 540/6/35
f 541/1/1 542/4/1 543/2/1
f 544/4/2 545/6/2 546/5/2
f 547/6/3 548/8/3 549/7/3
f 550/8/4 551/13/4 552/9/4
f 553/5/5 554/7/5 555/10/5
f 556/12/6 557/14/6 558/8/6
f 559/1/5 560/4/5 561/2/5
f 562/4/2 563/6/2 564/5/2
f 565/6/6 566/8/6 567/7/6
f 568/8/4 569/13/4 570/9/4
f 571/5/3 572/7/3 573/10/3
f 574/12/1 575/14/1 576/8/1
f 577/1/5 578/4/5 579/2/5
f 580/4/2 581/6/2 582/5/2
f 583/6/6 584/8/6 585/7/6
f 586/8/4 587/13/4 588/9/4
f 589/5/3 590/7/3 591/10/3
f 592/12/1 593/14/1 594/8/1
f 595/1/7 596/4/7 597/2/7
f 598/2/41 599/4/41 600/6/41
f 601/6/9 602/8/9 603/7/9
f 604/8/4 605/13/4 606/9/4
f 607/5/42 608/7/42 609/10/42
f 610/12/43 611/14/43 612/8/43
f 613/1/13 614/4/13 615/2/13
f 616/4/44 617/6/44 618/5/44
f 619/6/15 620/8/15 621/7/15
f 622/7/45 623/8/45 624/13/45
f 625/5/17 626/7/17 627/10/17
f 628/12/18 629/14/18 630/8/18
f 631/1/7 632/4/7 633/2/7
f 634/2/41 635/4/41 636/6/41
f 637/6/9 638/8/9 639/7/9
f 640/8/23 641/13/23 642/9/23
f 643/5/42 644/7/42 645/10/42
f 646/12/43 647/14/43 648/8/43
f 649/1/1 650/4/1 651/2/1
f 652/4/2 653/6/2 654/5/2
f 655/6/3 656/8/3 657/7/3
f 658/8/4 659/13/4 660/9/4
f 661/5/5 662/7/5 663/10/5
f 664/12/6 665/14/6 666/8/6
f 667/1/5 668/4/5 669/2/5
f 670/4/2 671/6/2 672/5/2
f 673/6/6 674/8/6 675/7/6
f 676/8/4 677/13/4 678/9/4
f 679/5/3 680/7/3 681/10/3
f 682/12/1 683/14/1 684/8/1
f 685/1/5 686/4/5 687/2/5
f 688/4/2 689/6/2 690/5/2
f 691/6/6 692/8/6 693/7/6
f 694/8/4 695/13/4 696/9/4
f 697/5/3 698/7/3 699/10/3
f 700/12/1 701/14/1 702/8/1
f 703/1/7 704/4/7 705/2/7
f 706/2/2 707/4/2 708/6/2
f 709/6/9 710/8/9 711/7/9
f 712/8/4 713/13/4 714/9/4
f 715/5/42 716/7/42 717/10/42
f 718/12/43 719/14/43 720/8/43
f 721/1/13 722/4/13 723/2/13
f 724/4/46 725/6/46 726/5/46
f 727/6/15 728/8/15 729/7/15
f 730/7/47 731/8/47 732/13/47
f 733/5/17 734/7/17 735/10/17
f 736/12/18 737/14/18 738/8/18
f 739/1/7 740/4/7 741/2/7
f 742/2/46 743/4/46 744/6/46
f 745/6/9 746/8/9 747/7/9
f 748/8/4 749/13/4 750/9/4
f 751/5/42 752/7/42 753/10/42
f 754/12/43 755/14/43 756/8/43
f 757/1/1 758/4/1 759/2/1
f 760/4/2 761/6/2 762/5/2
f 763/6/3 764/8/3 765/7/3
f 766/8/4 767/13/4 768/9/4
f 769/5/5 770/7/5 771/10/5
f 772/12/6 773/14/6 774/8/6
f 775/1/5 776/4/5 777/2/5
f 778/4/2 779/6/2 780/5/2
f 781/6/6 782/8/6 783/7/6
f 784/8/4 785/13/4 786/9/4
f 787/5/3 788/7/3 789/10/3
f 790/12/1 791/14/1 792/8/1
f 793/1/5 794/4/5 795/2/5
f 796/4/2 797/6/2 798/5/2
f 799/6/6 800/8/6 801/7/6
f 802/8/4 803/13/4 804/9/4
f 805/5/3 806/7/3 807/10/3
f 808/12/1 809/14/1 810/8/1
f 811/1/7 812/4/7 813/2/7
f 814/2/41 815/4/41 816/6/41
f 817/6/9 818/8/9 819/7/9
f 820/8/4 821/13/4 822/9/4
f 823/5/48 824/7/48 825/10/48
f 826/12/49 827/14/49 828/8/49
f 829/1/13 830/4/13 831/2/13
f 832/4/2 833/6/2 834/5/2
f 835/6/15 836/8/15 837/7/15
f 838/7/50 839/8/50 840/13/50
f 841/5/17 842/7/17 843/10/17
f 844/12/18 845/14/18 846/8/18
f 847/1/25 848/4/25 849/2/25
f 850/2/51 851/4/51 852/6/51
f 853/6/9 854/8/9 855/7/9
f 856/8/4 857/13/4 858/9/4
f 859/5/48 860/7/48 861/10/48
f 862/12/49 863/14/49 864/8/49
f 865/1/1 866/4/1 867/2/1
f 868/4/2 869/6/2 870/5/2
f 871/6/3 872/8/3 873/7/3
f 874/8/4 875/13/4 876/9/4
f 877/5/5 878/7/5 879/10/5
f 880/12/6 881/14/6 882/8/6
f 883/1/5 884/4/5 885/2/5
f 886/4/2 887/6/2 888/5/2
f 889/6/6 890/8/6 891/7/6
f 892/8/4 893/13/4 894/9/4
f 895/5/3 896/7/3 897/10/3
f 898/12/1 899/14/1 900/8/1
f 901/1/5 902/4/5 903/2/5
f 904/4/2 905/6/2 906/5/2
f 907/6/6 908/8/6 909/7/6
f 910/8/4 911/13/4 912/9/4
f 913/5/3 914/7/3 915/10/3
f 916/12/1 917/14/1 918/8/1
f 919/1/7 920/4/7 921/2/7
f 922/2/41 923/4/41 924/6/41
f 925/6/9 926/8/9 927/7/9
f 928/8/4 929/13/4 930/9/4
f 931/5/48 932/7/48 933/10/48
f 934/12/49 935/14/49 936/8/49
f 937/1/13 938/4/13 939/2/13
f 940/4/2 941/6/2 942/5/2
f 943/6/15 944/8/15 945/7/15
f 946/7/50 947/8/50 948/13/50
f 949/5/17 950/7/17 951/10/17
f 952/12/18 953/14/18 954/8/18
f 955/1/25 956/4/25 957/2/25
f 958/2/51 959/4/51 960/6/51
f 961/6/9 962/8/9 963/7/9
f 964/8/4 965/13/4 966/9/4
f 967/5/48 968/7/48 969/10/48
f 970/12/49 971/14/49 972/8/49
f 973/1/1 974/4/1 975/2/1
f 976/4/2 977/6/2 978/5/2
f 979/6/3 980/8/3 981/7/3
f 982/8/4 983/13/4 984/9/4
f 985/5/5 986/7/5 987/10/5
f 988/12/6 989/14/6 990/8/6
f 991/1/5 992/4/5 993/2/5
f 994/4/2 995/6/2 996/5/2
f 997/6/6 998/8/6 999/7/6
f 1000/8/4 1001/13/4 1002/9/4
f 1003/5/3 1004/7/3 1005/10/3
f 1006/12/1 1007/14/1 1008/8/1
f 1009/1/5 1010/4/5 1011/2/5
f 1012/4/2 1013/6/2 1014/5/2
f 1015/6/6 1016/8/6 1017/7/6
f 1018/8/4 1019/13/4 1020/9/4
f 1021/5/3 1022/7/3 1023/10/3
f 1024/12/1 1025/14/1 1026/8/1
f 1027/1/32 1028/4/32 1029/2/32
f 1030/2/2 1031/4/2 1032/6/2
f 1033/6/33 1034/8/33 1035/7/33
f 1036/8/52 1037/13/52 1038/9/52
f 1039/5/48 1040/7/48 1041/10/48
f 1042/12/53 1043/14/53 1044/8/53
f 1045/1/36 1046/4/36 1047/2/36
f 1048/4/2 1049/6/2 1050/5/2
f 1051/6/37 1052/8/37 1053/7/37
f 1054/7/54 1055/8/54 1056/13/54
f 1057/5/17 1058/7/17 1059/10/17
f 1060/12/18 1061/14/18 1062/8/18
f 1063/1/38 1064/4/38 1065/2/38
f 1066/2/2 1067/4/2 1068/6/2
f 1069/6/33 1070/8/33 1071/7/33
f 1072/8/4 1073/13/4 1074/9/4
f 1075/5/55 1076/7/55 1077/10/55
f 1078/12/53 1079/14/53 1080/8/53
