# MuJoCo material-split OBJ
v 1.511392 5.42624378 0.287505299
v 2.32611108 4.81254482 0.287505299
v 1.511392 4.81254482 0.287505299
v 2.32611108 5.42624378 0.287505299
v 2.32611108 4.81254482 0.935031295
v 2.32611108 4.81254482 0.287505299
v 2.32611108 5.42624378 0.935031295
v 1.511392 4.81254482 0.935031295
v 2.32611108 4.81254482 0.935031295
v 1.511392 5.42624378 0.935031295
v 1.511392 4.81254482 0.287505299
v 1.511392 4.81254482 0.935031295
v 2.32611108 4.81254482 0.935031295
v 1.511392 4.81254482 0.287505299
v 2.32611108 4.81254482 0.287505299
v 2.32611108 5.42624378 0.287505299
v 1.511392 5.42624378 0.935031295
v 2.32611108 5.42624378 0.935031295
v 1.511392 5.42624378 0.287505299
v 2.32611108 5.42624378 0.287505299
v 2.32611108 4.81254482 0.287505299
v 2.32611108 5.42624378 0.287505299
v 2.32611108 5.42624378 0.935031295
v 2.32611108 4.81254482 0.935031295
v 2.32611108 5.42624378 0.935031295
v 1.511392 5.42624378 0.935031295
v 1.511392 4.81254482 0.935031295
v 1.511392 5.42624378 0.935031295
v 1.511392 5.42624378 0.287505299
v 1.511392 4.81254482 0.287505299
v 2.32611108 4.81254482 0.935031295
v 1.511392 4.81254482 0.935031295
v 1.511392 4.81254482 0.287505299
v 2.32611108 5.42624378 0.287505299
v 1.511392 5.42624378 0.287505299
v 1.511392 5.42624378 0.935031295
vt 0.625 0 0
vt 0.375 0.25 0
vt 0.375 0 0
vt 0.625 0.25 0
vt 0.375 0.5 0
vt 0.625 0.5 0
vt 0.375 0.75 0
vt 0.625 0.75 0
vt 0.375 1 0
vt 0.125 0.75 0
vt 0.125 0.5 0
vt 0.875000119 0.5 0
vt 0.625 1 0
vt 0.875000119 0.75 0
vn 0 0 -1
vn 1 0 0
vn 0 0 1
vn -1 0 0
vn 0 -1 0
vn 0 1 0
f 1/1/1 2/2/1 3/3/1
f 4/4/2 5/5/2 6/2/2
f 7/6/3 8/7/3 9/5/3
f 10/8/4 11/9/4 12/7/4
f 13/5/5 14/10/5 15/11/5
f 16/12/6 17/8/6 18/6/6
f 19/1/1 20/4/1 21/2/1
f 22/4/2 23/6/2 24/5/2
f 25/6/3 26/8/3 27/7/3
f 28/8/4 29/13/4 30/9/4
f 31/5/5 32/7/5 33/10/5
f 34/12/6 35/14/6 36/8/6
