# MuJoCo material-split OBJ
v 0.224720 -0.007311 1.218170
v 0.349367 -0.007311 1.316686
v 0.345196 -0.004439 1.313389
v 0.228891 -0.004439 1.221467
v 0.349368 -0.040317 1.316686
v 0.224720 -0.040317 1.218170
v 0.224720 -0.073322 1.218170
v 0.228891 -0.076195 1.221467
v 0.345196 -0.076195 1.313389
v 0.349368 -0.073322 1.316686
v 0.231532 -0.009728 1.215417
v 0.235398 -0.007066 1.218472
v 0.345506 -0.007066 1.305496
v 0.349372 -0.009728 1.308552
v 0.349372 -0.040317 1.308552
v 0.231532 -0.040317 1.215417
v 0.231532 -0.070906 1.215417
v 0.349372 -0.070906 1.308552
v 0.345506 -0.073568 1.305496
v 0.235398 -0.073568 1.218472
v 0.347175 -0.004439 1.310884
v 0.230870 -0.004439 1.218963
v 0.226699 -0.040317 1.215666
v 0.226699 -0.007311 1.215666
v 0.351347 -0.007311 1.314181
v 0.351347 -0.040317 1.314181
v 0.230871 -0.076195 1.218963
v 0.347175 -0.076195 1.310884
v 0.226699 -0.073322 1.215666
v 0.351347 -0.073322 1.314181
vt 0.043867 0.018675
vt 0.043869 0.994921
vt 0.024409 0.962249
vt 0.024409 0.051344
vt 0.267466 0.994921
vt 0.267464 0.018675
vt 0.491060 0.018674
vt 0.510520 0.051346
vt 0.510520 0.962252
vt 0.491062 0.994920
vt 0.929343 0.060159
vt 0.944552 0.088331
vt 0.945054 0.802003
vt 0.929342 0.831166
vt 0.753007 0.831166
vt 0.753007 0.060158
vt 0.576672 0.060158
vt 0.576671 0.831166
vt 0.560960 0.802004
vt 0.561461 0.088332
vt 0.983234 0.069030
vt 0.985885 0.828814
vt 0.968129 0.825989
vt 0.966556 0.071624
vt 0.753007 0.035317
vt 0.753007 0.018932
vt 0.943273 0.018932
vt 0.943273 0.035317
vt 0.943273 0.861789
vt 0.943273 0.878174
vt 0.753007 0.878174
vt 0.753007 0.861788
vt 0.955905 0.039219
vt 0.974292 0.034033
vt 0.977064 0.864578
vt 0.958707 0.860051
vt 0.522777 0.069031
vt 0.539457 0.071625
vt 0.537886 0.825990
vt 0.520132 0.828814
vt 0.562741 0.035317
vt 0.562741 0.018932
vt 0.562740 0.861788
vt 0.562740 0.878174
vt 0.550108 0.039217
vt 0.531720 0.034031
vt 0.528952 0.864576
vt 0.547307 0.860049
vn -0.6201 0.0000 0.7845
vn -0.6201 0.0001 0.7845
vn 0.6201 -0.0002 -0.7845
vn 0.6201 0.0000 -0.7845
vn 0.6201 0.0002 -0.7845
vn -0.5519 0.7318 0.3998
vn -0.2615 0.7318 0.6293
vn 0.4520 0.8764 -0.1661
vn 0.0419 0.8897 -0.4545
vn -0.4589 0.0000 -0.8885
vn -0.9932 -0.0000 0.1163
vn -0.9120 0.4067 0.0541
vn -0.3669 0.4714 -0.8020
vn 0.8802 0.4557 0.1330
vn 0.1581 0.4066 0.8998
vn 0.1163 -0.0000 0.9932
vn 0.9863 -0.0000 0.1652
vn -0.5520 -0.7318 0.3998
vn 0.0419 -0.8897 -0.4546
vn 0.4521 -0.8764 -0.1661
vn -0.2615 -0.7318 0.6293
vn -0.3669 -0.4714 -0.8020
vn -0.9120 -0.4067 0.0541
vn 0.8802 -0.4556 0.1329
vn 0.1580 -0.4067 0.8998
vn 0.5036 0.4340 -0.7470
vn 0.6008 0.4298 -0.6741
vn 0.2956 0.1975 -0.9347
vn 0.3038 0.0000 -0.9527
vn 0.8141 -0.0000 -0.5807
vn 0.8045 0.1850 -0.5644
vn 0.5036 -0.4340 -0.7470
vn 0.6007 -0.4298 -0.6741
vn 0.2956 -0.1975 -0.9347
vn 0.8045 -0.1850 -0.5644
f 1/1/1 2/2/1 3/3/1
f 1/1/1 3/3/1 4/4/1
f 5/5/1 2/2/1 1/1/1
f 5/5/1 1/1/1 6/6/1
f 7/7/2 8/8/2 9/9/2
f 7/7/2 9/9/2 10/10/2
f 5/5/1 6/6/1 7/7/1
f 5/5/1 7/7/1 10/10/1
f 11/11/3 12/12/3 13/13/3
f 11/11/3 13/13/3 14/14/3
f 15/15/4 16/16/4 11/11/4
f 15/15/4 11/11/4 14/14/4
f 17/17/5 18/18/5 19/19/5
f 17/17/5 19/19/5 20/20/5
f 15/15/4 18/18/4 17/17/4
f 15/15/4 17/17/4 16/16/4
f 4/21/6 3/22/7 21/23/8
f 4/21/6 21/23/8 22/24/9
f 23/25/10 6/26/11 1/27/12
f 23/25/10 1/27/12 24/28/13
f 25/29/14 2/30/15 5/31/16
f 25/29/14 5/31/16 26/32/17
f 24/33/13 1/34/12 4/21/6
f 24/33/13 4/21/6 22/24/9
f 2/35/15 25/36/14 21/23/8
f 2/35/15 21/23/8 3/22/7
f 8/37/18 27/38/19 28/39/20
f 8/37/18 28/39/20 9/40/21
f 23/25/10 29/41/22 7/42/23
f 23/25/10 7/42/23 6/26/11
f 30/43/24 26/32/17 5/31/16
f 30/43/24 5/31/16 10/44/25
f 29/45/22 27/38/19 8/37/18
f 29/45/22 8/37/18 7/46/23
f 10/47/25 9/40/21 28/39/20
f 10/47/25 28/39/20 30/48/24
f 12/12/26 22/24/9 21/23/8
f 12/12/26 21/23/8 13/13/27
f 23/25/10 24/28/13 11/11/28
f 23/25/10 11/11/28 16/16/29
f 25/29/14 26/32/17 15/15/30
f 25/29/14 15/15/30 14/14/31
f 24/33/13 22/24/9 12/12/26
f 24/33/13 12/12/26 11/11/28
f 14/14/31 13/13/27 21/23/8
f 14/14/31 21/23/8 25/36/14
f 20/20/32 19/19/33 28/39/20
f 20/20/32 28/39/20 27/38/19
f 23/25/10 16/16/29 17/17/34
f 23/25/10 17/17/34 29/41/22
f 30/43/24 18/18/35 15/15/30
f 30/43/24 15/15/30 26/32/17
f 29/45/22 17/17/34 20/20/32
f 29/45/22 20/20/32 27/38/19
f 18/18/35 30/48/24 28/39/20
f 18/18/35 28/39/20 19/19/33
