# MuJoCo material-split OBJ
v -0.198518306 0 0.198518306
v -0.198518306 0 0
v 0 0 0
v 0 0 0.198518306
v -0.198518306 0.397036731 0.198518306
v 0 0.397036731 0.198518306
v 0 0.397036731 0
v -0.198518306 0.397036731 0
v -0.198518306 0 0.198518306
v 0 0 0.198518306
v 0 0.397036731 0.198518306
v -0.198518306 0.397036731 0.198518306
v -0.198518306 0 0
v -0.198518306 0 0.198518306
v -0.198518306 0.397036731 0.198518306
v -0.198518306 0.397036731 0
v 0.198518306 0 0.198518306
v 0 0 0.198518306
v 0 0 0
v 0.198518306 0 0
v 0.198518306 0.397036731 0.198518306
v 0.198518306 0.397036731 0
v 0 0.397036731 0
v 0 0.397036731 0.198518306
v 0.198518306 0 0.198518306
v 0.198518306 0.397036731 0.198518306
v 0 0.397036731 0.198518306
v 0 0 0.198518306
v 0.198518306 0 0
v 0.198518306 0.397036731 0
v 0.198518306 0.397036731 0.198518306
v 0.198518306 0 0.198518306
v -0.198518306 0 -0.198518306
v 0 0 -0.198518306
v 0 0 0
v -0.198518306 0 0
v -0.198518306 0.397036731 -0.198518306
v -0.198518306 0.397036731 0
v 0 0.397036731 0
v 0 0.397036731 -0.198518306
v -0.198518306 0 -0.198518306
v -0.198518306 0.397036731 -0.198518306
v 0 0.397036731 -0.198518306
v 0 0 -0.198518306
v -0.198518306 0 0
v -0.198518306 0.397036731 0
v -0.198518306 0.397036731 -0.198518306
v -0.198518306 0 -0.198518306
v 0.198518306 0 -0.198518306
v 0.198518306 0 0
v 0 0 0
v 0 0 -0.198518306
v 0.198518306 0.397036731 -0.198518306
v 0 0.397036731 -0.198518306
v 0 0.397036731 0
v 0.198518306 0.397036731 0
v 0.198518306 0 -0.198518306
v 0 0 -0.198518306
v 0 0.397036731 -0.198518306
v 0.198518306 0.397036731 -0.198518306
v 0.198518306 0 0
v 0.198518306 0 -0.198518306
v 0.198518306 0.397036731 -0.198518306
v 0.198518306 0.397036731 0
vt 0.589893818 0.00200000196 0
vt 0.871072292 0.00200000196 0
vt 0.871072292 0.28317821 0
vt 0.589893818 0.28317821 0
vt 0.564356923 0.319731414 0
vt 0.8455351 0.319731295 0
vt 0.845535278 0.60090971 0
vt 0.564356923 0.600909829 0
vt 0.00200008508 0.319731414 0
vt 0.00200000009 0.0385531187 0
vt 0.564356685 0.0385529101 0
vt 0.00200008508 0.600909829 0
vn 0 -0.00100000005 0
vn 0 0.00100000005 0
vn 0 0 0.00100000005
vn -0.00100000005 0 0
vn 0.00100000005 0 0
vn 0 0 -0.00100000005
f 1/1/1 2/2/1 3/3/1
f 1/1/1 3/3/1 4/4/1
f 5/5/2 6/6/2 7/7/2
f 5/5/2 7/7/2 8/8/2
f 9/9/3 10/10/3 11/11/3
f 9/9/3 11/11/3 12/5/3
f 13/12/4 14/9/4 15/5/4
f 13/12/4 15/5/4 16/8/4
f 17/1/1 18/4/1 19/3/1
f 17/1/1 19/3/1 20/2/1
f 21/5/2 22/8/2 23/7/2
f 21/5/2 23/7/2 24/6/2
f 25/9/3 26/5/3 27/11/3
f 25/9/3 27/11/3 28/10/3
f 29/12/5 30/8/5 31/5/5
f 29/12/5 31/5/5 32/9/5
f 33/1/1 34/4/1 35/3/1
f 33/1/1 35/3/1 36/2/1
f 37/5/2 38/8/2 39/7/2
f 37/5/2 39/7/2 40/6/2
f 41/9/6 42/5/6 43/11/6
f 41/9/6 43/11/6 44/10/6
f 45/12/4 46/8/4 47/5/4
f 45/12/4 47/5/4 48/9/4
f 49/1/1 50/2/1 51/3/1
f 49/1/1 51/3/1 52/4/1
f 53/5/2 54/6/2 55/7/2
f 53/5/2 55/7/2 56/8/2
f 57/9/6 58/10/6 59/11/6
f 57/9/6 59/11/6 60/5/6
f 61/12/5 62/9/5 63/5/5
f 61/12/5 63/5/5 64/8/5
