# File produced by Open Asset Import Library (http://www.assimp.sf.net)
# (assimp v6.0.0)

mtllib jersey_barrier.mtl

# 1296 vertex positions
v 2.00276804 1.13134038 -0.15315412
v 0 1.13134038 -0.153154209
v 0 1.14300001 -0.140716001
v 0 1.14300001 -0.140716001
v 2.00276804 1.14300001 -0.140715927
v 2.00276804 1.13134038 -0.15315412
v 2.03278375 0.341859609 -0.174206764
v 2.00276804 0.341859609 -0.204221949
v 2.00276804 1.13134038 -0.15315412
v 2.00276804 1.13134038 -0.15315412
v 2.03278375 1.11315751 -0.129812613
v 2.03278375 0.341859609 -0.174206764
v 2.00276804 1.14300001 -0.140715927
v 2.03278375 1.12714577 -0.124343485
v 2.03278375 1.11315751 -0.129812613
v 2.03278375 1.11315751 -0.129812613
v 2.00276804 1.13134038 -0.15315412
v 2.00276804 1.14300001 -0.140715927
v 2.03278375 0.321045071 -0.182220817
v 2.00276804 0.321045071 -0.212236002
v 2.00276804 0.341859609 -0.204221949
v 2.00276804 0.341859609 -0.204221949
v 2.03278375 0.341859609 -0.174206764
v 2.03278375 0.321045071 -0.182220817
v 2.00276804 0.321045071 -0.212236002
v 0 0.321045071 -0.212236077
v 0 0.341934294 -0.204217181
v 0 0.341934294 -0.204217181
v 2.00276804 0.341859609 -0.204221949
v 2.00276804 0.321045071 -0.212236002
v 2.00276804 0.321045071 -0.212236002
v 2.03278375 0.321045071 -0.182220817
v 2.03278375 0.0972012803 -0.359730542
v 2.03278375 0.0972012803 -0.359730542
v 2.00276804 0.0972012803 -0.389745742
v 2.00276804 0.321045071 -0.212236002
v 1.96761203 0.0645160004 -0.406399995
v 0 0.0645160004 -0.406399995
v 0 0.0853548199 -0.399140179
v 0 0.0853548199 -0.399140179
v 1.96761203 0.0853548199 -0.399140179
v 1.96761203 0.0645160004 -0.406399995
v 2.03278375 1.12714577 -0.124343485
v 2.00276804 1.14300001 -0.140715927
v 2.00265193 1.14300001 -0.0458117425
v 2.00265193 1.14300001 -0.0458117425
v 2.03278375 1.12714577 -0.0606984012
v 2.03278375 1.12714577 -0.124343485
v 2.00253582 0.0972012207 -0.0459036157
v 2.03278375 0.0972012207 -0.0606985576
v 2.03278375 1.12714577 -0.0606984012
v 2.03278375 1.12714577 -0.0606984012
v 2.00265193 1.14300001 -0.0458117425
v 2.00253582 0.0972012207 -0.0459036157
v 2.00265193 1.14300001 -0.0458117425
v 2.00253582 1.14300001 0
v 2.00253582 0.0972011983 0
v 2.00253582 0.0972011983 0
v 2.00253582 0.0972012207 -0.0459036157
v 2.00265193 1.14300001 -0.0458117425
v 0.673014939 0 -0.406399995
v 1.96761203 0 -0.406399995
v 1.96761203 0 0
v 1.96761203 0 0
v 0.673014939 0 0
v 0.673014939 0 -0.406399995
v 0.510117054 0 -0.406399995
v 0.510117054 0.0525308028 -0.406399995
v 0.510117054 0.0525307544 0
v 0.510117054 0.0525307544 0
v 0.510117054 0 0
v 0.510117054 0 -0.406399995
v 0.510117054 0.0525308028 -0.406399995
v 0.673014939 0.0525308028 -0.406399995
v 0.673014939 0.0525307544 0
v 0.673014939 0.0525307544 0
v 0.510117054 0.0525307544 0
v 0.510117054 0.0525308028 -0.406399995
v 0.624691904 0.901992917 -0.167989597
v 0.624691904 0.901992917 0
v 0.620253742 0.918555915 0
v 0.620253742 0.918555915 0
v 0.620253742 0.918555915 -0.166918203
v 0.624691904 0.901992917 -0.167989597
v 0.620253742 0.918555915 -0.166918203
v 0.620253742 0.918555915 0
v 0.608129084 0.930680573 0
v 0.608129084 0.930680573 0
v 0.608129084 0.930680573 -0.16613391
v 0.620253742 0.918555915 -0.166918203
v 0.575003147 0.873305142 -0.169845268
v 0.575003147 0.873305142 0
v 0.591566026 0.86886692 0
v 0.591566026 0.86886692 0
v 0.591566026 0.86886692 -0.170132339
v 0.575003147 0.873305142 -0.169845268
v 0.591566026 0.86886692 -0.170132339
v 0.591566026 0.86886692 0
v 0.608129084 0.873305142 0
v 0.608129084 0.873305142 0
v 0.608129084 0.873305142 -0.169845268
v 0.591566026 0.86886692 -0.170132339
v 0.608129084 0.873305142 -0.169845268
v 0.608129084 0.873305142 0
v 0.620253742 0.885430038 0
v 0.620253742 0.885430038 0
v 0.620253742 0.885430038 -0.169060975
v 0.608129084 0.873305142 -0.169845268
v 0 0.341934294 -0.204217181
v 0.575003147 0.873305142 -0.169845268
v 0.591566026 0.86886692 -0.170132339
v 0.591566026 0.86886692 -0.170132339
v 3.37091e-09 0.341963261 -0.204215318
v 0 0.341934294 -0.204217181
v 1.96761203 0 -0.406399995
v 1.96761203 0.0645160004 -0.406399995
v 1.96761203 0.0645160004 0
v 1.96761203 0.0645160004 0
v 1.96761203 0 0
v 1.96761203 0 -0.406399995
v 2.03278375 0.0972012207 -0.0606985576
v 2.03278375 0.0972012803 -0.359730542
v 2.03278375 0.321045071 -0.182220817
v 2.03278375 0.0972012207 -0.0606985576
v 2.03278375 0.321045071 -0.182220817
v 2.03278375 0.341859609 -0.174206764
v 2.03278375 0.341859609 -0.174206764
v 2.03278375 1.11315751 -0.129812613
v 2.03278375 1.12714577 -0.124343485
v 2.03278375 0.0972012207 -0.0606985576
v 2.03278375 0.341859609 -0.174206764
v 2.03278375 1.12714577 -0.124343485
v 2.03278375 0.0972012207 -0.0606985576
v 2.03278375 1.12714577 -0.124343485
v 2.03278375 1.12714577 -0.0606984012
v 2.00265193 1.14300001 -0.0458117425
v 2.00276804 1.14300001 -0.140715927
v 0 1.14300001 -0.140716001
v 0 1.14300001 -0.140716001
v 0 1.14300001 -0.0457199998
v 2.00265193 1.14300001 -0.0458117425
v 1.96761203 0.0972012803 -0.389745742
v 2.00276804 0.0972012803 -0.389745742
v 2.03278375 0.0972012803 -0.359730542
v 1.96761203 0.0972012803 -0.389745742
v 2.03278375 0.0972012803 -0.359730542
v 2.03278375 0.0972012207 -0.0606985576
v 1.96761203 0.0972012803 -0.389745742
v 2.03278375 0.0972012207 -0.0606985576
v 2.00253582 0.0972012207 -0.0459036157
v 2.00253582 0.0972012207 -0.0459036157
v 2.00253582 0.0972011983 0
v 1.96761203 0.0972011983 0
v 1.96761203 0.0972011983 0
v 1.96761203 0.0972012803 -0.389745742
v 2.00253582 0.0972012207 -0.0459036157
v 1.96761203 0.0645160004 -0.406399995
v 1.96761203 0.0853548199 -0.399140179
v 1.96761203 0.0972012803 -0.389745742
v 1.96761203 0.0645160004 -0.406399995
v 1.96761203 0.0972012803 -0.389745742
v 1.96761203 0.0972011983 0
v 1.96761203 0.0645160004 -0.406399995
v 1.96761203 0.0972011983 0
v 1.96761203 0.0645160004 0
v 0.673014939 0.0525307544 0
v 0.673014939 0.0525308028 -0.406399995
v 0.673014939 0 -0.406399995
v 0.673014939 0 -0.406399995
v 0.673014939 0 0
v 0.673014939 0.0525307544 0
v 0.591566026 0.935118794 0
v 0.591566026 0.935118794 -0.165846825
v 0.608129084 0.930680573 -0.16613391
v 0.608129084 0.930680573 -0.16613391
v 0.608129084 0.930680573 0
v 0.591566026 0.935118794 0
v 0.575003147 0.930680573 0
v 0.575003147 0.930680573 -0.16613391
v 0.591566026 0.935118794 -0.165846825
v 0.591566026 0.935118794 -0.165846825
v 0.591566026 0.935118794 0
v 0.575003147 0.930680573 0
v 0.562878251 0.918555915 0
v 0.562878251 0.918555915 -0.166918203
v 0.575003147 0.930680573 -0.16613391
v 0.575003147 0.930680573 -0.16613391
v 0.575003147 0.930680573 0
v 0.562878251 0.918555915 0
v 0.558440089 0.901992917 0
v 0.558440089 0.901992917 -0.167989597
v 0.562878251 0.918555915 -0.166918203
v 0.562878251 0.918555915 -0.166918203
v 0.562878251 0.918555915 0
v 0.558440089 0.901992917 0
v 0.562878251 0.885430038 0
v 0.562878251 0.885430038 -0.169060975
v 0.558440089 0.901992917 -0.167989597
v 0.558440089 0.901992917 -0.167989597
v 0.558440089 0.901992917 0
v 0.562878251 0.885430038 0
v 0.575003147 0.873305142 0
v 0.575003147 0.873305142 -0.169845268
v 0.562878251 0.885430038 -0.169060975
v 0.562878251 0.885430038 -0.169060975
v 0.562878251 0.885430038 0
v 0.575003147 0.873305142 0
v 0.624691904 0.901992917 0
v 0.624691904 0.901992917 -0.167989597
v 0.620253742 0.885430038 -0.169060975
v 0.620253742 0.885430038 -0.169060975
v 0.620253742 0.885430038 0
v 0.624691904 0.901992917 0
v 2.00253582 1.14300001 0
v 2.00265193 1.14300001 -0.0458117425
v 0 1.14300001 -0.0457199998
v 0 1.14300001 -0.0457199998
v 0 1.14300001 0
v 2.00253582 1.14300001 0
v 0.562878251 0.885430038 -0.169060975
v 0.575003147 0.873305142 -0.169845268
v 0 0.341934294 -0.204217181
v 0 0.341934294 -0.204217181
v 3.33542638e-09 0.341971874 -0.204214767
v 0.562878251 0.885430038 -0.169060975
v 0 0.341934294 -0.204217181
v 0.558440089 0.901992917 -0.167989597
v 0.562878251 0.885430038 -0.169060975
v 0.562878251 0.885430038 -0.169060975
v 3.33542638e-09 0.341971874 -0.204214767
v 0 0.341934294 -0.204217181
v 2.00276804 1.13134038 -0.15315412
v 0.620253742 0.918555915 -0.166918203
v 0.608129084 0.930680573 -0.16613391
v 0.608129084 0.930680573 -0.16613391
v 0.591566026 0.935118794 -0.165846825
v 2.00276804 1.13134038 -0.15315412
v 0.562878251 0.918555915 -0.166918203
v 0.558440089 0.901992917 -0.167989597
v 0 0.341934294 -0.204217181
v 0 0.341934294 -0.204217181
v 0 1.13129926 -0.153156862
v 0.562878251 0.918555915 -0.166918203
v 0 1.13129926 -0.153156862
v 0.591566026 0.935118794 -0.165846825
v 0.575003147 0.930680573 -0.16613391
v 0.575003147 0.930680573 -0.16613391
v 1.18277896e-11 1.13129973 -0.153156817
v 0 1.13129926 -0.153156862
v 0.591566026 0.935118794 -0.165846825
v 0 1.13129926 -0.153156862
v 0 1.13134038 -0.153154209
v 0 1.13134038 -0.153154209
v 2.00276804 1.13134038 -0.15315412
v 0.591566026 0.935118794 -0.165846825
v 2.00276804 0.341859609 -0.204221949
v 0.608129084 0.873305142 -0.169845268
v 0.620253742 0.885430038 -0.169060975
v 0.624691904 0.901992917 -0.167989597
v 0.620253742 0.918555915 -0.166918203
v 2.00276804 1.13134038 -0.15315412
v 0.620253742 0.885430038 -0.169060975
v 0.624691904 0.901992917 -0.167989597
v 2.00276804 1.13134038 -0.15315412
v 2.00276804 1.13134038 -0.15315412
v 2.00276804 0.341859609 -0.204221949
v 0.620253742 0.885430038 -0.169060975
v 2.00276804 0.341859609 -0.204221949
v 0 0.341934294 -0.204217181
v 3.37091e-09 0.341963261 -0.204215318
v 2.00276804 0.341859609 -0.204221949
v 3.37091e-09 0.341963261 -0.204215318
v 0.591566026 0.86886692 -0.170132339
v 2.00276804 0.341859609 -0.204221949
v 0.591566026 0.86886692 -0.170132339
v 0.608129084 0.873305142 -0.169845268
v 2.00276804 0.321045071 -0.212236002
v 2.00276804 0.0972012803 -0.389745742
v 1.96761203 0.0972012803 -0.389745742
v 2.00276804 0.321045071 -0.212236002
v 1.96761203 0.0972012803 -0.389745742
v 0 0.321045071 -0.212236091
v 0 0.321045071 -0.212236077
v 2.00276804 0.321045071 -0.212236002
v 0 0.321045071 -0.212236091
v 1.96761203 0.0645160004 -0.406399995
v 1.96761203 0 -0.406399995
v 0.673014939 0 -0.406399995
v 1.96761203 0.0645160004 -0.406399995
v 0.673014939 0 -0.406399995
v 0.673014939 0.0525308028 -0.406399995
v 0 0.0645160004 -0.406399995
v 1.96761203 0.0645160004 -0.406399995
v 0.673014939 0.0525308028 -0.406399995
v 0 0.0645160004 -0.406399995
v 0.673014939 0.0525308028 -0.406399995
v 0.510117054 0.0525308028 -0.406399995
v 0 0.0645160004 -0.406399995
v 0.510117054 0.0525308028 -0.406399995
v 0.510117054 0 -0.406399995
v 0 0.0645160004 -0.406399995
v 0.510117054 0 -0.406399995
v 0 0 -0.406399995
v 0 0 -0.406399995
v 0.510117054 0 -0.406399995
v 0.510117054 0 0
v 0.510117054 0 0
v 0 0 0
v 0 0 -0.406399995
v 1.18277896e-11 1.13129973 -0.153156817
v 0.575003147 0.930680573 -0.16613391
v 0.562878251 0.918555915 -0.166918203
v 0.562878251 0.918555915 -0.166918203
v 0 1.13129926 -0.153156862
v 1.18277896e-11 1.13129973 -0.153156817
v -2.00276804 1.13134038 -0.15315412
v -2.00276804 1.14300001 -0.140715927
v 0 1.14300001 -0.140716001
v 0 1.14300001 -0.140716001
v 0 1.13134038 -0.153154209
v -2.00276804 1.13134038 -0.15315412
v -2.03278375 0.341859609 -0.174206764
v -2.03278375 1.11315751 -0.129812613
v -2.00276804 1.13134038 -0.15315412
v -2.00276804 1.13134038 -0.15315412
v -2.00276804 0.341859609 -0.204221949
v -2.03278375 0.341859609 -0.174206764
v -2.00276804 1.14300001 -0.140715927
v -2.00276804 1.13134038 -0.15315412
v -2.03278375 1.11315751 -0.129812613
v -2.03278375 1.11315751 -0.129812613
v -2.03278375 1.12714577 -0.124343485
v -2.00276804 1.14300001 -0.140715927
v -2.03278375 0.321045071 -0.182220817
v -2.03278375 0.341859609 -0.174206764
v -2.00276804 0.341859609 -0.204221949
v -2.00276804 0.341859609 -0.204221949
v -2.00276804 0.321045071 -0.212236002
v -2.03278375 0.321045071 -0.182220817
v -2.00276804 0.321045071 -0.212236002
v -2.00276804 0.341859609 -0.204221949
v 0 0.341934294 -0.204217181
v 0 0.341934294 -0.204217181
v 0 0.321045071 -0.212236077
v 0 0.321045071 -0.212236077
v -2.00276804 0.321045071 -0.212236002
v 0 0.341934294 -0.204217181
v 0 0.321045071 -0.212236077
v -2.00276804 0.321045071 -0.212236002
v -2.00276804 0.0972012803 -0.389745742
v -2.03278375 0.0972012803 -0.359730542
v -2.03278375 0.0972012803 -0.359730542
v -2.03278375 0.321045071 -0.182220817
v -2.00276804 0.321045071 -0.212236002
v -1.96761203 0.0645160004 -0.406399995
v -1.96761203 0.0853548199 -0.399140179
v 0 0.0853548199 -0.399140179
v 0 0.0853548199 -0.399140179
v 0 0.0645160004 -0.406399995
v -1.96761203 0.0645160004 -0.406399995
v -2.03278375 1.12714577 -0.124343485
v -2.03278375 1.12714577 -0.0606984012
v -2.00265193 1.14300001 -0.0458117425
v -2.00265193 1.14300001 -0.0458117425
v -2.00276804 1.14300001 -0.140715927
v -2.03278375 1.12714577 -0.124343485
v -2.00253582 0.0972012207 -0.0459036157
v -2.00265193 1.14300001 -0.0458117425
v -2.03278375 1.12714577 -0.0606984012
v -2.03278375 1.12714577 -0.0606984012
v -2.03278375 0.0972012207 -0.0606985576
v -2.00253582 0.0972012207 -0.0459036157
v -2.00265193 1.14300001 -0.0458117425
v -2.00253582 0.0972012207 -0.0459036157
v -2.00253582 0.0972011983 0
v -2.00253582 0.0972011983 0
v -2.00253582 1.14300001 0
v -2.00265193 1.14300001 -0.0458117425
v -0.673014939 0 -0.406399995
v -0.673014939 0 0
v -1.96761203 0 0
v -1.96761203 0 0
v -1.96761203 0 -0.406399995
v -0.673014939 0 -0.406399995
v -0.510117054 0 -0.406399995
v -0.510117054 0 0
v -0.510117054 0.0525307544 0
v -0.510117054 0.0525307544 0
v -0.510117054 0.0525308028 -0.406399995
v -0.510117054 0 -0.406399995
v -0.510117054 0.0525308028 -0.406399995
v -0.510117054 0.0525307544 0
v -0.673014939 0.0525307544 0
v -0.673014939 0.0525307544 0
v -0.673014939 0.0525308028 -0.406399995
v -0.510117054 0.0525308028 -0.406399995
v -0.624691904 0.901992917 -0.167989597
v -0.620253742 0.918555915 -0.166918203
v -0.620253742 0.918555915 0
v -0.620253742 0.918555915 0
v -0.624691904 0.901992917 0
v -0.624691904 0.901992917 -0.167989597
v -0.620253742 0.918555915 -0.166918203
v -0.608129084 0.930680573 -0.16613391
v -0.608129084 0.930680573 0
v -0.608129084 0.930680573 0
v -0.620253742 0.918555915 0
v -0.620253742 0.918555915 -0.166918203
v -0.575003147 0.873305142 -0.169845268
v -0.591566026 0.86886692 -0.170132339
v -0.591566026 0.86886692 0
v -0.591566026 0.86886692 0
v -0.575003147 0.873305142 0
v -0.575003147 0.873305142 -0.169845268
v -0.591566026 0.86886692 -0.170132339
v -0.608129084 0.873305142 -0.169845268
v -0.608129084 0.873305142 0
v -0.608129084 0.873305142 0
v -0.591566026 0.86886692 0
v -0.591566026 0.86886692 -0.170132339
v -0.608129084 0.873305142 -0.169845268
v -0.620253742 0.885430038 -0.169060975
v -0.620253742 0.885430038 0
v -0.620253742 0.885430038 0
v -0.608129084 0.873305142 0
v -0.608129084 0.873305142 -0.169845268
v -3.37091e-09 0.341963261 -0.204215318
v -0.591566026 0.86886692 -0.170132339
v -0.575003147 0.873305142 -0.169845268
v -0.575003147 0.873305142 -0.169845268
v 0 0.341934294 -0.204217181
v -3.37091e-09 0.341963261 -0.204215318
v -1.96761203 0 -0.406399995
v -1.96761203 0 0
v -1.96761203 0.0645160004 0
v -1.96761203 0.0645160004 0
v -1.96761203 0.0645160004 -0.406399995
v -1.96761203 0 -0.406399995
v -2.03278375 0.0972012207 -0.0606985576
v -2.03278375 1.12714577 -0.0606984012
v -2.03278375 1.12714577 -0.124343485
v -2.03278375 1.12714577 -0.124343485
v -2.03278375 1.11315751 -0.129812613
v -2.03278375 0.341859609 -0.174206764
v -2.03278375 0.0972012207 -0.0606985576
v -2.03278375 1.12714577 -0.124343485
v -2.03278375 0.341859609 -0.174206764
v -2.03278375 0.0972012207 -0.0606985576
v -2.03278375 0.341859609 -0.174206764
v -2.03278375 0.321045071 -0.182220817
v -2.03278375 0.0972012207 -0.0606985576
v -2.03278375 0.321045071 -0.182220817
v -2.03278375 0.0972012803 -0.359730542
v -2.00265193 1.14300001 -0.0458117425
v 0 1.14300001 -0.0457199998
v 0 1.14300001 -0.140716001
v 0 1.14300001 -0.140716001
v -2.00276804 1.14300001 -0.140715927
v -2.00265193 1.14300001 -0.0458117425
v -1.96761203 0.0972012803 -0.389745742
v -2.00253582 0.0972012207 -0.0459036157
v -2.03278375 0.0972012207 -0.0606985576
v -1.96761203 0.0972012803 -0.389745742
v -2.03278375 0.0972012207 -0.0606985576
v -2.03278375 0.0972012803 -0.359730542
v -1.96761203 0.0972012803 -0.389745742
v -2.03278375 0.0972012803 -0.359730542
v -2.00276804 0.0972012803 -0.389745742
v -2.00253582 0.0972012207 -0.0459036157
v -1.96761203 0.0972012803 -0.389745742
v -1.96761203 0.0972011983 0
v -1.96761203 0.0972011983 0
v -2.00253582 0.0972011983 0
v -2.00253582 0.0972012207 -0.0459036157
v -1.96761203 0.0645160004 -0.406399995
v -1.96761203 0.0645160004 0
v -1.96761203 0.0972011983 0
v -1.96761203 0.0645160004 -0.406399995
v -1.96761203 0.0972011983 0
v -1.96761203 0.0972012803 -0.389745742
v -1.96761203 0.0645160004 -0.406399995
v -1.96761203 0.0972012803 -0.389745742
v -1.96761203 0.0853548199 -0.399140179
v -0.673014939 0.0525307544 0
v -0.673014939 0 0
v -0.673014939 0 -0.406399995
v -0.673014939 0 -0.406399995
v -0.673014939 0.0525308028 -0.406399995
v -0.673014939 0.0525307544 0
v -0.591566026 0.935118794 0
v -0.608129084 0.930680573 0
v -0.608129084 0.930680573 -0.16613391
v -0.608129084 0.930680573 -0.16613391
v -0.591566026 0.935118794 -0.165846825
v -0.591566026 0.935118794 0
v -0.575003147 0.930680573 0
v -0.591566026 0.935118794 0
v -0.591566026 0.935118794 -0.165846825
v -0.591566026 0.935118794 -0.165846825
v -0.575003147 0.930680573 -0.16613391
v -0.575003147 0.930680573 0
v -0.562878251 0.918555915 0
v -0.575003147 0.930680573 0
v -0.575003147 0.930680573 -0.16613391
v -0.575003147 0.930680573 -0.16613391
v -0.562878251 0.918555915 -0.166918203
v -0.562878251 0.918555915 0
v -0.558440089 0.901992917 0
v -0.562878251 0.918555915 0
v -0.562878251 0.918555915 -0.166918203
v -0.562878251 0.918555915 -0.166918203
v -0.558440089 0.901992917 -0.167989597
v -0.558440089 0.901992917 0
v -0.562878251 0.885430038 0
v -0.558440089 0.901992917 0
v -0.558440089 0.901992917 -0.167989597
v -0.558440089 0.901992917 -0.167989597
v -0.562878251 0.885430038 -0.169060975
v -0.562878251 0.885430038 0
v -0.575003147 0.873305142 0
v -0.562878251 0.885430038 0
v -0.562878251 0.885430038 -0.169060975
v -0.562878251 0.885430038 -0.169060975
v -0.575003147 0.873305142 -0.169845268
v -0.575003147 0.873305142 0
v -0.624691904 0.901992917 0
v -0.620253742 0.885430038 0
v -0.620253742 0.885430038 -0.169060975
v -0.620253742 0.885430038 -0.169060975
v -0.624691904 0.901992917 -0.167989597
v -0.624691904 0.901992917 0
v -2.00253582 1.14300001 0
v 0 1.14300001 0
v 0 1.14300001 -0.0457199998
v 0 1.14300001 -0.0457199998
v -2.00265193 1.14300001 -0.0458117425
v -2.00253582 1.14300001 0
v -0.562878251 0.885430038 -0.169060975
v -3.33542638e-09 0.341971874 -0.204214767
v 0 0.341934294 -0.204217181
v 0 0.341934294 -0.204217181
v -0.575003147 0.873305142 -0.169845268
v -0.562878251 0.885430038 -0.169060975
v -3.33542638e-09 0.341971874 -0.204214767
v -0.562878251 0.885430038 -0.169060975
v -0.558440089 0.901992917 -0.167989597
v -0.558440089 0.901992917 -0.167989597
v 0 0.341934294 -0.204217181
v -3.33542638e-09 0.341971874 -0.204214767
v -0.608129084 0.930680573 -0.16613391
v -0.620253742 0.918555915 -0.166918203
v -2.00276804 1.13134038 -0.15315412
v -2.00276804 1.13134038 -0.15315412
v -0.591566026 0.935118794 -0.165846825
v -0.608129084 0.930680573 -0.16613391
v -0.562878251 0.918555915 -0.166918203
v 0 1.13129926 -0.153156862
v 0 0.341934294 -0.204217181
v 0 0.341934294 -0.204217181
v -0.558440089 0.901992917 -0.167989597
v -0.562878251 0.918555915 -0.166918203
v -1.18277896e-11 1.13129973 -0.153156817
v -0.575003147 0.930680573 -0.16613391
v -0.591566026 0.935118794 -0.165846825
v -0.591566026 0.935118794 -0.165846825
v 0 1.13129926 -0.153156862
v -1.18277896e-11 1.13129973 -0.153156817
v -0.591566026 0.935118794 -0.165846825
v -2.00276804 1.13134038 -0.15315412
v 0 1.13134038 -0.153154209
v 0 1.13134038 -0.153154209
v 0 1.13129926 -0.153156862
v -0.591566026 0.935118794 -0.165846825
v -2.00276804 0.341859609 -0.204221949
v -0.620253742 0.885430038 -0.169060975
v -0.608129084 0.873305142 -0.169845268
v -0.624691904 0.901992917 -0.167989597
v -2.00276804 1.13134038 -0.15315412
v -0.620253742 0.918555915 -0.166918203
v -0.620253742 0.885430038 -0.169060975
v -2.00276804 0.341859609 -0.204221949
v -2.00276804 1.13134038 -0.15315412
v -2.00276804 1.13134038 -0.15315412
v -0.624691904 0.901992917 -0.167989597
v -0.620253742 0.885430038 -0.169060975
v -2.00276804 0.341859609 -0.204221949
v -0.608129084 0.873305142 -0.169845268
v -0.591566026 0.86886692 -0.170132339
v -2.00276804 0.341859609 -0.204221949
v -0.591566026 0.86886692 -0.170132339
v -3.37091e-09 0.341963261 -0.204215318
v -2.00276804 0.341859609 -0.204221949
v -3.37091e-09 0.341963261 -0.204215318
v 0 0.341934294 -0.204217181
v 0 0.0853548199 -0.399140179
v -1.96761203 0.0853548199 -0.399140179
v -1.96761203 0.0972012803 -0.389745742
v 0 0.321045071 -0.212236091
v 0 0.0853548199 -0.399140179
v -1.96761203 0.0972012803 -0.389745742
v 0 0.321045071 -0.212236077
v 0 0.321045071 -0.212236091
v -1.96761203 0.0972012803 -0.389745742
v 0 0.321045071 -0.212236077
v -1.96761203 0.0972012803 -0.389745742
v 0 0.321045071 -0.212236077
v 0 0.0645160004 -0.406399995
v 0 0 -0.406399995
v -0.510117054 0 -0.406399995
v 0 0.0645160004 -0.406399995
v -0.510117054 0 -0.406399995
v -0.510117054 0.0525308028 -0.406399995
v -0.673014939 0.0525308028 -0.406399995
v -0.673014939 0 -0.406399995
v -1.96761203 0 -0.406399995
v -0.673014939 0.0525308028 -0.406399995
v -1.96761203 0 -0.406399995
v -1.96761203 0.0645160004 -0.406399995
v -0.510117054 0.0525308028 -0.406399995
v -0.673014939 0.0525308028 -0.406399995
v -1.96761203 0.0645160004 -0.406399995
v 0 0.0645160004 -0.406399995
v -0.510117054 0.0525308028 -0.406399995
v -1.96761203 0.0645160004 -0.406399995
v 0 0 -0.406399995
v 0 0 0
v -0.510117054 0 0
v -0.510117054 0 0
v -0.510117054 0 -0.406399995
v 0 0 -0.406399995
v -1.18277896e-11 1.13129973 -0.153156817
v 0 1.13129926 -0.153156862
v -0.562878251 0.918555915 -0.166918203
v -0.562878251 0.918555915 -0.166918203
v -0.575003147 0.930680573 -0.16613391
v -1.18277896e-11 1.13129973 -0.153156817
v 2.00276804 1.13134038 0.15315412
v 2.00276804 1.14300001 0.140715927
v 0 1.14300001 0.140716001
v 0 1.14300001 0.140716001
v 0 1.13134038 0.153154209
v 2.00276804 1.13134038 0.15315412
v 2.03278375 0.341859609 0.174206764
v 2.03278375 1.11315751 0.129812613
v 2.00276804 1.13134038 0.15315412
v 2.00276804 1.13134038 0.15315412
v 2.00276804 0.341859609 0.204221949
v 2.03278375 0.341859609 0.174206764
v 2.00276804 1.14300001 0.140715927
v 2.00276804 1.13134038 0.15315412
v 2.03278375 1.11315751 0.129812613
v 2.03278375 1.11315751 0.129812613
v 2.03278375 1.12714577 0.124343485
v 2.00276804 1.14300001 0.140715927
v 2.03278375 0.321045071 0.182220817
v 2.03278375 0.341859609 0.174206764
v 2.00276804 0.341859609 0.204221949
v 2.00276804 0.341859609 0.204221949
v 2.00276804 0.321045071 0.212236002
v 2.03278375 0.321045071 0.182220817
v 2.00276804 0.321045071 0.212236002
v 2.00276804 0.341859609 0.204221949
v 0 0.341934294 0.204217181
v 0 0.341934294 0.204217181
v 0 0.321045071 0.212236077
v 0 0.321045071 0.212236077
v 2.00276804 0.321045071 0.212236002
v 0 0.341934294 0.204217181
v 0 0.321045071 0.212236077
v 2.00276804 0.321045071 0.212236002
v 2.00276804 0.0972012803 0.389745742
v 2.03278375 0.0972012803 0.359730542
v 2.03278375 0.0972012803 0.359730542
v 2.03278375 0.321045071 0.182220817
v 2.00276804 0.321045071 0.212236002
v 1.96761203 0.0645160004 0.406399995
v 1.96761203 0.0853548199 0.399140179
v 0 0.0853548199 0.399140179
v 0 0.0853548199 0.399140179
v 0 0.0645160004 0.406399995
v 1.96761203 0.0645160004 0.406399995
v 2.03278375 1.12714577 0.124343485
v 2.03278375 1.12714577 0.0606984012
v 2.00265193 1.14300001 0.0458117425
v 2.00265193 1.14300001 0.0458117425
v 2.00276804 1.14300001 0.140715927
v 2.03278375 1.12714577 0.124343485
v 2.00253582 0.0972012207 0.0459036157
v 2.00265193 1.14300001 0.0458117425
v 2.03278375 1.12714577 0.0606984012
v 2.03278375 1.12714577 0.0606984012
v 2.03278375 0.0972012207 0.0606985576
v 2.00253582 0.0972012207 0.0459036157
v 2.00265193 1.14300001 0.0458117425
v 2.00253582 0.0972012207 0.0459036157
v 2.00253582 0.0972011983 0
v 2.00253582 0.0972011983 0
v 2.00253582 1.14300001 0
v 2.00265193 1.14300001 0.0458117425
v 0.673014939 0 0.406399995
v 0.673014939 0 0
v 1.96761203 0 0
v 1.96761203 0 0
v 1.96761203 0 0.406399995
v 0.673014939 0 0.406399995
v 0.510117054 0 0.406399995
v 0.510117054 0 0
v 0.510117054 0.0525307544 0
v 0.510117054 0.0525307544 0
v 0.510117054 0.0525308028 0.406399995
v 0.510117054 0 0.406399995
v 0.510117054 0.0525308028 0.406399995
v 0.510117054 0.0525307544 0
v 0.673014939 0.0525307544 0
v 0.673014939 0.0525307544 0
v 0.673014939 0.0525308028 0.406399995
v 0.510117054 0.0525308028 0.406399995
v 0.624691904 0.901992917 0.167989597
v 0.620253742 0.918555915 0.166918203
v 0.620253742 0.918555915 0
v 0.620253742 0.918555915 0
v 0.624691904 0.901992917 0
v 0.624691904 0.901992917 0.167989597
v 0.620253742 0.918555915 0.166918203
v 0.608129084 0.930680573 0.16613391
v 0.608129084 0.930680573 0
v 0.608129084 0.930680573 0
v 0.620253742 0.918555915 0
v 0.620253742 0.918555915 0.166918203
v 0.575003147 0.873305142 0.169845268
v 0.591566026 0.86886692 0.170132339
v 0.591566026 0.86886692 0
v 0.591566026 0.86886692 0
v 0.575003147 0.873305142 0
v 0.575003147 0.873305142 0.169845268
v 0.591566026 0.86886692 0.170132339
v 0.608129084 0.873305142 0.169845268
v 0.608129084 0.873305142 0
v 0.608129084 0.873305142 0
v 0.591566026 0.86886692 0
v 0.591566026 0.86886692 0.170132339
v 0.608129084 0.873305142 0.169845268
v 0.620253742 0.885430038 0.169060975
v 0.620253742 0.885430038 0
v 0.620253742 0.885430038 0
v 0.608129084 0.873305142 0
v 0.608129084 0.873305142 0.169845268
v 3.37091e-09 0.341963261 0.204215318
v 0.591566026 0.86886692 0.170132339
v 0.575003147 0.873305142 0.169845268
v 0.575003147 0.873305142 0.169845268
v 0 0.341934294 0.204217181
v 3.37091e-09 0.341963261 0.204215318
v 1.96761203 0 0.406399995
v 1.96761203 0 0
v 1.96761203 0.0645160004 0
v 1.96761203 0.0645160004 0
v 1.96761203 0.0645160004 0.406399995
v 1.96761203 0 0.406399995
v 2.03278375 0.0972012207 0.0606985576
v 2.03278375 1.12714577 0.0606984012
v 2.03278375 1.12714577 0.124343485
v 2.03278375 1.12714577 0.124343485
v 2.03278375 1.11315751 0.129812613
v 2.03278375 0.341859609 0.174206764
v 2.03278375 0.0972012207 0.0606985576
v 2.03278375 1.12714577 0.124343485
v 2.03278375 0.341859609 0.174206764
v 2.03278375 0.0972012207 0.0606985576
v 2.03278375 0.341859609 0.174206764
v 2.03278375 0.321045071 0.182220817
v 2.03278375 0.0972012207 0.0606985576
v 2.03278375 0.321045071 0.182220817
v 2.03278375 0.0972012803 0.359730542
v 2.00265193 1.14300001 0.0458117425
v 0 1.14300001 0.0457199998
v 0 1.14300001 0.140716001
v 0 1.14300001 0.140716001
v 2.00276804 1.14300001 0.140715927
v 2.00265193 1.14300001 0.0458117425
v 1.96761203 0.0972012803 0.389745742
v 2.00253582 0.0972012207 0.0459036157
v 2.03278375 0.0972012207 0.0606985576
v 1.96761203 0.0972012803 0.389745742
v 2.03278375 0.0972012207 0.0606985576
v 2.03278375 0.0972012803 0.359730542
v 1.96761203 0.0972012803 0.389745742
v 2.03278375 0.0972012803 0.359730542
v 2.00276804 0.0972012803 0.389745742
v 2.00253582 0.0972012207 0.0459036157
v 1.96761203 0.0972012803 0.389745742
v 1.96761203 0.0972011983 0
v 1.96761203 0.0972011983 0
v 2.00253582 0.0972011983 0
v 2.00253582 0.0972012207 0.0459036157
v 1.96761203 0.0645160004 0.406399995
v 1.96761203 0.0645160004 0
v 1.96761203 0.0972011983 0
v 1.96761203 0.0645160004 0.406399995
v 1.96761203 0.0972011983 0
v 1.96761203 0.0972012803 0.389745742
v 1.96761203 0.0645160004 0.406399995
v 1.96761203 0.0972012803 0.389745742
v 1.96761203 0.0853548199 0.399140179
v 0.673014939 0.0525307544 0
v 0.673014939 0 0
v 0.673014939 0 0.406399995
v 0.673014939 0 0.406399995
v 0.673014939 0.0525308028 0.406399995
v 0.673014939 0.0525307544 0
v 0.591566026 0.935118794 0
v 0.608129084 0.930680573 0
v 0.608129084 0.930680573 0.16613391
v 0.608129084 0.930680573 0.16613391
v 0.591566026 0.935118794 0.165846825
v 0.591566026 0.935118794 0
v 0.575003147 0.930680573 0
v 0.591566026 0.935118794 0
v 0.591566026 0.935118794 0.165846825
v 0.591566026 0.935118794 0.165846825
v 0.575003147 0.930680573 0.16613391
v 0.575003147 0.930680573 0
v 0.562878251 0.918555915 0
v 0.575003147 0.930680573 0
v 0.575003147 0.930680573 0.16613391
v 0.575003147 0.930680573 0.16613391
v 0.562878251 0.918555915 0.166918203
v 0.562878251 0.918555915 0
v 0.558440089 0.901992917 0
v 0.562878251 0.918555915 0
v 0.562878251 0.918555915 0.166918203
v 0.562878251 0.918555915 0.166918203
v 0.558440089 0.901992917 0.167989597
v 0.558440089 0.901992917 0
v 0.562878251 0.885430038 0
v 0.558440089 0.901992917 0
v 0.558440089 0.901992917 0.167989597
v 0.558440089 0.901992917 0.167989597
v 0.562878251 0.885430038 0.169060975
v 0.562878251 0.885430038 0
v 0.575003147 0.873305142 0
v 0.562878251 0.885430038 0
v 0.562878251 0.885430038 0.169060975
v 0.562878251 0.885430038 0.169060975
v 0.575003147 0.873305142 0.169845268
v 0.575003147 0.873305142 0
v 0.624691904 0.901992917 0
v 0.620253742 0.885430038 0
v 0.620253742 0.885430038 0.169060975
v 0.620253742 0.885430038 0.169060975
v 0.624691904 0.901992917 0.167989597
v 0.624691904 0.901992917 0
v 2.00253582 1.14300001 0
v 0 1.14300001 0
v 0 1.14300001 0.0457199998
v 0 1.14300001 0.0457199998
v 2.00265193 1.14300001 0.0458117425
v 2.00253582 1.14300001 0
v 0.562878251 0.885430038 0.169060975
v 3.33542638e-09 0.341971874 0.204214767
v 0 0.341934294 0.204217181
v 0 0.341934294 0.204217181
v 0.575003147 0.873305142 0.169845268
v 0.562878251 0.885430038 0.169060975
v 3.33542638e-09 0.341971874 0.204214767
v 0.562878251 0.885430038 0.169060975
v 0.558440089 0.901992917 0.167989597
v 0.558440089 0.901992917 0.167989597
v 0 0.341934294 0.204217181
v 3.33542638e-09 0.341971874 0.204214767
v 0.608129084 0.930680573 0.16613391
v 0.620253742 0.918555915 0.166918203
v 2.00276804 1.13134038 0.15315412
v 2.00276804 1.13134038 0.15315412
v 0.591566026 0.935118794 0.165846825
v 0.608129084 0.930680573 0.16613391
v 0.562878251 0.918555915 0.166918203
v 0 1.13129926 0.153156862
v 0 0.341934294 0.204217181
v 0 0.341934294 0.204217181
v 0.558440089 0.901992917 0.167989597
v 0.562878251 0.918555915 0.166918203
v 1.18277896e-11 1.13129973 0.153156817
v 0.575003147 0.930680573 0.16613391
v 0.591566026 0.935118794 0.165846825
v 0.591566026 0.935118794 0.165846825
v 0 1.13129926 0.153156862
v 1.18277896e-11 1.13129973 0.153156817
v 0.591566026 0.935118794 0.165846825
v 2.00276804 1.13134038 0.15315412
v 0 1.13134038 0.153154209
v 0 1.13134038 0.153154209
v 0 1.13129926 0.153156862
v 0.591566026 0.935118794 0.165846825
v 2.00276804 0.341859609 0.204221949
v 0.620253742 0.885430038 0.169060975
v 0.608129084 0.873305142 0.169845268
v 0.624691904 0.901992917 0.167989597
v 2.00276804 1.13134038 0.15315412
v 0.620253742 0.918555915 0.166918203
v 0.620253742 0.885430038 0.169060975
v 2.00276804 0.341859609 0.204221949
v 2.00276804 1.13134038 0.15315412
v 2.00276804 1.13134038 0.15315412
v 0.624691904 0.901992917 0.167989597
v 0.620253742 0.885430038 0.169060975
v 2.00276804 0.341859609 0.204221949
v 0.608129084 0.873305142 0.169845268
v 0.591566026 0.86886692 0.170132339
v 2.00276804 0.341859609 0.204221949
v 0.591566026 0.86886692 0.170132339
v 3.37091e-09 0.341963261 0.204215318
v 2.00276804 0.341859609 0.204221949
v 3.37091e-09 0.341963261 0.204215318
v 0 0.341934294 0.204217181
v 0 0.0853548199 0.399140179
v 1.96761203 0.0853548199 0.399140179
v 1.96761203 0.0972012803 0.389745742
v 0 0.321045071 0.212236091
v 0 0.0853548199 0.399140179
v 1.96761203 0.0972012803 0.389745742
v 0 0.321045071 0.212236077
v 0 0.321045071 0.212236091
v 1.96761203 0.0972012803 0.389745742
v 0 0.321045071 0.212236077
v 1.96761203 0.0972012803 0.389745742
v 0 0.321045071 0.212236077
v 0 0.0645160004 0.406399995
v 0 0 0.406399995
v 0.510117054 0 0.406399995
v 0 0.0645160004 0.406399995
v 0.510117054 0 0.406399995
v 0.510117054 0.0525308028 0.406399995
v 0.673014939 0.0525308028 0.406399995
v 0.673014939 0 0.406399995
v 1.96761203 0 0.406399995
v 0.673014939 0.0525308028 0.406399995
v 1.96761203 0 0.406399995
v 1.96761203 0.0645160004 0.406399995
v 0.510117054 0.0525308028 0.406399995
v 0.673014939 0.0525308028 0.406399995
v 1.96761203 0.0645160004 0.406399995
v 0 0.0645160004 0.406399995
v 0.510117054 0.0525308028 0.406399995
v 1.96761203 0.0645160004 0.406399995
v 0 0 0.406399995
v 0 0 0
v 0.510117054 0 0
v 0.510117054 0 0
v 0.510117054 0 0.406399995
v 0 0 0.406399995
v 1.18277896e-11 1.13129973 0.153156817
v 0 1.13129926 0.153156862
v 0.562878251 0.918555915 0.166918203
v 0.562878251 0.918555915 0.166918203
v 0.575003147 0.930680573 0.16613391
v 1.18277896e-11 1.13129973 0.153156817
v -2.00276804 1.13134038 0.15315412
v 0 1.13134038 0.153154209
v 0 1.14300001 0.140716001
v 0 1.14300001 0.140716001
v -2.00276804 1.14300001 0.140715927
v -2.00276804 1.13134038 0.15315412
v -2.03278375 0.341859609 0.174206764
v -2.00276804 0.341859609 0.204221949
v -2.00276804 1.13134038 0.15315412
v -2.00276804 1.13134038 0.15315412
v -2.03278375 1.11315751 0.129812613
v -2.03278375 0.341859609 0.174206764
v -2.00276804 1.14300001 0.140715927
v -2.03278375 1.12714577 0.124343485
v -2.03278375 1.11315751 0.129812613
v -2.03278375 1.11315751 0.129812613
v -2.00276804 1.13134038 0.15315412
v -2.00276804 1.14300001 0.140715927
v -2.03278375 0.321045071 0.182220817
v -2.00276804 0.321045071 0.212236002
v -2.00276804 0.341859609 0.204221949
v -2.00276804 0.341859609 0.204221949
v -2.03278375 0.341859609 0.174206764
v -2.03278375 0.321045071 0.182220817
v -2.00276804 0.321045071 0.212236002
v 0 0.321045071 0.212236077
v 0 0.341934294 0.204217181
v 0 0.341934294 0.204217181
v -2.00276804 0.341859609 0.204221949
v -2.00276804 0.321045071 0.212236002
v -2.00276804 0.321045071 0.212236002
v -2.03278375 0.321045071 0.182220817
v -2.03278375 0.0972012803 0.359730542
v -2.03278375 0.0972012803 0.359730542
v -2.00276804 0.0972012803 0.389745742
v -2.00276804 0.321045071 0.212236002
v -1.96761203 0.0645160004 0.406399995
v 0 0.0645160004 0.406399995
v 0 0.0853548199 0.399140179
v 0 0.0853548199 0.399140179
v -1.96761203 0.0853548199 0.399140179
v -1.96761203 0.0645160004 0.406399995
v -2.03278375 1.12714577 0.124343485
v -2.00276804 1.14300001 0.140715927
v -2.00265193 1.14300001 0.0458117425
v -2.00265193 1.14300001 0.0458117425
v -2.03278375 1.12714577 0.0606984012
v -2.03278375 1.12714577 0.124343485
v -2.00253582 0.0972012207 0.0459036157
v -2.03278375 0.0972012207 0.0606985576
v -2.03278375 1.12714577 0.0606984012
v -2.03278375 1.12714577 0.0606984012
v -2.00265193 1.14300001 0.0458117425
v -2.00253582 0.0972012207 0.0459036157
v -2.00265193 1.14300001 0.0458117425
v -2.00253582 1.14300001 0
v -2.00253582 0.0972011983 0
v -2.00253582 0.0972011983 0
v -2.00253582 0.0972012207 0.0459036157
v -2.00265193 1.14300001 0.0458117425
v -0.673014939 0 0.406399995
v -1.96761203 0 0.406399995
v -1.96761203 0 0
v -1.96761203 0 0
v -0.673014939 0 0
v -0.673014939 0 0.406399995
v -0.510117054 0 0.406399995
v -0.510117054 0.0525308028 0.406399995
v -0.510117054 0.0525307544 0
v -0.510117054 0.0525307544 0
v -0.510117054 0 0
v -0.510117054 0 0.406399995
v -0.510117054 0.0525308028 0.406399995
v -0.673014939 0.0525308028 0.406399995
v -0.673014939 0.0525307544 0
v -0.673014939 0.0525307544 0
v -0.510117054 0.0525307544 0
v -0.510117054 0.0525308028 0.406399995
v -0.624691904 0.901992917 0.167989597
v -0.624691904 0.901992917 0
v -0.620253742 0.918555915 0
v -0.620253742 0.918555915 0
v -0.620253742 0.918555915 0.166918203
v -0.624691904 0.901992917 0.167989597
v -0.620253742 0.918555915 0.166918203
v -0.620253742 0.918555915 0
v -0.608129084 0.930680573 0
v -0.608129084 0.930680573 0
v -0.608129084 0.930680573 0.16613391
v -0.620253742 0.918555915 0.166918203
v -0.575003147 0.873305142 0.169845268
v -0.575003147 0.873305142 0
v -0.591566026 0.86886692 0
v -0.591566026 0.86886692 0
v -0.591566026 0.86886692 0.170132339
v -0.575003147 0.873305142 0.169845268
v -0.591566026 0.86886692 0.170132339
v -0.591566026 0.86886692 0
v -0.608129084 0.873305142 0
v -0.608129084 0.873305142 0
v -0.608129084 0.873305142 0.169845268
v -0.591566026 0.86886692 0.170132339
v -0.608129084 0.873305142 0.169845268
v -0.608129084 0.873305142 0
v -0.620253742 0.885430038 0
v -0.620253742 0.885430038 0
v -0.620253742 0.885430038 0.169060975
v -0.608129084 0.873305142 0.169845268
v 0 0.341934294 0.204217181
v -0.575003147 0.873305142 0.169845268
v -0.591566026 0.86886692 0.170132339
v -0.591566026 0.86886692 0.170132339
v -3.37091e-09 0.341963261 0.204215318
v 0 0.341934294 0.204217181
v -1.96761203 0 0.406399995
v -1.96761203 0.0645160004 0.406399995
v -1.96761203 0.0645160004 0
v -1.96761203 0.0645160004 0
v -1.96761203 0 0
v -1.96761203 0 0.406399995
v -2.03278375 0.0972012207 0.0606985576
v -2.03278375 0.0972012803 0.359730542
v -2.03278375 0.321045071 0.182220817
v -2.03278375 0.0972012207 0.0606985576
v -2.03278375 0.321045071 0.182220817
v -2.03278375 0.341859609 0.174206764
v -2.03278375 0.341859609 0.174206764
v -2.03278375 1.11315751 0.129812613
v -2.03278375 1.12714577 0.124343485
v -2.03278375 0.0972012207 0.0606985576
v -2.03278375 0.341859609 0.174206764
v -2.03278375 1.12714577 0.124343485
v -2.03278375 0.0972012207 0.0606985576
v -2.03278375 1.12714577 0.124343485
v -2.03278375 1.12714577 0.0606984012
v -2.00265193 1.14300001 0.0458117425
v -2.00276804 1.14300001 0.140715927
v 0 1.14300001 0.140716001
v 0 1.14300001 0.140716001
v 0 1.14300001 0.0457199998
v -2.00265193 1.14300001 0.0458117425
v -1.96761203 0.0972012803 0.389745742
v -2.00276804 0.0972012803 0.389745742
v -2.03278375 0.0972012803 0.359730542
v -1.96761203 0.0972012803 0.389745742
v -2.03278375 0.0972012803 0.359730542
v -2.03278375 0.0972012207 0.0606985576
v -1.96761203 0.0972012803 0.389745742
v -2.03278375 0.0972012207 0.0606985576
v -2.00253582 0.0972012207 0.0459036157
v -2.00253582 0.0972012207 0.0459036157
v -2.00253582 0.0972011983 0
v -1.96761203 0.0972011983 0
v -1.96761203 0.0972011983 0
v -1.96761203 0.0972012803 0.389745742
v -2.00253582 0.0972012207 0.0459036157
v -1.96761203 0.0645160004 0.406399995
v -1.96761203 0.0853548199 0.399140179
v -1.96761203 0.0972012803 0.389745742
v -1.96761203 0.0645160004 0.406399995
v -1.96761203 0.0972012803 0.389745742
v -1.96761203 0.0972011983 0
v -1.96761203 0.0645160004 0.406399995
v -1.96761203 0.0972011983 0
v -1.96761203 0.0645160004 0
v -0.673014939 0.0525307544 0
v -0.673014939 0.0525308028 0.406399995
v -0.673014939 0 0.406399995
v -0.673014939 0 0.406399995
v -0.673014939 0 0
v -0.673014939 0.0525307544 0
v -0.591566026 0.935118794 0
v -0.591566026 0.935118794 0.165846825
v -0.608129084 0.930680573 0.16613391
v -0.608129084 0.930680573 0.16613391
v -0.608129084 0.930680573 0
v -0.591566026 0.935118794 0
v -0.575003147 0.930680573 0
v -0.575003147 0.930680573 0.16613391
v -0.591566026 0.935118794 0.165846825
v -0.591566026 0.935118794 0.165846825
v -0.591566026 0.935118794 0
v -0.575003147 0.930680573 0
v -0.562878251 0.918555915 0
v -0.562878251 0.918555915 0.166918203
v -0.575003147 0.930680573 0.16613391
v -0.575003147 0.930680573 0.16613391
v -0.575003147 0.930680573 0
v -0.562878251 0.918555915 0
v -0.558440089 0.901992917 0
v -0.558440089 0.901992917 0.167989597
v -0.562878251 0.918555915 0.166918203
v -0.562878251 0.918555915 0.166918203
v -0.562878251 0.918555915 0
v -0.558440089 0.901992917 0
v -0.562878251 0.885430038 0
v -0.562878251 0.885430038 0.169060975
v -0.558440089 0.901992917 0.167989597
v -0.558440089 0.901992917 0.167989597
v -0.558440089 0.901992917 0
v -0.562878251 0.885430038 0
v -0.575003147 0.873305142 0
v -0.575003147 0.873305142 0.169845268
v -0.562878251 0.885430038 0.169060975
v -0.562878251 0.885430038 0.169060975
v -0.562878251 0.885430038 0
v -0.575003147 0.873305142 0
v -0.624691904 0.901992917 0
v -0.624691904 0.901992917 0.167989597
v -0.620253742 0.885430038 0.169060975
v -0.620253742 0.885430038 0.169060975
v -0.620253742 0.885430038 0
v -0.624691904 0.901992917 0
v -2.00253582 1.14300001 0
v -2.00265193 1.14300001 0.0458117425
v 0 1.14300001 0.0457199998
v 0 1.14300001 0.0457199998
v 0 1.14300001 0
v -2.00253582 1.14300001 0
v -0.562878251 0.885430038 0.169060975
v -0.575003147 0.873305142 0.169845268
v 0 0.341934294 0.204217181
v 0 0.341934294 0.204217181
v -3.33542638e-09 0.341971874 0.204214767
v -0.562878251 0.885430038 0.169060975
v 0 0.341934294 0.204217181
v -0.558440089 0.901992917 0.167989597
v -0.562878251 0.885430038 0.169060975
v -0.562878251 0.885430038 0.169060975
v -3.33542638e-09 0.341971874 0.204214767
v 0 0.341934294 0.204217181
v -2.00276804 1.13134038 0.15315412
v -0.620253742 0.918555915 0.166918203
v -0.608129084 0.930680573 0.16613391
v -0.608129084 0.930680573 0.16613391
v -0.591566026 0.935118794 0.165846825
v -2.00276804 1.13134038 0.15315412
v -0.562878251 0.918555915 0.166918203
v -0.558440089 0.901992917 0.167989597
v 0 0.341934294 0.204217181
v 0 0.341934294 0.204217181
v 0 1.13129926 0.153156862
v -0.562878251 0.918555915 0.166918203
v 0 1.13129926 0.153156862
v -0.591566026 0.935118794 0.165846825
v -0.575003147 0.930680573 0.16613391
v -0.575003147 0.930680573 0.16613391
v -1.18277896e-11 1.13129973 0.153156817
v 0 1.13129926 0.153156862
v -0.591566026 0.935118794 0.165846825
v 0 1.13129926 0.153156862
v 0 1.13134038 0.153154209
v 0 1.13134038 0.153154209
v -2.00276804 1.13134038 0.15315412
v -0.591566026 0.935118794 0.165846825
v -2.00276804 0.341859609 0.204221949
v -0.608129084 0.873305142 0.169845268
v -0.620253742 0.885430038 0.169060975
v -0.624691904 0.901992917 0.167989597
v -0.620253742 0.918555915 0.166918203
v -2.00276804 1.13134038 0.15315412
v -0.620253742 0.885430038 0.169060975
v -0.624691904 0.901992917 0.167989597
v -2.00276804 1.13134038 0.15315412
v -2.00276804 1.13134038 0.15315412
v -2.00276804 0.341859609 0.204221949
v -0.620253742 0.885430038 0.169060975
v -2.00276804 0.341859609 0.204221949
v 0 0.341934294 0.204217181
v -3.37091e-09 0.341963261 0.204215318
v -2.00276804 0.341859609 0.204221949
v -3.37091e-09 0.341963261 0.204215318
v -0.591566026 0.86886692 0.170132339
v -2.00276804 0.341859609 0.204221949
v -0.591566026 0.86886692 0.170132339
v -0.608129084 0.873305142 0.169845268
v -2.00276804 0.321045071 0.212236002
v -2.00276804 0.0972012803 0.389745742
v -1.96761203 0.0972012803 0.389745742
v -2.00276804 0.321045071 0.212236002
v -1.96761203 0.0972012803 0.389745742
v 0 0.321045071 0.212236091
v 0 0.321045071 0.212236077
v -2.00276804 0.321045071 0.212236002
v 0 0.321045071 0.212236091
v -1.96761203 0.0645160004 0.406399995
v -1.96761203 0 0.406399995
v -0.673014939 0 0.406399995
v -1.96761203 0.0645160004 0.406399995
v -0.673014939 0 0.406399995
v -0.673014939 0.0525308028 0.406399995
v 0 0.0645160004 0.406399995
v -1.96761203 0.0645160004 0.406399995
v -0.673014939 0.0525308028 0.406399995
v 0 0.0645160004 0.406399995
v -0.673014939 0.0525308028 0.406399995
v -0.510117054 0.0525308028 0.406399995
v 0 0.0645160004 0.406399995
v -0.510117054 0.0525308028 0.406399995
v -0.510117054 0 0.406399995
v 0 0.0645160004 0.406399995
v -0.510117054 0 0.406399995
v 0 0 0.406399995
v 0 0 0.406399995
v -0.510117054 0 0.406399995
v -0.510117054 0 0
v -0.510117054 0 0
v 0 0 0
v 0 0 0.406399995
v -1.18277896e-11 1.13129973 0.153156817
v -0.575003147 0.930680573 0.16613391
v -0.562878251 0.918555915 0.166918203
v -0.562878251 0.918555915 0.166918203
v 0 1.13129926 0.153156862
v -1.18277896e-11 1.13129973 0.153156817
v -1.96761203 0.0972012803 -0.389745742
v -2.00276804 0.0972012803 -0.389745742
v -2.00276804 0.321045071 -0.212236002
v -2.00276804 0.321045071 -0.212236002
v 0 0.321045071 -0.212236077
v -1.96761203 0.0972012803 -0.389745742
v 1.96761203 0.0972012803 -0.389745742
v 1.96761203 0.0853548199 -0.399140179
v 0 0.0853548199 -0.399140179
v 0 0.0853548199 -0.399140179
v 0 0.321045071 -0.212236091
v 1.96761203 0.0972012803 -0.389745742
v 1.96761203 0.0972012803 0.389745742
v 2.00276804 0.0972012803 0.389745742
v 2.00276804 0.321045071 0.212236002
v 2.00276804 0.321045071 0.212236002
v 0 0.321045071 0.212236077
v 1.96761203 0.0972012803 0.389745742
v -1.96761203 0.0972012803 0.389745742
v -1.96761203 0.0853548199 0.399140179
v 0 0.0853548199 0.399140179
v 0 0.0853548199 0.399140179
v 0 0.321045071 0.212236091
v -1.96761203 0.0972012803 0.389745742

# 126 UV coordinates
vt 0.985145926 0.0690941066 0
vt 0.00877501909 0.0690941066 0
vt 0.00877501629 0.0634827614 0
vt 0.985145807 0.0634827614 0
vt 0.999909401 0.425261796 0
vt 0.985145926 0.425261796 0
vt 0.999909401 0.0690818131 0
vt 0.999909401 0.0634600967 0
vt 1 0.434675306 0
vt 0.985145926 0.43465209 0
vt 0.00877501909 0.43465209 0
vt 0.00877501629 0.425261796 0
vt 0.999951303 0.535699725 0
vt 0.985145926 0.535637319 0
vt 0.967854023 0.550383091 0
vt 0.00877498556 0.550383091 0
vt 0.00877500698 0.540981829 0
vt 0.967854023 0.540981829 0
vt 0.985088825 0.0206675492 0
vt 0.999909401 0.0273834709 0
vt 0 0.945165873 0
vt 0 0.931204915 0
vt 0.475372791 0.931204915 0
vt 0.482690394 0.945112288 0
vt 0.482690394 0.96635282 0
vt 0 0.966352582 0
vt 0.59216398 0.779274523 0
vt 0 0.779274523 0
vt 0 0.593409479 0
vt 0.59216398 0.593400717 0
vt 0.805862427 0.617428899 0
vt 0.805862427 0.593400717 0
vt 0.991737187 0.593400776 0
vt 0.991737187 0.617428899 0
vt 0.606075823 0.667912126 0
vt 0.606075823 0.593400717 0
vt 0.79194963 0.593400717 0
vt 0.791950703 0.667912126 0
vt 0.690060019 0.7398929 0
vt 0.606077075 0.7398929 0
vt 0.606077671 0.731609523 0
vt 0.689524293 0.731609523 0
vt 0.606078029 0.725545824 0
vt 0.689131975 0.725545824 0
vt 0.881057382 0.697977483 0
vt 0.798261583 0.697977483 0
vt 0.798261821 0.689900696 0
vt 0.881197512 0.689900696 0
vt 0.798262179 0.68182379 0
vt 0.881057382 0.68182379 0
vt 0.690987885 0.754240096 0
vt 0.606075823 0.754240096 0
vt 0.606076419 0.748176277 0
vt 0.690595806 0.748176277 0
vt 0.00877375901 0.425213307 0
vt 0.282880306 0.1855046 0
vt 0.291027009 0.187506795 0
vt 0.00877381023 0.425215006 0
vt 0.743900478 0.837647319 0
vt 0.743900478 0.80813688 0
vt 0.929765522 0.80813688 0
vt 0.929765522 0.837647319 0
vt 0 0.793186188 0
vt 0.103315599 0.875116229 0
vt 0.112922497 0.878814995 0
vt 0.468916386 0.899305284 0
vt 0.475372791 0.901829481 0
vt 0.00877501536 0.0206260495 0
vt 0.606075823 0.71163398 0
vt 0.606075823 0.695553124 0
vt 0.619805098 0.68182379 0
vt 0.756585717 0.68182379 0
vt 0.76335299 0.695659399 0
vt 0.784349918 0.695659399 0
vt 0.78432399 0.71163398 0
vt 0.747221529 0.798605025 0
vt 0.751518428 0.793186188 0
vt 0.929767013 0.793186307 0
vt 0.743900478 0.851559103 0
vt 0.929774582 0.851558924 0
vt 0.929774582 0.875587225 0
vt 0.743900478 0.875587225 0
vt 0.077290453 0.987972975 0
vt 0.000133645997 0.987972975 0
vt 0 0.980264425 0
vt 0.0772902966 0.980264425 0
vt 0.0772907734 0.995681584 0
vt 0 0.995681584 0
vt 0.805863678 0.647491515 0
vt 0.887215912 0.647491515 0
vt 0.886833489 0.653403103 0
vt 0.805864275 0.653403103 0
vt 0.805862904 0.639416099 0
vt 0.887738228 0.639416099 0
vt 0.805862427 0.631340623 0
vt 0.888260603 0.631340623 0
vt 0.880675077 0.703890324 0
vt 0.798261881 0.703890324 0
vt 0.985031724 0 0
vt 0.00877501629 0 0
vt 0.276916414 0.180034503 0
vt 0.00877372362 0.425211102 0
vt 0.00877370127 0.425209194 0
vt 0.274733514 0.172562301 0
vt 0.305137396 0.165090099 0
vt 0.299173594 0.159620002 0
vt 0.291027009 0.157617807 0
vt 0.276916414 0.165090099 0
vt 0.00877372362 0.0691139325 0
vt 0.00877381023 0.0691115037 0
vt 0.282880306 0.159620002 0
vt 0.00877375901 0.0691124126 0
vt 0.299173594 0.1855046 0
vt 0.305137396 0.180034503 0
vt 0.307320297 0.172562301 0
vt 0.967854023 0.535637319 0
vt 0.967854023 0.579488993 0
vt 0.331088603 0.579488993 0
vt 0.331088603 0.555790007 0
vt 0.250965208 0.555790007 0
vt 0.250965208 0.579488993 0
vt 0.00877353456 0.579488993 0
vt 0.729935706 0.979064524 0
vt 0.496602088 0.979064524 0
vt 0.496602088 0.793189585 0
vt 0.729935706 0.793186188 0

# 259 vertex normals
vn 0.00863185711 0.00958866999 -0.0218794066
vn 6.66747473e-13 0.0108451694 -0.0229682885
vn 0 0.0236204397 -0.00933996122
vn 0.00781377126 0.0218789 -0.0102673611
vn 0.0232244171 0.00201870641 -0.0100851972
vn 0.00962794852 0.00514815329 -0.0229337998
vn 0.0229220558 0.00309322705 -0.0104962448
vn 0.0209211335 0.0132058887 -0.00575070735
vn 0.023086017 0.00496116327 -0.00935856625
vn 0.00904310867 0.0121186087 -0.0204088595
vn 1.14920261e-11 0.0125931073 -0.0220584143
vn -4.13537364e-11 0.00351715344 -0.0251553115
vn 0.0204005707 0.00940222666 -0.01185642
vn 0.0068715252 0.0151937418 -0.0191596542
vn 3.94622002e-10 0.00423752004 -0.0250440314
vn -7.28304405e-18 0.00423752004 -0.0250440296
vn 1.15206525e-11 0.0122408057 -0.0222558454
vn 5.30707644e-10 0.0122408085 -0.0222558454
vn 0.00326525373 0.025189247 2.39057408e-06
vn 0.020779999 0.0146065587 5.63753019e-06
vn 0.00387839461 -0.0238300022 0.0078898035
vn 0.00686618173 -0.0200727358 0.0139678502
vn 0.0112052402 -1.63832283e-06 0.0227947924
vn 0.0112052402 -1.63832283e-06 0.0227947906
vn 0.0253999792 -1.4134007e-06 3.22007727e-05
vn 0.0253999997 -1.4134007e-06 0
vn 0 -0.0253999997 0
vn 0.0253999997 0 0
vn 0.025399996 0 0
vn 0 -0.0253999997 -3.40639383e-09
vn -0.0253985617 0.000270355289 0
vn -0.025399996 7.48362761e-10 0
vn -0.0219970178 -0.0127000455 -0
vn -0.0221125744 -0.0124977678 -0
vn -0.0127000455 -0.0219970178 -0
vn -0.0128159588 -0.0219296888 -0
vn 0.0125816129 0.0220649745 0
vn 0.0127000455 0.0219970178 0
vn 6.9098661e-08 0.025399996 0
vn 6.90867239e-08 0.0253999997 0
vn -0.0127000306 0.0219970271 0
vn -0.0125815952 0.022064982 0
vn -0.0219970439 0.0127000026 0
vn -0.0218783785 0.0129033513 0
vn -2.14435691e-09 0.00163958292 -0.0253470242
vn -1.01959408e-09 0.00163958245 -0.0253470242
vn -2.6473912e-09 0.00163958373 -0.0253470242
vn 0.0253999997 -1.23303539e-16 0
vn 0 0.0253999997 0
vn -9.23678634e-10 -0.025399996 -4.04114031e-09
vn -9.39050726e-10 -0.025399996 -4.05196054e-09
vn -9.39050726e-10 -0.0253999997 -4.05196054e-09
vn -7.00521863e-10 -0.0253999997 2.29791542e-16
vn -0.025399996 0 0
vn -0.0253999997 0 0
vn -2.49454152e-10 -0.025399996 -0
vn -2.46823728e-10 -0.0253999997 -0
vn 0.0127000436 -0.0219970178 0
vn 0.0128159551 -0.0219296888 0
vn 0.0219970178 -0.0127000455 0
vn 0.0221125726 -0.0124977678 0
vn 0.025399996 4.98909303e-10 0
vn 0.0253985617 0.000270355056 0
vn 0.0219970178 0.0127000455 0
vn 0.0218783505 0.0129033988 0
vn 1.50728174e-09 0.00163958012 -0.0253470242
vn 1.74110137e-09 0.00163957989 -0.0253470242
vn 6.08749107e-10 0.00163958105 -0.0253470279
vn 7.63097252e-10 0.00163958105 -0.0253470279
vn 1.66359593e-09 0.00163957488 -0.0253470279
vn -1.881167e-09 0.00163957186 -0.0253470242
vn 5.12320542e-09 0.00163959153 -0.0253470242
vn -4.49851753e-11 0.00163957221 -0.0253470279
vn -9.30409705e-09 0.00163955102 -0.0253470242
vn -4.2751247e-09 0.00163956475 -0.0253470242
vn 1.95207378e-10 0.00163957989 -0.0253470242
vn -3.17007226e-10 0.00163957954 -0.0253470242
vn 2.09988402e-10 0.00163958501 -0.0253470279
vn 5.90539839e-10 0.0157822464 -0.0199017767
vn 5.26590271e-10 0.0157822464 -0.019901773
vn 1.18113547e-10 0.0157822464 -0.0199017767
vn -4.77832423e-08 0.0136995055 -0.0213888641
vn 3.35302869e-10 1.74889658e-09 -0.0253999997
vn 1.43619714e-17 1.74889658e-09 -0.0253999997
vn -0.00863185711 0.00958866999 -0.0218794066
vn -0.00781377126 0.0218789 -0.0102673611
vn -0.0232244171 0.00201870641 -0.0100851972
vn -0.0229220558 0.00309322705 -0.0104962448
vn -0.00962794852 0.00514815329 -0.0229337998
vn -0.0209211316 0.0132058887 -0.00575070735
vn -0.0230860133 0.00496116327 -0.00935856625
vn -0.00904310867 0.0121186087 -0.0204088595
vn -7.22670634e-08 0.0125931073 -0.0220584143
vn -1.42175978e-07 0.00911465567 -0.0237082932
vn -1.42175978e-07 0.00911465567 -0.0237082914
vn -6.89335735e-08 0.0127408132 -0.0219734292
vn -0.00687152287 0.0151937418 -0.0191596542
vn -0.0204005726 0.00940222666 -0.01185642
vn -3.94622002e-10 0.00423752004 -0.0250440296
vn -5.07667242e-10 0.0122408057 -0.0222558454
vn -0.020779999 0.0146065587 5.63753019e-06
vn -0.00326525373 0.025189247 2.39057408e-06
vn -0.00387839461 -0.0238300022 0.0078898035
vn -0.0112052402 -1.63832021e-06 0.0227947906
vn -0.0112052429 -1.63832021e-06 0.0227947924
vn -0.00686618173 -0.0200727358 0.0139678502
vn -0.0253999792 -1.4134007e-06 3.22007727e-05
vn -0.0253999997 -1.4134007e-06 -0
vn 0.0221125744 -0.0124977678 0
vn 0.025399996 7.48362761e-10 0
vn -0.0125816129 0.0220649727 0
vn -6.93387037e-08 0.0253999997 0
vn -6.9098661e-08 0.025399996 0
vn -0.0127000455 0.0219970196 0
vn 0.0125815952 0.022064982 0
vn 0.0127000306 0.0219970271 0
vn 0.0218783785 0.0129033504 0
vn 0.0219970439 0.0127000026 0
vn 2.6473912e-09 0.00163958373 -0.0253470242
vn 1.01959408e-09 0.00163958245 -0.0253470242
vn 2.14435691e-09 0.00163958292 -0.0253470242
vn 9.23678634e-10 -0.025399996 -4.04114031e-09
vn 9.39050726e-10 -0.0253999997 -4.05196054e-09
vn 9.39050726e-10 -0.025399996 -4.05196054e-09
vn 7.00521863e-10 -0.0253999997 -2.29791542e-16
vn 2.49454152e-10 -0.025399996 0
vn -0.0128159551 -0.0219296888 -0
vn -0.0219970178 -0.0127000436 -0
vn -0.0221125726 -0.0124977678 -0
vn -0.025399996 4.98909303e-10 0
vn -0.0253985617 0.000270355056 0
vn -0.0219970178 0.0127000455 0
vn -0.0218783505 0.0129033988 0
vn -1.88481963e-09 0.00163957954 -0.0253470242
vn -2.07394057e-09 0.00163957954 -0.0253470242
vn -7.98451527e-10 0.00163958105 -0.0253470279
vn -1.68892977e-09 0.00163957488 -0.0253470279
vn -7.7831952e-10 0.00163958105 -0.0253470279
vn 1.82742832e-09 0.00163957186 -0.0253470242
vn -5.12320542e-09 0.00163959153 -0.0253470242
vn 4.10921208e-09 0.00163956475 -0.0253470242
vn 9.0738963e-09 0.00163955102 -0.0253470242
vn 3.13382681e-10 0.00163957942 -0.0253470242
vn -1.95207378e-10 0.00163957989 -0.0253470242
vn -2.14283785e-10 0.00163958501 -0.0253470242
vn 5.65670705e-11 0.0157822464 -0.0199017767
vn -3.01691033e-10 0.0157822464 -0.0199017767
vn -5.53712354e-10 0.0157822482 -0.0199017767
vn -3.35302869e-10 1.74889658e-09 -0.0253999997
vn 0.00863185711 0.00958866999 0.0218794066
vn 0.00781377126 0.0218789 0.0102673611
vn 0 0.0236204397 0.00933996309
vn -6.66747473e-13 0.0108451694 0.0229682885
vn 0.0232244171 0.00201870641 0.0100851972
vn 0.0229220558 0.00309322705 0.0104962448
vn 0.00962794852 0.00514815329 0.0229337998
vn 0.0209211316 0.0132058887 0.00575070735
vn 0.0230860133 0.00496116327 0.00935856625
vn 0.00904310867 0.0121186087 0.0204088595
vn 7.22670634e-08 0.0125931073 0.0220584143
vn 1.42175978e-07 0.00911465567 0.0237082932
vn 1.42175978e-07 0.00911465567 0.0237082914
vn 4.77796824e-08 0.0136995055 0.0213888641
vn 6.90064681e-08 0.0127408132 0.0219734292
vn 0.00687152287 0.0151937418 0.0191596542
vn 0.0204005726 0.00940222666 0.01185642
vn 3.94622002e-10 0.00423752004 0.0250440296
vn 5.07667242e-10 0.0122408057 0.0222558454
vn -1.15206525e-11 0.0122408057 0.0222558454
vn 0 0.00423752004 0.0250440296
vn 0.020779999 0.0146065587 -5.63753019e-06
vn 0.00326525373 0.025189247 -2.39057408e-06
vn 0.00387839461 -0.0238300022 -0.0078898035
vn 0.0112052402 -1.63832021e-06 -0.0227947906
vn 0.0112052429 -1.63832021e-06 -0.0227947924
vn 0.00686618173 -0.0200727358 -0.0139678502
vn 0.0253999792 -1.4134007e-06 -3.22007727e-05
vn 0 -0.0253999997 3.40639383e-09
vn 0.0125816129 0.0220649727 0
vn 6.93387037e-08 0.0253999997 0
vn -0.0218783785 0.0129033504 0
vn -2.6473912e-09 0.00163958373 0.0253470242
vn -1.01959408e-09 0.00163958245 0.0253470242
vn -2.14435691e-09 0.00163958292 0.0253470242
vn 4.13537364e-11 0.00351715344 0.0251553115
vn -9.23678634e-10 -0.025399996 4.04114031e-09
vn -9.39050726e-10 -0.0253999997 4.05196054e-09
vn -9.39050726e-10 -0.025399996 4.05196054e-09
vn 1.88481963e-09 0.00163957954 0.0253470242
vn 2.07394057e-09 0.00163957954 0.0253470242
vn 7.98451527e-10 0.00163958105 0.0253470279
vn 1.68892977e-09 0.00163957488 0.0253470279
vn 7.7831952e-10 0.00163958105 0.0253470279
vn -1.82742832e-09 0.00163957186 0.0253470242
vn 5.12320542e-09 0.00163959153 0.0253470242
vn 4.49851753e-11 0.00163957221 0.0253470279
vn -4.10921208e-09 0.00163956475 0.0253470242
vn -9.0738963e-09 0.00163955102 0.0253470242
vn -3.13382681e-10 0.00163957942 0.0253470242
vn 1.95207378e-10 0.00163957989 0.0253470242
vn 2.14283785e-10 0.00163958501 0.0253470242
vn 1.2570384e-11 0.0157822445 0.0199017767
vn 4.52536564e-10 0.0157822464 0.0199017767
vn 6.08609385e-10 0.0157822482 0.0199017767
vn -8.56630253e-11 0.0157822464 0.0199017767
vn -1.43619714e-17 1.74889658e-09 0.0253999997
vn 3.35302869e-10 1.74889658e-09 0.0253999997
vn -0.00863185711 0.00958866999 0.0218794066
vn -0.00781377126 0.0218789 0.0102673611
vn -0.0232244171 0.00201870641 0.0100851972
vn -0.00962794852 0.00514815329 0.0229337998
vn -0.0229220558 0.00309322705 0.0104962448
vn -0.0209211335 0.0132058887 0.00575070735
vn -0.023086017 0.00496116327 0.00935856625
vn -0.00904310867 0.0121186087 0.0204088595
vn -1.14921024e-11 0.0125931073 0.0220584143
vn -0.0204005707 0.00940222666 0.01185642
vn -0.0068715252 0.0151937418 0.0191596542
vn -3.94622002e-10 0.00423752004 0.0250440314
vn -5.30707644e-10 0.0122408085 0.0222558454
vn -0.00326525373 0.025189247 -2.39057408e-06
vn -0.020779999 0.0146065587 -5.63753019e-06
vn -0.00387839461 -0.0238300022 -0.0078898035
vn -0.00686618173 -0.0200727358 -0.0139678502
vn -0.0112052402 -1.63832283e-06 -0.0227947924
vn -0.0112052402 -1.63832283e-06 -0.0227947906
vn -0.0253999792 -1.4134007e-06 -3.22007727e-05
vn 0.0253985617 0.000270355289 0
vn 0.0128159588 -0.0219296888 0
vn -0.0125816129 0.0220649745 0
vn -6.90867239e-08 0.0253999997 0
vn 0.0218783785 0.0129033513 0
vn 2.14435691e-09 0.00163958292 0.0253470242
vn 1.01959408e-09 0.00163958245 0.0253470242
vn 2.6473912e-09 0.00163958373 0.0253470242
vn -0.0253999997 -1.23303539e-16 -0
vn 9.23678634e-10 -0.025399996 4.04114031e-09
vn 9.39050726e-10 -0.025399996 4.05196054e-09
vn 9.39050726e-10 -0.0253999997 4.05196054e-09
vn 2.46823728e-10 -0.0253999997 0
vn -1.50728174e-09 0.00163958012 0.0253470242
vn -1.74110137e-09 0.00163957989 0.0253470242
vn -6.08749107e-10 0.00163958105 0.0253470279
vn -7.63097252e-10 0.00163958105 0.0253470279
vn -1.66359593e-09 0.00163957488 0.0253470279
vn 1.881167e-09 0.00163957186 0.0253470242
vn -5.12320542e-09 0.00163959153 0.0253470242
vn 9.30409705e-09 0.00163955102 0.0253470242
vn 4.2751247e-09 0.00163956475 0.0253470242
vn -1.95207378e-10 0.00163957989 0.0253470242
vn 3.17007226e-10 0.00163957954 0.0253470242
vn -2.09988402e-10 0.00163958501 0.0253470279
vn -7.51596119e-10 0.0157822482 0.0199017767
vn -6.33608055e-10 0.0157822464 0.019901773
vn -3.35302869e-10 1.74889658e-09 0.0253999997
vn -6.97910674e-10 0.0157822482 -0.0199017767
vn 4.14825174e-10 0.0157822482 -0.0199017767
vn 6.97910674e-10 0.0157822482 0.0199017767
vn -4.27395647e-10 0.0157822464 0.0199017767

# Mesh 'geom-Jersey_Barrier' with 432 faces
g geom-Jersey_Barrier
usemtl Barrier
f  1/1/1 2/2/2 3/3/3
f  4/3/3 5/4/4 6/1/1
f  7/5/5 8/6/6 9/1/1
f  10/1/1 11/7/7 12/5/5
f  13/4/4 14/8/8 15/7/7
f  16/7/7 17/1/1 18/4/4
f  19/9/9 20/10/10 21/6/6
f  22/6/6 23/5/5 24/9/9
f  25/10/10 26/11/11 27/12/12
f  28/12/12 29/6/6 30/10/10
f  31/10/10 32/9/9 33/13/13
f  34/13/13 35/14/14 36/10/10
f  37/15/15 38/16/16 39/17/17
f  40/17/17 41/18/18 42/15/15
f  43/8/8 44/4/4 45/19/19
f  46/19/19 47/20/20 48/8/8
f  49/21/21 50/22/22 51/23/23
f  52/23/23 53/24/24 54/21/21
f  55/24/25 56/25/26 57/26/26
f  58/26/26 59/21/25 60/24/25
f  61/27/27 62/28/27 63/29/27
f  64/29/27 65/30/27 66/27/27
f  67/31/28 68/32/28 69/33/29
f  70/33/29 71/34/28 72/31/28
f  73/35/30 74/36/30 75/37/27
f  76/37/27 77/38/27 78/35/30
f  79/39/31 80/40/32 81/41/33
f  82/41/33 83/42/34 84/39/31
f  85/42/34 86/41/33 87/43/35
f  88/43/35 89/44/36 90/42/34
f  91/45/37 92/46/38 93/47/39
f  94/47/39 95/48/40 96/45/37
f  97/48/40 98/47/39 99/49/41
f  100/49/41 101/50/42 102/48/40
f  103/51/42 104/52/41 105/53/43
f  106/53/43 107/54/44 108/51/42
f  109/55/12 110/56/45 111/57/46
f  112/57/46 113/58/47 114/55/12
f  115/59/28 116/60/28 117/61/28
f  118/61/28 119/62/28 120/59/28
f  121/22/48 122/63/13 123/64/9
f  124/22/48 125/64/9 126/65/5
f  127/65/5 128/66/7 129/67/8
f  130/22/48 131/65/5 132/67/8
f  133/22/48 134/67/8 135/23/20
f  136/19/19 137/4/4 138/3/3
f  139/3/3 140/68/49 141/19/19
f  142/69/50 143/70/51 144/71/52
f  145/69/50 146/71/52 147/72/22
f  148/69/50 149/72/22 150/73/21
f  151/73/21 152/74/53 153/75/53
f  154/75/53 155/69/50 156/73/21
f  157/60/28 158/76/28 159/77/28
f  160/60/28 161/77/28 162/78/29
f  163/60/28 164/78/29 165/61/28
f  166/79/54 167/80/55 168/81/55
f  169/81/55 170/82/55 171/79/54
f  172/83/56 173/84/57 174/85/36
f  175/85/36 176/86/35 177/83/56
f  178/87/58 179/88/59 180/84/57
f  181/84/57 182/83/56 183/87/58
f  184/89/60 185/90/61 186/91/59
f  187/91/59 188/92/58 189/89/60
f  190/93/62 191/94/63 192/90/61
f  193/90/61 194/89/60 195/93/62
f  196/95/64 197/96/65 198/94/63
f  199/94/63 200/93/62 201/95/64
f  202/46/38 203/45/37 204/97/65
f  205/97/65 206/98/64 207/46/38
f  208/40/32 209/39/31 210/54/44
f  211/54/44 212/53/43 213/40/32
f  214/99/49 215/19/19 216/68/49
f  217/68/49 218/100/49 219/99/49
f  220/101/66 221/56/45 222/55/12
f  223/55/12 224/102/67 225/101/66
f  226/103/12 227/104/68 228/101/66
f  229/101/66 230/102/67 231/103/12
f  232/1/1 233/105/69 234/106/70
f  235/106/70 236/107/71 237/1/1
f  238/108/72 239/104/68 240/103/12
f  241/103/12 242/109/73 243/108/72
f  244/110/73 245/107/71 246/111/74
f  247/111/74 248/112/75 249/110/73
f  250/107/71 251/110/73 252/2/2
f  253/2/2 254/1/1 255/107/71
f  256/6/6 257/113/76 258/114/77
f  259/115/78 260/105/69 261/1/1
f  262/114/77 263/115/78 264/1/1
f  265/1/1 266/6/6 267/114/77
f  268/6/6 269/12/12 270/58/47
f  271/6/6 272/58/47 273/57/46
f  274/6/6 275/57/46 276/113/76
f  277/10/79 278/14/79 279/116/80
f  280/10/79 281/116/80 282/11/81
f  283/11/82 284/10/79 285/11/81
f  286/15/15 287/117/83 288/118/83
f  289/15/15 290/118/83 291/119/83
f  292/16/16 293/15/15 294/119/83
f  295/16/16 296/119/83 297/120/83
f  298/16/16 299/120/83 300/121/83
f  301/16/16 302/121/83 303/122/84
f  304/123/27 305/124/27 306/125/27
f  307/125/27 308/126/27 309/123/27
f  310/112/75 311/111/74 312/108/72
f  313/108/72 314/109/73 315/112/75
f  316/1/85 317/4/86 318/3/3
f  319/3/3 320/2/2 321/1/85
f  322/5/87 323/7/88 324/1/85
f  325/1/85 326/6/89 327/5/87
f  328/4/86 329/1/85 330/7/88
f  331/7/88 332/8/90 333/4/86
f  334/9/91 335/5/87 336/6/89
f  337/6/89 338/10/92 339/9/91
f  340/10/93 341/6/94 342/12/95
f  343/12/95 344/11/82 345/11/96
f  346/10/93 347/12/95 348/11/96
f  349/10/92 350/14/97 351/13/98
f  352/13/98 353/9/91 354/10/92
f  355/15/99 356/18/100 357/17/17
f  358/17/17 359/16/16 360/15/99
f  361/8/90 362/20/101 363/19/102
f  364/19/102 365/4/86 366/8/90
f  367/21/103 368/24/104 369/23/105
f  370/23/105 371/22/106 372/21/103
f  373/24/107 374/21/107 375/26/108
f  376/26/108 377/25/108 378/24/107
f  379/27/27 380/30/27 381/29/27
f  382/29/27 383/28/27 384/27/27
f  385/31/55 386/34/55 387/33/54
f  388/33/54 389/32/55 390/31/55
f  391/35/30 392/38/27 393/37/27
f  394/37/27 395/36/30 396/35/30
f  397/39/63 398/42/109 399/41/60
f  400/41/60 401/40/110 402/39/63
f  403/42/109 404/44/59 405/43/58
f  406/43/58 407/41/60 408/42/109
f  409/45/111 410/48/112 411/47/113
f  412/47/113 413/46/114 414/45/111
f  415/48/112 416/50/115 417/49/116
f  418/49/116 419/47/113 420/48/112
f  421/51/115 422/54/117 423/53/118
f  424/53/118 425/52/116 426/51/115
f  427/58/119 428/57/120 429/56/121
f  430/56/121 431/55/12 432/58/119
f  433/59/55 434/62/55 435/61/55
f  436/61/55 437/60/55 438/59/55
f  439/22/55 440/23/101 441/67/90
f  442/67/90 443/66/88 444/65/87
f  445/22/55 446/67/90 447/65/87
f  448/22/55 449/65/87 450/64/91
f  451/22/55 452/64/91 453/63/98
f  454/19/102 455/68/49 456/3/3
f  457/3/3 458/4/86 459/19/102
f  460/69/122 461/73/103 462/72/106
f  463/69/122 464/72/106 465/71/123
f  466/69/122 467/71/123 468/70/124
f  469/73/103 470/69/122 471/75/125
f  472/75/125 473/74/125 474/73/103
f  475/60/55 476/61/55 477/78/54
f  478/60/55 479/78/54 480/77/55
f  481/60/55 482/77/55 483/76/55
f  484/79/29 485/82/28 486/81/28
f  487/81/28 488/80/28 489/79/29
f  490/83/126 491/86/58 492/85/59
f  493/85/59 494/84/27 495/83/126
f  496/87/35 497/83/126 498/84/27
f  499/84/27 500/88/127 501/87/35
f  502/89/128 503/92/35 504/91/127
f  505/91/127 506/90/129 507/89/128
f  508/93/130 509/89/128 510/90/129
f  511/90/129 512/94/131 513/93/130
f  514/95/132 515/93/130 516/94/131
f  517/94/131 518/96/133 519/95/132
f  520/46/114 521/98/132 522/97/133
f  523/97/133 524/45/111 525/46/114
f  526/40/110 527/53/118 528/54/117
f  529/54/117 530/39/63 531/40/110
f  532/99/49 533/100/49 534/68/49
f  535/68/49 536/19/102 537/99/49
f  538/101/134 539/102/135 540/55/12
f  541/55/12 542/56/121 543/101/134
f  544/102/135 545/101/134 546/104/136
f  547/104/136 548/103/12 549/102/135
f  550/106/137 551/105/138 552/1/85
f  553/1/85 554/107/139 555/106/137
f  556/108/140 557/109/73 558/103/12
f  559/103/12 560/104/136 561/108/140
f  562/112/141 563/111/142 564/107/139
f  565/107/139 566/110/73 567/112/141
f  568/107/139 569/1/85 570/2/2
f  571/2/2 572/110/73 573/107/139
f  574/6/89 575/114/143 576/113/144
f  577/115/145 578/1/85 579/105/138
f  580/114/143 581/6/89 582/1/85
f  583/1/85 584/115/145 585/114/143
f  586/6/89 587/113/144 588/57/120
f  589/6/89 590/57/120 591/58/119
f  592/6/89 593/58/119 594/12/12
f  595/17/146 596/18/147 597/116/148
f  598/11/81 599/17/146 600/116/148
f  601/11/82 602/11/81 603/116/148
f  604/11/82 605/116/148 606/11/96
f  607/16/16 608/122/84 609/121/149
f  610/16/16 611/121/149 612/120/149
f  613/119/149 614/118/149 615/117/149
f  616/119/149 617/117/149 618/15/99
f  619/120/149 620/119/149 621/15/99
f  622/16/16 623/120/149 624/15/99
f  625/123/27 626/126/27 627/125/27
f  628/125/27 629/124/27 630/123/27
f  631/112/141 632/109/73 633/108/140
f  634/108/140 635/111/142 636/112/141
f  637/1/150 638/4/151 639/3/152
f  640/3/152 641/2/153 642/1/150
f  643/5/154 644/7/155 645/1/150
f  646/1/150 647/6/156 648/5/154
f  649/4/151 650/1/150 651/7/155
f  652/7/155 653/8/157 654/4/151
f  655/9/158 656/5/154 657/6/156
f  658/6/156 659/10/159 660/9/158
f  661/10/160 662/6/161 663/12/162
f  664/12/162 665/11/163 666/11/164
f  667/10/160 668/12/162 669/11/164
f  670/10/159 671/14/165 672/13/166
f  673/13/166 674/9/158 675/10/159
f  676/15/167 677/18/168 678/17/169
f  679/17/169 680/16/170 681/15/167
f  682/8/157 683/20/171 684/19/172
f  685/19/172 686/4/151 687/8/157
f  688/21/173 689/24/174 690/23/175
f  691/23/175 692/22/176 693/21/173
f  694/24/177 695/21/177 696/26/26
f  697/26/26 698/25/26 699/24/177
f  700/27/27 701/30/27 702/29/27
f  703/29/27 704/28/27 705/27/27
f  706/31/28 707/34/28 708/33/29
f  709/33/29 710/32/28 711/31/28
f  712/35/178 713/38/27 714/37/27
f  715/37/27 716/36/178 717/35/178
f  718/39/131 719/42/34 720/41/33
f  721/41/33 722/40/32 723/39/131
f  724/42/34 725/44/127 726/43/35
f  727/43/35 728/41/33 729/42/34
f  730/45/179 731/48/180 732/47/39
f  733/47/39 734/46/38 735/45/179
f  736/48/180 737/50/42 738/49/41
f  739/49/41 740/47/39 741/48/180
f  742/51/42 743/54/181 744/53/43
f  745/53/43 746/52/41 747/51/42
f  748/58/182 749/57/183 750/56/184
f  751/56/184 752/55/185 753/58/182
f  754/59/28 755/62/28 756/61/28
f  757/61/28 758/60/28 759/59/28
f  760/22/28 761/23/171 762/67/157
f  763/67/157 764/66/155 765/65/154
f  766/22/28 767/67/157 768/65/154
f  769/22/28 770/65/154 771/64/158
f  772/22/28 773/64/158 774/63/166
f  775/19/172 776/68/49 777/3/152
f  778/3/152 779/4/151 780/19/172
f  781/69/186 782/73/173 783/72/176
f  784/69/186 785/72/176 786/71/187
f  787/69/186 788/71/187 789/70/188
f  790/73/173 791/69/186 792/75/53
f  793/75/53 794/74/53 795/73/173
f  796/60/28 797/61/28 798/78/29
f  799/60/28 800/78/29 801/77/28
f  802/60/28 803/77/28 804/76/28
f  805/79/54 806/82/55 807/81/55
f  808/81/55 809/80/55 810/79/54
f  811/83/56 812/86/35 813/85/127
f  814/85/127 815/84/27 816/83/56
f  817/87/58 818/83/56 819/84/27
f  820/84/27 821/88/59 822/87/58
f  823/89/60 824/92/58 825/91/59
f  826/91/59 827/90/61 828/89/60
f  829/93/62 830/89/60 831/90/61
f  832/90/61 833/94/63 834/93/62
f  835/95/64 836/93/62 837/94/63
f  838/94/63 839/96/65 840/95/64
f  841/46/38 842/98/64 843/97/65
f  844/97/65 845/45/179 846/46/38
f  847/40/32 848/53/43 849/54/181
f  850/54/181 851/39/131 852/40/32
f  853/99/49 854/100/49 855/68/49
f  856/68/49 857/19/172 858/99/49
f  859/101/189 860/102/190 861/55/185
f  862/55/185 863/56/184 864/101/189
f  865/102/190 866/101/189 867/104/191
f  868/104/191 869/103/185 870/102/190
f  871/106/192 872/105/193 873/1/150
f  874/1/150 875/107/194 876/106/192
f  877/108/195 878/109/196 879/103/185
f  880/103/185 881/104/191 882/108/195
f  883/112/197 884/111/198 885/107/194
f  886/107/194 887/110/196 888/112/197
f  889/107/194 890/1/150 891/2/153
f  892/2/153 893/110/196 894/107/194
f  895/6/156 896/114/199 897/113/200
f  898/115/201 899/1/150 900/105/193
f  901/114/199 902/6/156 903/1/150
f  904/1/150 905/115/201 906/114/199
f  907/6/156 908/113/200 909/57/183
f  910/6/156 911/57/183 912/58/182
f  913/6/156 914/58/182 915/12/185
f  916/17/202 917/18/203 918/116/204
f  919/11/205 920/17/202 921/116/204
f  922/11/163 923/11/205 924/116/204
f  925/11/163 926/116/204 927/11/164
f  928/16/170 929/122/206 930/121/207
f  931/16/170 932/121/207 933/120/207
f  934/119/207 935/118/207 936/117/207
f  937/119/207 938/117/207 939/15/167
f  940/120/207 941/119/207 942/15/167
f  943/16/170 944/120/207 945/15/167
f  946/123/27 947/126/27 948/125/27
f  949/125/27 950/124/27 951/123/27
f  952/112/197 953/109/196 954/108/195
f  955/108/195 956/111/198 957/112/197
f  958/1/208 959/2/153 960/3/152
f  961/3/152 962/4/209 963/1/208
f  964/5/210 965/6/211 966/1/208
f  967/1/208 968/7/212 969/5/210
f  970/4/209 971/8/213 972/7/212
f  973/7/212 974/1/208 975/4/209
f  976/9/214 977/10/215 978/6/211
f  979/6/211 980/5/210 981/9/214
f  982/10/215 983/11/216 984/12/185
f  985/12/185 986/6/211 987/10/215
f  988/10/215 989/9/214 990/13/217
f  991/13/217 992/14/218 993/10/215
f  994/15/219 995/16/170 996/17/169
f  997/17/169 998/18/220 999/15/219
f  1000/8/213 1001/4/209 1002/19/221
f  1003/19/221 1004/20/222 1005/8/213
f  1006/21/223 1007/22/224 1008/23/225
f  1009/23/225 1010/24/226 1011/21/223
f  1012/24/227 1013/25/108 1014/26/108
f  1015/26/108 1016/21/227 1017/24/227
f  1018/27/27 1019/28/27 1020/29/27
f  1021/29/27 1022/30/27 1023/27/27
f  1024/31/55 1025/32/55 1026/33/54
f  1027/33/54 1028/34/55 1029/31/55
f  1030/35/178 1031/36/178 1032/37/27
f  1033/37/27 1034/38/27 1035/35/178
f  1036/39/228 1037/40/110 1038/41/60
f  1039/41/60 1040/42/109 1041/39/228
f  1042/42/109 1043/41/60 1044/43/58
f  1045/43/58 1046/44/229 1047/42/109
f  1048/45/230 1049/46/114 1050/47/113
f  1051/47/113 1052/48/231 1053/45/230
f  1054/48/231 1055/47/113 1056/49/116
f  1057/49/116 1058/50/115 1059/48/231
f  1060/51/115 1061/52/116 1062/53/118
f  1063/53/118 1064/54/232 1065/51/115
f  1066/55/185 1067/56/233 1068/57/234
f  1069/57/234 1070/58/235 1071/55/185
f  1072/59/55 1073/60/55 1074/61/55
f  1075/61/55 1076/62/55 1077/59/55
f  1078/22/236 1079/63/217 1080/64/214
f  1081/22/236 1082/64/214 1083/65/210
f  1084/65/210 1085/66/212 1086/67/213
f  1087/22/236 1088/65/210 1089/67/213
f  1090/22/236 1091/67/213 1092/23/222
f  1093/19/221 1094/4/209 1095/3/152
f  1096/3/152 1097/68/49 1098/19/221
f  1099/69/237 1100/70/238 1101/71/239
f  1102/69/237 1103/71/239 1104/72/224
f  1105/69/237 1106/72/224 1107/73/223
f  1108/73/223 1109/74/125 1110/75/125
f  1111/75/125 1112/69/237 1113/73/223
f  1114/60/55 1115/76/55 1116/77/55
f  1117/60/55 1118/77/55 1119/78/54
f  1120/60/55 1121/78/54 1122/61/55
f  1123/79/29 1124/80/28 1125/81/28
f  1126/81/28 1127/82/28 1128/79/29
f  1129/83/126 1130/84/240 1131/85/229
f  1132/85/229 1133/86/58 1134/83/126
f  1135/87/35 1136/88/127 1137/84/240
f  1138/84/240 1139/83/126 1140/87/35
f  1141/89/128 1142/90/129 1143/91/127
f  1144/91/127 1145/92/35 1146/89/128
f  1147/93/130 1148/94/131 1149/90/129
f  1150/90/129 1151/89/128 1152/93/130
f  1153/95/132 1154/96/133 1155/94/131
f  1156/94/131 1157/93/130 1158/95/132
f  1159/46/114 1160/45/230 1161/97/133
f  1162/97/133 1163/98/132 1164/46/114
f  1165/40/110 1166/39/228 1167/54/232
f  1168/54/232 1169/53/118 1170/40/110
f  1171/99/49 1172/19/221 1173/68/49
f  1174/68/49 1175/100/49 1176/99/49
f  1177/101/241 1178/56/233 1179/55/185
f  1180/55/185 1181/102/242 1182/101/241
f  1183/103/185 1184/104/243 1185/101/241
f  1186/101/241 1187/102/242 1188/103/185
f  1189/1/208 1190/105/244 1191/106/245
f  1192/106/245 1193/107/246 1194/1/208
f  1195/108/247 1196/104/243 1197/103/185
f  1198/103/185 1199/109/196 1200/108/247
f  1201/110/196 1202/107/246 1203/111/248
f  1204/111/248 1205/112/249 1206/110/196
f  1207/107/246 1208/110/196 1209/2/153
f  1210/2/153 1211/1/208 1212/107/246
f  1213/6/211 1214/113/250 1215/114/251
f  1216/115/252 1217/105/244 1218/1/208
f  1219/114/251 1220/115/252 1221/1/208
f  1222/1/208 1223/6/211 1224/114/251
f  1225/6/211 1226/12/185 1227/58/235
f  1228/6/211 1229/58/235 1230/57/234
f  1231/6/211 1232/57/234 1233/113/250
f  1234/10/253 1235/14/253 1236/116/254
f  1237/10/253 1238/116/254 1239/11/205
f  1240/11/163 1241/10/253 1242/11/205
f  1243/15/219 1244/117/255 1245/118/255
f  1246/15/219 1247/118/255 1248/119/255
f  1249/16/170 1250/15/219 1251/119/255
f  1252/16/170 1253/119/255 1254/120/255
f  1255/16/170 1256/120/255 1257/121/255
f  1258/16/170 1259/121/255 1260/122/206
f  1261/123/27 1262/124/27 1263/125/27
f  1264/125/27 1265/126/27 1266/123/27
f  1267/112/249 1268/111/248 1269/108/247
f  1270/108/247 1271/109/196 1272/112/249
f  1273/116/148 1274/14/256 1275/10/93
f  1276/10/93 1277/11/96 1278/116/148
f  1279/116/80 1280/18/257 1281/17/146
f  1282/17/146 1283/11/81 1284/116/80
f  1285/116/204 1286/14/258 1287/10/160
f  1288/10/160 1289/11/164 1290/116/204
f  1291/116/254 1292/18/259 1293/17/202
f  1294/17/202 1295/11/205 1296/116/254

