# MuJoCo material-split OBJ
v  -27.9851 -22.2639 33.0139
v  -27.9851 -22.4177 45.5510
v  -27.9851 -0.7011 48.1562
v  -27.9851 16.2535 47.8739
v  -27.9851 31.7047 32.1150
v  -19.1258 23.6595 95.9868
v  -23.7581 22.0395 92.4286
v  -0.0000 21.8457 92.5673
v  -0.0000 24.3084 98.0569
v  -0.0000 27.5518 99.9837
v  -0.0000 36.4291 97.6545
v  -21.3087 36.0892 95.3024
v  -21.3087 27.0300 97.4861
v  -27.9851 32.2111 53.4292
v  -27.9851 35.4737 89.8464
v  0.0000 32.2111 52.0430
v  0.0000 31.7047 32.1150
v  -0.0000 -24.4792 33.0139
v  -22.6078 -23.7571 33.0139
v  -0.0000 -26.3484 33.9485
v  -22.8770 -25.4170 34.0690
v  -0.0000 -26.1615 44.8119
v  -22.8002 -25.3727 46.0971
v  -0.0000 -24.6661 46.8680
v  -22.6308 -23.7974 48.0470
v  0.0000 -0.7686 49.4848
v  -23.7707 -0.7686 50.6622
v  0.0000 14.3609 48.4181
v  -23.7706 14.3609 49.5955
v  0.0000 15.2962 65.2559
v  -23.7580 15.2962 65.2559
v  -27.9851 24.8937 92.6349
v  -26.7738 -24.2019 34.0899
v  -26.7738 -24.0562 43.6365
v  -27.9851 17.9795 64.8444
v  27.9851 -0.7011 48.1562
v  27.9851 -22.4177 45.5510
v  27.9851 -22.2639 33.0139
v  27.9851 31.7047 32.1150
v  27.9851 16.2535 47.8739
v  19.1258 23.6595 95.9869
v  23.7581 22.0395 92.4286
v  21.3087 27.0300 97.4861
v  21.3087 36.0892 95.3024
v  27.9851 35.4737 89.8464
v  27.9851 32.2111 53.4292
v  22.6078 -23.7571 33.0139
v  22.8770 -25.4170 34.0690
v  22.8002 -25.3727 46.0971
v  22.6308 -23.7974 48.0470
v  23.7707 -0.7686 50.6622
v  23.7707 14.3609 49.5955
v  23.7580 15.2962 65.2559
v  27.9851 24.8937 92.6349
v  26.7738 -24.0562 43.6365
v  26.7738 -24.2019 34.0899
v  27.9851 17.9795 64.8444
v  -35.4143 14.4645 70.7107
v  -35.4143 33.4828 68.5653
v  -35.4143 32.9515 63.8552
v  -35.4143 14.0590 65.9863
v  -27.6743 14.4645 70.7107
v  -27.6743 33.4828 68.5653
v  -27.6743 14.0590 65.9863
v  -27.6743 32.9515 63.8552
v  -35.4143 -4.6861 71.8406
v  -35.4143 -4.8624 67.1027
v  -27.6743 -4.6861 71.8406
v  -27.6743 -4.8624 67.1027
v  -35.4143 -24.5511 72.2129
v  -35.4143 -23.5861 67.3919
v  -27.6743 -24.5511 72.2129
v  -27.6743 -23.5861 67.3919
v  -34.5443 32.3435 21.9677
v  -34.5443 34.0510 0.0000
v  -34.5443 28.0940 0.0000
v  -34.5443 26.3417 21.6227
v  -28.5443 32.3435 21.9677
v  -28.5443 34.0510 0.0000
v  -28.5443 26.3417 21.6227
v  -28.5443 28.0940 0.0000
v  -34.5443 31.8202 46.1604
v  -34.5443 25.8210 46.3370
v  -28.5443 31.8202 46.1604
v  -28.5443 25.8210 46.3370
v  -34.5443 32.8736 65.6479
v  -34.5443 26.8824 65.9717
v  -28.5443 32.8736 65.6479
v  -28.5443 26.8823 65.9717
v  -33.3632 4.4426 39.2314
v  -33.3632 26.9428 37.2488
v  -33.3632 26.4144 31.2522
v  -33.3632 4.1259 33.2162
v  -29.7254 4.4426 39.2314
v  -29.7254 26.9428 37.2488
v  -29.7254 4.1259 33.2162
v  -29.7254 26.4144 31.2522
v  -33.3632 -18.3259 39.6256
v  -33.3632 -18.4301 33.6067
v  -29.7254 -18.3259 39.6256
v  -29.7254 -18.4301 33.6067
v  -34.2499 -21.7545 0.0000
v  -34.2498 -16.3434 0.0000
v  -28.8387 -16.3434 0.0000
v  -28.8387 -21.7545 0.0000
v  -28.8387 -21.7545 68.0156
v  -34.2499 -21.7545 68.0156
v  -28.8387 -16.3434 68.0156
v  -34.2498 -16.3434 68.0156
v  35.4143 14.4645 70.7107
v  35.4143 14.0590 65.9863
v  35.4143 32.9515 63.8552
v  35.4143 33.4828 68.5653
v  27.6743 14.4645 70.7107
v  27.6743 33.4828 68.5653
v  27.6743 14.0590 65.9863
v  27.6743 32.9515 63.8552
v  35.4143 -4.6861 71.8406
v  35.4143 -4.8624 67.1027
v  27.6743 -4.6861 71.8406
v  27.6743 -4.8624 67.1027
v  35.4143 -24.5511 72.2129
v  35.4143 -23.5861 67.3919
v  27.6743 -24.5511 72.2129
v  27.6743 -23.5861 67.3919
v  34.5443 32.3435 21.9677
v  34.5443 26.3417 21.6227
v  34.5443 28.0940 0.0000
v  34.5443 34.0510 0.0000
v  28.5443 32.3435 21.9677
v  28.5443 34.0510 0.0000
v  28.5443 26.3417 21.6227
v  28.5443 28.0940 0.0000
v  34.5443 31.8202 46.1604
v  34.5443 25.8210 46.3370
v  28.5443 31.8202 46.1604
v  28.5443 25.8210 46.3370
v  34.5443 32.8736 65.6479
v  34.5443 26.8823 65.9717
v  28.5443 32.8736 65.6479
v  28.5443 26.8823 65.9717
v  33.3632 4.4426 39.2314
v  33.3632 4.1259 33.2162
v  33.3632 26.4144 31.2522
v  33.3632 26.9428 37.2488
v  29.7254 4.4426 39.2314
v  29.7254 26.9428 37.2488
v  29.7254 4.1259 33.2162
v  29.7254 26.4144 31.2522
v  33.3632 -18.3259 39.6256
v  33.3632 -18.4301 33.6067
v  29.7254 -18.3259 39.6256
v  29.7254 -18.4301 33.6067
v  34.2498 -21.7545 0.0000
v  28.8387 -21.7545 0.0000
v  28.8387 -16.3434 0.0000
v  34.2498 -16.3434 0.0000
v  34.2498 -21.7545 68.0156
v  28.8387 -21.7545 68.0156
v  28.8387 -16.3434 68.0156
v  34.2498 -16.3434 68.0156
vt 0.8899 0.9096 0.0000
vt 0.7964 0.8688 0.0000
vt 0.8128 0.7062 0.0000
vt 0.8339 0.5691 0.0000
vt 0.9892 0.4695 0.0000
vt 0.3041 0.4440 0.0000
vt 0.2857 0.4237 0.0000
vt 0.3820 0.4180 0.0000
vt 0.3820 0.4569 0.0000
vt 0.3820 0.4814 0.0000
vt 0.3820 0.5490 0.0000
vt 0.2591 0.5202 0.0000
vt 0.2923 0.4629 0.0000
vt 0.3999 0.3538 0.0000
vt 0.3999 0.0643 0.0000
vt 0.4338 0.0208 0.0000
vt 0.5417 0.0020 0.0000
vt 0.5417 0.3648 0.0000
vt 0.5417 0.5227 0.0000
vt 0.3999 0.5227 0.0000
vt 0.5417 0.9676 0.0000
vt 0.4272 0.9618 0.0000
vt 0.3999 0.9501 0.0000
vt 0.5417 0.9841 0.0000
vt 0.4254 0.9773 0.0000
vt 0.6690 0.8983 0.0000
vt 0.7785 0.8755 0.0000
vt 0.8127 0.9632 0.0000
vt 0.6690 0.9906 0.0000
vt 0.6690 0.8767 0.0000
vt 0.7730 0.8670 0.0000
vt 0.6690 0.6986 0.0000
vt 0.7857 0.7028 0.0000
vt 0.6690 0.5750 0.0000
vt 0.7987 0.5813 0.0000
vt 0.3820 0.0697 0.0000
vt 0.3820 0.2167 0.0000
vt 0.2605 0.2248 0.0000
vt 0.2382 0.0899 0.0000
vt 0.2706 0.4362 0.0000
vt 0.2035 0.4754 0.0000
vt 0.8531 0.9373 0.0000
vt 0.7992 0.8820 0.0000
vt 0.2294 0.2298 0.0000
vt 0.0735 0.1899 0.0000
vt 0.0020 0.0020 0.0000
vt 0.1930 0.0846 0.0000
vt 0.4051 0.9682 0.0000
vt 1.8128 0.7062 0.0000
vt 1.7964 0.8688 0.0000
vt 1.8899 0.9096 0.0000
vt 1.9892 0.4695 0.0000
vt 1.8339 0.5691 0.0000
vt 1.3041 0.4440 0.0000
vt 1.3820 0.4569 0.0000
vt 1.3820 0.4180 0.0000
vt 1.2857 0.4237 0.0000
vt 1.3820 0.4814 0.0000
vt 1.2923 0.4629 0.0000
vt 1.2591 0.5202 0.0000
vt 1.3820 0.5490 0.0000
vt 1.4338 0.0208 0.0000
vt 1.3999 0.0643 0.0000
vt 1.3999 0.3538 0.0000
vt 1.5417 0.3648 0.0000
vt 1.5417 0.0020 0.0000
vt 1.3999 0.5227 0.0000
vt 1.5417 0.5227 0.0000
vt 1.3999 0.9501 0.0000
vt 1.4272 0.9618 0.0000
vt 1.5417 0.9676 0.0000
vt 1.4254 0.9773 0.0000
vt 1.5417 0.9841 0.0000
vt 1.6690 0.8983 0.0000
vt 1.6690 0.9906 0.0000
vt 1.8127 0.9632 0.0000
vt 1.7785 0.8755 0.0000
vt 1.7730 0.8670 0.0000
vt 1.6690 0.8767 0.0000
vt 1.7857 0.7028 0.0000
vt 1.6690 0.6986 0.0000
vt 1.7987 0.5813 0.0000
vt 1.6690 0.5750 0.0000
vt 1.3820 0.0697 0.0000
vt 1.2382 0.0899 0.0000
vt 1.2605 0.2248 0.0000
vt 1.3820 0.2167 0.0000
vt 1.2706 0.4362 0.0000
vt 1.2035 0.4754 0.0000
vt 1.7992 0.8820 0.0000
vt 1.8531 0.9373 0.0000
vt 1.2294 0.2298 0.0000
vt 1.1930 0.0846 0.0000
vt 1.0020 0.0020 0.0000
vt 1.0735 0.1899 0.0000
vt 1.4051 0.9682 0.0000
vt 0.5973 0.3487 0.0000
vt 0.5973 0.4997 0.0000
vt 0.5596 0.4995 0.0000
vt 0.5596 0.3486 0.0000
vt 0.6364 0.3487 0.0000
vt 0.6364 0.4997 0.0000
vt 0.6742 0.3487 0.0000
vt 0.6742 0.4996 0.0000
vt 0.7135 0.3487 0.0000
vt 0.7135 0.4995 0.0000
vt 0.5973 0.1980 0.0000
vt 0.5596 0.1982 0.0000
vt 0.6364 0.1980 0.0000
vt 0.6742 0.1981 0.0000
vt 0.7135 0.1982 0.0000
vt 0.5973 0.0410 0.0000
vt 0.5596 0.0495 0.0000
vt 0.6364 0.0410 0.0000
vt 0.6742 0.0494 0.0000
vt 0.7135 0.0496 0.0000
vt 0.6364 0.5373 0.0000
vt 0.5973 0.5373 0.0000
vt 0.5973 0.0020 0.0000
vt 0.6364 0.0020 0.0000
vt 0.8094 0.3513 0.0000
vt 0.8094 0.5257 0.0000
vt 0.7622 0.5221 0.0000
vt 0.7622 0.3517 0.0000
vt 0.8398 0.3514 0.0000
vt 0.8398 0.5257 0.0000
vt 0.8870 0.3519 0.0000
vt 0.8870 0.5224 0.0000
vt 0.7320 0.5223 0.0000
vt 0.7320 0.3518 0.0000
vt 0.8094 0.1578 0.0000
vt 0.7622 0.1571 0.0000
vt 0.8398 0.1578 0.0000
vt 0.8870 0.1572 0.0000
vt 0.7320 0.1571 0.0000
vt 0.8094 0.0023 0.0000
vt 0.7622 0.0021 0.0000
vt 0.8398 0.0023 0.0000
vt 0.8870 0.0021 0.0000
vt 0.7320 0.0020 0.0000
vt 0.6214 0.8827 0.0000
vt 0.6214 0.9299 0.0000
vt 0.5910 0.9299 0.0000
vt 0.5910 0.8827 0.0000
vt 0.2714 0.8092 0.0000
vt 0.2714 0.9872 0.0000
vt 0.2237 0.9872 0.0000
vt 0.2237 0.8092 0.0000
vt 0.2897 0.8092 0.0000
vt 0.2897 0.9872 0.0000
vt 0.3374 0.8092 0.0000
vt 0.3374 0.9872 0.0000
vt 0.2052 0.9872 0.0000
vt 0.2052 0.8092 0.0000
vt 0.2714 0.6297 0.0000
vt 0.2237 0.6297 0.0000
vt 0.2897 0.6297 0.0000
vt 0.3374 0.6297 0.0000
vt 0.2052 0.6297 0.0000
vt 0.5897 0.6965 0.0000
vt 0.5897 0.6536 0.0000
vt 0.6171 0.6536 0.0000
vt 0.6171 0.6965 0.0000
vt 0.0761 0.4488 0.0000
vt 0.1035 0.4488 0.0000
vt 0.1035 0.9874 0.0000
vt 0.0761 0.9874 0.0000
vt 0.1463 0.4488 0.0000
vt 0.1463 0.9874 0.0000
vt 0.0058 0.4488 0.0000
vt 0.0332 0.4488 0.0000
vt 0.0332 0.9874 0.0000
vt 0.0058 0.9874 0.0000
vt 1.5973 0.3487 0.0000
vt 1.5596 0.3486 0.0000
vt 1.5596 0.4995 0.0000
vt 1.5973 0.4997 0.0000
vt 1.6364 0.3487 0.0000
vt 1.6364 0.4997 0.0000
vt 1.6742 0.3487 0.0000
vt 1.6742 0.4996 0.0000
vt 1.7135 0.3487 0.0000
vt 1.7135 0.4995 0.0000
vt 1.5973 0.1980 0.0000
vt 1.5596 0.1982 0.0000
vt 1.6364 0.1980 0.0000
vt 1.6742 0.1981 0.0000
vt 1.7135 0.1982 0.0000
vt 1.5973 0.0410 0.0000
vt 1.5596 0.0495 0.0000
vt 1.6364 0.0410 0.0000
vt 1.6742 0.0494 0.0000
vt 1.7135 0.0496 0.0000
vt 1.5973 0.5373 0.0000
vt 1.6364 0.5373 0.0000
vt 1.5973 0.0020 0.0000
vt 1.6364 0.0020 0.0000
vt 1.8094 0.3513 0.0000
vt 1.7622 0.3517 0.0000
vt 1.7622 0.5221 0.0000
vt 1.8094 0.5257 0.0000
vt 1.8398 0.3514 0.0000
vt 1.8398 0.5257 0.0000
vt 1.8870 0.3519 0.0000
vt 1.8870 0.5224 0.0000
vt 1.7320 0.3518 0.0000
vt 1.7320 0.5223 0.0000
vt 1.8094 0.1578 0.0000
vt 1.7622 0.1571 0.0000
vt 1.8398 0.1578 0.0000
vt 1.8870 0.1572 0.0000
vt 1.7320 0.1571 0.0000
vt 1.8094 0.0023 0.0000
vt 1.7622 0.0021 0.0000
vt 1.8398 0.0023 0.0000
vt 1.8870 0.0021 0.0000
vt 1.7320 0.0020 0.0000
vt 1.6214 0.8827 0.0000
vt 1.5910 0.8827 0.0000
vt 1.5910 0.9299 0.0000
vt 1.6214 0.9299 0.0000
vt 1.2714 0.8092 0.0000
vt 1.2237 0.8092 0.0000
vt 1.2237 0.9872 0.0000
vt 1.2714 0.9872 0.0000
vt 1.2897 0.8092 0.0000
vt 1.2897 0.9872 0.0000
vt 1.3374 0.8092 0.0000
vt 1.3374 0.9872 0.0000
vt 1.2052 0.8092 0.0000
vt 1.2052 0.9872 0.0000
vt 1.2714 0.6297 0.0000
vt 1.2237 0.6297 0.0000
vt 1.2897 0.6297 0.0000
vt 1.3374 0.6297 0.0000
vt 1.2052 0.6297 0.0000
vt 1.5897 0.6965 0.0000
vt 1.6171 0.6965 0.0000
vt 1.6171 0.6536 0.0000
vt 1.5897 0.6536 0.0000
vt 1.0761 0.4488 0.0000
vt 1.0761 0.9874 0.0000
vt 1.1035 0.9874 0.0000
vt 1.1035 0.4488 0.0000
vt 1.1463 0.9874 0.0000
vt 1.1463 0.4488 0.0000
vt 1.0058 0.4488 0.0000
vt 1.0058 0.9874 0.0000
vt 1.0332 0.9874 0.0000
vt 1.0332 0.4488 0.0000
vn -0.7044 -0.2293 -0.6718
vn -0.8609 -0.3223 0.3937
vn -0.9079 -0.0119 0.4190
vn -0.9769 -0.1474 0.1546
vn -0.5779 0.5650 -0.5889
vn -0.2198 -0.6954 0.6842
vn -0.3985 -0.8232 0.4044
vn -0.0000 -0.9459 0.3245
vn -0.0000 -0.7219 0.6920
vn -0.0000 -0.1286 0.9917
vn 0.0000 0.7904 0.6126
vn -0.3931 0.7347 0.5529
vn -0.4654 -0.1218 0.8767
vn -0.7165 0.6964 -0.0415
vn -0.7292 0.6654 0.1600
vn 0.0000 0.9984 -0.0567
vn 0.0000 0.6922 -0.7218
vn 0.0000 -0.2483 -0.9687
vn -0.0841 -0.3101 -0.9470
vn -0.0000 -0.8595 -0.5111
vn -0.2238 -0.8623 -0.4542
vn -0.0000 -0.9543 0.2989
vn -0.3479 -0.8632 0.3657
vn -0.0000 -0.5229 0.8524
vn -0.3028 -0.4592 0.8352
vn -0.0000 -0.0194 0.9998
vn -0.3239 -0.0210 0.9459
vn -0.0000 -0.6436 0.7654
vn -0.4294 -0.5952 0.6792
vn -0.0000 -0.9890 0.1476
vn -0.3713 -0.9170 0.1459
vn -0.8665 -0.2859 0.4091
vn -0.6317 -0.6821 -0.3682
vn -0.7151 -0.6906 0.1080
vn -0.9181 -0.3904 0.0682
vn 0.9079 -0.0119 0.4190
vn 0.8609 -0.3223 0.3937
vn 0.7044 -0.2293 -0.6718
vn 0.5779 0.5650 -0.5889
vn 0.9769 -0.1474 0.1546
vn 0.2198 -0.6954 0.6842
vn 0.3985 -0.8232 0.4044
vn 0.4654 -0.1218 0.8767
vn 0.3931 0.7347 0.5529
vn 0.7292 0.6654 0.1600
vn 0.7165 0.6964 -0.0415
vn 0.0841 -0.3101 -0.9470
vn 0.2238 -0.8623 -0.4542
vn 0.3479 -0.8632 0.3657
vn 0.3028 -0.4592 0.8352
vn 0.3239 -0.0210 0.9459
vn 0.4294 -0.5952 0.6792
vn 0.3713 -0.9170 0.1459
vn 0.8665 -0.2859 0.4091
vn 0.7151 -0.6906 0.1080
vn 0.6317 -0.6821 -0.3682
vn 0.9181 -0.3904 0.0682
vn -0.7011 0.0610 0.7104
vn -0.5774 0.6384 0.5090
vn -0.5774 0.5090 -0.6384
vn -0.7132 -0.0600 -0.6984
vn 0.7011 0.0610 0.7104
vn 0.5774 0.6384 0.5090
vn 0.7132 -0.0600 -0.6984
vn 0.5774 0.5090 -0.6384
vn -0.7026 0.0276 0.7110
vn -0.7120 -0.0261 -0.7017
vn 0.7026 0.0276 0.7110
vn 0.7120 -0.0261 -0.7017
vn -0.5668 -0.6322 0.5282
vn -0.5894 -0.5169 -0.6208
vn 0.5668 -0.6322 0.5282
vn 0.5894 -0.5169 -0.6208
vn -0.7135 0.6998 0.0347
vn -0.5734 0.6014 -0.5564
vn -0.5817 -0.5514 -0.5979
vn -0.7004 -0.7128 -0.0364
vn 0.7135 0.6998 0.0347
vn 0.5734 0.6014 -0.5564
vn 0.7004 -0.7128 -0.0364
vn 0.5817 -0.5514 -0.5979
vn -0.7157 0.6983 -0.0113
vn -0.6988 -0.7153 0.0118
vn 0.7157 0.6983 -0.0113
vn 0.6988 -0.7153 0.0118
vn -0.7071 0.7061 -0.0382
vn -0.7071 -0.7061 0.0382
vn 0.7071 0.7061 -0.0382
vn 0.7071 -0.7061 0.0382
vn -0.6993 0.0376 0.7139
vn -0.7071 0.0621 0.7044
vn -0.7071 -0.0621 -0.7044
vn -0.7151 -0.0367 -0.6980
vn 0.6993 0.0376 0.7139
vn 0.7071 0.0621 0.7044
vn 0.7151 -0.0367 -0.6980
vn 0.7071 -0.0621 -0.7044
vn -0.7071 0.0122 0.7070
vn -0.7071 -0.0122 -0.7070
vn 0.7071 0.0122 0.7070
vn 0.7071 -0.0122 -0.7070
vn -0.5774 -0.5774 -0.5774
vn -0.5774 0.5774 -0.5774
vn 0.5774 0.5774 -0.5774
vn 0.5774 -0.5774 -0.5774
vn 0.7071 -0.7071 0.0000
vn -0.7071 -0.7071 -0.0000
vn 0.7071 0.7071 0.0000
vn -0.7071 0.7071 -0.0000
f 1/1/1 2/2/2 3/3/3
f 1/1/1 3/3/3 4/4/4
f 1/1/1 4/4/4 5/5/5
f 6/6/6 7/7/7 8/8/8
f 6/6/6 8/8/8 9/9/9
f 10/10/10 11/11/11 12/12/12
f 10/10/10 12/12/12 13/13/13
f 14/14/14 15/15/15 12/16/12
f 14/14/14 12/16/12 11/17/11
f 14/14/14 11/17/11 16/18/16
f 16/18/16 17/19/17 5/20/5
f 16/18/16 5/20/5 14/14/14
f 17/19/17 18/21/18 19/22/19
f 17/19/17 19/22/19 1/23/1
f 17/19/17 1/23/1 5/20/5
f 18/21/18 20/24/20 21/25/21
f 18/21/18 21/25/21 19/22/19
f 22/26/22 23/27/23 21/28/21
f 22/26/22 21/28/21 20/29/20
f 22/26/22 24/30/24 25/31/25
f 22/26/22 25/31/25 23/27/23
f 24/30/24 26/32/26 27/33/27
f 24/30/24 27/33/27 25/31/25
f 26/32/26 28/34/28 29/35/29
f 26/32/26 29/35/29 27/33/27
f 28/36/28 30/37/30 31/38/31
f 28/36/28 31/38/31 29/39/29
f 32/40/32 13/13/13 12/12/12
f 32/40/32 12/12/12 15/41/15
f 1/1/1 33/42/33 34/43/34
f 1/1/1 34/43/34 2/2/2
f 35/44/35 32/40/32 15/41/15
f 35/44/35 15/41/15 14/45/14
f 35/44/35 14/45/14 5/46/5
f 35/44/35 5/46/5 4/47/4
f 35/44/35 31/38/31 7/7/7
f 35/44/35 7/7/7 32/40/32
f 34/43/34 23/27/23 25/31/25
f 34/43/34 25/31/25 2/2/2
f 2/2/2 25/31/25 27/33/27
f 2/2/2 27/33/27 3/3/3
f 3/3/3 27/33/27 29/35/29
f 3/3/3 29/35/29 4/4/4
f 4/47/4 29/39/29 31/38/31
f 4/47/4 31/38/31 35/44/35
f 9/9/9 10/10/10 13/13/13
f 9/9/9 13/13/13 6/6/6
f 32/40/32 7/7/7 6/6/6
f 32/40/32 6/6/6 13/13/13
f 34/43/34 33/42/33 21/28/21
f 34/43/34 21/28/21 23/27/23
f 33/48/33 1/23/1 19/22/19
f 33/48/33 19/22/19 21/25/21
f 7/7/7 31/38/31 30/37/30
f 7/7/7 30/37/30 8/8/8
f 36/49/36 37/50/37 38/51/38
f 36/49/36 38/51/38 39/52/39
f 36/49/36 39/52/39 40/53/40
f 41/54/41 9/55/9 8/56/8
f 41/54/41 8/56/8 42/57/42
f 10/58/10 43/59/43 44/60/44
f 10/58/10 44/60/44 11/61/11
f 44/62/44 45/63/45 46/64/46
f 44/62/44 46/64/46 16/65/16
f 44/62/44 16/65/16 11/66/11
f 16/65/16 46/64/46 39/67/39
f 16/65/16 39/67/39 17/68/17
f 17/68/17 39/67/39 38/69/38
f 17/68/17 38/69/38 47/70/47
f 17/68/17 47/70/47 18/71/18
f 18/71/18 47/70/47 48/72/48
f 18/71/18 48/72/48 20/73/20
f 22/74/22 20/75/20 48/76/48
f 22/74/22 48/76/48 49/77/49
f 22/74/22 49/77/49 50/78/50
f 22/74/22 50/78/50 24/79/24
f 24/79/24 50/78/50 51/80/51
f 24/79/24 51/80/51 26/81/26
f 26/81/26 51/80/51 52/82/52
f 26/81/26 52/82/52 28/83/28
f 28/84/28 52/85/52 53/86/53
f 28/84/28 53/86/53 30/87/30
f 54/88/54 45/89/45 44/60/44
f 54/88/54 44/60/44 43/59/43
f 38/51/38 37/50/37 55/90/55
f 38/51/38 55/90/55 56/91/56
f 45/89/45 54/88/54 57/92/57
f 45/89/45 57/92/57 40/93/40
f 45/89/45 40/93/40 39/94/39
f 45/89/45 39/94/39 46/95/46
f 57/92/57 54/88/54 42/57/42
f 57/92/57 42/57/42 53/86/53
f 55/90/55 37/50/37 50/78/50
f 55/90/55 50/78/50 49/77/49
f 37/50/37 36/49/36 51/80/51
f 37/50/37 51/80/51 50/78/50
f 36/49/36 40/53/40 52/82/52
f 36/49/36 52/82/52 51/80/51
f 40/93/40 57/92/57 53/86/53
f 40/93/40 53/86/53 52/85/52
f 9/55/9 41/54/41 43/59/43
f 9/55/9 43/59/43 10/58/10
f 54/88/54 43/59/43 41/54/41
f 54/88/54 41/54/41 42/57/42
f 55/90/55 49/77/49 48/76/48
f 55/90/55 48/76/48 56/91/56
f 56/96/56 48/72/48 47/70/47
f 56/96/56 47/70/47 38/69/38
f 42/57/42 8/56/8 30/87/30
f 42/57/42 30/87/30 53/86/53
f 58/97/58 59/98/59 60/99/60
f 58/97/58 60/99/60 61/100/61
f 62/101/62 63/102/63 59/98/59
f 62/101/62 59/98/59 58/97/58
f 64/103/64 65/104/65 63/102/63
f 64/103/64 63/102/63 62/101/62
f 61/105/61 60/106/60 65/104/65
f 61/105/61 65/104/65 64/103/64
f 66/107/66 58/97/58 61/100/61
f 66/107/66 61/100/61 67/108/67
f 68/109/68 62/101/62 58/97/58
f 68/109/68 58/97/58 66/107/66
f 69/110/69 64/103/64 62/101/62
f 69/110/69 62/101/62 68/109/68
f 67/111/67 61/105/61 64/103/64
f 67/111/67 64/103/64 69/110/69
f 70/112/70 66/107/66 67/108/67
f 70/112/70 67/108/67 71/113/71
f 72/114/72 68/109/68 66/107/66
f 72/114/72 66/107/66 70/112/70
f 73/115/73 69/110/69 68/109/68
f 73/115/73 68/109/68 72/114/72
f 71/116/71 67/111/67 69/110/69
f 71/116/71 69/110/69 73/115/73
f 63/102/63 65/117/65 60/118/60
f 63/102/63 60/118/60 59/98/59
f 71/119/71 73/120/73 72/114/72
f 71/119/71 72/114/72 70/112/70
f 74/121/74 75/122/75 76/123/76
f 74/121/74 76/123/76 77/124/77
f 78/125/78 79/126/79 75/122/75
f 78/125/78 75/122/75 74/121/74
f 80/127/80 81/128/81 79/126/79
f 80/127/80 79/126/79 78/125/78
f 77/124/77 76/123/76 81/129/81
f 77/124/77 81/129/81 80/130/80
f 82/131/82 74/121/74 77/124/77
f 82/131/82 77/124/77 83/132/83
f 84/133/84 78/125/78 74/121/74
f 84/133/84 74/121/74 82/131/82
f 85/134/85 80/127/80 78/125/78
f 85/134/85 78/125/78 84/133/84
f 83/132/83 77/124/77 80/130/80
f 83/132/83 80/130/80 85/135/85
f 86/136/86 82/131/82 83/132/83
f 86/136/86 83/132/83 87/137/87
f 88/138/88 84/133/84 82/131/82
f 88/138/88 82/131/82 86/136/86
f 89/139/89 85/134/85 84/133/84
f 89/139/89 84/133/84 88/138/88
f 87/137/87 83/132/83 85/135/85
f 87/137/87 85/135/85 89/140/89
f 79/141/79 81/142/81 76/143/76
f 79/141/79 76/143/76 75/144/75
f 90/145/90 91/146/91 92/147/92
f 90/145/90 92/147/92 93/148/93
f 94/149/94 95/150/95 91/146/91
f 94/149/94 91/146/91 90/145/90
f 96/151/96 97/152/97 95/150/95
f 96/151/96 95/150/95 94/149/94
f 93/148/93 92/147/92 97/153/97
f 93/148/93 97/153/97 96/154/96
f 98/155/98 90/145/90 93/148/93
f 98/155/98 93/148/93 99/156/99
f 100/157/100 94/149/94 90/145/90
f 100/157/100 90/145/90 98/155/98
f 101/158/101 96/151/96 94/149/94
f 101/158/101 94/149/94 100/157/100
f 99/156/99 93/148/93 96/154/96
f 99/156/99 96/154/96 101/159/101
f 102/160/102 103/161/103 104/162/104
f 102/160/102 104/162/104 105/163/105
f 102/164/102 105/165/105 106/166/106
f 102/164/102 106/166/106 107/167/107
f 105/165/105 104/168/104 108/169/108
f 105/165/105 108/169/108 106/166/106
f 104/170/104 103/171/103 109/172/109
f 104/170/104 109/172/109 108/173/108
f 103/171/103 102/164/102 107/167/107
f 103/171/103 107/167/107 109/172/109
f 110/174/62 111/175/64 112/176/65
f 110/174/62 112/176/65 113/177/63
f 114/178/58 110/174/62 113/177/63
f 114/178/58 113/177/63 115/179/59
f 116/180/61 114/178/58 115/179/59
f 116/180/61 115/179/59 117/181/60
f 111/182/64 116/180/61 117/181/60
f 111/182/64 117/181/60 112/183/65
f 118/184/68 119/185/69 111/175/64
f 118/184/68 111/175/64 110/174/62
f 120/186/66 118/184/68 110/174/62
f 120/186/66 110/174/62 114/178/58
f 121/187/67 120/186/66 114/178/58
f 121/187/67 114/178/58 116/180/61
f 119/188/69 121/187/67 116/180/61
f 119/188/69 116/180/61 111/182/64
f 122/189/72 123/190/73 119/185/69
f 122/189/72 119/185/69 118/184/68
f 124/191/70 122/189/72 118/184/68
f 124/191/70 118/184/68 120/186/66
f 125/192/71 124/191/70 120/186/66
f 125/192/71 120/186/66 121/187/67
f 123/193/73 125/192/71 121/187/67
f 123/193/73 121/187/67 119/188/69
f 115/179/59 113/177/63 112/194/65
f 115/179/59 112/194/65 117/195/60
f 123/196/73 122/189/72 124/191/70
f 123/196/73 124/191/70 125/197/71
f 126/198/78 127/199/80 128/200/81
f 126/198/78 128/200/81 129/201/79
f 130/202/74 126/198/78 129/201/79
f 130/202/74 129/201/79 131/203/75
f 132/204/77 130/202/74 131/203/75
f 132/204/77 131/203/75 133/205/76
f 127/199/80 132/206/77 133/207/76
f 127/199/80 133/207/76 128/200/81
f 134/208/84 135/209/85 127/199/80
f 134/208/84 127/199/80 126/198/78
f 136/210/82 134/208/84 126/198/78
f 136/210/82 126/198/78 130/202/74
f 137/211/83 136/210/82 130/202/74
f 137/211/83 130/202/74 132/204/77
f 135/209/85 137/212/83 132/206/77
f 135/209/85 132/206/77 127/199/80
f 138/213/88 139/214/89 135/209/85
f 138/213/88 135/209/85 134/208/84
f 140/215/86 138/213/88 134/208/84
f 140/215/86 134/208/84 136/210/82
f 141/216/87 140/215/86 136/210/82
f 141/216/87 136/210/82 137/211/83
f 139/214/89 141/217/87 137/212/83
f 139/214/89 137/212/83 135/209/85
f 131/218/75 129/219/79 128/220/81
f 131/218/75 128/220/81 133/221/76
f 142/222/94 143/223/96 144/224/97
f 142/222/94 144/224/97 145/225/95
f 146/226/90 142/222/94 145/225/95
f 146/226/90 145/225/95 147/227/91
f 148/228/93 146/226/90 147/227/91
f 148/228/93 147/227/91 149/229/92
f 143/223/96 148/230/93 149/231/92
f 143/223/96 149/231/92 144/224/97
f 150/232/100 151/233/101 143/223/96
f 150/232/100 143/223/96 142/222/94
f 152/234/98 150/232/100 142/222/94
f 152/234/98 142/222/94 146/226/90
f 153/235/99 152/234/98 146/226/90
f 153/235/99 146/226/90 148/228/93
f 151/233/101 153/236/99 148/230/93
f 151/233/101 148/230/93 143/223/96
f 154/237/105 155/238/102 156/239/103
f 154/237/105 156/239/103 157/240/104
f 154/241/105 158/242/106 159/243/107
f 154/241/105 159/243/107 155/244/102
f 155/244/102 159/243/107 160/245/109
f 155/244/102 160/245/109 156/246/103
f 156/247/103 160/248/109 161/249/108
f 156/247/103 161/249/108 157/250/104
f 157/250/104 161/249/108 158/242/106
f 157/250/104 158/242/106 154/241/105
