# MuJoCo material-split OBJ
v 0.00800000876 1.54950023 0.0628000945
v 0.0121999905 1.55200028 0.0624000914
v 0.0073999688 1.55020022 0.0615001209
v 0.0138999783 1.5472002 0.0599000938
v 0.0181000195 1.54820025 0.0587001331
v 0.017700009 1.54880023 0.0603001006
v 0.017700009 1.54880023 0.0603001006
v 0.0235999785 1.54990017 0.0604001135
v 0.0231000111 1.55050027 0.0614001006
v 0.0235999785 1.54990017 0.0604001135
v 0.0278999805 1.55200028 0.0618001111
v 0.0231000111 1.55050027 0.0614001006
v 0.0285000205 1.5514003 0.0609000809
v 0.0335000083 1.55340028 0.0609000809
v 0.0278999805 1.55200028 0.0618001111
v 0.033399988 1.55270028 0.060200084
v 0.0386000201 1.55360019 0.0586001128
v 0.0335000083 1.55340028 0.0609000809
v 0.0382999703 1.5528003 0.0581000932
v 0.0428000018 1.5521003 0.0562001318
v 0.0386000201 1.55360019 0.0586001128
v 0.0421000123 1.55130029 0.0558001213
v 0.0476999804 1.54950023 0.0514001139
v 0.0428000018 1.5521003 0.0562001318
v 0.0473999903 1.54890025 0.0506001003
v 0.051599972 1.54730022 0.0470000915
v 0.0476999804 1.54950023 0.0514001139
v 0.0521000028 1.54660022 0.045000121
v 0.0541999862 1.54550028 0.042700097
v 0.051599972 1.54730022 0.0470000915
v 0.0073999688 1.55020022 0.0615001209
v 0.00590001978 1.54780018 0.0618001111
v 0.00800000876 1.54950023 0.0628000945
v 0.0145999715 1.54670024 0.0576001219
v 0.0100999996 1.5456003 0.0587001331
v 0.0105999708 1.5449003 0.0568001121
v 0.0138999783 1.5472002 0.0599000938
v 0.0163999684 1.55040026 0.0641001314
v 0.0127999708 1.54940021 0.0637001246
v 0.017700009 1.54880023 0.0603001006
v 0.0223000012 1.5522002 0.0641001314
v 0.0163999684 1.55040026 0.0641001314
v 0.0223000012 1.5522002 0.0641001314
v 0.0278999805 1.55200028 0.0618001111
v 0.0278999805 1.55370021 0.063600108
v 0.0278999805 1.55370021 0.063600108
v 0.0335000083 1.55340028 0.0609000809
v 0.033599969 1.55490029 0.0617000908
v 0.033599969 1.55490029 0.0617000908
v 0.0386000201 1.55360019 0.0586001128
v 0.0389999673 1.55500019 0.058900103
v 0.0386000201 1.55360019 0.0586001128
v 0.0432000086 1.55310023 0.0558001213
v 0.0389999673 1.55500019 0.058900103
v 0.0428000018 1.5521003 0.0562001318
v 0.047799997 1.55020022 0.0518001206
v 0.0432000086 1.55310023 0.0558001213
v 0.0476999804 1.54950023 0.0514001139
v 0.051599972 1.54780018 0.0473000817
v 0.047799997 1.55020022 0.0518001206
v 0.051599972 1.54780018 0.0473000817
v 0.0541999862 1.54550028 0.042700097
v 0.0548999906 1.54550028 0.0421001166
v 0.0105999708 1.5449003 0.0568001121
v 0.0077999793 1.54480028 0.0582001135
v 0.00749998912 1.54370022 0.0575001128
v 0.00889997929 1.5479002 0.0626001209
v 0.0119000003 1.55130029 0.0638000816
v 0.00800000876 1.54950023 0.0628000945
v 0.00889997929 1.5479002 0.0626001209
v 0.00590001978 1.54780018 0.0618001111
v 0.00620000996 1.54610026 0.0614001006
v 0.0121999905 1.55200028 0.0624000914
v 0.0161999986 1.55250025 0.0640001148
v 0.0163999684 1.55340028 0.0626001209
v 0.0163999684 1.55340028 0.0626001209
v 0.0217000209 1.55380023 0.0641001314
v 0.0214999914 1.55470026 0.0625001043
v 0.0214999914 1.55470026 0.0625001043
v 0.0278000198 1.5551002 0.0635000914
v 0.02810001 1.55630028 0.0617000908
v 0.02810001 1.55630028 0.0617000908
v 0.033599969 1.55620027 0.0615001209
v 0.0337999985 1.55720031 0.060200084
v 0.0337999985 1.55720031 0.060200084
v 0.0389000103 1.55640018 0.0584000833
v 0.0393999815 1.55720031 0.0574000925
v 0.0393999815 1.55720031 0.0574000925
v 0.0436999798 1.55410028 0.0551001318
v 0.0437999889 1.55470026 0.0542001016
v 0.0437999889 1.55470026 0.0542001016
v 0.0483000204 1.5508002 0.050400123
v 0.0486999676 1.55090022 0.0492001027
v 0.0486999676 1.55090022 0.0492001027
v 0.0519999787 1.54830027 0.0464001112
v 0.0522999689 1.54830027 0.0446001068
v 0.0522999689 1.54830027 0.0446001068
v 0.0544999763 1.54610026 0.0423000902
v 0.0548999906 1.54630029 0.0416000858
v 0.00620000996 1.54610026 0.0614001006
v 0.00499998964 1.5479002 0.0609000809
v 0.00579999946 1.54480028 0.0585001037
v 0.0548999906 1.54550028 0.0421001166
v 0.0544999763 1.54510021 0.0418001264
v 0.0555999801 1.5456003 0.0403001159
v 0.0119000003 1.55130029 0.0638000816
v 0.0163999684 1.55040026 0.0641001314
v 0.0161999986 1.55250025 0.0640001148
v 0.0161999986 1.55250025 0.0640001148
v 0.0223000012 1.5522002 0.0641001314
v 0.0217000209 1.55380023 0.0641001314
v 0.0217000209 1.55380023 0.0641001314
v 0.0278999805 1.55370021 0.063600108
v 0.0278000198 1.5551002 0.0635000914
v 0.0278000198 1.5551002 0.0635000914
v 0.033599969 1.55490029 0.0617000908
v 0.033599969 1.55620027 0.0615001209
v 0.033599969 1.55620027 0.0615001209
v 0.0389999673 1.55500019 0.058900103
v 0.0389000103 1.55640018 0.0584000833
v 0.0389000103 1.55640018 0.0584000833
v 0.0432000086 1.55310023 0.0558001213
v 0.0436999798 1.55410028 0.0551001318
v 0.0436999798 1.55410028 0.0551001318
v 0.047799997 1.55020022 0.0518001206
v 0.0483000204 1.5508002 0.050400123
v 0.0483000204 1.5508002 0.050400123
v 0.051599972 1.54780018 0.0473000817
v 0.0519999787 1.54830027 0.0464001112
v 0.0519999787 1.54830027 0.0464001112
v 0.0548999906 1.54550028 0.0421001166
v 0.0544999763 1.54610026 0.0423000902
v 0.0138999783 1.5472002 0.0599000938
v 0.00889997929 1.5479002 0.0626001209
v 0.0100999996 1.5456003 0.0587001331
v 0.0100999996 1.5456003 0.0587001331
v 0.00620000996 1.54610026 0.0614001006
v 0.0077999793 1.54480028 0.0582001135
v 0.0077999793 1.54480028 0.0582001135
v 0.00579999946 1.54480028 0.0585001037
v 0.00749998912 1.54370022 0.0575001128
v 0.0548999906 1.54550028 0.0421001166
v 0.0548999906 1.54630029 0.0416000858
v 0.0544999763 1.54610026 0.0423000902
v -0.0152999759 1.54940021 0.0599000938
v -0.019299984 1.55180025 0.0585001037
v -0.0194000006 1.55110025 0.0599000938
v -0.0202000141 1.54700029 0.0557001121
v -0.0241000056 1.5479002 0.053500101
v -0.0203999877 1.54640019 0.0533001311
v -0.0241000056 1.54850018 0.0551001318
v -0.0297999978 1.54960024 0.0537000708
v -0.0241000056 1.5479002 0.053500101
v -0.0343999788 1.55160022 0.0541000813
v -0.0297999978 1.54960024 0.0537000708
v -0.0296000242 1.55010021 0.054800082
v -0.039600011 1.5529002 0.0518001206
v -0.034699969 1.55090022 0.0531000905
v -0.0343999788 1.55160022 0.0541000813
v -0.0440000221 1.55300021 0.0483001322
v -0.0393000208 1.5522002 0.0511001237
v -0.039600011 1.5529002 0.0518001206
v -0.0473999903 1.5514003 0.044900097
v -0.0434999987 1.5522002 0.0479001217
v -0.0440000221 1.55300021 0.0483001322
v -0.0509999916 1.54880023 0.0391000882
v -0.0467000008 1.55060017 0.0447001308
v -0.0473999903 1.5514003 0.044900097
v -0.0536999628 1.54650021 0.0338001102
v -0.0504000112 1.54820025 0.0384000987
v -0.0509999916 1.54880023 0.0391000882
v -0.05510002 1.54470026 0.0290000886
v -0.0536000095 1.54580021 0.031800136
v -0.0536999628 1.54650021 0.0338001102
v -0.0130000208 1.54770029 0.0595000833
v -0.0144000063 1.55000031 0.0588000938
v -0.0152999759 1.54940021 0.0599000938
v -0.0163000226 1.54550028 0.055400122
v -0.0203999877 1.54640019 0.0533001311
v -0.0163000226 1.54470026 0.053500101
v -0.0238000154 1.55010021 0.059100084
v -0.0202000141 1.54700029 0.0557001121
v -0.0200999975 1.54910028 0.0596001036
v -0.0295000076 1.55180025 0.0576001219
v -0.0241000056 1.54850018 0.0551001318
v -0.0238000154 1.55010021 0.059100084
v -0.0295000076 1.55180025 0.0576001219
v -0.0343999788 1.55160022 0.0541000813
v -0.0296000242 1.55010021 0.054800082
v -0.0347999893 1.55320024 0.0558001213
v -0.039600011 1.5529002 0.0518001206
v -0.0343999788 1.55160022 0.0541000813
v -0.0399000011 1.55440021 0.0525001138
v -0.0440000221 1.55300021 0.0483001322
v -0.039600011 1.5529002 0.0518001206
v -0.0478000008 1.55250025 0.044400081
v -0.0440000221 1.55300021 0.0483001322
v -0.0444999896 1.55440021 0.048500102
v -0.0511999726 1.54950023 0.0394000784
v -0.0473999903 1.5514003 0.044900097
v -0.0478000008 1.55250025 0.044400081
v -0.0537999794 1.54710019 0.034200117
v -0.0509999916 1.54880023 0.0391000882
v -0.0511999726 1.54950023 0.0394000784
v -0.0537999794 1.54710019 0.034200117
v -0.05510002 1.54470026 0.0290000886
v -0.0536999628 1.54650021 0.0338001102
v -0.0163000226 1.54470026 0.053500101
v -0.013899982 1.54470026 0.0555001311
v -0.0163000226 1.54550028 0.055400122
v -0.0160999894 1.54770029 0.0594001338
v -0.0194000006 1.55110025 0.0599000938
v -0.0200999975 1.54910028 0.0596001036
v -0.0160999894 1.54770029 0.0594001338
v -0.0130000208 1.54770029 0.0595000833
v -0.0152999759 1.54940021 0.0599000938
v -0.019299984 1.55180025 0.0585001037
v -0.0235999823 1.55230021 0.0590001233
v -0.0194000006 1.55110025 0.0599000938
v -0.0234000087 1.55310023 0.0576001219
v -0.0289999843 1.55340028 0.057800103
v -0.0235999823 1.55230021 0.0590001233
v -0.0284000039 1.55430019 0.0563000925
v -0.034699969 1.55460024 0.0557001121
v -0.0289999843 1.55340028 0.057800103
v -0.034600012 1.5558002 0.0539001115
v -0.0399000011 1.55570018 0.0523000807
v -0.034699969 1.55460024 0.0557001121
v -0.0397999808 1.55660021 0.0510001034
v -0.0443000123 1.5558002 0.0480000824
v -0.0399000011 1.55570018 0.0523000807
v -0.0444999896 1.55650032 0.0469000824
v -0.0480999909 1.55350029 0.0436001271
v -0.0443000123 1.5558002 0.0480000824
v -0.0479999706 1.55400026 0.0428001061
v -0.0512999818 1.55000031 0.0380000919
v -0.0480999909 1.55350029 0.0436001271
v -0.0513999984 1.55020022 0.0368001312
v -0.0538999997 1.54760027 0.0332001299
v -0.0512999818 1.55000031 0.0380000919
v -0.0536999628 1.54750025 0.0313001052
v -0.0552999899 1.54530025 0.0286000818
v -0.0538999997 1.54760027 0.0332001299
v -0.0131000299 1.54600024 0.058900103
v -0.0119000105 1.54780018 0.0588000938
v -0.0130000208 1.54770029 0.0595000833
v -0.0555999801 1.54470026 0.0282001272
v -0.0551999807 1.5443002 0.0280001014
v -0.05510002 1.54470026 0.0290000886
v -0.0194000006 1.55110025 0.0599000938
v -0.0238000154 1.55010021 0.059100084
v -0.0200999975 1.54910028 0.0596001036
v -0.0235999823 1.55230021 0.0590001233
v -0.0295000076 1.55180025 0.0576001219
v -0.0238000154 1.55010021 0.059100084
v -0.0289999843 1.55340028 0.057800103
v -0.0347999893 1.55320024 0.0558001213
v -0.0295000076 1.55180025 0.0576001219
v -0.034699969 1.55460024 0.0557001121
v -0.0399000011 1.55440021 0.0525001138
v -0.0347999893 1.55320024 0.0558001213
v -0.0399000011 1.55570018 0.0523000807
v -0.0444999896 1.55440021 0.048500102
v -0.0399000011 1.55440021 0.0525001138
v -0.0443000123 1.5558002 0.0480000824
v -0.0478000008 1.55250025 0.044400081
v -0.0444999896 1.55440021 0.048500102
v -0.0480999909 1.55350029 0.0436001271
v -0.0511999726 1.54950023 0.0394000784
v -0.0478000008 1.55250025 0.044400081
v -0.0512999818 1.55000031 0.0380000919
v -0.0537999794 1.54710019 0.034200117
v -0.0511999726 1.54950023 0.0394000784
v -0.0538999997 1.54760027 0.0332001299
v -0.0555999801 1.54470026 0.0282001272
v -0.0537999794 1.54710019 0.034200117
v -0.0160999894 1.54770029 0.0594001338
v -0.0202000141 1.54700029 0.0557001121
v -0.0163000226 1.54550028 0.055400122
v -0.0163000226 1.54550028 0.055400122
v -0.0131000299 1.54600024 0.058900103
v -0.0160999894 1.54770029 0.0594001338
v -0.013899982 1.54470026 0.0555001311
v -0.0120000299 1.54470026 0.0563000925
v -0.0131000299 1.54600024 0.058900103
v -0.0555000305 1.54550028 0.0278001279
v -0.0555999801 1.54470026 0.0282001272
v -0.0552999899 1.54530025 0.0286000818
v 0.00800000876 1.54950023 0.0628000945
v 0.0119000003 1.55130029 0.0638000816
v 0.0121999905 1.55200028 0.0624000914
v 0.0138999783 1.5472002 0.0599000938
v 0.0145999715 1.54670024 0.0576001219
v 0.0181000195 1.54820025 0.0587001331
v 0.017700009 1.54880023 0.0603001006
v 0.0181000195 1.54820025 0.0587001331
v 0.0235999785 1.54990017 0.0604001135
v 0.0235999785 1.54990017 0.0604001135
v 0.0285000205 1.5514003 0.0609000809
v 0.0278999805 1.55200028 0.0618001111
v 0.0285000205 1.5514003 0.0609000809
v 0.033399988 1.55270028 0.060200084
v 0.0335000083 1.55340028 0.0609000809
v 0.033399988 1.55270028 0.060200084
v 0.0382999703 1.5528003 0.0581000932
v 0.0386000201 1.55360019 0.0586001128
v 0.0382999703 1.5528003 0.0581000932
v 0.0421000123 1.55130029 0.0558001213
v 0.0428000018 1.5521003 0.0562001318
v 0.0421000123 1.55130029 0.0558001213
v 0.0473999903 1.54890025 0.0506001003
v 0.0476999804 1.54950023 0.0514001139
v 0.0473999903 1.54890025 0.0506001003
v 0.0521000028 1.54660022 0.045000121
v 0.051599972 1.54730022 0.0470000915
v 0.0521000028 1.54660022 0.045000121
v 0.0544999763 1.54510021 0.0418001264
v 0.0541999862 1.54550028 0.042700097
v 0.0073999688 1.55020022 0.0615001209
v 0.00499998964 1.5479002 0.0609000809
v 0.00590001978 1.54780018 0.0618001111
v 0.0145999715 1.54670024 0.0576001219
v 0.0138999783 1.5472002 0.0599000938
v 0.0100999996 1.5456003 0.0587001331
v 0.0138999783 1.5472002 0.0599000938
v 0.017700009 1.54880023 0.0603001006
v 0.0163999684 1.55040026 0.0641001314
v 0.017700009 1.54880023 0.0603001006
v 0.0231000111 1.55050027 0.0614001006
v 0.0223000012 1.5522002 0.0641001314
v 0.0223000012 1.5522002 0.0641001314
v 0.0231000111 1.55050027 0.0614001006
v 0.0278999805 1.55200028 0.0618001111
v 0.0278999805 1.55370021 0.063600108
v 0.0278999805 1.55200028 0.0618001111
v 0.0335000083 1.55340028 0.0609000809
v 0.033599969 1.55490029 0.0617000908
v 0.0335000083 1.55340028 0.0609000809
v 0.0386000201 1.55360019 0.0586001128
v 0.0386000201 1.55360019 0.0586001128
v 0.0428000018 1.5521003 0.0562001318
v 0.0432000086 1.55310023 0.0558001213
v 0.0428000018 1.5521003 0.0562001318
v 0.0476999804 1.54950023 0.0514001139
v 0.047799997 1.55020022 0.0518001206
v 0.0476999804 1.54950023 0.0514001139
v 0.051599972 1.54730022 0.0470000915
v 0.051599972 1.54780018 0.0473000817
v 0.051599972 1.54780018 0.0473000817
v 0.051599972 1.54730022 0.0470000915
v 0.0541999862 1.54550028 0.042700097
v 0.0105999708 1.5449003 0.0568001121
v 0.0100999996 1.5456003 0.0587001331
v 0.0077999793 1.54480028 0.0582001135
v 0.00889997929 1.5479002 0.0626001209
v 0.0127999708 1.54940021 0.0637001246
v 0.0119000003 1.55130029 0.0638000816
v 0.00889997929 1.5479002 0.0626001209
v 0.00800000876 1.54950023 0.0628000945
v 0.00590001978 1.54780018 0.0618001111
v 0.0121999905 1.55200028 0.0624000914
v 0.0119000003 1.55130029 0.0638000816
v 0.0161999986 1.55250025 0.0640001148
v 0.0163999684 1.55340028 0.0626001209
v 0.0161999986 1.55250025 0.0640001148
v 0.0217000209 1.55380023 0.0641001314
v 0.0214999914 1.55470026 0.0625001043
v 0.0217000209 1.55380023 0.0641001314
v 0.0278000198 1.5551002 0.0635000914
v 0.02810001 1.55630028 0.0617000908
v 0.0278000198 1.5551002 0.0635000914
v 0.033599969 1.55620027 0.0615001209
v 0.0337999985 1.55720031 0.060200084
v 0.033599969 1.55620027 0.0615001209
v 0.0389000103 1.55640018 0.0584000833
v 0.0393999815 1.55720031 0.0574000925
v 0.0389000103 1.55640018 0.0584000833
v 0.0436999798 1.55410028 0.0551001318
v 0.0437999889 1.55470026 0.0542001016
v 0.0436999798 1.55410028 0.0551001318
v 0.0483000204 1.5508002 0.050400123
v 0.0486999676 1.55090022 0.0492001027
v 0.0483000204 1.5508002 0.050400123
v 0.0519999787 1.54830027 0.0464001112
v 0.0522999689 1.54830027 0.0446001068
v 0.0519999787 1.54830027 0.0464001112
v 0.0544999763 1.54610026 0.0423000902
v 0.00620000996 1.54610026 0.0614001006
v 0.00590001978 1.54780018 0.0618001111
v 0.00499998964 1.5479002 0.0609000809
v 0.0548999906 1.54550028 0.0421001166
v 0.0541999862 1.54550028 0.042700097
v 0.0544999763 1.54510021 0.0418001264
v 0.0119000003 1.55130029 0.0638000816
v 0.0127999708 1.54940021 0.0637001246
v 0.0163999684 1.55040026 0.0641001314
v 0.0161999986 1.55250025 0.0640001148
v 0.0163999684 1.55040026 0.0641001314
v 0.0223000012 1.5522002 0.0641001314
v 0.0217000209 1.55380023 0.0641001314
v 0.0223000012 1.5522002 0.0641001314
v 0.0278999805 1.55370021 0.063600108
v 0.0278000198 1.5551002 0.0635000914
v 0.0278999805 1.55370021 0.063600108
v 0.033599969 1.55490029 0.0617000908
v 0.033599969 1.55620027 0.0615001209
v 0.033599969 1.55490029 0.0617000908
v 0.0389999673 1.55500019 0.058900103
v 0.0389000103 1.55640018 0.0584000833
v 0.0389999673 1.55500019 0.058900103
v 0.0432000086 1.55310023 0.0558001213
v 0.0436999798 1.55410028 0.0551001318
v 0.0432000086 1.55310023 0.0558001213
v 0.047799997 1.55020022 0.0518001206
v 0.0483000204 1.5508002 0.050400123
v 0.047799997 1.55020022 0.0518001206
v 0.051599972 1.54780018 0.0473000817
v 0.0519999787 1.54830027 0.0464001112
v 0.051599972 1.54780018 0.0473000817
v 0.0548999906 1.54550028 0.0421001166
v 0.0138999783 1.5472002 0.0599000938
v 0.0127999708 1.54940021 0.0637001246
v 0.00889997929 1.5479002 0.0626001209
v 0.0100999996 1.5456003 0.0587001331
v 0.00889997929 1.5479002 0.0626001209
v 0.00620000996 1.54610026 0.0614001006
v 0.0077999793 1.54480028 0.0582001135
v 0.00620000996 1.54610026 0.0614001006
v 0.00579999946 1.54480028 0.0585001037
v 0.0548999906 1.54550028 0.0421001166
v 0.0555999801 1.5456003 0.0403001159
v 0.0548999906 1.54630029 0.0416000858
v -0.0152999759 1.54940021 0.0599000938
v -0.0144000063 1.55000031 0.0588000938
v -0.019299984 1.55180025 0.0585001037
v -0.0202000141 1.54700029 0.0557001121
v -0.0241000056 1.54850018 0.0551001318
v -0.0241000056 1.5479002 0.053500101
v -0.0241000056 1.54850018 0.0551001318
v -0.0296000242 1.55010021 0.054800082
v -0.0297999978 1.54960024 0.0537000708
v -0.0343999788 1.55160022 0.0541000813
v -0.034699969 1.55090022 0.0531000905
v -0.0297999978 1.54960024 0.0537000708
v -0.039600011 1.5529002 0.0518001206
v -0.0393000208 1.5522002 0.0511001237
v -0.034699969 1.55090022 0.0531000905
v -0.0440000221 1.55300021 0.0483001322
v -0.0434999987 1.5522002 0.0479001217
v -0.0393000208 1.5522002 0.0511001237
v -0.0473999903 1.5514003 0.044900097
v -0.0467000008 1.55060017 0.0447001308
v -0.0434999987 1.5522002 0.0479001217
v -0.0509999916 1.54880023 0.0391000882
v -0.0504000112 1.54820025 0.0384000987
v -0.0467000008 1.55060017 0.0447001308
v -0.0536999628 1.54650021 0.0338001102
v -0.0536000095 1.54580021 0.031800136
v -0.0504000112 1.54820025 0.0384000987
v -0.05510002 1.54470026 0.0290000886
v -0.0551999807 1.5443002 0.0280001014
v -0.0536000095 1.54580021 0.031800136
v -0.0130000208 1.54770029 0.0595000833
v -0.0119000105 1.54780018 0.0588000938
v -0.0144000063 1.55000031 0.0588000938
v -0.0163000226 1.54550028 0.055400122
v -0.0202000141 1.54700029 0.0557001121
v -0.0203999877 1.54640019 0.0533001311
v -0.0238000154 1.55010021 0.059100084
v -0.0241000056 1.54850018 0.0551001318
v -0.0202000141 1.54700029 0.0557001121
v -0.0295000076 1.55180025 0.0576001219
v -0.0296000242 1.55010021 0.054800082
v -0.0241000056 1.54850018 0.0551001318
v -0.0295000076 1.55180025 0.0576001219
v -0.0347999893 1.55320024 0.0558001213
v -0.0343999788 1.55160022 0.0541000813
v -0.0347999893 1.55320024 0.0558001213
v -0.0399000011 1.55440021 0.0525001138
v -0.039600011 1.5529002 0.0518001206
v -0.0399000011 1.55440021 0.0525001138
v -0.0444999896 1.55440021 0.048500102
v -0.0440000221 1.55300021 0.0483001322
v -0.0478000008 1.55250025 0.044400081
v -0.0473999903 1.5514003 0.044900097
v -0.0440000221 1.55300021 0.0483001322
v -0.0511999726 1.54950023 0.0394000784
v -0.0509999916 1.54880023 0.0391000882
v -0.0473999903 1.5514003 0.044900097
v -0.0537999794 1.54710019 0.034200117
v -0.0536999628 1.54650021 0.0338001102
v -0.0509999916 1.54880023 0.0391000882
v -0.0537999794 1.54710019 0.034200117
v -0.0555999801 1.54470026 0.0282001272
v -0.05510002 1.54470026 0.0290000886
v -0.0163000226 1.54470026 0.053500101
v -0.0134000201 1.5435003 0.0549000911
v -0.013899982 1.54470026 0.0555001311
v -0.0160999894 1.54770029 0.0594001338
v -0.0152999759 1.54940021 0.0599000938
v -0.0194000006 1.55110025 0.0599000938
v -0.0160999894 1.54770029 0.0594001338
v -0.0131000299 1.54600024 0.058900103
v -0.0130000208 1.54770029 0.0595000833
v -0.019299984 1.55180025 0.0585001037
v -0.0234000087 1.55310023 0.0576001219
v -0.0235999823 1.55230021 0.0590001233
v -0.0234000087 1.55310023 0.0576001219
v -0.0284000039 1.55430019 0.0563000925
v -0.0289999843 1.55340028 0.057800103
v -0.0284000039 1.55430019 0.0563000925
v -0.034600012 1.5558002 0.0539001115
v -0.034699969 1.55460024 0.0557001121
v -0.034600012 1.5558002 0.0539001115
v -0.0397999808 1.55660021 0.0510001034
v -0.0399000011 1.55570018 0.0523000807
v -0.0397999808 1.55660021 0.0510001034
v -0.0444999896 1.55650032 0.0469000824
v -0.0443000123 1.5558002 0.0480000824
v -0.0444999896 1.55650032 0.0469000824
v -0.0479999706 1.55400026 0.0428001061
v -0.0480999909 1.55350029 0.0436001271
v -0.0479999706 1.55400026 0.0428001061
v -0.0513999984 1.55020022 0.0368001312
v -0.0512999818 1.55000031 0.0380000919
v -0.0513999984 1.55020022 0.0368001312
v -0.0536999628 1.54750025 0.0313001052
v -0.0538999997 1.54760027 0.0332001299
v -0.0536999628 1.54750025 0.0313001052
v -0.0555000305 1.54550028 0.0278001279
v -0.0552999899 1.54530025 0.0286000818
v -0.0131000299 1.54600024 0.058900103
v -0.0120000299 1.54470026 0.0563000925
v -0.0119000105 1.54780018 0.0588000938
v -0.0555999801 1.54470026 0.0282001272
v -0.0558000207 1.54470026 0.0264000669
v -0.0551999807 1.5443002 0.0280001014
v -0.0194000006 1.55110025 0.0599000938
v -0.0235999823 1.55230021 0.0590001233
v -0.0238000154 1.55010021 0.059100084
v -0.0235999823 1.55230021 0.0590001233
v -0.0289999843 1.55340028 0.057800103
v -0.0295000076 1.55180025 0.0576001219
v -0.0289999843 1.55340028 0.057800103
v -0.034699969 1.55460024 0.0557001121
v -0.0347999893 1.55320024 0.0558001213
v -0.034699969 1.55460024 0.0557001121
v -0.0399000011 1.55570018 0.0523000807
v -0.0399000011 1.55440021 0.0525001138
v -0.0399000011 1.55570018 0.0523000807
v -0.0443000123 1.5558002 0.0480000824
v -0.0444999896 1.55440021 0.048500102
v -0.0443000123 1.5558002 0.0480000824
v -0.0480999909 1.55350029 0.0436001271
v -0.0478000008 1.55250025 0.044400081
v -0.0480999909 1.55350029 0.0436001271
v -0.0512999818 1.55000031 0.0380000919
v -0.0511999726 1.54950023 0.0394000784
v -0.0512999818 1.55000031 0.0380000919
v -0.0538999997 1.54760027 0.0332001299
v -0.0537999794 1.54710019 0.034200117
v -0.0538999997 1.54760027 0.0332001299
v -0.0552999899 1.54530025 0.0286000818
v -0.0555999801 1.54470026 0.0282001272
v -0.0160999894 1.54770029 0.0594001338
v -0.0200999975 1.54910028 0.0596001036
v -0.0202000141 1.54700029 0.0557001121
v -0.0163000226 1.54550028 0.055400122
v -0.013899982 1.54470026 0.0555001311
v -0.0131000299 1.54600024 0.058900103
v -0.013899982 1.54470026 0.0555001311
v -0.0134000201 1.5435003 0.0549000911
v -0.0120000299 1.54470026 0.0563000925
v -0.0555000305 1.54550028 0.0278001279
v -0.0558000207 1.54470026 0.0264000669
v -0.0555999801 1.54470026 0.0282001272
vt 0.0813999698 0.627699971 0
vt 0.144700006 0.670000017 0
vt 0.0750999972 0.650200009 0
vt 0.155499905 0.589100003 0
vt 0.229399994 0.589900017 0
vt 0.222699896 0.605499983 0
vt 0.326400012 0.612299979 0
vt 0.322299987 0.628799975 0
vt 0.430299997 0.634000003 0
vt 0.431100011 0.619799972 0
vt 0.559599996 0.645500004 0
vt 0.554899991 0.633000016 0
vt 0.6778 0.631600022 0
vt 0.671800017 0.621699989 0
vt 0.746699989 0.603500009 0
vt 0.744400024 0.592800021 0
vt 0.824999988 0.569599986 0
vt 0.818300009 0.56220001 0
vt 0.886399984 0.541700006 0
vt 0.882600009 0.536000013 0
vt 0.955900013 0.506500006 0
vt 0.0442999601 0.60589999 0
vt 0.168899998 0.57160002 0
vt 0.0859000012 0.572300017 0
vt 0.0914999768 0.551199973 0
vt 0.215800002 0.639900029 0
vt 0.146500006 0.618700027 0
vt 0.317099988 0.650600016 0
vt 0.429199994 0.657100022 0
vt 0.563899994 0.665499985 0
vt 0.683700025 0.6426 0
vt 0.749599993 0.612299979 0
vt 0.83160001 0.577099979 0
vt 0.894299984 0.548699975 0
vt 0.95569998 0.513100028 0
vt 0.0496000014 0.567200005 0
vt 0.0441999994 0.541400015 0
vt 0.0887999535 0.602299988 0
vt 0.142700002 0.647099972 0
vt 0.047499951 0.588100016 0
vt 0.212799996 0.662899971 0
vt 0.219999999 0.684099972 0
vt 0.32280001 0.674799979 0
vt 0.332300007 0.692700028 0
vt 0.43599999 0.6796 0
vt 0.445499986 0.700299978 0
vt 0.567200005 0.689899981 0
vt 0.572000027 0.712800026 0
vt 0.694899976 0.659799993 0
vt 0.704299986 0.669099987 0
vt 0.75849998 0.625999987 0
vt 0.766900003 0.63440001 0
vt 0.839299977 0.586700022 0
vt 0.845099986 0.592599988 0
vt 0.900200009 0.552900016 0
vt 0.904100001 0.555800021 0
vt 0.957099974 0.517400026 0
vt 0.962100029 0.519999981 0
vt 0.0307999793 0.614199996 0
vt 0.0327999517 0.581200004 0
vt 0.958400011 0.5 0
vt 0.96359998 0.510299981 0
vt 0.912100017 0.277999997 0
vt 0.84859997 0.319799989 0
vt 0.850700021 0.298099995 0
vt 0.837899983 0.238900006 0
vt 0.764100015 0.239899904 0
vt 0.824599981 0.221399993 0
vt 0.770699978 0.255800009 0
vt 0.667100012 0.262100011 0
vt 0.563199997 0.285299987 0
vt 0.671199977 0.278699994 0
vt 0.433499992 0.296499997 0
vt 0.5625 0.269800007 0
vt 0.314999998 0.281699985 0
vt 0.438600004 0.284500003 0
vt 0.246900007 0.252900004 0
vt 0.321099997 0.272100002 0
vt 0.168599993 0.218899995 0
vt 0.249300003 0.2421 0
vt 0.107299998 0.190599993 0
vt 0.175099999 0.211700007 0
vt 0.0377999507 0.1558 0
vt 0.111100003 0.185200006 0
vt 0.948700011 0.256000012 0
vt 0.918200016 0.300099999 0
vt 0.907000005 0.222499996 0
vt 0.90200001 0.200800002 0
vt 0.777499974 0.289700001 0
vt 0.846800029 0.2685 0
vt 0.675899982 0.300999999 0
vt 0.56400001 0.306899995 0
vt 0.42930001 0.316599995 0
vt 0.243900001 0.261700004 0
vt 0.309199989 0.292600006 0
vt 0.162 0.226300001 0
vt 0.0993999764 0.197699994 0
vt 0.943899989 0.217500001 0
vt 0.904399991 0.252000004 0
vt 0.780300021 0.313800007 0
vt 0.773299992 0.334100008 0
vt 0.670300007 0.325300008 0
vt 0.660899997 0.342500001 0
vt 0.557099998 0.331099987 0
vt 0.547699988 0.349999994 0
vt 0.426099986 0.34040001 0
vt 0.421200007 0.362399995 0
vt 0.298400015 0.309199989 0
vt 0.289000005 0.318399996 0
vt 0.234999999 0.275400013 0
vt 0.226500005 0.283499986 0
vt 0.154200003 0.2359 0
vt 0.148300007 0.241699904 0
vt 0.0934000015 0.201900005 0
vt 0.0893999934 0.204699904 0
vt 0.0368999802 0.166099995 0
vt 0.94569999 0.238399997 0
vt 0.962499976 0.264200002 0
vt 0.0381000005 0.161899999 0
vt 0.0355999395 0.148800001 0
vt 0.960799992 0.231399998 0
vt 0.0316999517 0.168799907 0
vt 0.949299991 0.191300005 0
vt 0.0309999492 0.158600003 0
vn -0.418417901 0.269484371 0.867355108
vn -0.34898749 0.850205123 0.394156039
vn -0.545931578 0.595342517 0.589513302
vn 0.252118498 -0.872663915 0.418203473
vn 0.246625304 -0.894119978 0.373798668
vn 0.251505703 -0.863042176 0.438067377
vn 0.172676206 -0.812048316 0.557459056
vn 0.171001598 -0.807702601 0.564247251
vn 0.236432701 -0.731211185 0.639866948
vn 0.237563699 -0.727401614 0.643778265
vn 0.33830449 -0.585509539 0.73670119
vn 0.299882203 -0.690559208 0.65817827
vn 0.386978 -0.434282243 0.813416898
vn 0.282207608 -0.583337069 0.761627913
vn 0.479057193 -0.281385422 0.831460476
vn 0.279126793 -0.624296665 0.729617715
vn 0.356404305 -0.663459003 0.657873929
vn 0.152200595 -0.826864183 0.541415453
vn 0.359826803 -0.752248704 0.551948011
vn -0.167123601 -0.94219172 0.290421575
vn 0.25065431 -0.81956321 0.515255928
vn -0.561611474 0.0187691655 0.827188194
vn 0.298595309 -0.904392123 0.304821074
vn 0.241038203 -0.86185348 0.446216673
vn 0.296919495 -0.842416584 0.449636757
vn 0.118474297 -0.478658229 0.869971395
vn 0.00662267208 -0.514493585 0.857468784
vn 0.133674994 -0.439815223 0.888084292
vn 0.2462596 -0.314653218 0.916705906
vn 0.391405106 -0.141851947 0.909219623
vn 0.542632222 0.0309159327 0.839401305
vn 0.632998526 0.117346168 0.765207708
vn 0.723276615 -0.0399802588 0.689400196
vn 0.761301816 -0.0733987316 0.644230127
vn 0.814441025 -0.322651237 0.482267708
vn 0.217693105 -0.762582004 0.609162152
vn 0.261119992 -0.567896545 0.780583024
vn -0.00885057356 -0.547700763 0.836627603
vn -0.32384041 0.467738867 0.822403729
vn -0.33604601 -0.670047224 0.661898613
vn -0.166298807 0.503992915 0.847546875
vn -0.244670406 0.831702411 0.49840492
vn -0.0808457136 0.492093861 0.866779983
vn -0.168098107 0.847937286 0.502737939
vn 0.0741308331 0.508661449 0.85776931
vn -0.02954196 0.830746889 0.555865943
vn 0.279918998 0.505636454 0.816074312
vn 0.226330295 0.75077188 0.620577276
vn 0.501615524 0.465602577 0.729106426
vn 0.562983274 0.49889347 0.658904374
vn 0.709440708 0.373214662 0.597833276
vn 0.730299592 0.531587601 0.42904222
vn 0.776847005 0.496737659 0.386989027
vn 0.73573488 0.614389181 0.284991622
vn 0.812670529 0.481443495 0.328297138
vn 0.754405677 0.640324712 0.144417137
vn 0.826705575 0.378774464 0.416038543
vn 0.852321029 0.263414681 0.451842695
vn -0.786904275 -0.0969896615 0.60940522
vn -0.126135707 -0.832531989 0.539425969
vn 0.480129391 -0.809310377 0.338367373
vn 0.918316901 -0.191537216 0.346421212
vn 0.184489399 0.282364964 0.941399872
vn 0.229931995 0.851975203 0.470393121
vn 0.100315303 0.46028477 0.882085502
vn -0.32637319 -0.873950124 0.360127479
vn -0.321525604 -0.89142102 0.319358677
vn -0.347160786 -0.897948623 0.270495474
vn -0.337699801 -0.867429078 0.36541158
vn -0.296126187 -0.845651925 0.444051862
vn -0.371110708 -0.728487909 0.57583195
vn -0.296065897 -0.830150306 0.472435772
vn -0.505949914 -0.590000212 0.629217505
vn -0.368432105 -0.709091425 0.601204753
vn -0.561681628 -0.45474112 0.691175997
vn -0.441069394 -0.717058182 0.539708614
vn -0.661052585 -0.298877537 0.688245475
vn -0.44463101 -0.604123175 0.661315799
vn -0.509514272 -0.657378674 0.555201173
vn -0.470339209 -0.5946154 0.652084112
vn -0.462604403 -0.76693809 0.444750875
vn -0.249952897 -0.840501189 0.480709285
vn -0.390828192 -0.81434238 0.429068565
vn 0.0597250387 -0.940799415 0.333660662
vn 0.3387025 0.00549342111 0.940877616
vn 0.393945903 0.62049228 0.678082705
vn -0.326249301 -0.857922614 0.396900982
vn -0.381249994 -0.827506721 0.412166268
vn -0.324880302 -0.475188941 0.817709327
vn -0.199445799 -0.522709846 0.828852177
vn -0.3381567 -0.461303145 0.820274115
vn -0.460894704 -0.31776163 0.828615606
vn -0.599032104 -0.141975626 0.788037777
vn -0.803852022 0.0867057145 0.588476121
vn -0.731243312 0.0226452593 0.68174088
vn -0.879431129 -0.00720246695 0.475971907
vn -0.898980916 -0.0695538148 0.432429999
vn -0.358600706 -0.747049212 0.559752762
vn -0.194496199 -0.57006067 0.798249602
vn -0.0542020686 0.532956541 0.844404817
vn 0.104770802 0.855043292 0.50786227
vn -0.145454705 0.473445058 0.868730485
vn 0.0265514199 0.84982878 0.526389778
vn -0.290023386 0.509242356 0.810283124
vn -0.117742702 0.828593493 0.547329545
vn -0.471741289 0.514987648 0.715714991
vn -0.362933099 0.776741505 0.514735162
vn -0.661112309 0.499328673 0.560001373
vn -0.69931531 0.546017826 0.461327136
vn -0.837388217 0.379629374 0.393271625
vn -0.818531811 0.528322279 0.225569323
vn -0.854063928 0.483035594 0.193006709
vn -0.813588023 0.563633502 0.142800525
vn -0.84787941 0.525232315 0.0723300725
vn -0.729894102 0.677309811 -0.0922285616
vn -0.915541172 0.354448289 0.190133721
vn 0.1732288 -0.679303467 0.71311897
vn 0.622746706 -0.0928092375 0.776899815
vn -0.911819279 -0.319351912 0.258069485
vn -0.593286693 -0.775484324 0.215951473
vn -0.0244762301 -0.818916202 0.573390961
vn -0.95032692 0.230264783 0.209420413
vn -0.439540803 -0.541445136 0.716687679
vn -0.973657906 -0.200694993 0.108221494
f 1/1/1 2/2/2 3/3/3
f 4/4/4 5/5/5 6/6/6
f 7/6/6 8/7/7 9/8/8
f 10/7/7 11/9/9 12/8/8
f 13/10/10 14/11/11 15/9/9
f 16/12/12 17/13/13 18/11/11
f 19/14/14 20/15/15 21/13/13
f 22/16/16 23/17/17 24/15/15
f 25/18/18 26/19/19 27/17/17
f 28/20/20 29/21/21 30/19/19
f 31/3/3 32/22/22 33/1/1
f 34/23/23 35/24/24 36/25/25
f 37/4/4 38/26/26 39/27/27
f 40/6/6 41/28/28 42/26/26
f 43/28/28 44/9/9 45/29/29
f 46/29/29 47/11/11 48/30/30
f 49/30/30 50/13/13 51/31/31
f 52/13/13 53/32/32 54/31/31
f 55/15/15 56/33/33 57/32/32
f 58/17/17 59/34/34 60/33/33
f 61/34/34 62/21/21 63/35/35
f 64/25/25 65/36/36 66/37/37
f 67/38/38 68/39/39 69/1/1
f 70/38/38 71/22/22 72/40/40
f 73/2/2 74/41/41 75/42/42
f 76/42/42 77/43/43 78/44/44
f 79/44/44 80/45/45 81/46/46
f 82/46/46 83/47/47 84/48/48
f 85/48/48 86/49/49 87/50/50
f 88/50/50 89/51/51 90/52/52
f 91/52/52 92/53/53 93/54/54
f 94/54/54 95/55/55 96/56/56
f 97/56/56 98/57/57 99/58/58
f 100/40/40 101/59/59 102/60/60
f 103/35/35 104/61/61 105/62/62
f 106/39/39 107/26/26 108/41/41
f 109/41/41 110/28/28 111/43/43
f 112/43/43 113/29/29 114/45/45
f 115/45/45 116/30/30 117/47/47
f 118/47/47 119/31/31 120/49/49
f 121/49/49 122/32/32 123/51/51
f 124/51/51 125/33/33 126/53/53
f 127/53/53 128/34/34 129/55/55
f 130/55/55 131/35/35 132/57/57
f 133/4/4 134/38/38 135/24/24
f 136/24/24 137/40/40 138/36/36
f 139/36/36 140/60/60 141/37/37
f 142/35/35 143/58/58 144/57/57
f 145/63/63 146/64/64 147/65/65
f 148/66/66 149/67/67 150/68/68
f 151/69/69 152/70/70 153/67/67
f 154/71/71 155/70/70 156/72/72
f 157/73/73 158/74/74 159/71/71
f 160/75/75 161/76/76 162/73/73
f 163/77/77 164/78/78 165/75/75
f 166/79/79 167/80/80 168/77/77
f 169/81/81 170/82/82 171/79/79
f 172/83/83 173/84/84 174/81/81
f 175/85/85 176/86/86 177/63/63
f 178/87/87 179/68/68 180/88/88
f 181/89/89 182/66/66 183/90/90
f 184/91/91 185/69/69 186/89/89
f 187/91/91 188/71/71 189/72/72
f 190/92/92 191/73/73 192/71/71
f 193/93/93 194/75/75 195/73/73
f 196/94/94 197/75/75 198/95/95
f 199/96/96 200/77/77 201/94/94
f 202/97/97 203/79/79 204/96/96
f 205/97/97 206/83/83 207/81/81
f 208/88/88 209/98/98 210/87/87
f 211/99/99 212/65/65 213/90/90
f 214/99/99 215/85/85 216/63/63
f 217/64/64 218/100/100 219/65/65
f 220/101/101 221/102/102 222/100/100
f 223/103/103 224/104/104 225/102/102
f 226/105/105 227/106/106 228/104/104
f 229/107/107 230/108/108 231/106/106
f 232/109/109 233/110/110 234/108/108
f 235/111/111 236/112/112 237/110/110
f 238/113/113 239/114/114 240/112/112
f 241/115/115 242/116/116 243/114/114
f 244/117/117 245/118/118 246/85/85
f 247/119/119 248/120/120 249/83/83
f 250/65/65 251/89/89 252/90/90
f 253/100/100 254/91/91 255/89/89
f 256/102/102 257/92/92 258/91/91
f 259/104/104 260/93/93 261/92/92
f 262/106/106 263/95/95 264/93/93
f 265/108/108 266/94/94 267/95/95
f 268/110/110 269/96/96 270/94/94
f 271/112/112 272/97/97 273/96/96
f 274/114/114 275/119/119 276/97/97
f 277/99/99 278/66/66 279/87/87
f 280/87/87 281/117/117 282/99/99
f 283/98/98 284/121/121 285/117/117
f 286/122/122 287/119/119 288/116/116
f 289/1/1 290/39/39 291/2/2
f 292/4/4 293/23/23 294/5/5
f 295/6/6 296/5/5 297/7/7
f 298/7/7 299/10/10 300/9/9
f 301/10/10 302/12/12 303/11/11
f 304/12/12 305/14/14 306/13/13
f 307/14/14 308/16/16 309/15/15
f 310/16/16 311/18/18 312/17/17
f 313/18/18 314/20/20 315/19/19
f 316/20/20 317/61/61 318/21/21
f 319/3/3 320/59/59 321/22/22
f 322/23/23 323/4/4 324/24/24
f 325/4/4 326/6/6 327/26/26
f 328/6/6 329/8/8 330/28/28
f 331/28/28 332/8/8 333/9/9
f 334/29/29 335/9/9 336/11/11
f 337/30/30 338/11/11 339/13/13
f 340/13/13 341/15/15 342/32/32
f 343/15/15 344/17/17 345/33/33
f 346/17/17 347/19/19 348/34/34
f 349/34/34 350/19/19 351/21/21
f 352/25/25 353/24/24 354/36/36
f 355/38/38 356/27/27 357/39/39
f 358/38/38 359/1/1 360/22/22
f 361/2/2 362/39/39 363/41/41
f 364/42/42 365/41/41 366/43/43
f 367/44/44 368/43/43 369/45/45
f 370/46/46 371/45/45 372/47/47
f 373/48/48 374/47/47 375/49/49
f 376/50/50 377/49/49 378/51/51
f 379/52/52 380/51/51 381/53/53
f 382/54/54 383/53/53 384/55/55
f 385/56/56 386/55/55 387/57/57
f 388/40/40 389/22/22 390/59/59
f 391/35/35 392/21/21 393/61/61
f 394/39/39 395/27/27 396/26/26
f 397/41/41 398/26/26 399/28/28
f 400/43/43 401/28/28 402/29/29
f 403/45/45 404/29/29 405/30/30
f 406/47/47 407/30/30 408/31/31
f 409/49/49 410/31/31 411/32/32
f 412/51/51 413/32/32 414/33/33
f 415/53/53 416/33/33 417/34/34
f 418/55/55 419/34/34 420/35/35
f 421/4/4 422/27/27 423/38/38
f 424/24/24 425/38/38 426/40/40
f 427/36/36 428/40/40 429/60/60
f 430/35/35 431/62/62 432/58/58
f 433/63/63 434/86/86 435/64/64
f 436/66/66 437/69/69 438/67/67
f 439/69/69 440/72/72 441/70/70
f 442/71/71 443/74/74 444/70/70
f 445/73/73 446/76/76 447/74/74
f 448/75/75 449/78/78 450/76/76
f 451/77/77 452/80/80 453/78/78
f 454/79/79 455/82/82 456/80/80
f 457/81/81 458/84/84 459/82/82
f 460/83/83 461/120/120 462/84/84
f 463/85/85 464/118/118 465/86/86
f 466/87/87 467/66/66 468/68/68
f 469/89/89 470/69/69 471/66/66
f 472/91/91 473/72/72 474/69/69
f 475/91/91 476/92/92 477/71/71
f 478/92/92 479/93/93 480/73/73
f 481/93/93 482/95/95 483/75/75
f 484/94/94 485/77/77 486/75/75
f 487/96/96 488/79/79 489/77/77
f 490/97/97 491/81/81 492/79/79
f 493/97/97 494/119/119 495/83/83
f 496/88/88 497/123/123 498/98/98
f 499/99/99 500/63/63 501/65/65
f 502/99/99 503/117/117 504/85/85
f 505/64/64 506/101/101 507/100/100
f 508/101/101 509/103/103 510/102/102
f 511/103/103 512/105/105 513/104/104
f 514/105/105 515/107/107 516/106/106
f 517/107/107 518/109/109 519/108/108
f 520/109/109 521/111/111 522/110/110
f 523/111/111 524/113/113 525/112/112
f 526/113/113 527/115/115 528/114/114
f 529/115/115 530/122/122 531/116/116
f 532/117/117 533/121/121 534/118/118
f 535/119/119 536/124/124 537/120/120
f 538/65/65 539/100/100 540/89/89
f 541/100/100 542/102/102 543/91/91
f 544/102/102 545/104/104 546/92/92
f 547/104/104 548/106/106 549/93/93
f 550/106/106 551/108/108 552/95/95
f 553/108/108 554/110/110 555/94/94
f 556/110/110 557/112/112 558/96/96
f 559/112/112 560/114/114 561/97/97
f 562/114/114 563/116/116 564/119/119
f 565/99/99 566/90/90 567/66/66
f 568/87/87 569/98/98 570/117/117
f 571/98/98 572/123/123 573/121/121
f 574/122/122 575/124/124 576/119/119
