# MuJoCo material-split OBJ
v -0.0148000121 1.46920025 0.0272000879
v -0.0159000158 1.47130024 0.0340000764
v -0.0173000097 1.47210026 0.0269000977
v -0.0173000097 1.47210026 0.0269000977
v -0.0159000158 1.47490025 0.0340000764
v -0.0177000165 1.47570026 0.0270001069
v -0.0159000158 1.47490025 0.0340000764
v -0.0157999992 1.47810018 0.0271001309
v -0.0177000165 1.47570026 0.0270001069
v -0.0177000165 1.47570026 0.0270001069
v -0.0170999765 1.47240031 0.0178000778
v -0.0173000097 1.47210026 0.0269000977
v -0.016200006 1.47980022 0.0187001079
v -0.0177000165 1.47570026 0.0270001069
v -0.0157999992 1.47810018 0.0271001309
v -0.0141000152 1.47710025 0.0337000862
v -0.00760000944 1.47970021 0.0267001167
v -0.0157999992 1.47810018 0.0271001309
v -0.0149999866 1.46880019 0.0185000673
v -0.0173000097 1.47210026 0.0269000977
v -0.0170999765 1.47240031 0.0178000778
v -0.00370001979 1.47070026 0.0328001156
v -0.00660002977 1.46980023 0.0268000811
v -0.00300003029 1.47050023 0.0263001174
v -0.00180000998 1.47060025 0.0185000673
v -0.004199991 1.47110021 0.00640005618
v 0.000100009143 1.47070026 0.0068000555
v -0.00300003029 1.47050023 0.0263001174
v -0.00599998981 1.47000027 0.0187001079
v -0.00180000998 1.47060025 0.0185000673
v -0.00379998051 1.47810018 0.0383000821
v 0.000299990177 1.47940028 0.0341001004
v -0.00379998051 1.47910023 0.0337000862
v -0.0141000152 1.47710025 0.0337000862
v -0.00720001012 1.47790027 0.0381001085
v -0.00730002113 1.47880018 0.033400096
v -0.016200006 1.47980022 0.0187001079
v -0.00760000944 1.47970021 0.0267001167
v -0.00760000944 1.48080027 0.0181001276
v -0.0148000121 1.46920025 0.0272000879
v -0.00669998117 1.46990025 0.0325001255
v -0.0139999995 1.46940029 0.0339001268
v -0.00660002977 1.46940029 0.0371001214
v -0.0139999995 1.46940029 0.0339001268
v -0.00669998117 1.46990025 0.0325001255
v -0.0139999995 1.4689002 0.0383000821
v -0.0159000158 1.47130024 0.0340000764
v -0.0139999995 1.46940029 0.0339001268
v -0.0159000158 1.47130024 0.0340000764
v -0.0156999826 1.47400022 0.0387000889
v -0.0159000158 1.47490025 0.0340000764
v -0.0159000158 1.47490025 0.0340000764
v -0.0137000093 1.47640026 0.0385001078
v -0.0141000152 1.47710025 0.0337000862
v -0.00370001979 1.47070026 0.0328001156
v -0.00660002977 1.46940029 0.0371001214
v -0.00669998117 1.46990025 0.0325001255
v -0.00390000083 1.47670019 0.0415000767
v -0.000299990177 1.47800028 0.0386001319
v -0.00379998051 1.47810018 0.0383000821
v -0.0137000093 1.47640026 0.0385001078
v -0.00690001994 1.47660029 0.0413000956
v -0.00720001012 1.47790027 0.0381001085
v -0.0136000002 1.46880019 0.00620006025
v -0.00599998981 1.47000027 0.0187001079
v -0.0149999866 1.46880019 0.0185000673
v -0.00660002977 1.4689002 0.0406001061
v -0.0139999995 1.4689002 0.0383000821
v -0.00660002977 1.46940029 0.0371001214
v -0.00660002977 1.46980023 0.0268000811
v -0.0149999866 1.46880019 0.0185000673
v -0.00599998981 1.47000027 0.0187001079
v -0.0139999995 1.4689002 0.0383000821
v -0.0152000189 1.47030032 0.0414001197
v -0.0157999992 1.47100031 0.0387000889
v -0.0157999992 1.47100031 0.0387000889
v -0.0151000023 1.4732002 0.0417001098
v -0.0156999826 1.47400022 0.0387000889
v -0.0156999826 1.47400022 0.0387000889
v -0.0131000299 1.4752003 0.0417001098
v -0.0137000093 1.47640026 0.0385001078
v -0.00379998051 1.46950018 0.0407001153
v -0.00660002977 1.46940029 0.0371001214
v -0.00370001979 1.47010028 0.0372000784
v -0.00370001979 1.47550023 0.044400081
v -0.000700000674 1.47690022 0.0420001
v -0.00390000083 1.47670019 0.0415000767
v -0.00390000083 1.47280025 0.0483001284
v -0.00129998103 1.47430027 0.0469000787
v -0.00379998051 1.47400022 0.0465001278
v -0.00390000083 1.46920025 0.0431000963
v -0.00629997998 1.46820021 0.0447001308
v -0.00650000945 1.46880019 0.0428001061
v -0.00989998039 1.47160017 0.048100099
v -0.00610000081 1.4738003 0.046200078
v -0.0109000299 1.47260022 0.046200078
v -0.00629997998 1.46820021 0.0447001308
v -0.00980002061 1.46680021 0.0461001173
v -0.0111000007 1.46740019 0.0447001308
v -0.0111000007 1.46740019 0.0447001308
v -0.0108000105 1.46810019 0.0468001179
v -0.0123999799 1.46880019 0.045100078
v -0.0123999799 1.46880019 0.045100078
v -0.0109000299 1.47000027 0.0475001186
v -0.0123999799 1.47090018 0.0456000976
v -0.0109000299 1.47000027 0.0475001186
v -0.0109000299 1.47260022 0.046200078
v -0.0123999799 1.47090018 0.0456000976
v -0.00400000997 1.46850026 0.044900097
v -0.00599998981 1.46740019 0.0463000983
v -0.00629997998 1.46820021 0.0447001308
v -0.00390000083 1.47160017 0.0501000695
v -0.0015000198 1.47300029 0.0488000996
v -0.00390000083 1.47280025 0.0483001284
v -0.00919998065 1.47060025 0.0495000891
v -0.00580001064 1.47250021 0.0480000786
v -0.00989998039 1.47160017 0.048100099
v -0.00599998981 1.46740019 0.0463000983
v -0.00900000986 1.4666003 0.0475001186
v -0.00980002061 1.46680021 0.0461001173
v -0.0151000023 1.4732002 0.0417001098
v -0.0120999906 1.4739002 0.0442001075
v -0.0131000299 1.4752003 0.0417001098
v -0.00980002061 1.46680021 0.0461001173
v -0.00919998065 1.46770024 0.0482001081
v -0.0108000105 1.46810019 0.0468001179
v -0.00919998065 1.46770024 0.0482001081
v -0.0109000299 1.47000027 0.0475001186
v -0.0108000105 1.46810019 0.0468001179
v -0.00930000003 1.46950018 0.049200099
v -0.00989998039 1.47160017 0.048100099
v -0.0109000299 1.47000027 0.0475001186
v -0.00390000083 1.46760023 0.0466000885
v -0.00550002046 1.46700025 0.0480000786
v -0.00599998981 1.46740019 0.0463000983
v -0.00390000083 1.47160017 0.0501000695
v -0.00480003096 1.46980023 0.0503001101
v -0.00360001065 1.46980023 0.05050008
v -0.00480003096 1.46980023 0.0503001101
v -0.00349999033 1.46810019 0.0496001095
v -0.00360001065 1.46980023 0.05050008
v -0.00480003096 1.46800029 0.04940008
v -0.00379998051 1.46720028 0.048100099
v -0.00349999033 1.46810019 0.0496001095
v -0.00559998117 1.47140026 0.0499000996
v -0.00930000003 1.46950018 0.049200099
v -0.00480003096 1.46980023 0.0503001101
v -0.00480003096 1.46800029 0.04940008
v -0.00930000003 1.46950018 0.049200099
v -0.00919998065 1.46770024 0.0482001081
v -0.00550002046 1.46700025 0.0480000786
v -0.00919998065 1.46770024 0.0482001081
v -0.00900000986 1.4666003 0.0475001186
v -0.0120999906 1.4739002 0.0442001075
v -0.00690001994 1.47660029 0.0413000956
v -0.0131000299 1.4752003 0.0417001098
v -0.0152000189 1.47030032 0.0414001197
v -0.013800025 1.47190022 0.0439001173
v -0.0151000023 1.4732002 0.0417001098
v -0.0109000299 1.47260022 0.046200078
v -0.00620002113 1.47530019 0.0442001075
v -0.0120999906 1.4739002 0.0442001075
v -0.0123999799 1.47090018 0.0456000976
v -0.0120999906 1.4739002 0.0442001075
v -0.013800025 1.47190022 0.0439001173
v -0.0123999799 1.46780026 0.0431000963
v -0.0123999799 1.46880019 0.045100078
v -0.013899982 1.46930027 0.0434000865
v -0.0136000002 1.46820021 0.0412000865
v -0.013899982 1.46930027 0.0434000865
v -0.0152000189 1.47030032 0.0414001197
v -0.00650000945 1.46880019 0.0428001061
v -0.0111000007 1.46740019 0.0447001308
v -0.0123999799 1.46780026 0.0431000963
v -0.00379998051 1.47400022 0.0465001278
v -0.000999990851 1.47550023 0.0447001308
v -0.00370001979 1.47550023 0.044400081
v -0.013899982 1.46930027 0.0434000865
v -0.0123999799 1.47090018 0.0456000976
v -0.013800025 1.47190022 0.0439001173
v -0.00660002977 1.4689002 0.0406001061
v -0.0123999799 1.46780026 0.0431000963
v -0.0136000002 1.46820021 0.0412000865
v -0.00379998051 1.46950018 0.0407001153
v -0.00650000945 1.46880019 0.0428001061
v -0.00660002977 1.4689002 0.0406001061
v -0.00379998051 1.47910023 0.0337000862
v 0.00109999999 1.48090029 0.0274001211
v -0.00390000083 1.4804002 0.0271001309
v -0.00340002961 1.48150027 0.0183001012
v 0.00109999999 1.48090029 0.0274001211
v 0.00219999999 1.4818002 0.0186000913
v -0.00120002963 1.4824003 0.00610005856
v 0.00219999999 1.4818002 0.0186000913
v 0.00370001048 1.4817003 0.00650005788
v -0.000199981034 1.47860026 -0.00589994341
v 0.00370001048 1.4817003 0.00650005788
v 0.00520001911 1.47780025 -0.00499994308
v 0.000399999321 1.46620023 -0.000199839473
v 0.00359999947 1.46680021 0.00840012729
v 0.000100009143 1.47070026 0.0068000555
v -0.00300003029 1.47050023 0.0263001174
v 0.00219999999 1.46970022 0.0191001073
v 0.00120002031 1.47130024 0.0269000977
v -0.0152000189 1.46380031 -0.0146999434
v -0.0127000306 1.46570027 -0.00379984081
v -0.0152000189 1.46950018 -0.00519993901
v -0.0153999934 1.4752003 -0.00699993968
v -0.0124999899 1.47340024 -0.0183999464
v -0.0149999866 1.47020018 -0.0182999447
v -0.0152000189 1.46950018 -0.00519993901
v -0.0149999866 1.47020018 -0.0182999447
v -0.0152000189 1.46380031 -0.0146999434
v -0.0131999906 1.47700024 -0.00719994307
v -0.00290000997 1.47410023 -0.0182999447
v -0.0124999899 1.47340024 -0.0183999464
v -0.0127000306 1.46570027 -0.00379984081
v -0.00349999033 1.46000028 -0.00979994237
v -0.00340002961 1.4673003 -0.00169993937
v -0.0136000002 1.46880019 0.00620006025
v -0.00340002961 1.4673003 -0.00169993937
v -0.004199991 1.47110021 0.00640005618
v -0.0144000063 1.48030031 0.00470005721
v -0.00440002047 1.47920024 -0.00649993867
v -0.0131999906 1.47700024 -0.00719994307
v -0.0164999962 1.47210026 0.00550005585
v -0.0153999934 1.4752003 -0.00699993968
v -0.0152000189 1.46950018 -0.00519993901
v -0.0144000063 1.48030031 0.00470005721
v -0.0153999934 1.4752003 -0.00699993968
v -0.016900003 1.47740018 0.00520015508
v -0.0136000002 1.46880019 0.00620006025
v -0.0152000189 1.46950018 -0.00519993901
v -0.0127000306 1.46570027 -0.00379984081
v -0.0170999765 1.47240031 0.0178000778
v -0.0136000002 1.46880019 0.00620006025
v -0.0149999866 1.46880019 0.0185000673
v -0.016200006 1.47980022 0.0187001079
v -0.016900003 1.47740018 0.00520015508
v -0.0175999999 1.47740018 0.0178000778
v -0.0175999999 1.47740018 0.0178000778
v -0.0164999962 1.47210026 0.00550005585
v -0.0170999765 1.47240031 0.0178000778
v -0.00760000944 1.48080027 0.0181001276
v -0.0144000063 1.48030031 0.00470005721
v -0.016200006 1.47980022 0.0187001079
v 0.00050001964 1.47160017 0.0324001163
v -0.00300003029 1.47050023 0.0263001174
v 0.00120002031 1.47130024 0.0269000977
v -0.00720001012 1.47790027 0.0381001085
v -0.00379998051 1.47910023 0.0337000862
v -0.00730002113 1.47880018 0.033400096
v 0 1.47110021 0.0371001214
v -0.00370001979 1.47070026 0.0328001156
v 0.00050001964 1.47160017 0.0324001163
v -0.00690001994 1.47660029 0.0413000956
v -0.00379998051 1.47810018 0.0383000821
v -0.00720001012 1.47790027 0.0381001085
v -0.000500030816 1.47030032 0.0408000797
v -0.00370001979 1.47010028 0.0372000784
v 0 1.47110021 0.0371001214
v -0.00620002113 1.47530019 0.0442001075
v -0.00390000083 1.47670019 0.0415000767
v -0.00690001994 1.47660029 0.0413000956
v -0.00580001064 1.47250021 0.0480000786
v -0.00379998051 1.47400022 0.0465001278
v -0.00610000081 1.4738003 0.046200078
v -0.000999990851 1.46840024 0.045000121
v -0.00390000083 1.46920025 0.0431000963
v -0.000800020993 1.46940029 0.0431000963
v -0.000999990851 1.46840024 0.045000121
v -0.00390000083 1.46760023 0.0466000885
v -0.00400000997 1.46850026 0.044900097
v -0.00559998117 1.47140026 0.0499000996
v -0.00390000083 1.47280025 0.0483001284
v -0.00580001064 1.47250021 0.0480000786
v -0.00120002963 1.46750021 0.0468001179
v -0.00379998051 1.46720028 0.048100099
v -0.00390000083 1.46760023 0.0466000885
v -0.00169998966 1.47150028 0.0503001101
v -0.00360001065 1.46980023 0.05050008
v -0.00169998966 1.46970022 0.05050008
v -0.00169998966 1.46970022 0.05050008
v -0.00349999033 1.46810019 0.0496001095
v -0.00160003081 1.46800029 0.0499000996
v -0.00349999033 1.46810019 0.0496001095
v -0.00139999948 1.46710026 0.0484000891
v -0.00160003081 1.46800029 0.0499000996
v -0.00610000081 1.4738003 0.046200078
v -0.00370001979 1.47550023 0.044400081
v -0.00620002113 1.47530019 0.0442001075
v -0.000800020993 1.46940029 0.0431000963
v -0.00379998051 1.46950018 0.0407001153
v -0.000500030816 1.47030032 0.0408000797
v -0.00730002113 1.47880018 0.033400096
v -0.00390000083 1.4804002 0.0271001309
v -0.00760000944 1.47970021 0.0267001167
v -0.00760000944 1.47970021 0.0267001167
v -0.00340002961 1.48150027 0.0183001012
v -0.00760000944 1.48080027 0.0181001276
v -0.00559998117 1.48230028 0.00570005924
v -0.00340002961 1.48150027 0.0183001012
v -0.00120002963 1.4824003 0.00610005856
v -0.00559998117 1.48230028 0.00570005924
v -0.000199981034 1.47860026 -0.00589994341
v -0.00440002047 1.47920024 -0.00649993867
v -0.004199991 1.47110021 0.00640005618
v 0.000399999321 1.46620023 -0.000199839473
v 0.000100009143 1.47070026 0.0068000555
v -0.00340002961 1.4673003 -0.00169993937
v -0.000400010496 1.45750022 -0.00729994476
v 0.000399999321 1.46620023 -0.000199839473
v -0.00290000997 1.47410023 -0.0182999447
v -0.000199981034 1.47860026 -0.00589994341
v 0.00120002031 1.47370028 -0.0179999396
v 0.00120002031 1.47370028 -0.0179999396
v 0.00520001911 1.47780025 -0.00499994308
v 0.00679999031 1.47350025 -0.0175999478
v 0.000399999321 1.46620023 -0.000199839473
v 0.00520001911 1.45620024 -0.00439994037
v 0.00440000929 1.46360028 0.00220005959
v -0.00180000998 1.47060025 0.0185000673
v 0.00359999947 1.46680021 0.00840012729
v 0.00219999999 1.46970022 0.0191001073
v 0.0167000182 1.46940029 0.0311000794
v 0.0159999691 1.47150028 0.0380000919
v 0.0142999813 1.4696002 0.0374001116
v 0.0192000195 1.47240031 0.0315000862
v 0.0159999691 1.47510028 0.0380000919
v 0.0159999691 1.47150028 0.0380000919
v 0.0174999796 1.47840023 0.0313001052
v 0.0159999691 1.47510028 0.0380000919
v 0.0195000097 1.47590029 0.0316000953
v 0.0212000012 1.47270024 0.0226000994
v 0.0195000097 1.47590029 0.0316000953
v 0.0192000195 1.47240031 0.0315000862
v 0.0199999809 1.48010027 0.0233000964
v 0.0195000097 1.47590029 0.0316000953
v 0.0217000209 1.47760022 0.022700116
v 0.00970000029 1.47980022 0.0289001316
v 0.0143999979 1.47730029 0.0372000784
v 0.0174999796 1.47840023 0.0313001052
v 0.0191000104 1.46900022 0.022700116
v 0.0192000195 1.47240031 0.0315000862
v 0.0167000182 1.46940029 0.0311000794
v 0.00459997915 1.47070026 0.0339001268
v 0.00880002975 1.46970022 0.0288001075
v 0.00749998912 1.47000027 0.0343000665
v 0.00620000996 1.47070026 0.0195001215
v 0.011500001 1.47120023 0.0083001107
v 0.0102999806 1.47020018 0.0207000747
v 0.00550000928 1.47060025 0.027300097
v 0.0102999806 1.47020018 0.0207000747
v 0.00880002975 1.46970022 0.0288001075
v 0.000299990177 1.47940028 0.0341001004
v 0.00319998898 1.47810018 0.0392001048
v 0.00440000929 1.47910023 0.0347000808
v 0.0143999979 1.47730029 0.0372000784
v 0.00650000013 1.47800028 0.0398000851
v 0.0127000213 1.47660029 0.0418001264
v 0.0199999809 1.48010027 0.0233000964
v 0.00970000029 1.47980022 0.0289001316
v 0.0174999796 1.47840023 0.0313001052
v 0.00749998912 1.47000027 0.0343000665
v 0.0167000182 1.46940029 0.0311000794
v 0.0142999813 1.4696002 0.0374001116
v 0.0142999813 1.4696002 0.0374001116
v 0.00629996881 1.46950018 0.0387000889
v 0.00749998912 1.47000027 0.0343000665
v 0.0159999691 1.47150028 0.0380000919
v 0.0131999813 1.46910024 0.0417001098
v 0.0142999813 1.4696002 0.0374001116
v 0.0159999691 1.47150028 0.0380000919
v 0.0146999881 1.47420025 0.0425001159
v 0.0148000084 1.47120023 0.0425001159
v 0.0159999691 1.47510028 0.0380000919
v 0.0127000213 1.47660029 0.0418001264
v 0.0146999881 1.47420025 0.0425001159
v 0.00459997915 1.47070026 0.0339001268
v 0.00629996881 1.46950018 0.0387000889
v 0.00349997915 1.47010028 0.0381001085
v -0.000299990177 1.47800028 0.0386001319
v 0.00249999017 1.47670019 0.0423000902
v 0.00319998898 1.47810018 0.0392001048
v 0.0127000213 1.47660029 0.0418001264
v 0.00540000014 1.47670019 0.0429001302
v 0.0113999806 1.47540021 0.0448000878
v 0.0206999704 1.46900022 0.0105001181
v 0.0102999806 1.47020018 0.0207000747
v 0.011500001 1.47120023 0.0083001107
v 0.0131999813 1.46910024 0.0417001098
v 0.00550000928 1.46900022 0.0421001166
v 0.00629996881 1.46950018 0.0387000889
v 0.0191000104 1.46900022 0.022700116
v 0.00880002975 1.46970022 0.0288001075
v 0.0102999806 1.47020018 0.0207000747
v 0.0131999813 1.46910024 0.0417001098
v 0.0137000009 1.47050023 0.045000121
v 0.0120999813 1.46840024 0.044400081
v 0.0148000084 1.47120023 0.0425001159
v 0.0134000108 1.47340024 0.0453001112
v 0.0137000009 1.47050023 0.045000121
v 0.0146999881 1.47420025 0.0425001159
v 0.0113999806 1.47540021 0.0448000878
v 0.0134000108 1.47340024 0.0453001112
v 0.00629996881 1.46950018 0.0387000889
v 0.00279998034 1.46950018 0.0415000767
v 0.00349997915 1.47010028 0.0381001085
v -0.000700000674 1.47690022 0.0420001
v 0.00169998035 1.47560024 0.045000121
v 0.00249999017 1.47670019 0.0423000902
v -0.00129998103 1.47430027 0.0469000787
v 0.000899970531 1.47290027 0.0489001088
v 0.00120002031 1.47410023 0.0471001081
v 0.00230002031 1.46920025 0.0439001173
v 0.00419997983 1.46830022 0.0460001081
v 0.00190000981 1.46860027 0.0456000976
v 0.00349997915 1.4738003 0.0474000983
v 0.00679999031 1.47170031 0.0502000898
v 0.0081999898 1.47280025 0.0486001186
v 0.00419997983 1.46830022 0.0460001081
v 0.00719999894 1.46690023 0.0483001284
v 0.00349997915 1.46750021 0.0475001186
v 0.00880002975 1.46750021 0.0472001284
v 0.00800000876 1.46820021 0.0491000898
v 0.00719999894 1.46690023 0.0483001284
v 0.0100999996 1.4689002 0.0479001179
v 0.00789998844 1.47020018 0.0499000996
v 0.00800000876 1.46820021 0.0491000898
v 0.0081999898 1.47280025 0.0486001186
v 0.00789998844 1.47020018 0.0499000996
v 0.00980000943 1.47110021 0.0484000891
v 0.00190000981 1.46860027 0.0456000976
v 0.00349997915 1.46750021 0.0475001186
v 0.00139999017 1.46760023 0.0472001284
v -0.00139999948 1.46710026 0.0484000891
v 0.000299990177 1.46810019 0.0501000695
v -0.00160003081 1.46800029 0.0499000996
v 0.00279998034 1.47250021 0.0491000898
v 0.00579999946 1.47070026 0.0514001101
v 0.00679999031 1.47170031 0.0502000898
v 0.00349997915 1.46750021 0.0475001186
v 0.00609998964 1.46680021 0.0493001193
v 0.00260001048 1.46710026 0.0490001291
v 0.0134000108 1.47340024 0.0453001112
v 0.00980000943 1.47400022 0.0469000787
v 0.0116000101 1.47210026 0.0471001081
v 0.00719999894 1.46690023 0.0483001284
v 0.00609998964 1.46780026 0.0501000695
v 0.00609998964 1.46680021 0.0493001193
v 0.00789998844 1.47020018 0.0499000996
v 0.00609998964 1.46780026 0.0501000695
v 0.00800000876 1.46820021 0.0491000898
v 0.00679999031 1.47170031 0.0502000898
v 0.00599998049 1.4696002 0.0511001199
v 0.00789998844 1.47020018 0.0499000996
v 0.00139999017 1.46760023 0.0472001284
v 0.00260001048 1.46710026 0.0490001291
v 0.000899970531 1.46720028 0.0487000793
v 0.00050001964 1.47160017 0.0506000966
v 0.00139999017 1.46990025 0.0511001199
v 0.00209998898 1.47150028 0.0509000868
v 0.000299990177 1.46810019 0.0501000695
v 0.00139999017 1.46990025 0.0511001199
v 0.000100009143 1.46980023 0.0509000868
v 0.000899970531 1.46720028 0.0487000793
v 0.00160001963 1.46810019 0.0502000898
v 0.000299990177 1.46810019 0.0501000695
v 0.00209998898 1.47150028 0.0509000868
v 0.00599998049 1.4696002 0.0511001199
v 0.00579999946 1.47070026 0.0514001101
v 0.00599998049 1.4696002 0.0511001199
v 0.00160001963 1.46810019 0.0502000898
v 0.00609998964 1.46780026 0.0501000695
v 0.00609998964 1.46780026 0.0501000695
v 0.00260001048 1.46710026 0.0490001291
v 0.00609998964 1.46680021 0.0493001193
v 0.00540000014 1.47670019 0.0429001302
v 0.00980000943 1.47400022 0.0469000787
v 0.0113999806 1.47540021 0.0448000878
v 0.0137000009 1.47050023 0.045000121
v 0.0116000101 1.47210026 0.0471001081
v 0.0119000003 1.46950018 0.0467000976
v 0.00410001911 1.47550023 0.0454001278
v 0.0081999898 1.47280025 0.0486001186
v 0.00980000943 1.47400022 0.0469000787
v 0.00980000943 1.47400022 0.0469000787
v 0.00980000943 1.47110021 0.0484000891
v 0.0116000101 1.47210026 0.0471001081
v 0.0105000101 1.46800029 0.0460001081
v 0.0100999996 1.4689002 0.0479001179
v 0.00880002975 1.46750021 0.0472001284
v 0.0120999813 1.46840024 0.044400081
v 0.0119000003 1.46950018 0.0467000976
v 0.0105000101 1.46800029 0.0460001081
v 0.00489996932 1.4689002 0.0442001075
v 0.00880002975 1.46750021 0.0472001284
v 0.00419997983 1.46830022 0.0460001081
v -0.000999990851 1.47550023 0.0447001308
v 0.00120002031 1.47410023 0.0471001081
v 0.00169998035 1.47560024 0.045000121
v 0.0119000003 1.46950018 0.0467000976
v 0.00980000943 1.47110021 0.0484000891
v 0.0100999996 1.4689002 0.0479001179
v 0.00550000928 1.46900022 0.0421001166
v 0.0105000101 1.46800029 0.0460001081
v 0.00489996932 1.4689002 0.0442001075
v 0.00279998034 1.46950018 0.0415000767
v 0.00489996932 1.4689002 0.0442001075
v 0.00230002031 1.46920025 0.0439001173
v 0.00770001858 1.48160028 0.0197000876
v 0.00109999999 1.48090029 0.0274001211
v 0.00599998049 1.48050022 0.0283000916
v 0.00859998912 1.4824003 0.00730005652
v 0.00219999999 1.4818002 0.0186000913
v 0.00770001858 1.48160028 0.0197000876
v 0.0105000101 1.47870028 -0.00449984521
v 0.00370001048 1.4817003 0.00650005788
v 0.00859998912 1.4824003 0.00730005652
v 0.00359999947 1.46680021 0.00840012729
v 0.00880002975 1.46630025 0.000900059938
v 0.00730000995 1.47070026 0.00770016015
v 0.00219999999 1.46970022 0.0191001073
v 0.00550000928 1.47060025 0.027300097
v 0.00120002031 1.47130024 0.0269000977
v 0.02749997 1.46410024 -0.00939994305
v 0.0224000216 1.4660002 0.00060005486
v 0.024299968 1.4594003 -0.0059999451
v 0.0256999694 1.47550023 -0.00189994276
v 0.0256000087 1.47370028 -0.0135999396
v 0.0235000215 1.47720027 -0.00269984454
v 0.0249999687 1.46980023 -0.000199839473
v 0.02810001 1.47050023 -0.0128999427
v 0.0256999694 1.47550023 -0.00189994276
v 0.0235000215 1.47720027 -0.00269984454
v 0.0163000189 1.47420025 -0.0158999413
v 0.0148000084 1.47940028 -0.00409994274
v 0.0149999782 1.46010029 -0.00749994069
v 0.0224000216 1.4660002 0.00060005486
v 0.0127999708 1.46740019 0.000300057232
v 0.0127999708 1.46740019 0.000300057232
v 0.0206999704 1.46900022 0.0105001181
v 0.011500001 1.47120023 0.0083001107
v 0.0217000209 1.48060024 0.00920008123
v 0.0148000084 1.47940028 -0.00409994274
v 0.0128999911 1.4824003 0.00800012052
v 0.0236999914 1.47240031 0.0105001181
v 0.0256999694 1.47550023 -0.00189994276
v 0.0239999779 1.47770023 0.0103000775
v 0.0256999694 1.47550023 -0.00189994276
v 0.0217000209 1.48060024 0.00920008123
v 0.0239999779 1.47770023 0.0103000775
v 0.0206999704 1.46900022 0.0105001181
v 0.0249999687 1.46980023 -0.000199839473
v 0.0236999914 1.47240031 0.0105001181
v 0.0206999704 1.46900022 0.0105001181
v 0.0212000012 1.47270024 0.0226000994
v 0.0191000104 1.46900022 0.022700116
v 0.0239999779 1.47770023 0.0103000775
v 0.0199999809 1.48010027 0.0233000964
v 0.0217000209 1.47760022 0.022700116
v 0.0236999914 1.47240031 0.0105001181
v 0.0217000209 1.47760022 0.022700116
v 0.0212000012 1.47270024 0.0226000994
v 0.0217000209 1.48060024 0.00920008123
v 0.0117999911 1.4810003 0.0205001086
v 0.0199999809 1.48010027 0.0233000964
v 0.00050001964 1.47160017 0.0324001163
v 0.00550000928 1.47060025 0.027300097
v 0.00459997915 1.47070026 0.0339001268
v 0.00440000929 1.47910023 0.0347000808
v 0.00650000013 1.47800028 0.0398000851
v 0.0077999793 1.47890031 0.0352000967
v 0.00459997915 1.47070026 0.0339001268
v 0 1.47110021 0.0371001214
v 0.00050001964 1.47160017 0.0324001163
v 0.00319998898 1.47810018 0.0392001048
v 0.00540000014 1.47670019 0.0429001302
v 0.00650000013 1.47800028 0.0398000851
v 0.00349997915 1.47010028 0.0381001085
v -0.000500030816 1.47030032 0.0408000797
v 0 1.47110021 0.0371001214
v 0.00249999017 1.47670019 0.0423000902
v 0.00410001911 1.47550023 0.0454001278
v 0.00540000014 1.47670019 0.0429001302
v 0.00120002031 1.47410023 0.0471001081
v 0.00279998034 1.47250021 0.0491000898
v 0.00349997915 1.4738003 0.0474000983
v 0.00230002031 1.46920025 0.0439001173
v -0.000999990851 1.46840024 0.045000121
v -0.000800020993 1.46940029 0.0431000963
v -0.000999990851 1.46840024 0.045000121
v 0.00139999017 1.46760023 0.0472001284
v -0.00120002963 1.46750021 0.0468001179
v 0.000899970531 1.47290027 0.0489001088
v 0.00209998898 1.47150028 0.0509000868
v 0.00279998034 1.47250021 0.0491000898
v -0.00169998966 1.47150028 0.0503001101
v 0.000100009143 1.46980023 0.0509000868
v 0.00050001964 1.47160017 0.0506000966
v -0.00169998966 1.46970022 0.05050008
v 0.000299990177 1.46810019 0.0501000695
v 0.000100009143 1.46980023 0.0509000868
v -0.0015000198 1.47300029 0.0488000996
v 0.00050001964 1.47160017 0.0506000966
v 0.000899970531 1.47290027 0.0489001088
v 0.00169998035 1.47560024 0.045000121
v 0.00349997915 1.4738003 0.0474000983
v 0.00410001911 1.47550023 0.0454001278
v 0.00279998034 1.46950018 0.0415000767
v -0.000800020993 1.46940029 0.0431000963
v -0.000500030816 1.47030032 0.0408000797
v 0.00599998049 1.48050022 0.0283000916
v 0.0077999793 1.47890031 0.0352000967
v 0.00970000029 1.47980022 0.0289001316
v 0.00770001858 1.48160028 0.0197000876
v 0.00970000029 1.47980022 0.0289001316
v 0.0117999911 1.4810003 0.0205001086
v 0.0128999911 1.4824003 0.00800012052
v 0.00770001858 1.48160028 0.0197000876
v 0.0117999911 1.4810003 0.0205001086
v 0.0105000101 1.47870028 -0.00449984521
v 0.0128999911 1.4824003 0.00800012052
v 0.0148000084 1.47940028 -0.00409994274
v 0.011500001 1.47120023 0.0083001107
v 0.00880002975 1.46630025 0.000900059938
v 0.0127999708 1.46740019 0.000300057232
v 0.0127999708 1.46740019 0.000300057232
v 0.011500001 1.45760024 -0.00579994172
v 0.0149999782 1.46010029 -0.00749994069
v 0.0163000189 1.47420025 -0.0158999413
v 0.0105000101 1.47870028 -0.00449984521
v 0.0148000084 1.47940028 -0.00409994274
v 0.0121999905 1.4738003 -0.0165999383
v 0.00520001911 1.47780025 -0.00499994308
v 0.0105000101 1.47870028 -0.00449984521
v 0.00880002975 1.46630025 0.000900059938
v 0.00520001911 1.45620024 -0.00439994037
v 0.011500001 1.45760024 -0.00579994172
v 0.00359999947 1.46680021 0.00840012729
v 0.00620000996 1.47070026 0.0195001215
v 0.00219999999 1.46970022 0.0191001073
v 0.00599998049 1.48050022 0.0283000916
v 0.000299990177 1.47940028 0.0341001004
v 0.00440000929 1.47910023 0.0347000808
v -0.00120002963 1.46750021 0.0468001179
v 0.000899970531 1.46720028 0.0487000793
v -0.00139999948 1.46710026 0.0484000891
v 0.02749997 1.46410024 -0.00939994305
v 0.0256000087 1.47370028 -0.0135999396
v 0.02810001 1.47050023 -0.0128999427
v 0.0149999782 1.46010029 -0.00749994069
v 0.0256000087 1.47370028 -0.0135999396
v 0.024299968 1.4594003 -0.0059999451
v 0.0121999905 1.4738003 -0.0165999383
v 0.0149999782 1.46010029 -0.00749994069
v 0.011500001 1.45760024 -0.00579994172
v 0.011500001 1.45760024 -0.00579994172
v 0.00679999031 1.47350025 -0.0175999478
v 0.0121999905 1.4738003 -0.0165999383
v -0.000400010496 1.45750022 -0.00729994476
v 0.00679999031 1.47350025 -0.0175999478
v 0.00520001911 1.45620024 -0.00439994037
v 0.00120002031 1.47370028 -0.0179999396
v -0.00349999033 1.46000028 -0.00979994237
v -0.00290000997 1.47410023 -0.0182999447
v -0.00349999033 1.46000028 -0.00979994237
v -0.0124999899 1.47340024 -0.0183999464
v -0.00290000997 1.47410023 -0.0182999447
v -0.0152000189 1.46380031 -0.0146999434
v -0.0124999899 1.47340024 -0.0183999464
v -0.0129000004 1.45910025 -0.0105998442
v -0.0148000121 1.46920025 0.0272000879
v -0.0139999995 1.46940029 0.0339001268
v -0.0159000158 1.47130024 0.0340000764
v -0.0173000097 1.47210026 0.0269000977
v -0.0159000158 1.47130024 0.0340000764
v -0.0159000158 1.47490025 0.0340000764
v -0.0159000158 1.47490025 0.0340000764
v -0.0141000152 1.47710025 0.0337000862
v -0.0157999992 1.47810018 0.0271001309
v -0.0177000165 1.47570026 0.0270001069
v -0.0175999999 1.47740018 0.0178000778
v -0.0170999765 1.47240031 0.0178000778
v -0.016200006 1.47980022 0.0187001079
v -0.0175999999 1.47740018 0.0178000778
v -0.0177000165 1.47570026 0.0270001069
v -0.0141000152 1.47710025 0.0337000862
v -0.00730002113 1.47880018 0.033400096
v -0.00760000944 1.47970021 0.0267001167
v -0.0149999866 1.46880019 0.0185000673
v -0.0148000121 1.46920025 0.0272000879
v -0.0173000097 1.47210026 0.0269000977
v -0.00370001979 1.47070026 0.0328001156
v -0.00669998117 1.46990025 0.0325001255
v -0.00660002977 1.46980023 0.0268000811
v -0.00180000998 1.47060025 0.0185000673
v -0.00599998981 1.47000027 0.0187001079
v -0.004199991 1.47110021 0.00640005618
v -0.00300003029 1.47050023 0.0263001174
v -0.00660002977 1.46980023 0.0268000811
v -0.00599998981 1.47000027 0.0187001079
v -0.00379998051 1.47810018 0.0383000821
v -0.000299990177 1.47800028 0.0386001319
v 0.000299990177 1.47940028 0.0341001004
v -0.0141000152 1.47710025 0.0337000862
v -0.0137000093 1.47640026 0.0385001078
v -0.00720001012 1.47790027 0.0381001085
v -0.016200006 1.47980022 0.0187001079
v -0.0157999992 1.47810018 0.0271001309
v -0.00760000944 1.47970021 0.0267001167
v -0.0148000121 1.46920025 0.0272000879
v -0.00660002977 1.46980023 0.0268000811
v -0.00669998117 1.46990025 0.0325001255
v -0.00660002977 1.46940029 0.0371001214
v -0.0139999995 1.4689002 0.0383000821
v -0.0139999995 1.46940029 0.0339001268
v -0.0139999995 1.4689002 0.0383000821
v -0.0157999992 1.47100031 0.0387000889
v -0.0159000158 1.47130024 0.0340000764
v -0.0159000158 1.47130024 0.0340000764
v -0.0157999992 1.47100031 0.0387000889
v -0.0156999826 1.47400022 0.0387000889
v -0.0159000158 1.47490025 0.0340000764
v -0.0156999826 1.47400022 0.0387000889
v -0.0137000093 1.47640026 0.0385001078
v -0.00370001979 1.47070026 0.0328001156
v -0.00370001979 1.47010028 0.0372000784
v -0.00660002977 1.46940029 0.0371001214
v -0.00390000083 1.47670019 0.0415000767
v -0.000700000674 1.47690022 0.0420001
v -0.000299990177 1.47800028 0.0386001319
v -0.0137000093 1.47640026 0.0385001078
v -0.0131000299 1.4752003 0.0417001098
v -0.00690001994 1.47660029 0.0413000956
v -0.0136000002 1.46880019 0.00620006025
v -0.004199991 1.47110021 0.00640005618
v -0.00599998981 1.47000027 0.0187001079
v -0.00660002977 1.4689002 0.0406001061
v -0.0136000002 1.46820021 0.0412000865
v -0.0139999995 1.4689002 0.0383000821
v -0.00660002977 1.46980023 0.0268000811
v -0.0148000121 1.46920025 0.0272000879
v -0.0149999866 1.46880019 0.0185000673
v -0.0139999995 1.4689002 0.0383000821
v -0.0136000002 1.46820021 0.0412000865
v -0.0152000189 1.47030032 0.0414001197
v -0.0157999992 1.47100031 0.0387000889
v -0.0152000189 1.47030032 0.0414001197
v -0.0151000023 1.4732002 0.0417001098
v -0.0156999826 1.47400022 0.0387000889
v -0.0151000023 1.4732002 0.0417001098
v -0.0131000299 1.4752003 0.0417001098
v -0.00379998051 1.46950018 0.0407001153
v -0.00660002977 1.4689002 0.0406001061
v -0.00660002977 1.46940029 0.0371001214
v -0.00370001979 1.47550023 0.044400081
v -0.000999990851 1.47550023 0.0447001308
v -0.000700000674 1.47690022 0.0420001
v -0.00390000083 1.47280025 0.0483001284
v -0.0015000198 1.47300029 0.0488000996
v -0.00129998103 1.47430027 0.0469000787
v -0.00390000083 1.46920025 0.0431000963
v -0.00400000997 1.46850026 0.044900097
v -0.00629997998 1.46820021 0.0447001308
v -0.00989998039 1.47160017 0.048100099
v -0.00580001064 1.47250021 0.0480000786
v -0.00610000081 1.4738003 0.046200078
v -0.00629997998 1.46820021 0.0447001308
v -0.00599998981 1.46740019 0.0463000983
v -0.00980002061 1.46680021 0.0461001173
v -0.0111000007 1.46740019 0.0447001308
v -0.00980002061 1.46680021 0.0461001173
v -0.0108000105 1.46810019 0.0468001179
v -0.0123999799 1.46880019 0.045100078
v -0.0108000105 1.46810019 0.0468001179
v -0.0109000299 1.47000027 0.0475001186
v -0.0109000299 1.47000027 0.0475001186
v -0.00989998039 1.47160017 0.048100099
v -0.0109000299 1.47260022 0.046200078
v -0.00400000997 1.46850026 0.044900097
v -0.00390000083 1.46760023 0.0466000885
v -0.00599998981 1.46740019 0.0463000983
v -0.00390000083 1.47160017 0.0501000695
v -0.00169998966 1.47150028 0.0503001101
v -0.0015000198 1.47300029 0.0488000996
v -0.00919998065 1.47060025 0.0495000891
v -0.00559998117 1.47140026 0.0499000996
v -0.00580001064 1.47250021 0.0480000786
v -0.00599998981 1.46740019 0.0463000983
v -0.00550002046 1.46700025 0.0480000786
v -0.00900000986 1.4666003 0.0475001186
v -0.0151000023 1.4732002 0.0417001098
v -0.013800025 1.47190022 0.0439001173
v -0.0120999906 1.4739002 0.0442001075
v -0.00980002061 1.46680021 0.0461001173
v -0.00900000986 1.4666003 0.0475001186
v -0.00919998065 1.46770024 0.0482001081
v -0.00919998065 1.46770024 0.0482001081
v -0.00930000003 1.46950018 0.049200099
v -0.0109000299 1.47000027 0.0475001186
v -0.00930000003 1.46950018 0.049200099
v -0.00919998065 1.47060025 0.0495000891
v -0.00989998039 1.47160017 0.048100099
v -0.00390000083 1.46760023 0.0466000885
v -0.00379998051 1.46720028 0.048100099
v -0.00550002046 1.46700025 0.0480000786
v -0.00390000083 1.47160017 0.0501000695
v -0.00559998117 1.47140026 0.0499000996
v -0.00480003096 1.46980023 0.0503001101
v -0.00480003096 1.46980023 0.0503001101
v -0.00480003096 1.46800029 0.04940008
v -0.00349999033 1.46810019 0.0496001095
v -0.00480003096 1.46800029 0.04940008
v -0.00550002046 1.46700025 0.0480000786
v -0.00379998051 1.46720028 0.048100099
v -0.00559998117 1.47140026 0.0499000996
v -0.00919998065 1.47060025 0.0495000891
v -0.00930000003 1.46950018 0.049200099
v -0.00480003096 1.46800029 0.04940008
v -0.00480003096 1.46980023 0.0503001101
v -0.00930000003 1.46950018 0.049200099
v -0.00550002046 1.46700025 0.0480000786
v -0.00480003096 1.46800029 0.04940008
v -0.00919998065 1.46770024 0.0482001081
v -0.0120999906 1.4739002 0.0442001075
v -0.00620002113 1.47530019 0.0442001075
v -0.00690001994 1.47660029 0.0413000956
v -0.0152000189 1.47030032 0.0414001197
v -0.013899982 1.46930027 0.0434000865
v -0.013800025 1.47190022 0.0439001173
v -0.0109000299 1.47260022 0.046200078
v -0.00610000081 1.4738003 0.046200078
v -0.00620002113 1.47530019 0.0442001075
v -0.0123999799 1.47090018 0.0456000976
v -0.0109000299 1.47260022 0.046200078
v -0.0120999906 1.4739002 0.0442001075
v -0.0123999799 1.46780026 0.0431000963
v -0.0111000007 1.46740019 0.0447001308
v -0.0123999799 1.46880019 0.045100078
v -0.0136000002 1.46820021 0.0412000865
v -0.0123999799 1.46780026 0.0431000963
v -0.013899982 1.46930027 0.0434000865
v -0.00650000945 1.46880019 0.0428001061
v -0.00629997998 1.46820021 0.0447001308
v -0.0111000007 1.46740019 0.0447001308
v -0.00379998051 1.47400022 0.0465001278
v -0.00129998103 1.47430027 0.0469000787
v -0.000999990851 1.47550023 0.0447001308
v -0.013899982 1.46930027 0.0434000865
v -0.0123999799 1.46880019 0.045100078
v -0.0123999799 1.47090018 0.0456000976
v -0.00660002977 1.4689002 0.0406001061
v -0.00650000945 1.46880019 0.0428001061
v -0.0123999799 1.46780026 0.0431000963
v -0.00379998051 1.46950018 0.0407001153
v -0.00390000083 1.46920025 0.0431000963
v -0.00650000945 1.46880019 0.0428001061
v -0.00379998051 1.47910023 0.0337000862
v 0.000299990177 1.47940028 0.0341001004
v 0.00109999999 1.48090029 0.0274001211
v -0.00340002961 1.48150027 0.0183001012
v -0.00390000083 1.4804002 0.0271001309
v 0.00109999999 1.48090029 0.0274001211
v -0.00120002963 1.4824003 0.00610005856
v -0.00340002961 1.48150027 0.0183001012
v 0.00219999999 1.4818002 0.0186000913
v -0.000199981034 1.47860026 -0.00589994341
v -0.00120002963 1.4824003 0.00610005856
v 0.00370001048 1.4817003 0.00650005788
v 0.000399999321 1.46620023 -0.000199839473
v 0.00440000929 1.46360028 0.00220005959
v 0.00359999947 1.46680021 0.00840012729
v -0.00300003029 1.47050023 0.0263001174
v -0.00180000998 1.47060025 0.0185000673
v 0.00219999999 1.46970022 0.0191001073
v -0.0152000189 1.46380031 -0.0146999434
v -0.0129000004 1.45910025 -0.0105998442
v -0.0127000306 1.46570027 -0.00379984081
v -0.0153999934 1.4752003 -0.00699993968
v -0.0131999906 1.47700024 -0.00719994307
v -0.0124999899 1.47340024 -0.0183999464
v -0.0152000189 1.46950018 -0.00519993901
v -0.0153999934 1.4752003 -0.00699993968
v -0.0149999866 1.47020018 -0.0182999447
v -0.0131999906 1.47700024 -0.00719994307
v -0.00440002047 1.47920024 -0.00649993867
v -0.00290000997 1.47410023 -0.0182999447
v -0.0127000306 1.46570027 -0.00379984081
v -0.0129000004 1.45910025 -0.0105998442
v -0.00349999033 1.46000028 -0.00979994237
v -0.0136000002 1.46880019 0.00620006025
v -0.0127000306 1.46570027 -0.00379984081
v -0.00340002961 1.4673003 -0.00169993937
v -0.0144000063 1.48030031 0.00470005721
v -0.00559998117 1.48230028 0.00570005924
v -0.00440002047 1.47920024 -0.00649993867
v -0.0164999962 1.47210026 0.00550005585
v -0.016900003 1.47740018 0.00520015508
v -0.0153999934 1.4752003 -0.00699993968
v -0.0144000063 1.48030031 0.00470005721
v -0.0131999906 1.47700024 -0.00719994307
v -0.0153999934 1.4752003 -0.00699993968
v -0.0136000002 1.46880019 0.00620006025
v -0.0164999962 1.47210026 0.00550005585
v -0.0152000189 1.46950018 -0.00519993901
v -0.0170999765 1.47240031 0.0178000778
v -0.0164999962 1.47210026 0.00550005585
v -0.0136000002 1.46880019 0.00620006025
v -0.016200006 1.47980022 0.0187001079
v -0.0144000063 1.48030031 0.00470005721
v -0.016900003 1.47740018 0.00520015508
v -0.0175999999 1.47740018 0.0178000778
v -0.016900003 1.47740018 0.00520015508
v -0.0164999962 1.47210026 0.00550005585
v -0.00760000944 1.48080027 0.0181001276
v -0.00559998117 1.48230028 0.00570005924
v -0.0144000063 1.48030031 0.00470005721
v 0.00050001964 1.47160017 0.0324001163
v -0.00370001979 1.47070026 0.0328001156
v -0.00300003029 1.47050023 0.0263001174
v -0.00720001012 1.47790027 0.0381001085
v -0.00379998051 1.47810018 0.0383000821
v -0.00379998051 1.47910023 0.0337000862
v 0 1.47110021 0.0371001214
v -0.00370001979 1.47010028 0.0372000784
v -0.00370001979 1.47070026 0.0328001156
v -0.00690001994 1.47660029 0.0413000956
v -0.00390000083 1.47670019 0.0415000767
v -0.00379998051 1.47810018 0.0383000821
v -0.000500030816 1.47030032 0.0408000797
v -0.00379998051 1.46950018 0.0407001153
v -0.00370001979 1.47010028 0.0372000784
v -0.00620002113 1.47530019 0.0442001075
v -0.00370001979 1.47550023 0.044400081
v -0.00390000083 1.47670019 0.0415000767
v -0.00580001064 1.47250021 0.0480000786
v -0.00390000083 1.47280025 0.0483001284
v -0.00379998051 1.47400022 0.0465001278
v -0.000999990851 1.46840024 0.045000121
v -0.00400000997 1.46850026 0.044900097
v -0.00390000083 1.46920025 0.0431000963
v -0.000999990851 1.46840024 0.045000121
v -0.00120002963 1.46750021 0.0468001179
v -0.00390000083 1.46760023 0.0466000885
v -0.00559998117 1.47140026 0.0499000996
v -0.00390000083 1.47160017 0.0501000695
v -0.00390000083 1.47280025 0.0483001284
v -0.00120002963 1.46750021 0.0468001179
v -0.00139999948 1.46710026 0.0484000891
v -0.00379998051 1.46720028 0.048100099
v -0.00169998966 1.47150028 0.0503001101
v -0.00390000083 1.47160017 0.0501000695
v -0.00360001065 1.46980023 0.05050008
v -0.00169998966 1.46970022 0.05050008
v -0.00360001065 1.46980023 0.05050008
v -0.00349999033 1.46810019 0.0496001095
v -0.00349999033 1.46810019 0.0496001095
v -0.00379998051 1.46720028 0.048100099
v -0.00139999948 1.46710026 0.0484000891
v -0.00610000081 1.4738003 0.046200078
v -0.00379998051 1.47400022 0.0465001278
v -0.00370001979 1.47550023 0.044400081
v -0.000800020993 1.46940029 0.0431000963
v -0.00390000083 1.46920025 0.0431000963
v -0.00379998051 1.46950018 0.0407001153
v -0.00730002113 1.47880018 0.033400096
v -0.00379998051 1.47910023 0.0337000862
v -0.00390000083 1.4804002 0.0271001309
v -0.00760000944 1.47970021 0.0267001167
v -0.00390000083 1.4804002 0.0271001309
v -0.00340002961 1.48150027 0.0183001012
v -0.00559998117 1.48230028 0.00570005924
v -0.00760000944 1.48080027 0.0181001276
v -0.00340002961 1.48150027 0.0183001012
v -0.00559998117 1.48230028 0.00570005924
v -0.00120002963 1.4824003 0.00610005856
v -0.000199981034 1.47860026 -0.00589994341
v -0.004199991 1.47110021 0.00640005618
v -0.00340002961 1.4673003 -0.00169993937
v 0.000399999321 1.46620023 -0.000199839473
v -0.00340002961 1.4673003 -0.00169993937
v -0.00349999033 1.46000028 -0.00979994237
v -0.000400010496 1.45750022 -0.00729994476
v -0.00290000997 1.47410023 -0.0182999447
v -0.00440002047 1.47920024 -0.00649993867
v -0.000199981034 1.47860026 -0.00589994341
v 0.00120002031 1.47370028 -0.0179999396
v -0.000199981034 1.47860026 -0.00589994341
v 0.00520001911 1.47780025 -0.00499994308
v 0.000399999321 1.46620023 -0.000199839473
v -0.000400010496 1.45750022 -0.00729994476
v 0.00520001911 1.45620024 -0.00439994037
v -0.00180000998 1.47060025 0.0185000673
v 0.000100009143 1.47070026 0.0068000555
v 0.00359999947 1.46680021 0.00840012729
v 0.0167000182 1.46940029 0.0311000794
v 0.0192000195 1.47240031 0.0315000862
v 0.0159999691 1.47150028 0.0380000919
v 0.0192000195 1.47240031 0.0315000862
v 0.0195000097 1.47590029 0.0316000953
v 0.0159999691 1.47510028 0.0380000919
v 0.0174999796 1.47840023 0.0313001052
v 0.0143999979 1.47730029 0.0372000784
v 0.0159999691 1.47510028 0.0380000919
v 0.0212000012 1.47270024 0.0226000994
v 0.0217000209 1.47760022 0.022700116
v 0.0195000097 1.47590029 0.0316000953
v 0.0199999809 1.48010027 0.0233000964
v 0.0174999796 1.47840023 0.0313001052
v 0.0195000097 1.47590029 0.0316000953
v 0.00970000029 1.47980022 0.0289001316
v 0.0077999793 1.47890031 0.0352000967
v 0.0143999979 1.47730029 0.0372000784
v 0.0191000104 1.46900022 0.022700116
v 0.0212000012 1.47270024 0.0226000994
v 0.0192000195 1.47240031 0.0315000862
v 0.00459997915 1.47070026 0.0339001268
v 0.00550000928 1.47060025 0.027300097
v 0.00880002975 1.46970022 0.0288001075
v 0.00620000996 1.47070026 0.0195001215
v 0.00730000995 1.47070026 0.00770016015
v 0.011500001 1.47120023 0.0083001107
v 0.00550000928 1.47060025 0.027300097
v 0.00620000996 1.47070026 0.0195001215
v 0.0102999806 1.47020018 0.0207000747
v 0.000299990177 1.47940028 0.0341001004
v -0.000299990177 1.47800028 0.0386001319
v 0.00319998898 1.47810018 0.0392001048
v 0.0143999979 1.47730029 0.0372000784
v 0.0077999793 1.47890031 0.0352000967
v 0.00650000013 1.47800028 0.0398000851
v 0.0199999809 1.48010027 0.0233000964
v 0.0117999911 1.4810003 0.0205001086
v 0.00970000029 1.47980022 0.0289001316
v 0.00749998912 1.47000027 0.0343000665
v 0.00880002975 1.46970022 0.0288001075
v 0.0167000182 1.46940029 0.0311000794
v 0.0142999813 1.4696002 0.0374001116
v 0.0131999813 1.46910024 0.0417001098
v 0.00629996881 1.46950018 0.0387000889
v 0.0159999691 1.47150028 0.0380000919
v 0.0148000084 1.47120023 0.0425001159
v 0.0131999813 1.46910024 0.0417001098
v 0.0159999691 1.47150028 0.0380000919
v 0.0159999691 1.47510028 0.0380000919
v 0.0146999881 1.47420025 0.0425001159
v 0.0159999691 1.47510028 0.0380000919
v 0.0143999979 1.47730029 0.0372000784
v 0.0127000213 1.47660029 0.0418001264
v 0.00459997915 1.47070026 0.0339001268
v 0.00749998912 1.47000027 0.0343000665
v 0.00629996881 1.46950018 0.0387000889
v -0.000299990177 1.47800028 0.0386001319
v -0.000700000674 1.47690022 0.0420001
v 0.00249999017 1.47670019 0.0423000902
v 0.0127000213 1.47660029 0.0418001264
v 0.00650000013 1.47800028 0.0398000851
v 0.00540000014 1.47670019 0.0429001302
v 0.0206999704 1.46900022 0.0105001181
v 0.0191000104 1.46900022 0.022700116
v 0.0102999806 1.47020018 0.0207000747
v 0.0131999813 1.46910024 0.0417001098
v 0.0120999813 1.46840024 0.044400081
v 0.00550000928 1.46900022 0.0421001166
v 0.0191000104 1.46900022 0.022700116
v 0.0167000182 1.46940029 0.0311000794
v 0.00880002975 1.46970022 0.0288001075
v 0.0131999813 1.46910024 0.0417001098
v 0.0148000084 1.47120023 0.0425001159
v 0.0137000009 1.47050023 0.045000121
v 0.0148000084 1.47120023 0.0425001159
v 0.0146999881 1.47420025 0.0425001159
v 0.0134000108 1.47340024 0.0453001112
v 0.0146999881 1.47420025 0.0425001159
v 0.0127000213 1.47660029 0.0418001264
v 0.0113999806 1.47540021 0.0448000878
v 0.00629996881 1.46950018 0.0387000889
v 0.00550000928 1.46900022 0.0421001166
v 0.00279998034 1.46950018 0.0415000767
v -0.000700000674 1.47690022 0.0420001
v -0.000999990851 1.47550023 0.0447001308
v 0.00169998035 1.47560024 0.045000121
v -0.00129998103 1.47430027 0.0469000787
v -0.0015000198 1.47300029 0.0488000996
v 0.000899970531 1.47290027 0.0489001088
v 0.00230002031 1.46920025 0.0439001173
v 0.00489996932 1.4689002 0.0442001075
v 0.00419997983 1.46830022 0.0460001081
v 0.00349997915 1.4738003 0.0474000983
v 0.00279998034 1.47250021 0.0491000898
v 0.00679999031 1.47170031 0.0502000898
v 0.00419997983 1.46830022 0.0460001081
v 0.00880002975 1.46750021 0.0472001284
v 0.00719999894 1.46690023 0.0483001284
v 0.00880002975 1.46750021 0.0472001284
v 0.0100999996 1.4689002 0.0479001179
v 0.00800000876 1.46820021 0.0491000898
v 0.0100999996 1.4689002 0.0479001179
v 0.00980000943 1.47110021 0.0484000891
v 0.00789998844 1.47020018 0.0499000996
v 0.0081999898 1.47280025 0.0486001186
v 0.00679999031 1.47170031 0.0502000898
v 0.00789998844 1.47020018 0.0499000996
v 0.00190000981 1.46860027 0.0456000976
v 0.00419997983 1.46830022 0.0460001081
v 0.00349997915 1.46750021 0.0475001186
v -0.00139999948 1.46710026 0.0484000891
v 0.000899970531 1.46720028 0.0487000793
v 0.000299990177 1.46810019 0.0501000695
v 0.00279998034 1.47250021 0.0491000898
v 0.00209998898 1.47150028 0.0509000868
v 0.00579999946 1.47070026 0.0514001101
v 0.00349997915 1.46750021 0.0475001186
v 0.00719999894 1.46690023 0.0483001284
v 0.00609998964 1.46680021 0.0493001193
v 0.0134000108 1.47340024 0.0453001112
v 0.0113999806 1.47540021 0.0448000878
v 0.00980000943 1.47400022 0.0469000787
v 0.00719999894 1.46690023 0.0483001284
v 0.00800000876 1.46820021 0.0491000898
v 0.00609998964 1.46780026 0.0501000695
v 0.00789998844 1.47020018 0.0499000996
v 0.00599998049 1.4696002 0.0511001199
v 0.00609998964 1.46780026 0.0501000695
v 0.00679999031 1.47170031 0.0502000898
v 0.00579999946 1.47070026 0.0514001101
v 0.00599998049 1.4696002 0.0511001199
v 0.00139999017 1.46760023 0.0472001284
v 0.00349997915 1.46750021 0.0475001186
v 0.00260001048 1.46710026 0.0490001291
v 0.00050001964 1.47160017 0.0506000966
v 0.000100009143 1.46980023 0.0509000868
v 0.00139999017 1.46990025 0.0511001199
v 0.000299990177 1.46810019 0.0501000695
v 0.00160001963 1.46810019 0.0502000898
v 0.00139999017 1.46990025 0.0511001199
v 0.000899970531 1.46720028 0.0487000793
v 0.00260001048 1.46710026 0.0490001291
v 0.00160001963 1.46810019 0.0502000898
v 0.00209998898 1.47150028 0.0509000868
v 0.00139999017 1.46990025 0.0511001199
v 0.00599998049 1.4696002 0.0511001199
v 0.00599998049 1.4696002 0.0511001199
v 0.00139999017 1.46990025 0.0511001199
v 0.00160001963 1.46810019 0.0502000898
v 0.00609998964 1.46780026 0.0501000695
v 0.00160001963 1.46810019 0.0502000898
v 0.00260001048 1.46710026 0.0490001291
v 0.00540000014 1.47670019 0.0429001302
v 0.00410001911 1.47550023 0.0454001278
v 0.00980000943 1.47400022 0.0469000787
v 0.0137000009 1.47050023 0.045000121
v 0.0134000108 1.47340024 0.0453001112
v 0.0116000101 1.47210026 0.0471001081
v 0.00410001911 1.47550023 0.0454001278
v 0.00349997915 1.4738003 0.0474000983
v 0.0081999898 1.47280025 0.0486001186
v 0.00980000943 1.47400022 0.0469000787
v 0.0081999898 1.47280025 0.0486001186
v 0.00980000943 1.47110021 0.0484000891
v 0.0105000101 1.46800029 0.0460001081
v 0.0119000003 1.46950018 0.0467000976
v 0.0100999996 1.4689002 0.0479001179
v 0.0120999813 1.46840024 0.044400081
v 0.0137000009 1.47050023 0.045000121
v 0.0119000003 1.46950018 0.0467000976
v 0.00489996932 1.4689002 0.0442001075
v 0.0105000101 1.46800029 0.0460001081
v 0.00880002975 1.46750021 0.0472001284
v -0.000999990851 1.47550023 0.0447001308
v -0.00129998103 1.47430027 0.0469000787
v 0.00120002031 1.47410023 0.0471001081
v 0.0119000003 1.46950018 0.0467000976
v 0.0116000101 1.47210026 0.0471001081
v 0.00980000943 1.47110021 0.0484000891
v 0.00550000928 1.46900022 0.0421001166
v 0.0120999813 1.46840024 0.044400081
v 0.0105000101 1.46800029 0.0460001081
v 0.00279998034 1.46950018 0.0415000767
v 0.00550000928 1.46900022 0.0421001166
v 0.00489996932 1.4689002 0.0442001075
v 0.00770001858 1.48160028 0.0197000876
v 0.00219999999 1.4818002 0.0186000913
v 0.00109999999 1.48090029 0.0274001211
v 0.00859998912 1.4824003 0.00730005652
v 0.00370001048 1.4817003 0.00650005788
v 0.00219999999 1.4818002 0.0186000913
v 0.0105000101 1.47870028 -0.00449984521
v 0.00520001911 1.47780025 -0.00499994308
v 0.00370001048 1.4817003 0.00650005788
v 0.00359999947 1.46680021 0.00840012729
v 0.00440000929 1.46360028 0.00220005959
v 0.00880002975 1.46630025 0.000900059938
v 0.00219999999 1.46970022 0.0191001073
v 0.00620000996 1.47070026 0.0195001215
v 0.00550000928 1.47060025 0.027300097
v 0.02749997 1.46410024 -0.00939994305
v 0.0249999687 1.46980023 -0.000199839473
v 0.0224000216 1.4660002 0.00060005486
v 0.0256999694 1.47550023 -0.00189994276
v 0.02810001 1.47050023 -0.0128999427
v 0.0256000087 1.47370028 -0.0135999396
v 0.0249999687 1.46980023 -0.000199839473
v 0.02749997 1.46410024 -0.00939994305
v 0.02810001 1.47050023 -0.0128999427
v 0.0235000215 1.47720027 -0.00269984454
v 0.0256000087 1.47370028 -0.0135999396
v 0.0163000189 1.47420025 -0.0158999413
v 0.0149999782 1.46010029 -0.00749994069
v 0.024299968 1.4594003 -0.0059999451
v 0.0224000216 1.4660002 0.00060005486
v 0.0127999708 1.46740019 0.000300057232
v 0.0224000216 1.4660002 0.00060005486
v 0.0206999704 1.46900022 0.0105001181
v 0.0217000209 1.48060024 0.00920008123
v 0.0235000215 1.47720027 -0.00269984454
v 0.0148000084 1.47940028 -0.00409994274
v 0.0236999914 1.47240031 0.0105001181
v 0.0249999687 1.46980023 -0.000199839473
v 0.0256999694 1.47550023 -0.00189994276
v 0.0256999694 1.47550023 -0.00189994276
v 0.0235000215 1.47720027 -0.00269984454
v 0.0217000209 1.48060024 0.00920008123
v 0.0206999704 1.46900022 0.0105001181
v 0.0224000216 1.4660002 0.00060005486
v 0.0249999687 1.46980023 -0.000199839473
v 0.0206999704 1.46900022 0.0105001181
v 0.0236999914 1.47240031 0.0105001181
v 0.0212000012 1.47270024 0.0226000994
v 0.0239999779 1.47770023 0.0103000775
v 0.0217000209 1.48060024 0.00920008123
v 0.0199999809 1.48010027 0.0233000964
v 0.0236999914 1.47240031 0.0105001181
v 0.0239999779 1.47770023 0.0103000775
v 0.0217000209 1.47760022 0.022700116
v 0.0217000209 1.48060024 0.00920008123
v 0.0128999911 1.4824003 0.00800012052
v 0.0117999911 1.4810003 0.0205001086
v 0.00050001964 1.47160017 0.0324001163
v 0.00120002031 1.47130024 0.0269000977
v 0.00550000928 1.47060025 0.027300097
v 0.00440000929 1.47910023 0.0347000808
v 0.00319998898 1.47810018 0.0392001048
v 0.00650000013 1.47800028 0.0398000851
v 0.00459997915 1.47070026 0.0339001268
v 0.00349997915 1.47010028 0.0381001085
v 0 1.47110021 0.0371001214
v 0.00319998898 1.47810018 0.0392001048
v 0.00249999017 1.47670019 0.0423000902
v 0.00540000014 1.47670019 0.0429001302
v 0.00349997915 1.47010028 0.0381001085
v 0.00279998034 1.46950018 0.0415000767
v -0.000500030816 1.47030032 0.0408000797
v 0.00249999017 1.47670019 0.0423000902
v 0.00169998035 1.47560024 0.045000121
v 0.00410001911 1.47550023 0.0454001278
v 0.00120002031 1.47410023 0.0471001081
v 0.000899970531 1.47290027 0.0489001088
v 0.00279998034 1.47250021 0.0491000898
v 0.00230002031 1.46920025 0.0439001173
v 0.00190000981 1.46860027 0.0456000976
v -0.000999990851 1.46840024 0.045000121
v -0.000999990851 1.46840024 0.045000121
v 0.00190000981 1.46860027 0.0456000976
v 0.00139999017 1.46760023 0.0472001284
v 0.000899970531 1.47290027 0.0489001088
v 0.00050001964 1.47160017 0.0506000966
v 0.00209998898 1.47150028 0.0509000868
v -0.00169998966 1.47150028 0.0503001101
v -0.00169998966 1.46970022 0.05050008
v 0.000100009143 1.46980023 0.0509000868
v -0.00169998966 1.46970022 0.05050008
v -0.00160003081 1.46800029 0.0499000996
v 0.000299990177 1.46810019 0.0501000695
v -0.0015000198 1.47300029 0.0488000996
v -0.00169998966 1.47150028 0.0503001101
v 0.00050001964 1.47160017 0.0506000966
v 0.00169998035 1.47560024 0.045000121
v 0.00120002031 1.47410023 0.0471001081
v 0.00349997915 1.4738003 0.0474000983
v 0.00279998034 1.46950018 0.0415000767
v 0.00230002031 1.46920025 0.0439001173
v -0.000800020993 1.46940029 0.0431000963
v 0.00599998049 1.48050022 0.0283000916
v 0.00440000929 1.47910023 0.0347000808
v 0.0077999793 1.47890031 0.0352000967
v 0.00770001858 1.48160028 0.0197000876
v 0.00599998049 1.48050022 0.0283000916
v 0.00970000029 1.47980022 0.0289001316
v 0.0128999911 1.4824003 0.00800012052
v 0.00859998912 1.4824003 0.00730005652
v 0.00770001858 1.48160028 0.0197000876
v 0.0105000101 1.47870028 -0.00449984521
v 0.00859998912 1.4824003 0.00730005652
v 0.0128999911 1.4824003 0.00800012052
v 0.011500001 1.47120023 0.0083001107
v 0.00730000995 1.47070026 0.00770016015
v 0.00880002975 1.46630025 0.000900059938
v 0.0127999708 1.46740019 0.000300057232
v 0.00880002975 1.46630025 0.000900059938
v 0.011500001 1.45760024 -0.00579994172
v 0.0163000189 1.47420025 -0.0158999413
v 0.0121999905 1.4738003 -0.0165999383
v 0.0105000101 1.47870028 -0.00449984521
v 0.0121999905 1.4738003 -0.0165999383
v 0.00679999031 1.47350025 -0.0175999478
v 0.00520001911 1.47780025 -0.00499994308
v 0.00880002975 1.46630025 0.000900059938
v 0.00440000929 1.46360028 0.00220005959
v 0.00520001911 1.45620024 -0.00439994037
v 0.00359999947 1.46680021 0.00840012729
v 0.00730000995 1.47070026 0.00770016015
v 0.00620000996 1.47070026 0.0195001215
v 0.00599998049 1.48050022 0.0283000916
v 0.00109999999 1.48090029 0.0274001211
v 0.000299990177 1.47940028 0.0341001004
v -0.00120002963 1.46750021 0.0468001179
v 0.00139999017 1.46760023 0.0472001284
v 0.000899970531 1.46720028 0.0487000793
v 0.02749997 1.46410024 -0.00939994305
v 0.024299968 1.4594003 -0.0059999451
v 0.0256000087 1.47370028 -0.0135999396
v 0.0149999782 1.46010029 -0.00749994069
v 0.0163000189 1.47420025 -0.0158999413
v 0.0256000087 1.47370028 -0.0135999396
v 0.0121999905 1.4738003 -0.0165999383
v 0.0163000189 1.47420025 -0.0158999413
v 0.0149999782 1.46010029 -0.00749994069
v 0.011500001 1.45760024 -0.00579994172
v 0.00520001911 1.45620024 -0.00439994037
v 0.00679999031 1.47350025 -0.0175999478
v -0.000400010496 1.45750022 -0.00729994476
v 0.00120002031 1.47370028 -0.0179999396
v 0.00679999031 1.47350025 -0.0175999478
v 0.00120002031 1.47370028 -0.0179999396
v -0.000400010496 1.45750022 -0.00729994476
v -0.00349999033 1.46000028 -0.00979994237
v -0.00349999033 1.46000028 -0.00979994237
v -0.0129000004 1.45910025 -0.0105998442
v -0.0124999899 1.47340024 -0.0183999464
v -0.0152000189 1.46380031 -0.0146999434
v -0.0149999866 1.47020018 -0.0182999447
v -0.0124999899 1.47340024 -0.0183999464
vt 0.881900012 0.53490001 0
vt 0.883400023 0.616900027 0
vt 0.845200002 0.559499979 0
vt 0.850399971 0.630699992 0
vt 0.81279999 0.583100021 0
vt 0.792200029 0.601000011 0
vt 0.796000004 0.496699989 0
vt 0.750699997 0.564999998 0
vt 0.825600028 0.6426 0
vt 0.743900001 0.643999994 0
vt 0.833199978 0.455300003 0
vt 0.208100006 0.152999893 0
vt 0.273000002 0.157600001 0
vt 0.251700014 0.186000004 0
vt 0.293000013 0.231999904 0
vt 0.389699996 0.25819999 0
vt 0.361000001 0.288599998 0
vt 0.322100013 0.1972 0
vt 0.785399973 0.728100002 0
vt 0.728999972 0.729499996 0
vt 0.757600009 0.701200008 0
vt 0.806800008 0.707300007 0
vt 0.778299987 0.679700017 0
vt 0.703499973 0.604099989 0
vt 0.314999998 0.102300003 0
vt 0.229499906 0.131999999 0
vt 0.266900003 0.0771999881 0
vt 0.196099907 0.106899999 0
vt 0.936600029 0.654699981 0
vt 0.915899992 0.602299988 0
vt 0.876299977 0.665799975 0
vt 0.851800025 0.674000025 0
vt 0.808499992 0.754000008 0
vt 0.755800009 0.756200016 0
vt 0.827400029 0.734300017 0
vt 0.445100009 0.205200002 0
vt 0.371300012 0.140799895 0
vt 0.170000002 0.0867999718 0
vt 0.235200003 0.0538999997 0
vt 0.921899974 0.691600025 0
vt 0.906000018 0.660300016 0
vt 0.894599974 0.692799985 0
vt 0.871200025 0.700500011 0
vt 0.152400002 0.105800003 0
vt 0.177699998 0.127900004 0
vt 0.829100013 0.779200017 0
vt 0.781099975 0.781599998 0
vt 0.864700019 0.820599973 0
vt 0.824500024 0.824999988 0
vt 0.847500026 0.800599992 0
vt 0.132100001 0.0891999602 0
vt 0.129199997 0.0597999617 0
vt 0.148100004 0.0719999596 0
vt 0.905300021 0.782899976 0
vt 0.861500025 0.785099983 0
vt 0.896600008 0.756799996 0
vt 0.137099996 0.0295999609 0
vt 0.158399895 0.0310999695 0
vt 0.966700017 0.769800007 0
vt 0.94660002 0.786800027 0
vt 0.944199979 0.754700005 0
vt 0.923699975 0.780300021 0
vt 0.918200016 0.750400007 0
vt 0.115000002 0.075599961 0
vt 0.113499902 0.0530999787 0
vt 0.882099986 0.839900017 0
vt 0.843400002 0.843800008 0
vt 0.910600007 0.800599992 0
vt 0.876399994 0.806599975 0
vt 0.122400001 0.0293999892 0
vt 0.885100007 0.728699982 0
vt 0.9648 0.801400006 0
vt 0.943199992 0.81400001 0
vt 0.923699975 0.805700004 0
vt 0.1008 0.0659999773 0
vt 0.0992999598 0.0487999916 0
vt 0.902999997 0.846499979 0
vt 0.895900011 0.856899977 0
vt 0.913600028 0.870899975 0
vt 0.922200024 0.860199988 0
vt 0.931599975 0.877699971 0
vt 0.89200002 0.827799976 0
vt 0.941999972 0.859700024 0
vt 0.957300007 0.82130003 0
vt 0.908200026 0.720499992 0
vt 0.845200002 0.762199998 0
vt 0.961600006 0.73360002 0
vt 0.935299993 0.721899986 0
vt 0.950699985 0.695599973 0
vt 0.182899997 0.0339999683 0
vt 0.804099977 0.8046 0
vt 0.209000006 0.0399000011 0
vt 0.693599999 0.694000006 0
vt 0.722599983 0.665899992 0
vt 0.680999994 0.62529999 0
vt 0.651600003 0.65200001 0
vt 0.624599993 0.57099998 0
vt 0.596499979 0.597000003 0
vt 0.567399979 0.522300005 0
vt 0.54369998 0.544200003 0
vt 0.406500012 0.333900005 0
vt 0.327300012 0.327699989 0
vt 0.267100006 0.2676 0
vt 0.218199998 0.218700007 0
vt 0.561999977 0.3829 0
vt 0.630400002 0.333200008 0
vt 0.634599984 0.386700004 0
vt 0.626299977 0.435799986 0
vt 0.565299988 0.434300005 0
vt 0.571699977 0.416500002 0
vt 0.618200004 0.455300003 0
vt 0.531700015 0.461899996 0
vt 0.492700011 0.269699991 0
vt 0.462599993 0.376199991 0
vt 0.431800008 0.312099993 0
vt 0.685699999 0.500899971 0
vt 0.586300015 0.504499972 0
vt 0.716799974 0.425300002 0
vt 0.701600015 0.475400001 0
vt 0.731299996 0.375800014 0
vt 0.761600018 0.542200029 0
vt 0.182300001 0.182799906 0
vt 0.153699905 0.154200003 0
vt 0.129299894 0.129700005 0
vt 0.0956999585 0.0961999819 0
vt 0.110799998 0.111199997 0
vt 0.083299987 0.0837999508 0
vt 0.0891000032 0.0593000017 0
vt 0.861800015 0.862299979 0
vt 0.877699971 0.878199995 0
vt 0.892799973 0.89319998 0
vt 0.906799972 0.907299995 0
vt 0.646700025 0.550000012 0
vt 0.431300014 0.38409999 0
vt 0.515999973 0.475400001 0
vt 0.494199991 0.494700015 0
vt 0.401800007 0.4023 0
vt 0.365700006 0.3662 0
vt 0.534399986 0.882399976 0
vt 0.616400003 0.88380003 0
vt 0.601800025 0.916400015 0
vt 0.559000015 0.845700026 0
vt 0.630200028 0.850899994 0
vt 0.600499988 0.792699993 0
vt 0.582599998 0.813300014 0
vt 0.496199995 0.796500027 0
vt 0.564499974 0.75120002 0
vt 0.541700006 0.762099981 0
vt 0.64349997 0.744400024 0
vt 0.642099977 0.826099992 0
vt 0.45480001 0.833700001 0
vt 0.152500004 0.2086 0
vt 0.157100007 0.273400009 0
vt 0.131500006 0.230000004 0
vt 0.2315 0.293500006 0
vt 0.257699996 0.390199989 0
vt 0.196700007 0.322600007 0
vt 0.185499996 0.252200007 0
vt 0.727699995 0.785899997 0
vt 0.700699985 0.758099973 0
vt 0.706799984 0.807299972 0
vt 0.673600018 0.852299988 0
vt 0.101800002 0.315499991 0
vt 0.0766999722 0.267399997 0
vt 0.106399998 0.196600005 0
vt 0.654200017 0.937099993 0
vt 0.665300012 0.876800001 0
vt 0.659799993 0.906499982 0
vt 0.127399996 0.178200006 0
vt 0.753499985 0.809000015 0
vt 0.733799994 0.827799976 0
vt 0.699999988 0.871699989 0
vt 0.204699904 0.445600003 0
vt 0.0534999892 0.235699996 0
vt 0.0862999484 0.170499995 0
vt 0.140400007 0.371699989 0
vt 0.691100001 0.922399998 0
vt 0.695200026 0.951200008 0
vt 0.692300022 0.895099998 0
vt 0.105300002 0.152899995 0
vt 0.778699994 0.829599977 0
vt 0.820100009 0.865199983 0
vt 0.800100029 0.84799999 0
vt 0.088699989 0.132599995 0
vt 0.0593000017 0.129700005 0
vt 0.0751999617 0.115500003 0
vt 0.784600019 0.861999989 0
vt 0.782400012 0.905799985 0
vt 0.756299973 0.897099972 0
vt 0.0291000009 0.137600005 0
vt 0.0525999591 0.114 0
vt 0.769299984 0.967199981 0
vt 0.786300004 0.947099984 0
vt 0.800899982 0.965200007 0
vt 0.754199982 0.944599986 0
vt 0.779799998 0.924199998 0
vt 0.749899983 0.91869998 0
vt 0.0654999614 0.101300001 0
vt 0.870500028 0.913999975 0
vt 0.806200027 0.876900017 0
vt 0.800100029 0.91109997 0
vt 0.0288999602 0.122900002 0
vt 0.0482999608 0.0997999907 0
vt 0.728200018 0.885599971 0
vt 0.720000029 0.908699989 0
vt 0.813499987 0.943700016 0
vt 0.820800006 0.957799971 0
vt 0.805199981 0.924199998 0
vt 0.0587999783 0.0895999596 0
vt 0.83950001 0.882600009 0
vt 0.846000016 0.903500021 0
vt 0.827300012 0.892499983 0
vt 0.856400013 0.896399975 0
vt 0.877200007 0.932099998 0
vt 0.859700024 0.922699988 0
vt 0.859200001 0.942499995 0
vt 0.721499979 0.935800016 0
vt 0.761699975 0.845600009 0
vt 0.733099997 0.962100029 0
vt 0.0715000033 0.148599997 0
vt 0.0305999499 0.158899993 0
vt 0.0334999487 0.183400005 0
vt 0.624800026 0.681500018 0
vt 0.665400028 0.72299999 0
vt 0.570500016 0.625100017 0
vt 0.521799982 0.567900002 0
vt 0.333400011 0.407000005 0
vt 0.288100004 0.361499995 0
vt 0.382499993 0.5625 0
vt 0.332700014 0.630900025 0
vt 0.335900009 0.528400004 0
vt 0.435299993 0.626800001 0
vt 0.433800012 0.565800011 0
vt 0.45480001 0.618700027 0
vt 0.386200011 0.635100007 0
vt 0.416000009 0.5722 0
vt 0.461400002 0.532199979 0
vt 0.504000008 0.586799979 0
vt 0.375699997 0.463099986 0
vt 0.269199997 0.493200004 0
vt 0.3116 0.432300001 0
vt 0.500400007 0.686200023 0
vt 0.549600005 0.647199988 0
vt 0.424800009 0.717299998 0
vt 0.474999994 0.702000022 0
vt 0.37529999 0.73180002 0
vt 0.603600025 0.70389998 0
vt 0.679199994 0.778800011 0
vt 0.383599997 0.431800008 0
vt 0.474900007 0.516499996 0
vt 0.0740999505 0.0745999813 0
vt 0.527899981 0.336400002 0
vt 0.0393999815 0.2095 0
vn -0.391710013 -0.918405116 0.0556358807
vn -0.922445416 -0.379659891 0.0703774467
vn -0.927415013 -0.365313798 0.0802957863
vn -0.921061575 0.342300385 0.185677215
vn -0.957225323 0.242258996 0.15820992
vn -0.521483719 0.824449003 0.219861224
vn -0.946151972 -0.319839805 -0.0499901846
vn -0.549647629 0.832406402 0.0706210509
vn -0.487913907 0.848256588 0.205914423
vn -0.183392406 0.972141206 0.145975351
vn -0.445978492 -0.894734323 -0.0235303994
vn 0.233775601 -0.971511722 -0.0389117412
vn 0.145789698 -0.989154518 0.017853627
vn 0.151831299 -0.98652178 0.0610070936
vn -0.0972044393 -0.995239377 0.00708045159
vn 0.0468471609 -0.974177897 0.220868453
vn -0.456141591 -0.865252972 0.208019555
vn 0.151680201 -0.988210618 -0.0208141021
vn -0.0468774997 0.947744071 0.315568835
vn -0.0286571905 0.972270608 0.232096151
vn -0.0946090817 0.974961817 0.201242641
vn -0.144111902 0.948111415 0.283401936
vn -0.174388498 0.96933049 0.17316775
vn -0.150033295 0.98421979 0.0938166156
vn 0.161813602 -0.986050308 -0.0390037633
vn -0.347341806 -0.937465906 -0.0226149317
vn 0.143163502 -0.981025279 -0.130742341
vn -0.415766686 -0.903223515 -0.106421441
vn -0.913707912 0.356919497 0.194283918
vn -0.488608986 0.828956723 0.272198915
vn -0.0762064978 0.919879913 0.384725332
vn -0.0408953391 0.945812702 0.322127521
vn -0.128670201 0.901362717 0.413508624
vn -0.364461899 -0.925071597 0.106817663
vn 0.153481498 -0.981408715 -0.115240842
vn -0.913909316 -0.318777204 0.251298398
vn -0.948909402 -0.308520705 0.0662270561
vn -0.842439711 0.332837462 0.423691899
vn -0.432275802 0.779006004 0.454188734
vn 0.195291802 -0.968921125 -0.15183264
vn 0.243606195 -0.958737671 -0.146554351
vn -0.0954947993 0.864000916 0.494351327
vn -0.047579281 0.93116951 0.361468732
vn -0.192359999 0.822268128 0.535605073
vn -0.0794109106 0.855422616 0.511806965
vn -0.1563503 0.82081598 0.54937768
vn 0.100439601 -0.963042021 -0.249924049
vn 0.159768805 -0.904929519 -0.394432217
vn 0.1733502 -0.966916025 -0.187145039
vn -0.515501976 0.555604398 0.652350724
vn -0.161233693 0.79243511 0.588260531
vn -0.473146409 0.599101126 0.64591831
vn -0.282763392 -0.958099604 -0.0457182899
vn -0.310989588 -0.95009023 -0.0247815009
vn -0.688427985 -0.499451339 0.525942326
vn -0.742595017 -0.446313918 0.49935627
vn -0.755258977 -0.0165719576 0.655216992
vn -0.742981791 0.117924869 0.658841312
vn 0.0704083368 -0.907495797 -0.414118439
vn 0.150549695 -0.917153776 -0.369003922
vn -0.135810897 0.541626215 0.829576075
vn -0.084446311 0.794442594 0.601439834
vn -0.479887396 0.214765176 0.850637496
vn -0.190346807 0.810248077 0.554316163
vn -0.297714114 -0.882674098 0.363665879
vn -0.424400985 0.662908971 0.616794527
vn -0.450741708 -0.526185751 0.721082926
vn -0.511709929 -0.254130721 0.82071352
vn 0.0640601516 -0.928796411 -0.365011841
vn 0.0463583395 -0.975417495 0.215433449
vn -0.1783562 -0.145517245 0.973146379
vn -0.0956778526 -0.148476243 0.984276712
vn -0.0927485228 -0.66352278 0.742384911
vn -0.0893306136 -0.655742347 0.749681413
vn 0.0156866908 -0.988997102 0.147101253
vn -0.219647899 0.529541612 0.81935358
vn -0.752935171 0.180336967 0.632903874
vn -0.144933507 0.84839052 0.509144247
vn -0.319875389 -0.946472228 0.043246109
vn -0.794821024 -0.415401816 0.442381084
vn -0.436946094 -0.898094118 -0.0500517823
vn -0.0713542625 0.869679809 0.488431931
vn -0.0279859304 0.986344516 0.162300244
vn -0.145758793 0.97871393 0.14447704
vn -0.113165997 0.989134073 0.0938471928
vn -0.0168157797 0.997261226 0.0720242634
vn 0.0579560883 0.990442514 -0.125159562
vn 0.0197455194 0.986241221 -0.164129257
vn 0.169992894 0.934137404 -0.313830882
vn 0.0333268605 0.940325499 -0.338640481
vn -0.524565101 -0.674384117 0.519651473
vn -0.03030538 -0.951308608 0.306746662
vn -0.00762981083 -0.987575412 0.156960949
vn -0.00210577203 -0.992069185 0.125675648
vn -0.546513379 -0.563054979 -0.619912922
vn -0.51259917 -0.751777709 0.414815962
vn -0.96176511 -0.269091606 0.050967738
vn -0.899570823 0.393264711 -0.190040186
vn -0.262433708 0.412068933 -0.87254113
vn -0.49327451 -0.105381161 -0.863466918
vn -0.408780485 0.858671129 -0.309164256
vn 0.0318007991 0.353349417 -0.934950709
vn -0.1289424 -0.931528687 -0.340041727
vn -0.209150895 -0.813591778 0.542516649
vn -0.485370904 0.863681912 -0.13590005
vn -0.0113225495 0.945573628 -0.325211674
vn -0.929183483 -0.368029386 -0.0342424065
vn -0.943342984 0.31065309 -0.116613187
vn -0.973364711 0.228737906 -0.0155034494
vn 0.0101627698 -0.999618173 -0.0256969724
vn 0.0188910309 -0.985599995 -0.168035746
vn 0.0348218605 -0.961706281 -0.271860838
vn 0.0585669205 -0.897548378 -0.437008917
vn 0.0462065302 -0.932615221 -0.357902318
vn 0.0410787389 -0.93764019 -0.34517172
vn -0.0989737511 0.449334085 0.887864411
vn -0.113774203 -0.15943034 0.980631173
vn -0.0999796912 -0.639491975 0.76226908
vn -0.0187078696 -0.988712013 0.14865616
vn -0.107731201 0.989296317 -0.098422952
vn -0.340895206 -0.933112919 -0.114415139
vn 0.111914597 0.30144003 -0.946894526
vn 0.118412897 0.288158536 -0.950233221
vn -0.01507622 -0.988865614 0.148045957
vn -0.0670505688 -0.790323913 0.609009564
vn 0.382252187 -0.90995878 0.160805359
vn 0.880329311 -0.370870501 0.295762479
vn 0.361225396 -0.929767907 0.0710486919
vn 0.884393871 -0.347983301 0.311054677
vn 0.845253825 0.34471187 0.408313543
vn 0.437864691 0.83089608 0.343345523
vn 0.88673842 0.251875758 0.387625694
vn 0.933440506 -0.307270795 0.18513158
vn 0.504844904 0.838478327 0.205148533
vn 0.945824027 0.234205186 0.224866316
vn 0.128517404 0.973753929 0.187847346
vn 0.417987704 0.848060787 0.325698316
vn 0.457451701 -0.885299683 0.0835613832
vn -0.209363893 -0.973481476 -0.0921995416
vn -0.150827304 -0.988312602 -0.0221266523
vn -0.128882498 -0.989980996 -0.0576812439
vn 0.115758501 -0.992599905 0.0366837457
vn -0.0827670619 -0.974191785 0.210000053
vn -0.131811306 -0.989118993 -0.0653410926
vn -0.167367905 -0.985865772 0.00753821572
vn -0.0463278815 0.948409915 0.31364423
vn 0.0287179891 0.975466013 0.21826905
vn 0.0522180088 0.952315807 0.300612539
vn 0.39172101 0.839720428 0.37606442
vn -0.086461179 -0.983759403 -0.157296538
vn 0.440113306 -0.897927523 -0.00515768817
vn 0.838186622 0.366721869 0.40368104
vn 0.913438916 -0.297287285 0.277938098
vn -0.186866507 -0.961616278 -0.200935751
vn -0.0383925997 0.924719572 0.378707826
vn 0.0051881671 0.90570569 0.423875332
vn 0.290632904 0.779761493 0.554531038
vn 0.337878197 -0.921130896 0.193278059
vn -0.0982713625 -0.985094309 -0.141181245
vn 0.836106598 -0.307634532 0.454188108
vn 0.428972006 -0.901952088 0.0496539585
vn 0.704818428 0.350089669 0.616983175
vn -0.135291696 -0.972617507 -0.188975051
vn -0.0421768986 0.868625104 0.493671536
vn 0.0472440682 0.819172204 0.571598649
vn 0.0194101296 0.824778914 0.565122366
vn -0.0215159599 -0.967457116 -0.252118737
vn -0.0515475199 -0.909483016 -0.412532926
vn 0.0565523505 -0.909477293 -0.411889434
vn 0.000122076992 0.786479414 0.617616773
vn 0.323532104 0.56307584 0.760442376
vn 0.292805701 0.616680562 0.73073262
vn 0.28538239 -0.956493378 0.0606410094
vn -0.0310683809 -0.921217501 -0.387805521
vn 0.305435508 -0.951739073 0.0300307386
vn 0.531526029 -0.501372933 0.682719171
vn 0.592817903 -0.450747937 0.667378008
vn 0.56582427 -0.00598177873 0.824504077
vn 0.552607 0.153632477 0.819159687
vn 0.0596949384 -0.924722612 -0.375931829
vn -0.0707436204 -0.658361673 0.749370098
vn 0.0635707304 0.820071876 0.568718731
vn 0.254073411 0.21189566 0.943687975
vn 0.166758493 -0.899134815 0.40465796
vn -0.0636318922 -0.976085901 0.20786415
vn 0.247815698 0.671910048 0.697942913
vn 0.553310812 0.215769768 0.804543793
vn 0.252515912 -0.54824698 0.79728359
vn 0.305740714 -0.264112532 0.91474992
vn -0.0201731902 -0.987389207 0.157021448
vn -0.111913301 0.528681517 0.841410279
vn -0.0863381624 -0.130010843 0.987746418
vn -0.0072939992 0.540641367 0.841221511
vn -0.162239805 -0.13852644 0.976979375
vn -0.0607941709 -0.650973976 0.756661773
vn 0.667892873 -0.403226137 0.625562012
vn -0.00509667303 0.849070907 0.528254569
vn 0.314651102 -0.943434477 0.104527555
vn -0.101261601 -0.970531106 -0.21866785
vn 0.0686365888 0.991034508 0.114628345
vn 0.0926252604 0.979630589 0.178170145
vn -0.0368974209 0.989883721 -0.136999652
vn -0.105627798 0.931850314 -0.347128183
vn 0.39312309 -0.668806672 0.630992889
vn 0.4088296 -0.855899274 0.316693366
vn 0.689702213 -0.5528543 -0.467614442
vn 0.417261302 -0.740309298 0.527100623
vn 0.432085007 -0.901830316 -0.00222788146
vn 0.910997927 0.411154598 0.0321672074
vn 0.457244605 0.42321533 -0.782186806
vn 0.448324412 0.869395316 -0.207742855
vn 0.92273581 -0.259326786 0.285146505
vn 0.692836702 -0.0943028629 -0.714901686
vn 0.195721298 0.348806918 -0.916529775
vn 0.0764496326 0.945595205 -0.31623596
vn 0.218790695 -0.928479671 -0.300093442
vn 0.0833166167 -0.809636176 0.580988467
vn 0.494260013 0.869220078 -0.0127875414
vn 0.106664702 0.991691828 -0.0719032362
vn 0.915609479 -0.3518264 0.194621578
vn 0.937677085 0.326343596 0.119422317
vn 0.1042841 0.986410677 0.126959845
vn 0.1087071 0.971955121 0.208533347
vn 0.374686986 -0.926935911 -0.0199902412
vn 0.120490901 0.307727844 -0.943814516
vn -0.408593714 -0.906975508 -0.102209538
f 1/1/1 2/2/2 3/3/3
f 4/3/3 5/4/4 6/5/5
f 7/4/4 8/6/6 9/5/5
f 10/5/5 11/7/7 12/3/3
f 13/8/8 14/5/5 15/6/6
f 16/9/9 17/10/10 18/6/6
f 19/11/11 20/3/3 21/7/7
f 22/12/12 23/13/13 24/14/14
f 25/15/15 26/16/16 27/17/17
f 28/14/14 29/18/18 30/15/15
f 31/19/19 32/20/20 33/21/21
f 34/9/9 35/22/22 36/23/23
f 37/8/8 38/10/10 39/24/24
f 40/25/1 41/26/25 42/27/26
f 43/28/27 44/27/26 45/26/25
f 46/29/28 47/2/2 48/30/26
f 49/2/2 50/31/29 51/4/4
f 52/4/4 53/32/30 54/9/9
f 55/12/12 56/28/27 57/26/25
f 58/33/31 59/34/32 60/19/19
f 61/32/30 62/35/33 63/22/22
f 64/36/34 65/18/18 66/37/11
f 67/38/35 68/39/28 69/28/27
f 70/13/13 71/37/11 72/18/18
f 73/29/28 74/40/36 75/41/37
f 76/41/37 77/42/38 78/31/29
f 79/31/29 80/43/39 81/32/30
f 82/44/40 83/28/27 84/45/41
f 85/46/42 86/47/43 87/33/31
f 88/48/44 89/49/45 90/50/46
f 91/51/47 92/52/48 93/53/49
f 94/54/50 95/55/51 96/56/52
f 97/52/48 98/57/53 99/58/54
f 100/59/54 101/60/55 102/61/56
f 103/61/56 104/62/57 105/63/58
f 106/62/57 107/56/52 108/63/58
f 109/64/59 110/65/60 111/52/48
f 112/66/61 113/67/62 114/48/44
f 115/68/63 116/69/64 117/54/50
f 118/65/60 119/70/65 120/57/53
f 121/42/38 122/71/66 123/43/39
f 124/72/53 125/73/67 126/60/55
f 127/73/67 128/62/57 129/60/55
f 130/74/68 131/54/50 132/62/57
f 133/75/69 134/76/70 135/65/60
f 136/66/61 137/77/71 138/78/72
f 139/77/71 140/79/73 141/78/72
f 142/80/74 143/81/75 144/79/73
f 145/82/76 146/74/68 147/77/71
f 148/80/74 149/74/68 150/73/67
f 151/83/70 152/73/67 153/84/65
f 154/71/66 155/35/33 156/43/39
f 157/40/36 158/85/77 159/42/38
f 160/56/52 161/86/78 162/71/66
f 163/63/58 164/71/66 165/85/77
f 166/87/79 167/61/56 168/88/80
f 169/89/81 170/88/80 171/40/36
f 172/53/49 173/58/54 174/90/79
f 175/50/46 176/91/82 177/46/42
f 178/88/80 179/63/58 180/85/77
f 181/38/35 182/90/79 183/92/81
f 184/44/40 185/53/49 186/38/35
f 187/21/21 188/93/83 189/94/84
f 190/95/85 191/93/83 192/96/86
f 193/97/87 194/96/86 195/98/88
f 196/99/89 197/98/88 198/100/90
f 199/101/91 200/102/92 201/17/17
f 202/14/14 203/103/93 204/104/94
f 205/105/95 206/106/96 207/107/97
f 208/108/98 209/109/99 210/110/100
f 211/107/97 212/110/100 213/105/95
f 214/111/101 215/112/102 216/109/99
f 217/113/96 218/114/103 219/115/104
f 220/36/34 221/115/104 222/16/16
f 223/116/105 224/117/106 225/111/101
f 226/118/107 227/108/98 228/107/97
f 229/116/105 230/108/98 231/119/108
f 232/120/34 233/107/97 234/106/96
f 235/7/7 236/120/34 237/11/11
f 238/8/8 239/119/108 240/121/109
f 241/121/109 242/118/107 243/7/7
f 244/24/24 245/116/105 246/8/8
f 247/122/110 248/14/14 249/104/94
f 250/22/22 251/21/21 252/23/23
f 253/123/111 254/12/12 255/122/110
f 256/35/33 257/19/19 258/22/22
f 259/124/112 260/45/41 261/123/111
f 262/86/78 263/33/31 264/35/33
f 265/69/64 266/50/46 267/55/51
f 268/125/113 269/51/47 270/126/114
f 271/125/113 272/75/69 273/64/59
f 274/82/76 275/48/44 276/69/64
f 277/127/115 278/128/75 279/75/69
f 280/129/116 281/78/72 282/130/117
f 283/130/117 284/79/73 285/131/118
f 286/79/73 287/132/119 288/131/118
f 289/55/51 290/46/42 291/86/78
f 292/126/114 293/44/40 294/124/112
f 295/23/23 296/94/84 297/10/10
f 298/10/10 299/95/85 300/24/24
f 301/133/120 302/95/85 303/97/87
f 304/133/120 305/99/89 306/117/106
f 307/16/16 308/101/91 309/17/17
f 310/115/104 311/134/121 312/101/91
f 313/112/102 314/99/89 315/135/122
f 316/135/122 317/100/90 318/136/123
f 319/101/91 320/137/124 321/138/125
f 322/15/15 323/102/92 324/103/93
f 325/139/126 326/140/127 327/141/128
f 328/142/129 329/143/130 330/140/127
f 331/144/131 332/143/130 333/145/132
f 334/146/133 335/145/132 336/142/129
f 337/147/134 338/145/132 339/148/135
f 340/149/136 341/150/137 342/144/131
f 343/151/138 344/142/129 345/139/126
f 346/152/139 347/153/140 348/154/141
f 349/155/142 350/156/143 351/157/144
f 352/158/145 353/157/144 354/153/140
f 355/20/20 356/159/146 357/160/147
f 358/150/137 359/161/148 360/162/149
f 361/147/134 362/149/136 363/144/131
f 364/154/141 365/163/126 366/164/128
f 367/164/128 368/165/150 369/154/141
f 370/140/127 371/166/151 372/141/128
f 373/140/127 374/167/152 375/168/153
f 376/143/130 377/162/149 378/167/152
f 379/152/139 380/165/150 381/169/154
f 382/34/32 383/170/155 384/159/146
f 385/162/149 386/171/156 387/172/157
f 388/173/158 389/157/144 390/156/143
f 391/174/151 392/175/159 393/165/150
f 394/176/138 395/153/140 396/157/144
f 397/166/151 398/177/160 399/178/161
f 400/168/153 401/179/162 402/177/160
f 403/167/152 404/172/157 405/179/162
f 406/165/150 407/180/163 408/169/154
f 409/47/43 410/181/164 411/170/155
f 412/49/45 413/182/165 414/183/166
f 415/184/167 416/185/168 417/186/169
f 418/187/170 419/188/171 420/189/172
f 421/185/168 422/190/173 423/191/174
f 424/192/175 425/193/176 426/194/173
f 427/195/177 428/196/178 429/193/176
f 430/189/172 431/196/178 432/197/179
f 433/186/169 434/191/174 435/198/180
f 436/132/119 437/199/181 438/131/118
f 439/200/182 440/201/183 441/188/171
f 442/191/174 443/202/184 444/203/185
f 445/179/162 446/204/186 447/205/187
f 448/194/173 449/206/188 450/207/184
f 451/196/178 452/206/188 453/193/176
f 454/188/171 455/208/189 456/196/178
f 457/198/180 458/203/185 459/209/190
f 460/210/191 461/211/192 462/212/193
f 463/199/181 464/211/192 465/213/194
f 466/214/190 467/215/195 468/199/181
f 469/212/193 470/208/189 471/201/183
f 472/208/189 473/215/195 474/206/188
f 475/206/188 476/216/185 477/207/184
f 478/171/156 479/204/186 480/172/157
f 481/177/160 482/205/187 483/217/196
f 484/218/197 485/189/172 486/204/186
f 487/204/186 488/197/179 489/205/187
f 490/219/198 491/195/177 492/192/175
f 493/178/161 494/217/196 495/219/198
f 496/220/199 497/221/175 498/185/168
f 499/91/82 500/183/166 501/181/164
f 502/217/196 503/197/179 504/195/177
f 505/175/159 506/222/198 507/220/199
f 508/180/163 509/220/199 510/184/167
f 511/223/200 512/93/83 513/224/201
f 514/225/202 515/96/86 516/223/200
f 517/226/203 518/98/88 519/225/202
f 520/102/92 521/227/204 522/228/205
f 523/103/93 524/158/145 525/104/94
f 526/229/206 527/230/207 528/231/208
f 529/232/209 530/233/210 531/234/211
f 532/235/212 533/236/213 534/232/209
f 535/234/211 536/237/214 537/238/215
f 538/239/216 539/240/207 540/241/217
f 541/241/217 542/173/158 543/156/143
f 544/242/218 545/238/215 546/243/219
f 547/244/220 548/232/209 549/245/221
f 550/232/209 551/242/218 552/245/221
f 553/246/158 554/235/212 555/244/220
f 556/246/158 557/146/133 558/151/138
f 559/245/221 560/147/134 561/148/135
f 562/244/220 563/148/135 564/146/133
f 565/242/218 566/247/222 567/147/134
f 568/122/110 569/158/145 570/152/139
f 571/160/147 572/161/148 573/248/223
f 574/152/139 575/123/111 576/122/110
f 577/159/146 578/171/156 579/161/148
f 580/169/154 581/124/112 582/123/111
f 583/170/155 584/218/197 585/171/156
f 586/183/166 587/200/182 588/187/170
f 589/184/167 590/125/113 591/126/114
f 592/125/113 593/198/180 594/127/115
f 595/182/165 596/212/193 597/200/182
f 598/129/116 599/213/194 600/210/191
f 601/130/117 602/199/181 603/213/194
f 604/67/62 605/210/191 606/182/165
f 607/181/164 608/187/170 609/218/197
f 610/180/163 611/126/114 612/124/112
f 613/224/201 614/248/223 615/149/136
f 616/223/200 617/149/136 618/247/222
f 619/243/219 620/223/200 621/247/222
f 622/226/203 623/243/219 624/238/215
f 625/156/143 626/227/204 627/241/217
f 628/241/217 629/249/224 630/239/216
f 631/237/214 632/226/203 633/238/215
f 634/250/225 635/100/90 636/226/203
f 637/227/204 638/137/124 639/249/224
f 640/102/92 641/155/142 642/103/93
f 643/224/201 644/20/20 645/160/147
f 646/127/115 647/209/190 648/251/119
f 649/229/206 650/233/210 651/236/213
f 652/239/216 653/233/210 654/231/208
f 655/250/225 656/239/216 657/249/224
f 658/249/224 659/136/123 660/250/225
f 661/134/121 662/136/123 663/137/124
f 664/135/122 665/114/103 666/112/102
f 667/114/103 668/109/99 669/112/102
f 670/105/95 671/109/99 672/252/226
f 673/1/1 674/30/26 675/2/2
f 676/3/3 677/2/2 678/4/4
f 679/4/4 680/9/9 681/6/6
f 682/5/5 683/121/109 684/7/7
f 685/8/8 686/121/109 687/5/5
f 688/9/9 689/23/23 690/10/10
f 691/11/11 692/1/1 693/3/3
f 694/12/12 695/26/25 696/13/13
f 697/15/15 698/18/18 699/16/16
f 700/14/14 701/13/13 702/18/18
f 703/19/19 704/34/32 705/20/20
f 706/9/9 707/32/30 708/22/22
f 709/8/8 710/6/6 711/10/10
f 712/25/1 713/13/13 714/26/25
f 715/28/27 716/39/28 717/27/26
f 718/29/28 719/41/37 720/2/2
f 721/2/2 722/41/37 723/31/29
f 724/4/4 725/31/29 726/32/30
f 727/12/12 728/45/41 729/28/27
f 730/33/31 731/47/43 732/34/32
f 733/32/30 734/43/39 735/35/33
f 736/36/34 737/16/16 738/18/18
f 739/38/35 740/92/81 741/39/28
f 742/13/13 743/25/1 744/37/11
f 745/29/28 746/89/81 747/40/36
f 748/41/37 749/40/36 750/42/38
f 751/31/29 752/42/38 753/43/39
f 754/44/40 755/38/35 756/28/27
f 757/46/42 758/91/82 759/47/43
f 760/48/44 761/67/62 762/49/45
f 763/51/47 764/64/59 765/52/48
f 766/54/50 767/69/64 768/55/51
f 769/52/48 770/65/60 771/57/53
f 772/59/54 773/72/53 774/60/55
f 775/61/56 776/60/55 777/62/57
f 778/62/57 779/54/50 780/56/52
f 781/64/59 782/75/69 783/65/60
f 784/66/61 785/129/116 786/67/62
f 787/68/63 788/82/76 789/69/64
f 790/65/60 791/76/70 792/70/65
f 793/42/38 794/85/77 795/71/66
f 796/72/53 797/84/65 798/73/67
f 799/73/67 800/74/68 801/62/57
f 802/74/68 803/68/63 804/54/50
f 805/75/69 806/128/75 807/76/70
f 808/66/61 809/82/76 810/77/71
f 811/77/71 812/80/74 813/79/73
f 814/80/74 815/83/70 816/81/75
f 817/82/76 818/68/63 819/74/68
f 820/80/74 821/77/71 822/74/68
f 823/83/70 824/80/74 825/73/67
f 826/71/66 827/86/78 828/35/33
f 829/40/36 830/88/80 831/85/77
f 832/56/52 833/55/51 834/86/78
f 835/63/58 836/56/52 837/71/66
f 838/87/79 839/59/54 840/61/56
f 841/89/81 842/87/79 843/88/80
f 844/53/49 845/52/48 846/58/54
f 847/50/46 848/49/45 849/91/82
f 850/88/80 851/61/56 852/63/58
f 853/38/35 854/53/49 855/90/79
f 856/44/40 857/51/47 858/53/49
f 859/21/21 860/20/20 861/93/83
f 862/95/85 863/94/84 864/93/83
f 865/97/87 866/95/85 867/96/86
f 868/99/89 869/97/87 870/98/88
f 871/101/91 872/138/125 873/102/92
f 874/14/14 875/15/15 876/103/93
f 877/105/95 878/252/226 879/106/96
f 880/108/98 881/111/101 882/109/99
f 883/107/97 884/108/98 885/110/100
f 886/111/101 887/117/106 888/112/102
f 889/113/96 890/252/226 891/114/103
f 892/36/34 893/113/96 894/115/104
f 895/116/105 896/133/120 897/117/106
f 898/118/107 899/119/108 900/108/98
f 901/116/105 902/111/101 903/108/98
f 904/120/34 905/118/107 906/107/97
f 907/7/7 908/118/107 909/120/34
f 910/8/8 911/116/105 912/119/108
f 913/121/109 914/119/108 915/118/107
f 916/24/24 917/133/120 918/116/105
f 919/122/110 920/12/12 921/14/14
f 922/22/22 923/19/19 924/21/21
f 925/123/111 926/45/41 927/12/12
f 928/35/33 929/33/31 930/19/19
f 931/124/112 932/44/40 933/45/41
f 934/86/78 935/46/42 936/33/31
f 937/69/64 938/48/44 939/50/46
f 940/125/113 941/64/59 942/51/47
f 943/125/113 944/127/115 945/75/69
f 946/82/76 947/66/61 948/48/44
f 949/127/115 950/251/119 951/128/75
f 952/129/116 953/66/61 954/78/72
f 955/130/117 956/78/72 957/79/73
f 958/79/73 959/81/75 960/132/119
f 961/55/51 962/50/46 963/46/42
f 964/126/114 965/51/47 966/44/40
f 967/23/23 968/21/21 969/94/84
f 970/10/10 971/94/84 972/95/85
f 973/133/120 974/24/24 975/95/85
f 976/133/120 977/97/87 978/99/89
f 979/16/16 980/115/104 981/101/91
f 982/115/104 983/114/103 984/134/121
f 985/112/102 986/117/106 987/99/89
f 988/135/122 989/99/89 990/100/90
f 991/101/91 992/134/121 993/137/124
f 994/15/15 995/17/17 996/102/92
f 997/139/126 998/142/129 999/140/127
f 1000/142/129 1001/145/132 1002/143/130
f 1003/144/131 1004/150/137 1005/143/130
f 1006/146/133 1007/148/135 1008/145/132
f 1009/147/134 1010/144/131 1011/145/132
f 1012/149/136 1013/248/223 1014/150/137
f 1015/151/138 1016/146/133 1017/142/129
f 1018/152/139 1019/158/145 1020/153/140
f 1021/155/142 1022/228/205 1023/156/143
f 1024/158/145 1025/155/142 1026/157/144
f 1027/20/20 1028/34/32 1029/159/146
f 1030/150/137 1031/248/223 1032/161/148
f 1033/147/134 1034/247/222 1035/149/136
f 1036/154/141 1037/153/140 1038/163/126
f 1039/164/128 1040/174/151 1041/165/150
f 1042/140/127 1043/168/153 1044/166/151
f 1045/140/127 1046/143/130 1047/167/152
f 1048/143/130 1049/150/137 1050/162/149
f 1051/152/139 1052/154/141 1053/165/150
f 1054/34/32 1055/47/43 1056/170/155
f 1057/162/149 1058/161/148 1059/171/156
f 1060/173/158 1061/176/138 1062/157/144
f 1063/174/151 1064/253/161 1065/175/159
f 1066/176/138 1067/163/126 1068/153/140
f 1069/166/151 1070/168/153 1071/177/160
f 1072/168/153 1073/167/152 1074/179/162
f 1075/167/152 1076/162/149 1077/172/157
f 1078/165/150 1079/175/159 1080/180/163
f 1081/47/43 1082/91/82 1083/181/164
f 1084/49/45 1085/67/62 1086/182/165
f 1087/184/167 1088/220/199 1089/185/168
f 1090/187/170 1091/200/182 1092/188/171
f 1093/185/168 1094/221/175 1095/190/173
f 1096/192/175 1097/195/177 1098/193/176
f 1099/195/177 1100/197/179 1101/196/178
f 1102/189/172 1103/188/171 1104/196/178
f 1105/186/169 1106/185/168 1107/191/174
f 1108/132/119 1109/214/190 1110/199/181
f 1111/200/182 1112/212/193 1113/201/183
f 1114/191/174 1115/190/173 1116/202/184
f 1117/179/162 1118/172/157 1119/204/186
f 1120/194/173 1121/193/176 1122/206/188
f 1123/196/178 1124/208/189 1125/206/188
f 1126/188/171 1127/201/183 1128/208/189
f 1129/198/180 1130/191/174 1131/203/185
f 1132/210/191 1133/213/194 1134/211/192
f 1135/199/181 1136/215/195 1137/211/192
f 1138/214/190 1139/216/185 1140/215/195
f 1141/212/193 1142/211/192 1143/208/189
f 1144/208/189 1145/211/192 1146/215/195
f 1147/206/188 1148/215/195 1149/216/185
f 1150/171/156 1151/218/197 1152/204/186
f 1153/177/160 1154/179/162 1155/205/187
f 1156/218/197 1157/187/170 1158/189/172
f 1159/204/186 1160/189/172 1161/197/179
f 1162/219/198 1163/217/196 1164/195/177
f 1165/178/161 1166/177/160 1167/217/196
f 1168/220/199 1169/222/198 1170/221/175
f 1171/91/82 1172/49/45 1173/183/166
f 1174/217/196 1175/205/187 1176/197/179
f 1177/175/159 1178/253/161 1179/222/198
f 1180/180/163 1181/175/159 1182/220/199
f 1183/223/200 1184/96/86 1185/93/83
f 1186/225/202 1187/98/88 1188/96/86
f 1189/226/203 1190/100/90 1191/98/88
f 1192/102/92 1193/138/125 1194/227/204
f 1195/103/93 1196/155/142 1197/158/145
f 1198/229/206 1199/235/212 1200/230/207
f 1201/232/209 1202/236/213 1203/233/210
f 1204/235/212 1205/229/206 1206/236/213
f 1207/234/211 1208/233/210 1209/237/214
f 1210/239/216 1211/231/208 1212/240/207
f 1213/241/217 1214/240/207 1215/173/158
f 1216/242/218 1217/234/211 1218/238/215
f 1219/244/220 1220/235/212 1221/232/209
f 1222/232/209 1223/234/211 1224/242/218
f 1225/246/158 1226/230/207 1227/235/212
f 1228/246/158 1229/244/220 1230/146/133
f 1231/245/221 1232/242/218 1233/147/134
f 1234/244/220 1235/245/221 1236/148/135
f 1237/242/218 1238/243/219 1239/247/222
f 1240/122/110 1241/104/94 1242/158/145
f 1243/160/147 1244/159/146 1245/161/148
f 1246/152/139 1247/169/154 1248/123/111
f 1249/159/146 1250/170/155 1251/171/156
f 1252/169/154 1253/180/163 1254/124/112
f 1255/170/155 1256/181/164 1257/218/197
f 1258/183/166 1259/182/165 1260/200/182
f 1261/184/167 1262/186/169 1263/125/113
f 1264/125/113 1265/186/169 1266/198/180
f 1267/182/165 1268/210/191 1269/212/193
f 1270/129/116 1271/130/117 1272/213/194
f 1273/130/117 1274/131/118 1275/199/181
f 1276/67/62 1277/129/116 1278/210/191
f 1279/181/164 1280/183/166 1281/187/170
f 1282/180/163 1283/184/167 1284/126/114
f 1285/224/201 1286/160/147 1287/248/223
f 1288/223/200 1289/224/201 1290/149/136
f 1291/243/219 1292/225/202 1293/223/200
f 1294/226/203 1295/225/202 1296/243/219
f 1297/156/143 1298/228/205 1299/227/204
f 1300/241/217 1301/227/204 1302/249/224
f 1303/237/214 1304/250/225 1305/226/203
f 1306/250/225 1307/136/123 1308/100/90
f 1309/227/204 1310/138/125 1311/137/124
f 1312/102/92 1313/228/205 1314/155/142
f 1315/224/201 1316/93/83 1317/20/20
f 1318/127/115 1319/198/180 1320/209/190
f 1321/229/206 1322/231/208 1323/233/210
f 1324/239/216 1325/237/214 1326/233/210
f 1327/250/225 1328/237/214 1329/239/216
f 1330/249/224 1331/137/124 1332/136/123
f 1333/134/121 1334/135/122 1335/136/123
f 1336/135/122 1337/134/121 1338/114/103
f 1339/114/103 1340/252/226 1341/109/99
f 1342/105/95 1343/110/100 1344/109/99
