# MuJoCo material-split OBJ
v 0.0142999813 1.53410017 0.045100078
v 0.0221999809 1.52560031 0.039600119
v 0.0223000012 1.52660024 0.0455000773
v 0.0138000213 1.53380024 0.0391000882
v 0.0231000111 1.52690017 0.0337000862
v 0.0221999809 1.52560031 0.039600119
v 0.0332000181 1.55230021 0.0472001322
v 0.0231000111 1.54910028 0.0513000935
v 0.0314999782 1.54910028 0.0519001335
v 0.0314999782 1.54910028 0.0519001335
v 0.024900008 1.54450023 0.0545000918
v 0.0295000002 1.54450023 0.0549000911
v 0.0231000111 1.54910028 0.0513000935
v 0.0214999914 1.54140031 0.0543001108
v 0.024900008 1.54450023 0.0545000918
v 0.022099968 1.55230021 0.046300102
v 0.0170999691 1.54330027 0.0507001132
v 0.0231000111 1.54910028 0.0513000935
v 0.0220000111 1.55350029 0.0404001251
v 0.0142999813 1.54470026 0.045500081
v 0.022099968 1.55230021 0.046300102
v 0.0228999779 1.55260026 0.0345001072
v 0.0137000009 1.54540026 0.039500095
v 0.0220000111 1.55350029 0.0404001251
v 0.0419999883 1.53470027 0.0352000967
v 0.0425999686 1.54550028 0.0416000858
v 0.0426999927 1.53400028 0.0412000865
v 0.0411000177 1.53430021 0.0470000878
v 0.0425999686 1.54550028 0.0416000858
v 0.0411999822 1.5449003 0.047400102
v 0.03769999 1.54340029 0.0521001108
v 0.0411000177 1.53430021 0.0470000878
v 0.0411999822 1.5449003 0.047400102
v 0.0326999985 1.54140031 0.0551001318
v 0.03769999 1.53530025 0.0518001206
v 0.03769999 1.54340029 0.0521001108
v 0.0314999782 1.54910028 0.0519001335
v 0.0326999985 1.54140031 0.0551001318
v 0.03769999 1.54340029 0.0521001108
v 0.0332000181 1.55230021 0.0472001322
v 0.03769999 1.54340029 0.0521001108
v 0.0411999822 1.5449003 0.047400102
v 0.0231000111 1.52690017 0.0337000862
v 0.034200009 1.52570021 0.0404001251
v 0.0221999809 1.52560031 0.039600119
v 0.0223000012 1.52660024 0.0455000773
v 0.034200009 1.52570021 0.0404001251
v 0.033399988 1.52660024 0.0463000983
v 0.0339999683 1.55350029 0.0413000956
v 0.0411999822 1.5449003 0.047400102
v 0.0425999686 1.54550028 0.0416000858
v 0.0339999683 1.55350029 0.0413000956
v 0.0418999717 1.54530025 0.0356001109
v 0.0339999683 1.55270028 0.0352000967
v 0.031599991 1.52950025 0.0513000898
v 0.0223000012 1.52660024 0.0455000773
v 0.033399988 1.52660024 0.0463000983
v 0.031599991 1.52950025 0.0513000898
v 0.024900008 1.53390026 0.0542000979
v 0.023199968 1.52950025 0.0507001095
v 0.0138000213 1.53380024 0.0391000882
v 0.0150999986 1.5450002 0.0337000862
v 0.0152000114 1.53450024 0.0333000869
v 0.0142999813 1.53410017 0.045100078
v 0.0137000009 1.54540026 0.039500095
v 0.0138000213 1.53380024 0.0391000882
v 0.031599991 1.52950025 0.0513000898
v 0.0326999985 1.5370003 0.0549000911
v 0.0295000002 1.53390026 0.0546000972
v 0.03769999 1.53530025 0.0518001206
v 0.033399988 1.52660024 0.0463000983
v 0.0411000177 1.53430021 0.0470000878
v 0.0142999813 1.54470026 0.045500081
v 0.0170999691 1.53520024 0.050400123
v 0.0170999691 1.54330027 0.0507001132
v 0.0170999691 1.54330027 0.0507001132
v 0.0214999914 1.5370003 0.0541000813
v 0.0214999914 1.54140031 0.0543001108
v 0.0411000177 1.53430021 0.0470000878
v 0.034200009 1.52570021 0.0404001251
v 0.0426999927 1.53400028 0.0412000865
v 0.034200009 1.52700031 0.0345001072
v 0.0426999927 1.53400028 0.0412000865
v 0.034200009 1.52570021 0.0404001251
v 0.0299000107 1.54030025 0.0557001121
v 0.0295000002 1.54450023 0.0549000911
v 0.0282000303 1.54190028 0.0556000918
v 0.0282000303 1.54190028 0.0556000918
v 0.024900008 1.54450023 0.0545000918
v 0.0258999988 1.54190028 0.0555001311
v 0.023199968 1.52950025 0.0507001095
v 0.0214999914 1.5370003 0.0541000813
v 0.0170999691 1.53520024 0.050400123
v 0.0223000012 1.52660024 0.0455000773
v 0.0170999691 1.53520024 0.050400123
v 0.0142999813 1.53410017 0.045100078
v 0.0228999779 1.55260026 0.0345001072
v 0.0339999683 1.55350029 0.0413000956
v 0.0339999683 1.55270028 0.0352000967
v 0.0339999683 1.55350029 0.0413000956
v 0.022099968 1.55230021 0.046300102
v 0.0332000181 1.55230021 0.0472001322
v 0.0326999985 1.54140031 0.0551001318
v 0.0299000107 1.53810024 0.0556000918
v 0.0326999985 1.5370003 0.0549000911
v 0.0299000107 1.53810024 0.0556000918
v 0.0295000002 1.53390026 0.0546000972
v 0.0326999985 1.5370003 0.0549000911
v 0.0282000303 1.53650022 0.055400122
v 0.024900008 1.53390026 0.0542000979
v 0.0295000002 1.53390026 0.0546000972
v 0.024900008 1.53390026 0.0542000979
v 0.0242000185 1.53800023 0.0552000813
v 0.0214999914 1.5370003 0.0541000813
v 0.0242000185 1.54030025 0.0553001016
v 0.0214999914 1.5370003 0.0541000813
v 0.0242000185 1.53800023 0.0552000813
v 0.0242000185 1.54030025 0.0553001016
v 0.024900008 1.54450023 0.0545000918
v 0.0214999914 1.54140031 0.0543001108
v 0.0258999988 1.54190028 0.0555001311
v 0.0299000107 1.54030025 0.0557001121
v 0.0282000303 1.54190028 0.0556000918
v 0.0242000185 1.54030025 0.0553001016
v 0.0299000107 1.53810024 0.0556000918
v 0.0299000107 1.54030025 0.0557001121
v 0.0242000185 1.53800023 0.0552000813
v 0.0282000303 1.53650022 0.055400122
v 0.0299000107 1.53810024 0.0556000918
v -0.0245000124 1.52620018 0.0397001281
v -0.0148000121 1.53360021 0.0356001109
v -0.016900003 1.53390026 0.0413000956
v -0.0224000216 1.52660024 0.0280001014
v -0.0148000121 1.53360021 0.0356001109
v -0.0230000019 1.52530026 0.0339001268
v -0.0353999697 1.54870021 0.0435001105
v -0.0249999762 1.55190027 0.0404001251
v -0.0358999893 1.55180025 0.0385001078
v -0.0340999886 1.54410028 0.0470000915
v -0.0271000266 1.54870021 0.045000121
v -0.0353999697 1.54870021 0.0435001105
v -0.0271000266 1.54870021 0.045000121
v -0.0261999965 1.54100025 0.0483001322
v -0.0210999846 1.54310024 0.0459000915
v -0.0249999762 1.55190027 0.0404001251
v -0.0210999846 1.54310024 0.0459000915
v -0.0170999765 1.54450023 0.0416000858
v -0.0234000087 1.55310023 0.0347000808
v -0.0170999765 1.54450023 0.0416000858
v -0.0149999866 1.54510021 0.0360001177
v -0.0234000087 1.55310023 0.0347000808
v -0.0149000296 1.54480028 0.0299001187
v -0.0228000283 1.55230021 0.0288001075
v -0.0433999822 1.53340018 0.0305000991
v -0.0414000079 1.54460025 0.0252001062
v -0.0411999822 1.53410017 0.0248001069
v -0.0436000228 1.5443002 0.0368001312
v -0.0433999822 1.53340018 0.0305000991
v -0.043299973 1.53360021 0.036400117
v -0.043299973 1.53360021 0.036400117
v -0.0412999913 1.54280031 0.0422000661
v -0.0436000228 1.5443002 0.0368001312
v -0.0412999913 1.54280031 0.0422000661
v -0.0371000096 1.53650022 0.0462000817
v -0.0371999703 1.54090023 0.0464001112
v -0.0353999697 1.54870021 0.0435001105
v -0.0371999703 1.54090023 0.0464001112
v -0.0340999886 1.54410028 0.0470000915
v -0.0358999893 1.55180025 0.0385001078
v -0.0412999913 1.54280031 0.0422000661
v -0.0353999697 1.54870021 0.0435001105
v -0.0230000019 1.52530026 0.0339001268
v -0.0333999991 1.52650023 0.0260001272
v -0.0224000216 1.52660024 0.0280001014
v -0.0354999825 1.52610028 0.0377001017
v -0.0230000019 1.52530026 0.0339001268
v -0.0245000124 1.52620018 0.0397001281
v -0.035300009 1.55300021 0.0326000899
v -0.0436000228 1.5443002 0.0368001312
v -0.0358999893 1.55180025 0.0385001078
v -0.035300009 1.55300021 0.0326000899
v -0.0414000079 1.54460025 0.0252001062
v -0.0436000228 1.5449003 0.0308000892
v -0.0350000188 1.52900028 0.0429001302
v -0.0245000124 1.52620018 0.0397001281
v -0.0267000198 1.5291003 0.0445000976
v -0.0292999744 1.53350031 0.0475001186
v -0.0350000188 1.52900028 0.0429001302
v -0.0267000198 1.5291003 0.0445000976
v -0.0148000121 1.53360021 0.0356001109
v -0.0149000296 1.54480028 0.0299001187
v -0.0149999866 1.54510021 0.0360001177
v -0.016900003 1.53390026 0.0413000956
v -0.0149999866 1.54510021 0.0360001177
v -0.0170999765 1.54450023 0.0416000858
v -0.0350000188 1.52900028 0.0429001302
v -0.0371000096 1.53650022 0.0462000817
v -0.0411999822 1.53470027 0.0420001
v -0.0411999822 1.53470027 0.0420001
v -0.0354999825 1.52610028 0.0377001017
v -0.0350000188 1.52900028 0.0429001302
v -0.0207999945 1.53490031 0.0457001179
v -0.0170999765 1.54450023 0.0416000858
v -0.0210999846 1.54310024 0.0459000915
v -0.0260999799 1.53670025 0.0482001118
v -0.0210999846 1.54310024 0.0459000915
v -0.0261999965 1.54100025 0.0483001322
v -0.043299973 1.53360021 0.036400117
v -0.0349000022 1.52520025 0.031800136
v -0.0354999825 1.52610028 0.0377001017
v -0.0333999991 1.52650023 0.0260001272
v -0.0433999822 1.53340018 0.0305000991
v -0.0411999822 1.53410017 0.0248001069
v -0.0340999886 1.54410028 0.0470000915
v -0.034600012 1.53980029 0.0476001315
v -0.0329999924 1.54140031 0.0480000824
v -0.0295000076 1.54410028 0.0478001125
v -0.0329999924 1.54140031 0.0480000824
v -0.0307000279 1.54150021 0.0484000929
v -0.0267000198 1.5291003 0.0445000976
v -0.0260999799 1.53670025 0.0482001118
v -0.0292999744 1.53350031 0.0475001186
v -0.0245000124 1.52620018 0.0397001281
v -0.0207999945 1.53490031 0.0457001179
v -0.0267000198 1.5291003 0.0445000976
v -0.035300009 1.55300021 0.0326000899
v -0.0228000283 1.55230021 0.0288001075
v -0.0337999985 1.5522002 0.0268000811
v -0.035300009 1.55300021 0.0326000899
v -0.0249999762 1.55190027 0.0404001251
v -0.0234000087 1.55310023 0.0347000808
v -0.0371999703 1.54090023 0.0464001112
v -0.034600012 1.53760028 0.0475001223
v -0.034600012 1.53980029 0.0476001315
v -0.0339000225 1.53350031 0.0467000976
v -0.034600012 1.53760028 0.0475001223
v -0.0371000096 1.53650022 0.0462000817
v -0.0292999744 1.53350031 0.0475001186
v -0.0328999758 1.53600025 0.0478001125
v -0.0339000225 1.53350031 0.0467000976
v -0.0292999744 1.53350031 0.0475001186
v -0.0289999843 1.53760028 0.048500102
v -0.0306000113 1.53610027 0.0483001322
v -0.0260999799 1.53670025 0.0482001118
v -0.0289999843 1.53990018 0.0486001223
v -0.0289999843 1.53760028 0.048500102
v -0.0289999843 1.53990018 0.0486001223
v -0.0295000076 1.54410028 0.0478001125
v -0.0307000279 1.54150021 0.0484000929
v -0.0329999924 1.54140031 0.0480000824
v -0.0289999843 1.53990018 0.0486001223
v -0.0307000279 1.54150021 0.0484000929
v -0.034600012 1.53980029 0.0476001315
v -0.0289999843 1.53760028 0.048500102
v -0.0289999843 1.53990018 0.0486001223
v -0.0289999843 1.53760028 0.048500102
v -0.0328999758 1.53600025 0.0478001125
v -0.0306000113 1.53610027 0.0483001322
v 0.0142999813 1.53410017 0.045100078
v 0.0138000213 1.53380024 0.0391000882
v 0.0221999809 1.52560031 0.039600119
v 0.0138000213 1.53380024 0.0391000882
v 0.0152000114 1.53450024 0.0333000869
v 0.0231000111 1.52690017 0.0337000862
v 0.0332000181 1.55230021 0.0472001322
v 0.022099968 1.55230021 0.046300102
v 0.0231000111 1.54910028 0.0513000935
v 0.0314999782 1.54910028 0.0519001335
v 0.0231000111 1.54910028 0.0513000935
v 0.024900008 1.54450023 0.0545000918
v 0.0231000111 1.54910028 0.0513000935
v 0.0170999691 1.54330027 0.0507001132
v 0.0214999914 1.54140031 0.0543001108
v 0.022099968 1.55230021 0.046300102
v 0.0142999813 1.54470026 0.045500081
v 0.0170999691 1.54330027 0.0507001132
v 0.0220000111 1.55350029 0.0404001251
v 0.0137000009 1.54540026 0.039500095
v 0.0142999813 1.54470026 0.045500081
v 0.0228999779 1.55260026 0.0345001072
v 0.0150999986 1.5450002 0.0337000862
v 0.0137000009 1.54540026 0.039500095
v 0.0419999883 1.53470027 0.0352000967
v 0.0418999717 1.54530025 0.0356001109
v 0.0425999686 1.54550028 0.0416000858
v 0.0411000177 1.53430021 0.0470000878
v 0.0426999927 1.53400028 0.0412000865
v 0.0425999686 1.54550028 0.0416000858
v 0.03769999 1.54340029 0.0521001108
v 0.03769999 1.53530025 0.0518001206
v 0.0411000177 1.53430021 0.0470000878
v 0.0326999985 1.54140031 0.0551001318
v 0.0326999985 1.5370003 0.0549000911
v 0.03769999 1.53530025 0.0518001206
v 0.0314999782 1.54910028 0.0519001335
v 0.0295000002 1.54450023 0.0549000911
v 0.0326999985 1.54140031 0.0551001318
v 0.0332000181 1.55230021 0.0472001322
v 0.0314999782 1.54910028 0.0519001335
v 0.03769999 1.54340029 0.0521001108
v 0.0231000111 1.52690017 0.0337000862
v 0.034200009 1.52700031 0.0345001072
v 0.034200009 1.52570021 0.0404001251
v 0.0223000012 1.52660024 0.0455000773
v 0.0221999809 1.52560031 0.039600119
v 0.034200009 1.52570021 0.0404001251
v 0.0339999683 1.55350029 0.0413000956
v 0.0332000181 1.55230021 0.0472001322
v 0.0411999822 1.5449003 0.047400102
v 0.0339999683 1.55350029 0.0413000956
v 0.0425999686 1.54550028 0.0416000858
v 0.0418999717 1.54530025 0.0356001109
v 0.031599991 1.52950025 0.0513000898
v 0.023199968 1.52950025 0.0507001095
v 0.0223000012 1.52660024 0.0455000773
v 0.031599991 1.52950025 0.0513000898
v 0.0295000002 1.53390026 0.0546000972
v 0.024900008 1.53390026 0.0542000979
v 0.0138000213 1.53380024 0.0391000882
v 0.0137000009 1.54540026 0.039500095
v 0.0150999986 1.5450002 0.0337000862
v 0.0142999813 1.53410017 0.045100078
v 0.0142999813 1.54470026 0.045500081
v 0.0137000009 1.54540026 0.039500095
v 0.031599991 1.52950025 0.0513000898
v 0.03769999 1.53530025 0.0518001206
v 0.0326999985 1.5370003 0.0549000911
v 0.03769999 1.53530025 0.0518001206
v 0.031599991 1.52950025 0.0513000898
v 0.033399988 1.52660024 0.0463000983
v 0.0142999813 1.54470026 0.045500081
v 0.0142999813 1.53410017 0.045100078
v 0.0170999691 1.53520024 0.050400123
v 0.0170999691 1.54330027 0.0507001132
v 0.0170999691 1.53520024 0.050400123
v 0.0214999914 1.5370003 0.0541000813
v 0.0411000177 1.53430021 0.0470000878
v 0.033399988 1.52660024 0.0463000983
v 0.034200009 1.52570021 0.0404001251
v 0.034200009 1.52700031 0.0345001072
v 0.0419999883 1.53470027 0.0352000967
v 0.0426999927 1.53400028 0.0412000865
v 0.0299000107 1.54030025 0.0557001121
v 0.0326999985 1.54140031 0.0551001318
v 0.0295000002 1.54450023 0.0549000911
v 0.0282000303 1.54190028 0.0556000918
v 0.0295000002 1.54450023 0.0549000911
v 0.024900008 1.54450023 0.0545000918
v 0.023199968 1.52950025 0.0507001095
v 0.024900008 1.53390026 0.0542000979
v 0.0214999914 1.5370003 0.0541000813
v 0.0223000012 1.52660024 0.0455000773
v 0.023199968 1.52950025 0.0507001095
v 0.0170999691 1.53520024 0.050400123
v 0.0228999779 1.55260026 0.0345001072
v 0.0220000111 1.55350029 0.0404001251
v 0.0339999683 1.55350029 0.0413000956
v 0.0339999683 1.55350029 0.0413000956
v 0.0220000111 1.55350029 0.0404001251
v 0.022099968 1.55230021 0.046300102
v 0.0326999985 1.54140031 0.0551001318
v 0.0299000107 1.54030025 0.0557001121
v 0.0299000107 1.53810024 0.0556000918
v 0.0299000107 1.53810024 0.0556000918
v 0.0282000303 1.53650022 0.055400122
v 0.0295000002 1.53390026 0.0546000972
v 0.0282000303 1.53650022 0.055400122
v 0.0258999988 1.53650022 0.0553001016
v 0.024900008 1.53390026 0.0542000979
v 0.024900008 1.53390026 0.0542000979
v 0.0258999988 1.53650022 0.0553001016
v 0.0242000185 1.53800023 0.0552000813
v 0.0242000185 1.54030025 0.0553001016
v 0.0214999914 1.54140031 0.0543001108
v 0.0214999914 1.5370003 0.0541000813
v 0.0242000185 1.54030025 0.0553001016
v 0.0258999988 1.54190028 0.0555001311
v 0.024900008 1.54450023 0.0545000918
v 0.0258999988 1.54190028 0.0555001311
v 0.0242000185 1.54030025 0.0553001016
v 0.0299000107 1.54030025 0.0557001121
v 0.0242000185 1.54030025 0.0553001016
v 0.0242000185 1.53800023 0.0552000813
v 0.0299000107 1.53810024 0.0556000918
v 0.0242000185 1.53800023 0.0552000813
v 0.0258999988 1.53650022 0.0553001016
v 0.0282000303 1.53650022 0.055400122
v -0.0245000124 1.52620018 0.0397001281
v -0.0230000019 1.52530026 0.0339001268
v -0.0148000121 1.53360021 0.0356001109
v -0.0224000216 1.52660024 0.0280001014
v -0.0148000121 1.53420031 0.0296001285
v -0.0148000121 1.53360021 0.0356001109
v -0.0353999697 1.54870021 0.0435001105
v -0.0271000266 1.54870021 0.045000121
v -0.0249999762 1.55190027 0.0404001251
v -0.0340999886 1.54410028 0.0470000915
v -0.0295000076 1.54410028 0.0478001125
v -0.0271000266 1.54870021 0.045000121
v -0.0271000266 1.54870021 0.045000121
v -0.0295000076 1.54410028 0.0478001125
v -0.0261999965 1.54100025 0.0483001322
v -0.0249999762 1.55190027 0.0404001251
v -0.0271000266 1.54870021 0.045000121
v -0.0210999846 1.54310024 0.0459000915
v -0.0234000087 1.55310023 0.0347000808
v -0.0249999762 1.55190027 0.0404001251
v -0.0170999765 1.54450023 0.0416000858
v -0.0234000087 1.55310023 0.0347000808
v -0.0149999866 1.54510021 0.0360001177
v -0.0149000296 1.54480028 0.0299001187
v -0.0433999822 1.53340018 0.0305000991
v -0.0436000228 1.5449003 0.0308000892
v -0.0414000079 1.54460025 0.0252001062
v -0.0436000228 1.5443002 0.0368001312
v -0.0436000228 1.5449003 0.0308000892
v -0.0433999822 1.53340018 0.0305000991
v -0.043299973 1.53360021 0.036400117
v -0.0411999822 1.53470027 0.0420001
v -0.0412999913 1.54280031 0.0422000661
v -0.0412999913 1.54280031 0.0422000661
v -0.0411999822 1.53470027 0.0420001
v -0.0371000096 1.53650022 0.0462000817
v -0.0353999697 1.54870021 0.0435001105
v -0.0412999913 1.54280031 0.0422000661
v -0.0371999703 1.54090023 0.0464001112
v -0.0358999893 1.55180025 0.0385001078
v -0.0436000228 1.5443002 0.0368001312
v -0.0412999913 1.54280031 0.0422000661
v -0.0230000019 1.52530026 0.0339001268
v -0.0349000022 1.52520025 0.031800136
v -0.0333999991 1.52650023 0.0260001272
v -0.0354999825 1.52610028 0.0377001017
v -0.0349000022 1.52520025 0.031800136
v -0.0230000019 1.52530026 0.0339001268
v -0.035300009 1.55300021 0.0326000899
v -0.0436000228 1.5449003 0.0308000892
v -0.0436000228 1.5443002 0.0368001312
v -0.035300009 1.55300021 0.0326000899
v -0.0337999985 1.5522002 0.0268000811
v -0.0414000079 1.54460025 0.0252001062
v -0.0350000188 1.52900028 0.0429001302
v -0.0354999825 1.52610028 0.0377001017
v -0.0245000124 1.52620018 0.0397001281
v -0.0292999744 1.53350031 0.0475001186
v -0.0339000225 1.53350031 0.0467000976
v -0.0350000188 1.52900028 0.0429001302
v -0.0148000121 1.53360021 0.0356001109
v -0.0148000121 1.53420031 0.0296001285
v -0.0149000296 1.54480028 0.0299001187
v -0.016900003 1.53390026 0.0413000956
v -0.0148000121 1.53360021 0.0356001109
v -0.0149999866 1.54510021 0.0360001177
v -0.0350000188 1.52900028 0.0429001302
v -0.0339000225 1.53350031 0.0467000976
v -0.0371000096 1.53650022 0.0462000817
v -0.0411999822 1.53470027 0.0420001
v -0.043299973 1.53360021 0.036400117
v -0.0354999825 1.52610028 0.0377001017
v -0.0207999945 1.53490031 0.0457001179
v -0.016900003 1.53390026 0.0413000956
v -0.0170999765 1.54450023 0.0416000858
v -0.0260999799 1.53670025 0.0482001118
v -0.0207999945 1.53490031 0.0457001179
v -0.0210999846 1.54310024 0.0459000915
v -0.043299973 1.53360021 0.036400117
v -0.0433999822 1.53340018 0.0305000991
v -0.0349000022 1.52520025 0.031800136
v -0.0333999991 1.52650023 0.0260001272
v -0.0349000022 1.52520025 0.031800136
v -0.0433999822 1.53340018 0.0305000991
v -0.0340999886 1.54410028 0.0470000915
v -0.0371999703 1.54090023 0.0464001112
v -0.034600012 1.53980029 0.0476001315
v -0.0295000076 1.54410028 0.0478001125
v -0.0340999886 1.54410028 0.0470000915
v -0.0329999924 1.54140031 0.0480000824
v -0.0267000198 1.5291003 0.0445000976
v -0.0207999945 1.53490031 0.0457001179
v -0.0260999799 1.53670025 0.0482001118
v -0.0245000124 1.52620018 0.0397001281
v -0.016900003 1.53390026 0.0413000956
v -0.0207999945 1.53490031 0.0457001179
v -0.035300009 1.55300021 0.0326000899
v -0.0234000087 1.55310023 0.0347000808
v -0.0228000283 1.55230021 0.0288001075
v -0.035300009 1.55300021 0.0326000899
v -0.0358999893 1.55180025 0.0385001078
v -0.0249999762 1.55190027 0.0404001251
v -0.0371999703 1.54090023 0.0464001112
v -0.0371000096 1.53650022 0.0462000817
v -0.034600012 1.53760028 0.0475001223
v -0.0339000225 1.53350031 0.0467000976
v -0.0328999758 1.53600025 0.0478001125
v -0.034600012 1.53760028 0.0475001223
v -0.0292999744 1.53350031 0.0475001186
v -0.0306000113 1.53610027 0.0483001322
v -0.0328999758 1.53600025 0.0478001125
v -0.0292999744 1.53350031 0.0475001186
v -0.0260999799 1.53670025 0.0482001118
v -0.0289999843 1.53760028 0.048500102
v -0.0260999799 1.53670025 0.0482001118
v -0.0261999965 1.54100025 0.0483001322
v -0.0289999843 1.53990018 0.0486001223
v -0.0289999843 1.53990018 0.0486001223
v -0.0261999965 1.54100025 0.0483001322
v -0.0295000076 1.54410028 0.0478001125
v -0.0329999924 1.54140031 0.0480000824
v -0.034600012 1.53980029 0.0476001315
v -0.0289999843 1.53990018 0.0486001223
v -0.034600012 1.53980029 0.0476001315
v -0.034600012 1.53760028 0.0475001223
v -0.0289999843 1.53760028 0.048500102
v -0.0289999843 1.53760028 0.048500102
v -0.034600012 1.53760028 0.0475001223
v -0.0328999758 1.53600025 0.0478001125
vt 0.489899993 0.606599987 0
vt 0.595899999 0.46419999 0
vt 0.610400021 0.487699986 0
vt 0.460099995 0.595799983 0
vt 0.577700019 0.441199988 0
vt 0.798200011 0.920400023 0
vt 0.631799996 0.870800018 0
vt 0.771399975 0.87470001 0
vt 0.663100004 0.800700009 0
vt 0.745199978 0.801199973 0
vt 0.607500017 0.74180001 0
vt 0.606299996 0.919700027 0
vt 0.537199974 0.775399983 0
vt 0.589699984 0.945100009 0
vt 0.4921 0.796999991 0
vt 0.578800023 0.971599996 0
vt 0.461699992 0.813799977 0
vt 0.964900017 0.584699988 0
vt 0.943700016 0.823400021 0
vt 0.947399974 0.591300011 0
vt 0.920099974 0.610499978 0
vt 0.909200013 0.803799987 0
vt 0.871699989 0.779699981 0
vt 0.801400006 0.744499981 0
vt 0.87379998 0.632499993 0
vt 0.81279999 0.459300011 0
vt 0.801500022 0.489399999 0
vt 0.811500013 0.943000019 0
vt 0.963999987 0.834599972 0
vt 0.826600015 0.966499984 0
vt 0.777100027 0.537400007 0
vt 0.664399981 0.605400026 0
vt 0.634500027 0.535600007 0
vt 0.43599999 0.828599989 0
vt 0.435799986 0.584200025 0
vt 0.801100016 0.663900018 0
vt 0.746500015 0.606899977 0
vt 0.536300004 0.629400015 0
vt 0.609200001 0.661800027 0
vt 0.820100009 0.436199993 0
vt 0.753799975 0.724799991 0
vt 0.724799991 0.753600001 0
vt 0.683799982 0.753000021 0
vt 0.753899992 0.683399975 0
vt 0.725300014 0.653999984 0
vt 0.655499995 0.682500005 0
vt 0.655200005 0.723699987 0
vt 0.202099994 0.0841999575 0
vt 0.0517999493 0.192399994 0
vt 0.0816000104 0.203199998 0
vt 0.169400007 0.0377999507 0
vt 0.187700003 0.0607999489 0
vt 0.363099992 0.471300006 0
vt 0.197999999 0.516200006 0
vt 0.389899999 0.516900003 0
vt 0.337000012 0.397799999 0
vt 0.2236 0.467400014 0
vt 0.199200004 0.338400006 0
vt 0.128900006 0.372000009 0
vt 0.0837999508 0.3935 0
vt 0.181500003 0.541700006 0
vt 0.0533999801 0.410299987 0
vt 0.0276999399 0.425199986 0
vt 0.170499995 0.568099976 0
vt 0.539099991 0.187900007 0
vt 0.555700004 0.431199998 0
vt 0.556599975 0.181299999 0
vt 0.500999987 0.400299996 0
vt 0.511900008 0.207100004 0
vt 0.463400006 0.376300007 0
vt 0.392800003 0.260500014 0
vt 0.393099993 0.341100007 0
vt 0.411900014 0.0326999985 0
vt 0.393299997 0.0859000012 0
vt 0.403200001 0.539499998 0
vt 0.535399973 0.419999987 0
vt 0.368800014 0.134000003 0
vt 0.226300001 0.132200003 0
vt 0.256199986 0.202000007 0
vt 0.465600014 0.229100004 0
vt 0.128000006 0.225899905 0
vt 0.200900003 0.258399993 0
vt 0.404500008 0.0557999611 0
vt 0.345499992 0.321399987 0
vt 0.316599995 0.350199997 0
vt 0.254799992 0.397300005 0
vt 0.275599986 0.349599987 0
vt 0.41839999 0.563000023 0
vt 0.345600009 0.279900014 0
vt 0.33829999 0.203500003 0
vt 0.317000002 0.25060001 0
vt 0.247199997 0.279100001 0
vt 0.27579999 0.250099987 0
vt 0.246999994 0.320300013 0
vt 0.684099972 0.653599977 0
vt 0.0275999904 0.180800006 0
vn -0.881207526 -0.375567585 0.287092865
vn -0.368421704 -0.92837882 -0.0487689115
vn -0.363358915 -0.874490917 0.321303785
vn -0.914739013 -0.395004392 -0.0849947482
vn -0.346580297 -0.903867722 -0.250809938
vn 0.314192712 0.854988694 0.412646919
vn -0.319111109 0.655343413 0.684611619
vn 0.210824803 0.655882418 0.724824786
vn -0.217941001 0.40884158 0.886199892
vn 0.0968372226 0.403096676 0.910019577
vn -0.470111907 0.15390636 0.869084418
vn -0.377094001 0.852246106 0.362597525
vn -0.717349529 0.26246357 0.645385683
vn -0.378960103 0.925411224 -0.00186159066
vn -0.882917404 0.348222911 0.314957023
vn -0.354821414 0.915345192 -0.190381452
vn -0.918414176 0.391774893 -0.0550260916
vn 0.917833984 -0.367420405 -0.150276408
vn 0.914844871 0.397391111 0.0716896728
vn 0.920696616 -0.385942996 0.0580165125
vn 0.830944419 -0.369830936 0.415640056
vn 0.828544676 0.353416383 0.43429324
vn 0.615968406 0.261213571 0.743202925
vn 0.345199108 0.148504853 0.926706016
vn 0.625440717 -0.307364136 0.717182875
vn 0.380176604 -0.924912393 -0.00167856645
vn 0.333209902 -0.870746672 0.361623377
vn 0.362202913 0.930502415 0.0545379892
vn 0.906810701 0.404742807 -0.117803283
vn 0.365554899 0.922890484 -0.121007264
vn 0.2209564 -0.698393285 0.68075335
vn -0.222913399 -0.457302123 0.860920727
vn -0.314561307 -0.700629115 0.640445232
vn -0.893453598 0.378531307 -0.241774186
vn -0.8881675 -0.378833801 -0.260083944
vn 0.349503785 -0.212107241 0.912610292
vn 0.101872303 -0.449422419 0.887491822
vn -0.713326573 -0.311906844 0.627598107
vn -0.473074108 -0.214426145 0.854530513
vn 0.390587211 -0.898674071 -0.199566349
vn 0.0880181119 0.0364096239 0.995453179
vn -0.000183115 0.167733654 0.985832393
vn -0.139868304 0.165504262 0.976240396
vn 0.0875585005 -0.108952247 0.990183294
vn -0.0128179695 -0.200693339 0.979570329
vn -0.231274605 -0.116125643 0.965933204
vn -0.231181204 0.0428180173 0.971968114
vn 0.292312592 -0.870834112 0.39522326
vn 0.9114905 -0.381918997 0.152718678
vn 0.788131773 -0.362081617 0.497740179
vn 0.410608411 -0.898644626 -0.154397741
vn 0.383926809 -0.922583997 0.0379348472
vn -0.396234304 0.659373224 0.638925195
vn 0.260972708 0.858362377 0.441709518
vn -0.41595301 0.851408303 0.319510818
vn -0.329301804 0.396749169 0.856825829
vn 0.138895407 0.662156761 0.736380816
vn 0.243938893 0.158180252 0.956803501
vn 0.523774981 0.282793373 0.803546906
vn 0.768876612 0.365897655 0.524354696
vn 0.355757207 0.929509878 0.0972022787
vn 0.897848725 0.401665092 0.180369318
vn 0.917858005 0.396838099 -0.00750760455
vn 0.377581686 0.921919525 -0.0865825042
vn -0.900287807 -0.397666007 -0.177042216
vn -0.854361773 0.383477032 -0.350729674
vn -0.845738173 -0.381332874 -0.373245418
vn -0.910729229 0.344258696 0.228163019
vn -0.90067029 -0.386764497 0.198005885
vn -0.784049273 0.251939476 0.567268312
vn -0.556800425 -0.216506332 0.801934183
vn -0.565404773 0.137246266 0.813314915
vn -0.315815598 -0.904536486 -0.286486417
vn -0.396535099 -0.875715971 0.275465667
vn -0.37838009 0.924861372 -0.0382102877
vn -0.907729506 0.386982113 -0.162086889
vn -0.369345903 -0.70405221 0.606542766
vn 0.152839407 -0.696292043 0.701297045
vn 0.0121161304 -0.45177722 0.892048597
vn -0.777482271 -0.313495517 0.545198977
vn 0.54363358 -0.296705037 0.785129905
vn 0.243451297 -0.193888247 0.950336218
vn -0.357502192 -0.929219007 -0.0935109556
vn -0.319810897 0.0220348388 0.947225094
vn -0.243512303 0.117223956 0.962787807
vn 0.00836223271 0.401296258 0.915910184
vn -0.100681096 0.13562496 0.985631526
vn -0.341814786 0.914934278 -0.214610755
vn -0.324085295 -0.103094548 0.940393686
vn -0.322190791 -0.454460829 0.830456913
vn -0.241501004 -0.184826344 0.952636719
vn -0.0226145294 -0.0987288728 0.994857371
vn -0.1113327 -0.152746841 0.981974423
vn -0.0181586109 0.0343639962 0.999244511
vn -0.121312603 -0.196785942 0.972912371
vn 0.926904976 -0.373435408 -0.0373252146
f 1/1/1 2/2/2 3/3/3
f 4/4/4 5/5/5 6/2/2
f 7/6/6 8/7/7 9/8/8
f 10/8/8 11/9/9 12/10/10
f 13/7/7 14/11/11 15/9/9
f 16/12/12 17/13/13 18/7/7
f 19/14/14 20/15/15 21/12/12
f 22/16/16 23/17/17 24/14/14
f 25/18/18 26/19/19 27/20/20
f 28/21/21 29/19/19 30/22/22
f 31/23/23 32/21/21 33/22/22
f 34/24/24 35/25/25 36/23/23
f 37/8/8 38/24/24 39/23/23
f 40/6/6 41/23/23 42/22/22
f 43/5/5 44/26/26 45/2/2
f 46/3/3 47/26/26 48/27/27
f 49/28/28 50/22/22 51/19/19
f 52/28/28 53/29/29 54/30/30
f 55/31/31 56/3/3 57/27/27
f 58/31/31 59/32/32 60/33/33
f 61/4/4 62/34/34 63/35/35
f 64/1/1 65/17/17 66/4/4
f 67/31/31 68/36/36 69/37/37
f 70/25/25 71/27/27 72/21/21
f 73/15/15 74/38/38 75/13/13
f 76/13/13 77/39/39 78/11/11
f 79/21/21 80/26/26 81/20/20
f 82/40/40 83/20/20 84/26/26
f 85/41/41 86/10/10 87/42/42
f 88/42/42 89/9/9 90/43/43
f 91/33/33 92/39/39 93/38/38
f 94/3/3 95/38/38 96/1/1
f 97/16/16 98/28/28 99/30/30
f 100/28/28 101/12/12 102/6/6
f 103/24/24 104/44/44 105/36/36
f 106/44/44 107/37/37 108/36/36
f 109/45/45 110/32/32 111/37/37
f 112/32/32 113/46/46 114/39/39
f 115/47/47 116/39/39 117/46/46
f 118/47/47 119/9/9 120/11/11
f 121/43/43 122/41/41 123/42/42
f 124/47/47 125/44/44 126/41/41
f 127/46/46 128/45/45 129/44/44
f 130/48/48 131/49/49 132/50/50
f 133/51/51 134/49/49 135/52/52
f 136/53/53 137/54/54 138/55/55
f 139/56/56 140/57/57 141/53/53
f 142/57/57 143/58/58 144/59/59
f 145/54/54 146/59/59 147/60/60
f 148/61/61 149/60/60 150/62/62
f 151/61/61 152/63/63 153/64/64
f 154/65/65 155/66/66 156/67/67
f 157/68/68 158/65/65 159/69/69
f 160/69/69 161/70/70 162/68/68
f 163/70/70 164/71/71 165/72/72
f 166/53/53 167/72/72 168/56/56
f 169/55/55 170/70/70 171/53/53
f 172/52/52 173/73/73 174/51/51
f 175/74/74 176/52/52 177/48/48
f 178/75/75 179/68/68 180/55/55
f 181/75/75 182/66/66 183/76/76
f 184/77/77 185/48/48 186/78/78
f 187/79/79 188/77/77 189/78/78
f 190/49/49 191/63/63 192/62/62
f 193/50/50 194/62/62 195/60/60
f 196/77/77 197/71/71 198/80/80
f 199/80/80 200/74/74 201/77/77
f 202/81/81 203/60/60 204/59/59
f 205/82/82 206/59/59 207/58/58
f 208/69/69 209/83/83 210/74/74
f 211/73/73 212/65/65 213/67/67
f 214/56/56 215/84/84 216/85/85
f 217/86/86 218/85/85 219/87/87
f 220/78/78 221/82/82 222/79/79
f 223/48/48 224/81/81 225/78/78
f 226/75/75 227/64/64 228/88/88
f 229/75/75 230/54/54 231/61/61
f 232/72/72 233/89/89 234/84/84
f 235/90/90 236/89/89 237/71/71
f 238/79/79 239/91/91 240/90/90
f 241/79/79 242/92/92 243/93/93
f 244/82/82 245/94/94 246/92/92
f 247/94/94 248/86/86 249/87/87
f 250/85/85 251/94/94 252/87/87
f 253/84/84 254/92/92 255/94/94
f 256/92/92 257/91/91 258/93/93
f 259/1/1 260/4/4 261/2/2
f 262/4/4 263/35/35 264/5/5
f 265/6/6 266/12/12 267/7/7
f 268/8/8 269/7/7 270/9/9
f 271/7/7 272/13/13 273/11/11
f 274/12/12 275/15/15 276/13/13
f 277/14/14 278/17/17 279/15/15
f 280/16/16 281/34/34 282/17/17
f 283/18/18 284/29/29 285/19/19
f 286/21/21 287/20/20 288/19/19
f 289/23/23 290/25/25 291/21/21
f 292/24/24 293/36/36 294/25/25
f 295/8/8 296/10/10 297/24/24
f 298/6/6 299/8/8 300/23/23
f 301/5/5 302/40/40 303/26/26
f 304/3/3 305/2/2 306/26/26
f 307/28/28 308/6/6 309/22/22
f 310/28/28 311/19/19 312/29/29
f 313/31/31 314/33/33 315/3/3
f 316/31/31 317/37/37 318/32/32
f 319/4/4 320/17/17 321/34/34
f 322/1/1 323/15/15 324/17/17
f 325/31/31 326/25/25 327/36/36
f 328/25/25 329/31/31 330/27/27
f 331/15/15 332/1/1 333/38/38
f 334/13/13 335/38/38 336/39/39
f 337/21/21 338/27/27 339/26/26
f 340/40/40 341/18/18 342/20/20
f 343/41/41 344/24/24 345/10/10
f 346/42/42 347/10/10 348/9/9
f 349/33/33 350/32/32 351/39/39
f 352/3/3 353/33/33 354/38/38
f 355/16/16 356/14/14 357/28/28
f 358/28/28 359/14/14 360/12/12
f 361/24/24 362/41/41 363/44/44
f 364/44/44 365/45/45 366/37/37
f 367/45/45 368/95/95 369/32/32
f 370/32/32 371/95/95 372/46/46
f 373/47/47 374/11/11 375/39/39
f 376/47/47 377/43/43 378/9/9
f 379/43/43 380/47/47 381/41/41
f 382/47/47 383/46/46 384/44/44
f 385/46/46 386/95/95 387/45/45
f 388/48/48 389/52/52 390/49/49
f 391/51/51 392/96/96 393/49/49
f 394/53/53 395/57/57 396/54/54
f 397/56/56 398/86/86 399/57/57
f 400/57/57 401/86/86 402/58/58
f 403/54/54 404/57/57 405/59/59
f 406/61/61 407/54/54 408/60/60
f 409/61/61 410/62/62 411/63/63
f 412/65/65 413/76/76 414/66/66
f 415/68/68 416/76/76 417/65/65
f 418/69/69 419/80/80 420/70/70
f 421/70/70 422/80/80 423/71/71
f 424/53/53 425/70/70 426/72/72
f 427/55/55 428/68/68 429/70/70
f 430/52/52 431/83/83 432/73/73
f 433/74/74 434/83/83 435/52/52
f 436/75/75 437/76/76 438/68/68
f 439/75/75 440/88/88 441/66/66
f 442/77/77 443/74/74 444/48/48
f 445/79/79 446/90/90 447/77/77
f 448/49/49 449/96/96 450/63/63
f 451/50/50 452/49/49 453/62/62
f 454/77/77 455/90/90 456/71/71
f 457/80/80 458/69/69 459/74/74
f 460/81/81 461/50/50 462/60/60
f 463/82/82 464/81/81 465/59/59
f 466/69/69 467/65/65 468/83/83
f 469/73/73 470/83/83 471/65/65
f 472/56/56 473/72/72 474/84/84
f 475/86/86 476/56/56 477/85/85
f 478/78/78 479/81/81 480/82/82
f 481/48/48 482/50/50 483/81/81
f 484/75/75 485/61/61 486/64/64
f 487/75/75 488/55/55 489/54/54
f 490/72/72 491/71/71 492/89/89
f 493/90/90 494/91/91 495/89/89
f 496/79/79 497/93/93 498/91/91
f 499/79/79 500/82/82 501/92/92
f 502/82/82 503/58/58 504/94/94
f 505/94/94 506/58/58 507/86/86
f 508/85/85 509/84/84 510/94/94
f 511/84/84 512/89/89 513/92/92
f 514/92/92 515/89/89 516/91/91
