# MuJoCo material-split OBJ
v 0.0296999812 1.54230022 0.0574000925
v 0.02700001 1.54250026 0.0552000813
v 0.0303000212 1.54240024 0.0550001115
v 0.0393000171 1.53920019 0.0531000905
v 0.0411999822 1.53870022 0.0544001311
v 0.0403000116 1.53960025 0.0555001311
v 0.0163000189 1.53620028 0.0519001335
v 0.0168999992 1.5356003 0.0532001108
v 0.0177999698 1.53580022 0.0513000935
v 0.023199968 1.54180026 0.0545000918
v 0.0263000093 1.54230022 0.0571001023
v 0.0225999914 1.54160023 0.0563000925
v 0.0337999985 1.53530025 0.053500101
v 0.03549999 1.53580022 0.0547001213
v 0.0357000194 1.53600025 0.0520000905
v 0.0184999704 1.53530025 0.0536001213
v 0.0206999704 1.53520024 0.052800104
v 0.0191000104 1.53550029 0.0517001003
v 0.0386000201 1.53980029 0.0503001139
v 0.0393000171 1.53920019 0.0531000905
v 0.0382000208 1.53980029 0.0542001016
v 0.0163999684 1.53840029 0.0521001108
v 0.0174000189 1.53920019 0.0537000708
v 0.0159999691 1.53820026 0.0531000905
v 0.0303000212 1.53490031 0.0546000972
v 0.033399988 1.53500021 0.0559000783
v 0.0337999985 1.53530025 0.053500101
v 0.0268999897 1.53490031 0.0545000881
v 0.0232999884 1.53490031 0.0558001176
v 0.0265999995 1.53470027 0.0569001287
v 0.0390999913 1.53920019 0.0503001139
v 0.0397999808 1.53870022 0.052400101
v 0.0393000171 1.53920019 0.0531000905
v 0.0303000212 1.54240024 0.0550001115
v 0.0328000113 1.54180026 0.0569001324
v 0.0296999812 1.54230022 0.0574000925
v 0.023199968 1.54180026 0.0545000918
v 0.0192999803 1.54040027 0.0550001115
v 0.0196999907 1.54060018 0.0533001311
v 0.0268999897 1.53490031 0.0545000881
v 0.0300999805 1.53460026 0.0568001084
v 0.0303000212 1.53490031 0.0546000972
v 0.023800008 1.53490031 0.0541000776
v 0.0205000006 1.53510022 0.0544001274
v 0.0232999884 1.53490031 0.0558001176
v 0.0328000113 1.54180026 0.0569001324
v 0.0351999998 1.54240024 0.0584000833
v 0.0325999781 1.5429002 0.0590001233
v 0.033599969 1.54200017 0.0538000911
v 0.035300009 1.54110026 0.0560001023
v 0.0328000113 1.54180026 0.0569001324
v 0.0159999691 1.53820026 0.0531000905
v 0.0152000114 1.53760028 0.0519001335
v 0.0163999684 1.53840029 0.0521001108
v 0.0174000189 1.53920019 0.0537000708
v 0.0156000182 1.53830028 0.0539001115
v 0.0159999691 1.53820026 0.0531000905
v 0.0177999698 1.53580022 0.0513000935
v 0.0184999704 1.53530025 0.0536001213
v 0.0191000104 1.53550029 0.0517001003
v 0.035300009 1.54110026 0.0560001023
v 0.0371999703 1.54160023 0.057800103
v 0.0351999998 1.54240024 0.0584000833
v 0.0364000201 1.54120028 0.0519001335
v 0.0371000096 1.54040027 0.0551001318
v 0.035300009 1.54110026 0.0560001023
v 0.0357000194 1.53600025 0.0520000905
v 0.0371999703 1.5364002 0.0536001213
v 0.0371999703 1.53680027 0.0507001132
v 0.0196999907 1.54060018 0.0533001311
v 0.0174000189 1.53920019 0.0537000708
v 0.0178999901 1.53920019 0.0520000905
v 0.0371999703 1.53680027 0.0507001132
v 0.038500011 1.5371002 0.052800104
v 0.0382000208 1.53730023 0.0499001034
v 0.0382000208 1.53730023 0.0499001034
v 0.0393000171 1.53760028 0.0517001003
v 0.0389000103 1.53790021 0.0494000837
v 0.0378000103 1.54040027 0.0509000905
v 0.0382000208 1.53980029 0.0542001016
v 0.0371000096 1.54040027 0.0551001318
v 0.0192999803 1.54040027 0.0550001115
v 0.0168999992 1.53940022 0.0547001213
v 0.0174000189 1.53920019 0.0537000708
v 0.0296999812 1.54230022 0.0574000925
v 0.0325999781 1.5429002 0.0590001233
v 0.0295000002 1.54330027 0.0593001135
v 0.0382000208 1.53980029 0.0542001016
v 0.0403000116 1.53960025 0.0555001311
v 0.0389999673 1.54060018 0.0568001121
v 0.0225999914 1.54160023 0.0563000925
v 0.0188999698 1.54090023 0.0562001318
v 0.0192999803 1.54040027 0.0550001115
v 0.0159999691 1.53820026 0.0531000905
v 0.0148000084 1.53760028 0.053500101
v 0.0150999986 1.53760028 0.0527000912
v 0.0295000002 1.54330027 0.0593001135
v 0.0263000093 1.54230022 0.0571001023
v 0.0296999812 1.54230022 0.0574000925
v 0.0371000096 1.54040027 0.0551001318
v 0.0389999673 1.54060018 0.0568001121
v 0.0371999703 1.54160023 0.057800103
v 0.0263000093 1.54230022 0.0571001023
v 0.0221999809 1.54240024 0.0579001121
v 0.0225999914 1.54160023 0.0563000925
v 0.0152999684 1.53860021 0.0545000918
v 0.0143999979 1.53800023 0.0543001108
v 0.0145000182 1.53780019 0.0540001206
v 0.0397999808 1.54190028 0.0582001135
v 0.0429000184 1.54150021 0.0580000728
v 0.0406000018 1.54310024 0.0590001233
v 0.029399991 1.54450023 0.0603001006
v 0.0325999781 1.54540026 0.060800124
v 0.02920001 1.54550028 0.0609000809
v 0.0415999815 1.54040027 0.0569001324
v 0.0447000191 1.53960025 0.0566000827
v 0.0429000184 1.54150021 0.0580000728
v 0.02920001 1.54550028 0.0609000809
v 0.0256999694 1.5442003 0.0599000938
v 0.029399991 1.54450023 0.0603001006
v 0.03769999 1.54300022 0.058900103
v 0.0406000018 1.54310024 0.0590001233
v 0.0382000208 1.5443002 0.0596001036
v 0.0325999781 1.5443002 0.0601001233
v 0.0355999991 1.5450002 0.0604001135
v 0.0325999781 1.54540026 0.060800124
v 0.0185999796 1.54140031 0.0572001226
v 0.0163999684 1.54030025 0.0561001115
v 0.0166000091 1.53990018 0.0555001311
v 0.0353999697 1.54370022 0.0595000833
v 0.0382000208 1.5443002 0.0596001036
v 0.0355999991 1.5450002 0.0604001135
v 0.0256999694 1.5442003 0.0599000938
v 0.0217000209 1.54370022 0.059700124
v 0.0218999907 1.54310024 0.0590001233
v 0.0166000091 1.53990018 0.0555001311
v 0.0150999986 1.53890026 0.0550001115
v 0.0152999684 1.53860021 0.0545000918
v 0.0218999907 1.54310024 0.0590001233
v 0.0184000097 1.54190028 0.0581000932
v 0.0185999796 1.54140031 0.0572001226
v 0.0184999704 1.53530025 0.0536001213
v 0.0163999684 1.53480017 0.0541000776
v 0.0182999894 1.53440022 0.0546000972
v 0.0300999805 1.53460026 0.0568001084
v 0.0332000181 1.53390026 0.0570000783
v 0.033399988 1.53500021 0.0559000783
v 0.0232999884 1.53490031 0.0558001176
v 0.0203000307 1.53410017 0.0555001274
v 0.0231000111 1.53370023 0.0567000881
v 0.0182999894 1.53440022 0.0546000972
v 0.0205000006 1.53510022 0.0544001274
v 0.0184999704 1.53530025 0.0536001213
v 0.0265999995 1.53470027 0.0569001287
v 0.0231000111 1.53370023 0.0567000881
v 0.0264999792 1.53350031 0.0576001182
v 0.038500011 1.5371002 0.052800104
v 0.0407999679 1.5370003 0.0530000813
v 0.0393000171 1.53760028 0.0517001003
v 0.033399988 1.53500021 0.0559000783
v 0.0355999991 1.53460026 0.056200128
v 0.03549999 1.53580022 0.0547001213
v 0.03549999 1.53580022 0.0547001213
v 0.03769999 1.53540027 0.0550001115
v 0.0371999703 1.5364002 0.0536001213
v 0.0371999703 1.5364002 0.0536001213
v 0.0394999906 1.53620028 0.0542001016
v 0.038500011 1.5371002 0.052800104
v 0.0154999979 1.5357002 0.0531000905
v 0.0163999684 1.53480017 0.0541000776
v 0.0168999992 1.5356003 0.0532001108
v 0.0265999995 1.53470027 0.0569001287
v 0.0299999714 1.53360021 0.0577000789
v 0.0300999805 1.53460026 0.0568001084
v 0.0265999995 1.53230023 0.0578000993
v 0.0231000111 1.53160024 0.0572001189
v 0.0267000198 1.53130019 0.0579001084
v 0.0178999901 1.53290021 0.0554001182
v 0.0202000104 1.53330028 0.0559000783
v 0.0181000195 1.53370023 0.0550001077
v 0.0332999788 1.53230023 0.0572001189
v 0.0361999795 1.53180027 0.0568001084
v 0.0357999802 1.53300023 0.0566000789
v 0.0411000177 1.53400028 0.0546000972
v 0.0418999717 1.5363003 0.053500101
v 0.0404000208 1.53500021 0.0546000972
v 0.0404000208 1.53500021 0.0546000972
v 0.0388000011 1.53270018 0.0557001084
v 0.0411000177 1.53400028 0.0546000972
v 0.0382000208 1.53390026 0.0556000881
v 0.0361999795 1.53180027 0.0568001084
v 0.0388000011 1.53270018 0.0557001084
v 0.0145000182 1.53430021 0.0544001274
v 0.0161999986 1.53420031 0.0545000881
v 0.0145999715 1.53470027 0.0542000979
v 0.0181000195 1.53370023 0.0550001077
v 0.0159000084 1.53370023 0.0548000783
v 0.0178999901 1.53290021 0.0554001182
v 0.0267000198 1.53130019 0.0579001084
v 0.0302000009 1.53220022 0.0578000993
v 0.0265999995 1.53230023 0.0578000993
v 0.0231000111 1.53260028 0.0570000783
v 0.0202000104 1.53230023 0.0563000888
v 0.0231000111 1.53160024 0.0572001189
v 0.0303999707 1.53110027 0.0579001084
v 0.0332999788 1.53230023 0.0572001189
v 0.0302000009 1.53220022 0.0578000993
v 0.0168999992 1.53940022 0.0547001213
v 0.0152999684 1.53860021 0.0545000918
v 0.0156000182 1.53830028 0.0539001115
v 0.0260000192 1.54320025 0.0590001233
v 0.0218999907 1.54310024 0.0590001233
v 0.0221999809 1.54240024 0.0579001121
v 0.0351999998 1.54240024 0.0584000833
v 0.03769999 1.54300022 0.058900103
v 0.0353999697 1.54370022 0.0595000833
v 0.0188999698 1.54090023 0.0562001318
v 0.0166000091 1.53990018 0.0555001311
v 0.0168999992 1.53940022 0.0547001213
v 0.0325999781 1.5429002 0.0590001233
v 0.0353999697 1.54370022 0.0595000833
v 0.0325999781 1.5443002 0.0601001233
v 0.0371999703 1.54160023 0.057800103
v 0.0397999808 1.54190028 0.0582001135
v 0.03769999 1.54300022 0.058900103
v 0.029399991 1.54450023 0.0603001006
v 0.0260000192 1.54320025 0.0590001233
v 0.0295000002 1.54330027 0.0593001135
v 0.0403000116 1.53960025 0.0555001311
v 0.0428000018 1.53900027 0.0558001213
v 0.0415999815 1.54040027 0.0569001324
v 0.0295000002 1.54330027 0.0593001135
v 0.0325999781 1.5443002 0.0601001233
v 0.029399991 1.54450023 0.0603001006
v 0.0389999673 1.54060018 0.0568001121
v 0.0415999815 1.54040027 0.0569001324
v 0.0397999808 1.54190028 0.0582001135
v 0.0156000182 1.53830028 0.0539001115
v 0.0145000182 1.53780019 0.0540001206
v 0.0148000084 1.53760028 0.053500101
v 0.0221999809 1.54240024 0.0579001121
v 0.0185999796 1.54140031 0.0572001226
v 0.0188999698 1.54090023 0.0562001318
v 0.03769999 1.53540027 0.0550001115
v 0.0404000208 1.53500021 0.0546000972
v 0.0394999906 1.53620028 0.0542001016
v 0.0264999792 1.53350031 0.0576001182
v 0.0231000111 1.53260028 0.0570000783
v 0.0265999995 1.53230023 0.0578000993
v 0.0394999906 1.53620028 0.0542001016
v 0.0418999717 1.5363003 0.053500101
v 0.0407999679 1.5370003 0.0530000813
v 0.0265999995 1.53230023 0.0578000993
v 0.0299999714 1.53360021 0.0577000789
v 0.0264999792 1.53350031 0.0576001182
v 0.0332000181 1.53390026 0.0570000783
v 0.0357999802 1.53300023 0.0566000789
v 0.0355999991 1.53460026 0.056200128
v 0.0181000195 1.53370023 0.0550001077
v 0.0203000307 1.53410017 0.0555001274
v 0.0182999894 1.53440022 0.0546000972
v 0.0149999782 1.53510022 0.0539001077
v 0.0161999986 1.53420031 0.0545000881
v 0.0163999684 1.53480017 0.0541000776
v 0.0231000111 1.53370023 0.0567000881
v 0.0202000104 1.53330028 0.0559000783
v 0.0231000111 1.53260028 0.0570000783
v 0.0182999894 1.53440022 0.0546000972
v 0.0161999986 1.53420031 0.0545000881
v 0.0181000195 1.53370023 0.0550001077
v 0.0355999991 1.53460026 0.056200128
v 0.0382000208 1.53390026 0.0556000881
v 0.03769999 1.53540027 0.0550001115
v 0.0302000009 1.53220022 0.0578000993
v 0.0332000181 1.53390026 0.0570000783
v 0.0299999714 1.53360021 0.0577000789
v -0.0318000317 1.54200017 0.0478001125
v -0.0349000022 1.54180026 0.049300123
v -0.0349000022 1.54200017 0.0469000824
v -0.043099992 1.53860021 0.0428001061
v -0.0451999828 1.53800023 0.0436001271
v -0.0433999822 1.53810024 0.0420001
v -0.0205000043 1.53590024 0.0473000817
v -0.0213000178 1.53530025 0.0484000929
v -0.0199999809 1.53540027 0.048700083
v -0.0278000236 1.54140031 0.0481001027
v -0.0314999819 1.54190028 0.049800083
v -0.0318000317 1.54200017 0.0478001125
v -0.0397999808 1.53520024 0.0453001112
v -0.0378000103 1.53480017 0.0445000976
v -0.0393000208 1.53540027 0.0426000804
v -0.0249999762 1.53490031 0.0471001081
v -0.0230000019 1.53500021 0.0484000891
v -0.0231000185 1.53520024 0.0464001112
v -0.0416999981 1.53920019 0.0402000993
v -0.043099992 1.53860021 0.0428001061
v -0.0422999784 1.53860021 0.0401000753
v -0.0206999779 1.53810024 0.0475001223
v -0.0220000148 1.53890026 0.0488001034
v -0.0220000148 1.53890026 0.0470000915
v -0.034699969 1.53440022 0.0465001278
v -0.0379999802 1.53450024 0.0470000878
v -0.0350000188 1.53420031 0.0486001186
v -0.0313000083 1.53440022 0.047300078
v -0.0282000303 1.53450024 0.0493001193
v -0.0282000303 1.53450024 0.0476001278
v -0.0422999784 1.53860021 0.0401000753
v -0.0433999822 1.53810024 0.0420001
v -0.0425000116 1.53810024 0.0399001092
v -0.0349000022 1.54200017 0.0469000824
v -0.03769999 1.54130018 0.0481001027
v -0.0378000103 1.54150021 0.044900097
v -0.0242000222 1.54010022 0.0496001132
v -0.0278000236 1.54140031 0.0481001027
v -0.0242000222 1.54030025 0.0478001125
v -0.0313000083 1.53440022 0.047300078
v -0.0350000188 1.53420031 0.0486001186
v -0.0317000151 1.53420031 0.0496001095
v -0.0282000303 1.53450024 0.0476001278
v -0.0250999928 1.53470027 0.0487000793
v -0.0249999762 1.53490031 0.0471001081
v -0.03769999 1.54130018 0.0481001027
v -0.0404000208 1.54180026 0.0490001328
v -0.0400000215 1.54060018 0.0466000922
v -0.0378000103 1.54150021 0.044900097
v -0.0400000215 1.54060018 0.0466000922
v -0.0400000215 1.54070032 0.0424001068
v -0.0194000006 1.53730023 0.0475001223
v -0.0205000043 1.53800023 0.048500102
v -0.0206999779 1.53810024 0.0475001223
v -0.0203000307 1.53800023 0.0494000837
v -0.0220000148 1.53890026 0.0488001034
v -0.0205000043 1.53800023 0.048500102
v -0.0230000019 1.53500021 0.0484000891
v -0.0217999816 1.53550029 0.0464001112
v -0.0231000185 1.53520024 0.0464001112
v -0.0400000215 1.54060018 0.0466000922
v -0.0422999784 1.54100025 0.0478001125
v -0.0414999723 1.53980029 0.0453001112
v -0.0400000215 1.54070032 0.0424001068
v -0.0414999723 1.53980029 0.0453001112
v -0.0411000177 1.53990018 0.0410001054
v -0.0411000177 1.53590024 0.0439001173
v -0.0393000208 1.53540027 0.0426000804
v -0.0404000208 1.53620028 0.0410001054
v -0.0220000148 1.53890026 0.0488001034
v -0.0242000222 1.54030025 0.0478001125
v -0.0220000148 1.53890026 0.0470000915
v -0.0421999618 1.53650022 0.042700097
v -0.0404000208 1.53620028 0.0410001054
v -0.0411999822 1.53670025 0.0400001183
v -0.0411999822 1.53670025 0.0400001183
v -0.0428000018 1.5370003 0.0414001197
v -0.0421999618 1.53650022 0.042700097
v -0.0411000177 1.53990018 0.0410001054
v -0.0422999784 1.53920019 0.0441000909
v -0.0416999981 1.53920019 0.0402000993
v -0.0217999816 1.53920019 0.049800083
v -0.0242000222 1.54010022 0.0496001132
v -0.0220000148 1.53890026 0.0488001034
v -0.0349000022 1.54180026 0.049300123
v -0.0381000005 1.54240024 0.0501000732
v -0.03769999 1.54130018 0.0481001027
v -0.0422999784 1.53920019 0.0441000909
v -0.0447000191 1.53900027 0.044900097
v -0.043099992 1.53860021 0.0428001061
v -0.0241000056 1.54060018 0.0508001335
v -0.0278000236 1.54130018 0.0500001237
v -0.0242000222 1.54010022 0.0496001132
v -0.0205000043 1.53800023 0.048500102
v -0.0195000172 1.53740025 0.0492001027
v -0.0203000307 1.53800023 0.0494000837
v -0.0314999819 1.54190028 0.049800083
v -0.0350999795 1.54280031 0.0512000807
v -0.0349000022 1.54180026 0.049300123
v -0.0414999723 1.53980029 0.0453001112
v -0.0436999723 1.5400002 0.0465001315
v -0.0422999784 1.53920019 0.0441000909
v -0.0278000236 1.54200017 0.0517001003
v -0.0314999819 1.54190028 0.049800083
v -0.0278000236 1.54130018 0.0500001237
v -0.0202000141 1.53840029 0.0501000732
v -0.019299984 1.53780019 0.0501000732
v -0.0200999975 1.53870022 0.0506001003
v -0.0448999926 1.54130018 0.0476001315
v -0.0478000008 1.54080021 0.0467001013
v -0.0461999699 1.53980029 0.0460001118
v -0.035300009 1.54400027 0.0522001237
v -0.0386000201 1.5449003 0.0519001335
v -0.0383999906 1.54370022 0.0512000807
v -0.0478000008 1.54080021 0.0467001013
v -0.0472000204 1.53830028 0.0446001068
v -0.0461999699 1.53980029 0.0460001118
v -0.0315999985 1.54370022 0.052800104
v -0.035300009 1.5450002 0.0529001206
v -0.035300009 1.54400027 0.0522001237
v -0.0429999828 1.54240024 0.0488001034
v -0.0457999706 1.54250026 0.0482001118
v -0.0448999926 1.54130018 0.0476001315
v -0.0383999906 1.54370022 0.0512000807
v -0.0414000079 1.54440022 0.0508001335
v -0.0410000011 1.54320025 0.0500001237
v -0.021600008 1.5400002 0.0513000935
v -0.0241000056 1.54110026 0.0519001335
v -0.0217000246 1.53960025 0.0508001335
v -0.0410000011 1.54320025 0.0500001237
v -0.0436999723 1.54370022 0.0494000837
v -0.0429999828 1.54240024 0.0488001034
v -0.027700007 1.54330027 0.053500101
v -0.0315999985 1.54370022 0.052800104
v -0.027700007 1.54270017 0.0529001206
v -0.0200999975 1.53870022 0.0506001003
v -0.0217000246 1.53960025 0.0508001335
v -0.0202000141 1.53840029 0.0501000732
v -0.023999989 1.54160023 0.052800104
v -0.027700007 1.54270017 0.0529001206
v -0.0241000056 1.54110026 0.0519001335
v -0.0230000019 1.53500021 0.0484000891
v -0.0210000277 1.53450024 0.0495000891
v -0.0213000178 1.53530025 0.0484000929
v -0.0350000188 1.53420031 0.0486001186
v -0.0381000005 1.53340018 0.048100099
v -0.0350999795 1.53310025 0.0495000891
v -0.0282000303 1.53450024 0.0493001193
v -0.0252000093 1.53370023 0.0498000793
v -0.0250999928 1.53470027 0.0487000793
v -0.0250999928 1.53470027 0.0487000793
v -0.0230000019 1.53410017 0.0495000891
v -0.0230000019 1.53500021 0.0484000891
v -0.0317000151 1.53420031 0.0496001095
v -0.0282000303 1.53330028 0.0503001101
v -0.0282000303 1.53450024 0.0493001193
v -0.0421999618 1.53650022 0.042700097
v -0.0444999896 1.5364002 0.0424001068
v -0.0434999987 1.5356003 0.0438001007
v -0.0401999876 1.53400028 0.0467000976
v -0.0379999802 1.53450024 0.0470000878
v -0.0397999808 1.53520024 0.0453001112
v -0.0418999717 1.53480017 0.045000121
v -0.0397999808 1.53520024 0.0453001112
v -0.0411000177 1.53590024 0.0439001173
v -0.0434999987 1.5356003 0.0438001007
v -0.0411000177 1.53590024 0.0439001173
v -0.0421999618 1.53650022 0.042700097
v -0.0199999809 1.53540027 0.048700083
v -0.0210000277 1.53450024 0.0495000891
v -0.0195999742 1.53490031 0.0496001095
v -0.0317000151 1.53420031 0.0496001095
v -0.0350999795 1.53310025 0.0495000891
v -0.0317000151 1.53310025 0.0503001101
v -0.0318999887 1.53180027 0.05050008
v -0.0282999873 1.53120029 0.0508001298
v -0.0282999873 1.53230023 0.0506000966
v -0.0252000093 1.53290021 0.0502000898
v -0.0228000283 1.53260028 0.0503001101
v -0.0228999853 1.53340018 0.0499000996
v -0.040899992 1.53120029 0.0472001284
v -0.0382000208 1.53180027 0.0483001284
v -0.0404999778 1.53250027 0.0470000878
v -0.0457000099 1.5356003 0.0425001159
v -0.04509997 1.53340018 0.0438001007
v -0.0444999896 1.53440022 0.0440001264
v -0.04509997 1.53340018 0.0438001007
v -0.0425999686 1.53330028 0.0455000773
v -0.0444999896 1.53440022 0.0440001264
v -0.0432000086 1.5321002 0.0455000773
v -0.0404999778 1.53250027 0.0470000878
v -0.0425999686 1.53330028 0.0455000773
v -0.0210000277 1.53390026 0.0498000793
v -0.0194000006 1.53410017 0.0502000898
v -0.0194000006 1.53440022 0.05000012
v -0.0228999853 1.53340018 0.0499000996
v -0.0207999945 1.53340018 0.0502000898
v -0.0210000277 1.53390026 0.0498000793
v -0.0353999697 1.53170025 0.0497001298
v -0.0318999887 1.53080022 0.0506000966
v -0.0318999887 1.53180027 0.05050008
v -0.0282999873 1.53230023 0.0506000966
v -0.0253000259 1.53190029 0.0506000966
v -0.0252000093 1.53290021 0.0502000898
v -0.0382000208 1.53180027 0.0483001284
v -0.0355999991 1.53070021 0.0497001298
v -0.0353999697 1.53170025 0.0497001298
v -0.0202000141 1.53840029 0.0501000732
v -0.0217999816 1.53920019 0.049800083
v -0.0203000307 1.53800023 0.0494000837
v -0.027700007 1.54270017 0.0529001206
v -0.0317000151 1.54280031 0.0518001206
v -0.0278000236 1.54200017 0.0517001003
v -0.0404000208 1.54180026 0.0490001328
v -0.0429999828 1.54240024 0.0488001034
v -0.0422999784 1.54100025 0.0478001125
v -0.0217000246 1.53960025 0.0508001335
v -0.0241000056 1.54060018 0.0508001335
v -0.0217999816 1.53920019 0.049800083
v -0.0381000005 1.54240024 0.0501000732
v -0.0410000011 1.54320025 0.0500001237
v -0.0404000208 1.54180026 0.0490001328
v -0.0422999784 1.54100025 0.0478001125
v -0.0448999926 1.54130018 0.0476001315
v -0.0436999723 1.5400002 0.0465001315
v -0.0317000151 1.54280031 0.0518001206
v -0.035300009 1.54400027 0.0522001237
v -0.0350999795 1.54280031 0.0512000807
v -0.0447000191 1.53900027 0.044900097
v -0.0472000204 1.53830028 0.0446001068
v -0.0451999828 1.53800023 0.0436001271
v -0.0350999795 1.54280031 0.0512000807
v -0.0383999906 1.54370022 0.0512000807
v -0.0381000005 1.54240024 0.0501000732
v -0.0436999723 1.5400002 0.0465001315
v -0.0461999699 1.53980029 0.0460001118
v -0.0447000191 1.53900027 0.044900097
v -0.0203000307 1.53800023 0.0494000837
v -0.019299984 1.53750026 0.0497001335
v -0.0202000141 1.53840029 0.0501000732
v -0.0241000056 1.54110026 0.0519001335
v -0.0278000236 1.54200017 0.0517001003
v -0.0241000056 1.54060018 0.0508001335
v -0.0444999896 1.53440022 0.0440001264
v -0.0418999717 1.53480017 0.045000121
v -0.0434999987 1.5356003 0.0438001007
v -0.0317000151 1.53310025 0.0503001101
v -0.0282999873 1.53230023 0.0506000966
v -0.0282000303 1.53330028 0.0503001101
v -0.0434999987 1.5356003 0.0438001007
v -0.0457000099 1.5356003 0.0425001159
v -0.0444999896 1.53440022 0.0440001264
v -0.0350999795 1.53310025 0.0495000891
v -0.0318999887 1.53180027 0.05050008
v -0.0317000151 1.53310025 0.0503001101
v -0.0404999778 1.53250027 0.0470000878
v -0.0381000005 1.53340018 0.048100099
v -0.0401999876 1.53400028 0.0467000976
v -0.0252000093 1.53370023 0.0498000793
v -0.0228999853 1.53340018 0.0499000996
v -0.0230000019 1.53410017 0.0495000891
v -0.0210000277 1.53450024 0.0495000891
v -0.0194000006 1.53440022 0.05000012
v -0.0195999742 1.53490031 0.0496001095
v -0.0282000303 1.53330028 0.0503001101
v -0.0252000093 1.53290021 0.0502000898
v -0.0252000093 1.53370023 0.0498000793
v -0.0230000019 1.53410017 0.0495000891
v -0.0210000277 1.53390026 0.0498000793
v -0.0210000277 1.53450024 0.0495000891
v -0.0425999686 1.53330028 0.0455000773
v -0.0401999876 1.53400028 0.0467000976
v -0.0418999717 1.53480017 0.045000121
v -0.0350999795 1.53310025 0.0495000891
v -0.0382000208 1.53180027 0.0483001284
v -0.0353999697 1.53170025 0.0497001298
v 0.0296999812 1.54230022 0.0574000925
v 0.0263000093 1.54230022 0.0571001023
v 0.02700001 1.54250026 0.0552000813
v 0.0393000171 1.53920019 0.0531000905
v 0.0397999808 1.53870022 0.052400101
v 0.0411999822 1.53870022 0.0544001311
v 0.0163000189 1.53620028 0.0519001335
v 0.0154999979 1.5357002 0.0531000905
v 0.0168999992 1.5356003 0.0532001108
v 0.023199968 1.54180026 0.0545000918
v 0.02700001 1.54250026 0.0552000813
v 0.0263000093 1.54230022 0.0571001023
v 0.0337999985 1.53530025 0.053500101
v 0.033399988 1.53500021 0.0559000783
v 0.03549999 1.53580022 0.0547001213
v 0.0184999704 1.53530025 0.0536001213
v 0.0205000006 1.53510022 0.0544001274
v 0.0206999704 1.53520024 0.052800104
v 0.0386000201 1.53980029 0.0503001139
v 0.0390999913 1.53920019 0.0503001139
v 0.0393000171 1.53920019 0.0531000905
v 0.0163999684 1.53840029 0.0521001108
v 0.0178999901 1.53920019 0.0520000905
v 0.0174000189 1.53920019 0.0537000708
v 0.0303000212 1.53490031 0.0546000972
v 0.0300999805 1.53460026 0.0568001084
v 0.033399988 1.53500021 0.0559000783
v 0.0268999897 1.53490031 0.0545000881
v 0.023800008 1.53490031 0.0541000776
v 0.0232999884 1.53490031 0.0558001176
v 0.0390999913 1.53920019 0.0503001139
v 0.0393999815 1.53870022 0.0502000935
v 0.0397999808 1.53870022 0.052400101
v 0.0303000212 1.54240024 0.0550001115
v 0.033599969 1.54200017 0.0538000911
v 0.0328000113 1.54180026 0.0569001324
v 0.023199968 1.54180026 0.0545000918
v 0.0225999914 1.54160023 0.0563000925
v 0.0192999803 1.54040027 0.0550001115
v 0.0268999897 1.53490031 0.0545000881
v 0.0265999995 1.53470027 0.0569001287
v 0.0300999805 1.53460026 0.0568001084
v 0.023800008 1.53490031 0.0541000776
v 0.0206999704 1.53520024 0.052800104
v 0.0205000006 1.53510022 0.0544001274
v 0.0328000113 1.54180026 0.0569001324
v 0.035300009 1.54110026 0.0560001023
v 0.0351999998 1.54240024 0.0584000833
v 0.033599969 1.54200017 0.0538000911
v 0.0364000201 1.54120028 0.0519001335
v 0.035300009 1.54110026 0.0560001023
v 0.0159999691 1.53820026 0.0531000905
v 0.0150999986 1.53760028 0.0527000912
v 0.0152000114 1.53760028 0.0519001335
v 0.0174000189 1.53920019 0.0537000708
v 0.0168999992 1.53940022 0.0547001213
v 0.0156000182 1.53830028 0.0539001115
v 0.0177999698 1.53580022 0.0513000935
v 0.0168999992 1.5356003 0.0532001108
v 0.0184999704 1.53530025 0.0536001213
v 0.035300009 1.54110026 0.0560001023
v 0.0371000096 1.54040027 0.0551001318
v 0.0371999703 1.54160023 0.057800103
v 0.0364000201 1.54120028 0.0519001335
v 0.0378000103 1.54040027 0.0509000905
v 0.0371000096 1.54040027 0.0551001318
v 0.0357000194 1.53600025 0.0520000905
v 0.03549999 1.53580022 0.0547001213
v 0.0371999703 1.5364002 0.0536001213
v 0.0196999907 1.54060018 0.0533001311
v 0.0192999803 1.54040027 0.0550001115
v 0.0174000189 1.53920019 0.0537000708
v 0.0371999703 1.53680027 0.0507001132
v 0.0371999703 1.5364002 0.0536001213
v 0.038500011 1.5371002 0.052800104
v 0.0382000208 1.53730023 0.0499001034
v 0.038500011 1.5371002 0.052800104
v 0.0393000171 1.53760028 0.0517001003
v 0.0378000103 1.54040027 0.0509000905
v 0.0386000201 1.53980029 0.0503001139
v 0.0382000208 1.53980029 0.0542001016
v 0.0192999803 1.54040027 0.0550001115
v 0.0188999698 1.54090023 0.0562001318
v 0.0168999992 1.53940022 0.0547001213
v 0.0296999812 1.54230022 0.0574000925
v 0.0328000113 1.54180026 0.0569001324
v 0.0325999781 1.5429002 0.0590001233
v 0.0382000208 1.53980029 0.0542001016
v 0.0393000171 1.53920019 0.0531000905
v 0.0403000116 1.53960025 0.0555001311
v 0.0225999914 1.54160023 0.0563000925
v 0.0221999809 1.54240024 0.0579001121
v 0.0188999698 1.54090023 0.0562001318
v 0.0159999691 1.53820026 0.0531000905
v 0.0156000182 1.53830028 0.0539001115
v 0.0148000084 1.53760028 0.053500101
v 0.0295000002 1.54330027 0.0593001135
v 0.0260000192 1.54320025 0.0590001233
v 0.0263000093 1.54230022 0.0571001023
v 0.0371000096 1.54040027 0.0551001318
v 0.0382000208 1.53980029 0.0542001016
v 0.0389999673 1.54060018 0.0568001121
v 0.0263000093 1.54230022 0.0571001023
v 0.0260000192 1.54320025 0.0590001233
v 0.0221999809 1.54240024 0.0579001121
v 0.0152999684 1.53860021 0.0545000918
v 0.0150999986 1.53890026 0.0550001115
v 0.0143999979 1.53800023 0.0543001108
v 0.0397999808 1.54190028 0.0582001135
v 0.0415999815 1.54040027 0.0569001324
v 0.0429000184 1.54150021 0.0580000728
v 0.029399991 1.54450023 0.0603001006
v 0.0325999781 1.5443002 0.0601001233
v 0.0325999781 1.54540026 0.060800124
v 0.0415999815 1.54040027 0.0569001324
v 0.0428000018 1.53900027 0.0558001213
v 0.0447000191 1.53960025 0.0566000827
v 0.02920001 1.54550028 0.0609000809
v 0.0253999792 1.5450002 0.0606000908
v 0.0256999694 1.5442003 0.0599000938
v 0.03769999 1.54300022 0.058900103
v 0.0397999808 1.54190028 0.0582001135
v 0.0406000018 1.54310024 0.0590001233
v 0.0325999781 1.5443002 0.0601001233
v 0.0353999697 1.54370022 0.0595000833
v 0.0355999991 1.5450002 0.0604001135
v 0.0185999796 1.54140031 0.0572001226
v 0.0184000097 1.54190028 0.0581000932
v 0.0163999684 1.54030025 0.0561001115
v 0.0353999697 1.54370022 0.0595000833
v 0.03769999 1.54300022 0.058900103
v 0.0382000208 1.5443002 0.0596001036
v 0.0256999694 1.5442003 0.0599000938
v 0.0253999792 1.5450002 0.0606000908
v 0.0217000209 1.54370022 0.059700124
v 0.0166000091 1.53990018 0.0555001311
v 0.0163999684 1.54030025 0.0561001115
v 0.0150999986 1.53890026 0.0550001115
v 0.0218999907 1.54310024 0.0590001233
v 0.0217000209 1.54370022 0.059700124
v 0.0184000097 1.54190028 0.0581000932
v 0.0184999704 1.53530025 0.0536001213
v 0.0168999992 1.5356003 0.0532001108
v 0.0163999684 1.53480017 0.0541000776
v 0.0300999805 1.53460026 0.0568001084
v 0.0299999714 1.53360021 0.0577000789
v 0.0332000181 1.53390026 0.0570000783
v 0.0232999884 1.53490031 0.0558001176
v 0.0205000006 1.53510022 0.0544001274
v 0.0203000307 1.53410017 0.0555001274
v 0.0182999894 1.53440022 0.0546000972
v 0.0203000307 1.53410017 0.0555001274
v 0.0205000006 1.53510022 0.0544001274
v 0.0265999995 1.53470027 0.0569001287
v 0.0232999884 1.53490031 0.0558001176
v 0.0231000111 1.53370023 0.0567000881
v 0.038500011 1.5371002 0.052800104
v 0.0394999906 1.53620028 0.0542001016
v 0.0407999679 1.5370003 0.0530000813
v 0.033399988 1.53500021 0.0559000783
v 0.0332000181 1.53390026 0.0570000783
v 0.0355999991 1.53460026 0.056200128
v 0.03549999 1.53580022 0.0547001213
v 0.0355999991 1.53460026 0.056200128
v 0.03769999 1.53540027 0.0550001115
v 0.0371999703 1.5364002 0.0536001213
v 0.03769999 1.53540027 0.0550001115
v 0.0394999906 1.53620028 0.0542001016
v 0.0154999979 1.5357002 0.0531000905
v 0.0149999782 1.53510022 0.0539001077
v 0.0163999684 1.53480017 0.0541000776
v 0.0265999995 1.53470027 0.0569001287
v 0.0264999792 1.53350031 0.0576001182
v 0.0299999714 1.53360021 0.0577000789
v 0.0265999995 1.53230023 0.0578000993
v 0.0231000111 1.53260028 0.0570000783
v 0.0231000111 1.53160024 0.0572001189
v 0.0178999901 1.53290021 0.0554001182
v 0.0202000104 1.53230023 0.0563000888
v 0.0202000104 1.53330028 0.0559000783
v 0.0332999788 1.53230023 0.0572001189
v 0.033399988 1.53120029 0.0574000888
v 0.0361999795 1.53180027 0.0568001084
v 0.0411000177 1.53400028 0.0546000972
v 0.043099992 1.53550029 0.0533001311
v 0.0418999717 1.5363003 0.053500101
v 0.0404000208 1.53500021 0.0546000972
v 0.0382000208 1.53390026 0.0556000881
v 0.0388000011 1.53270018 0.0557001084
v 0.0382000208 1.53390026 0.0556000881
v 0.0357999802 1.53300023 0.0566000789
v 0.0361999795 1.53180027 0.0568001084
v 0.0145000182 1.53430021 0.0544001274
v 0.0159000084 1.53370023 0.0548000783
v 0.0161999986 1.53420031 0.0545000881
v 0.0181000195 1.53370023 0.0550001077
v 0.0161999986 1.53420031 0.0545000881
v 0.0159000084 1.53370023 0.0548000783
v 0.0267000198 1.53130019 0.0579001084
v 0.0303999707 1.53110027 0.0579001084
v 0.0302000009 1.53220022 0.0578000993
v 0.0231000111 1.53260028 0.0570000783
v 0.0202000104 1.53330028 0.0559000783
v 0.0202000104 1.53230023 0.0563000888
v 0.0303999707 1.53110027 0.0579001084
v 0.033399988 1.53120029 0.0574000888
v 0.0332999788 1.53230023 0.0572001189
v 0.0168999992 1.53940022 0.0547001213
v 0.0166000091 1.53990018 0.0555001311
v 0.0152999684 1.53860021 0.0545000918
v 0.0260000192 1.54320025 0.0590001233
v 0.0256999694 1.5442003 0.0599000938
v 0.0218999907 1.54310024 0.0590001233
v 0.0351999998 1.54240024 0.0584000833
v 0.0371999703 1.54160023 0.057800103
v 0.03769999 1.54300022 0.058900103
v 0.0188999698 1.54090023 0.0562001318
v 0.0185999796 1.54140031 0.0572001226
v 0.0166000091 1.53990018 0.0555001311
v 0.0325999781 1.5429002 0.0590001233
v 0.0351999998 1.54240024 0.0584000833
v 0.0353999697 1.54370022 0.0595000833
v 0.0371999703 1.54160023 0.057800103
v 0.0389999673 1.54060018 0.0568001121
v 0.0397999808 1.54190028 0.0582001135
v 0.029399991 1.54450023 0.0603001006
v 0.0256999694 1.5442003 0.0599000938
v 0.0260000192 1.54320025 0.0590001233
v 0.0403000116 1.53960025 0.0555001311
v 0.0411999822 1.53870022 0.0544001311
v 0.0428000018 1.53900027 0.0558001213
v 0.0295000002 1.54330027 0.0593001135
v 0.0325999781 1.5429002 0.0590001233
v 0.0325999781 1.5443002 0.0601001233
v 0.0389999673 1.54060018 0.0568001121
v 0.0403000116 1.53960025 0.0555001311
v 0.0415999815 1.54040027 0.0569001324
v 0.0156000182 1.53830028 0.0539001115
v 0.0152999684 1.53860021 0.0545000918
v 0.0145000182 1.53780019 0.0540001206
v 0.0221999809 1.54240024 0.0579001121
v 0.0218999907 1.54310024 0.0590001233
v 0.0185999796 1.54140031 0.0572001226
v 0.03769999 1.53540027 0.0550001115
v 0.0382000208 1.53390026 0.0556000881
v 0.0404000208 1.53500021 0.0546000972
v 0.0264999792 1.53350031 0.0576001182
v 0.0231000111 1.53370023 0.0567000881
v 0.0231000111 1.53260028 0.0570000783
v 0.0394999906 1.53620028 0.0542001016
v 0.0404000208 1.53500021 0.0546000972
v 0.0418999717 1.5363003 0.053500101
v 0.0265999995 1.53230023 0.0578000993
v 0.0302000009 1.53220022 0.0578000993
v 0.0299999714 1.53360021 0.0577000789
v 0.0332000181 1.53390026 0.0570000783
v 0.0332999788 1.53230023 0.0572001189
v 0.0357999802 1.53300023 0.0566000789
v 0.0181000195 1.53370023 0.0550001077
v 0.0202000104 1.53330028 0.0559000783
v 0.0203000307 1.53410017 0.0555001274
v 0.0149999782 1.53510022 0.0539001077
v 0.0145999715 1.53470027 0.0542000979
v 0.0161999986 1.53420031 0.0545000881
v 0.0231000111 1.53370023 0.0567000881
v 0.0203000307 1.53410017 0.0555001274
v 0.0202000104 1.53330028 0.0559000783
v 0.0182999894 1.53440022 0.0546000972
v 0.0163999684 1.53480017 0.0541000776
v 0.0161999986 1.53420031 0.0545000881
v 0.0355999991 1.53460026 0.056200128
v 0.0357999802 1.53300023 0.0566000789
v 0.0382000208 1.53390026 0.0556000881
v 0.0302000009 1.53220022 0.0578000993
v 0.0332999788 1.53230023 0.0572001189
v 0.0332000181 1.53390026 0.0570000783
v -0.0318000317 1.54200017 0.0478001125
v -0.0314999819 1.54190028 0.049800083
v -0.0349000022 1.54180026 0.049300123
v -0.043099992 1.53860021 0.0428001061
v -0.0447000191 1.53900027 0.044900097
v -0.0451999828 1.53800023 0.0436001271
v -0.0205000043 1.53590024 0.0473000817
v -0.0217999816 1.53550029 0.0464001112
v -0.0213000178 1.53530025 0.0484000929
v -0.0278000236 1.54140031 0.0481001027
v -0.0278000236 1.54130018 0.0500001237
v -0.0314999819 1.54190028 0.049800083
v -0.0397999808 1.53520024 0.0453001112
v -0.0379999802 1.53450024 0.0470000878
v -0.0378000103 1.53480017 0.0445000976
v -0.0249999762 1.53490031 0.0471001081
v -0.0250999928 1.53470027 0.0487000793
v -0.0230000019 1.53500021 0.0484000891
v -0.0416999981 1.53920019 0.0402000993
v -0.0422999784 1.53920019 0.0441000909
v -0.043099992 1.53860021 0.0428001061
v -0.0206999779 1.53810024 0.0475001223
v -0.0205000043 1.53800023 0.048500102
v -0.0220000148 1.53890026 0.0488001034
v -0.034699969 1.53440022 0.0465001278
v -0.0378000103 1.53480017 0.0445000976
v -0.0379999802 1.53450024 0.0470000878
v -0.0313000083 1.53440022 0.047300078
v -0.0317000151 1.53420031 0.0496001095
v -0.0282000303 1.53450024 0.0493001193
v -0.0422999784 1.53860021 0.0401000753
v -0.043099992 1.53860021 0.0428001061
v -0.0433999822 1.53810024 0.0420001
v -0.0349000022 1.54200017 0.0469000824
v -0.0349000022 1.54180026 0.049300123
v -0.03769999 1.54130018 0.0481001027
v -0.0242000222 1.54010022 0.0496001132
v -0.0278000236 1.54130018 0.0500001237
v -0.0278000236 1.54140031 0.0481001027
v -0.0313000083 1.53440022 0.047300078
v -0.034699969 1.53440022 0.0465001278
v -0.0350000188 1.53420031 0.0486001186
v -0.0282000303 1.53450024 0.0476001278
v -0.0282000303 1.53450024 0.0493001193
v -0.0250999928 1.53470027 0.0487000793
v -0.03769999 1.54130018 0.0481001027
v -0.0381000005 1.54240024 0.0501000732
v -0.0404000208 1.54180026 0.0490001328
v -0.0378000103 1.54150021 0.044900097
v -0.03769999 1.54130018 0.0481001027
v -0.0400000215 1.54060018 0.0466000922
v -0.0194000006 1.53730023 0.0475001223
v -0.0195000172 1.53730023 0.0484000929
v -0.0205000043 1.53800023 0.048500102
v -0.0203000307 1.53800023 0.0494000837
v -0.0217999816 1.53920019 0.049800083
v -0.0220000148 1.53890026 0.0488001034
v -0.0230000019 1.53500021 0.0484000891
v -0.0213000178 1.53530025 0.0484000929
v -0.0217999816 1.53550029 0.0464001112
v -0.0400000215 1.54060018 0.0466000922
v -0.0404000208 1.54180026 0.0490001328
v -0.0422999784 1.54100025 0.0478001125
v -0.0400000215 1.54070032 0.0424001068
v -0.0400000215 1.54060018 0.0466000922
v -0.0414999723 1.53980029 0.0453001112
v -0.0411000177 1.53590024 0.0439001173
v -0.0397999808 1.53520024 0.0453001112
v -0.0393000208 1.53540027 0.0426000804
v -0.0220000148 1.53890026 0.0488001034
v -0.0242000222 1.54010022 0.0496001132
v -0.0242000222 1.54030025 0.0478001125
v -0.0421999618 1.53650022 0.042700097
v -0.0411000177 1.53590024 0.0439001173
v -0.0404000208 1.53620028 0.0410001054
v -0.0411999822 1.53670025 0.0400001183
v -0.0416999981 1.53730023 0.0393001288
v -0.0428000018 1.5370003 0.0414001197
v -0.0411000177 1.53990018 0.0410001054
v -0.0414999723 1.53980029 0.0453001112
v -0.0422999784 1.53920019 0.0441000909
v -0.0217999816 1.53920019 0.049800083
v -0.0241000056 1.54060018 0.0508001335
v -0.0242000222 1.54010022 0.0496001132
v -0.0349000022 1.54180026 0.049300123
v -0.0350999795 1.54280031 0.0512000807
v -0.0381000005 1.54240024 0.0501000732
v -0.0422999784 1.53920019 0.0441000909
v -0.0436999723 1.5400002 0.0465001315
v -0.0447000191 1.53900027 0.044900097
v -0.0241000056 1.54060018 0.0508001335
v -0.0278000236 1.54200017 0.0517001003
v -0.0278000236 1.54130018 0.0500001237
v -0.0205000043 1.53800023 0.048500102
v -0.0195000172 1.53730023 0.0484000929
v -0.0195000172 1.53740025 0.0492001027
v -0.0314999819 1.54190028 0.049800083
v -0.0317000151 1.54280031 0.0518001206
v -0.0350999795 1.54280031 0.0512000807
v -0.0414999723 1.53980029 0.0453001112
v -0.0422999784 1.54100025 0.0478001125
v -0.0436999723 1.5400002 0.0465001315
v -0.0278000236 1.54200017 0.0517001003
v -0.0317000151 1.54280031 0.0518001206
v -0.0314999819 1.54190028 0.049800083
v -0.0202000141 1.53840029 0.0501000732
v -0.019299984 1.53750026 0.0497001335
v -0.019299984 1.53780019 0.0501000732
v -0.0448999926 1.54130018 0.0476001315
v -0.0457999706 1.54250026 0.0482001118
v -0.0478000008 1.54080021 0.0467001013
v -0.035300009 1.54400027 0.0522001237
v -0.035300009 1.5450002 0.0529001206
v -0.0386000201 1.5449003 0.0519001335
v -0.0478000008 1.54080021 0.0467001013
v -0.0491999909 1.53890026 0.044900097
v -0.0472000204 1.53830028 0.0446001068
v -0.0315999985 1.54370022 0.052800104
v -0.0315999985 1.54450023 0.053500101
v -0.035300009 1.5450002 0.0529001206
v -0.0429999828 1.54240024 0.0488001034
v -0.0436999723 1.54370022 0.0494000837
v -0.0457999706 1.54250026 0.0482001118
v -0.0383999906 1.54370022 0.0512000807
v -0.0386000201 1.5449003 0.0519001335
v -0.0414000079 1.54440022 0.0508001335
v -0.021600008 1.5400002 0.0513000935
v -0.023999989 1.54160023 0.052800104
v -0.0241000056 1.54110026 0.0519001335
v -0.0410000011 1.54320025 0.0500001237
v -0.0414000079 1.54440022 0.0508001335
v -0.0436999723 1.54370022 0.0494000837
v -0.027700007 1.54330027 0.053500101
v -0.0315999985 1.54450023 0.053500101
v -0.0315999985 1.54370022 0.052800104
v -0.0200999975 1.53870022 0.0506001003
v -0.021600008 1.5400002 0.0513000935
v -0.0217000246 1.53960025 0.0508001335
v -0.023999989 1.54160023 0.052800104
v -0.027700007 1.54330027 0.053500101
v -0.027700007 1.54270017 0.0529001206
v -0.0230000019 1.53500021 0.0484000891
v -0.0230000019 1.53410017 0.0495000891
v -0.0210000277 1.53450024 0.0495000891
v -0.0350000188 1.53420031 0.0486001186
v -0.0379999802 1.53450024 0.0470000878
v -0.0381000005 1.53340018 0.048100099
v -0.0282000303 1.53450024 0.0493001193
v -0.0282000303 1.53330028 0.0503001101
v -0.0252000093 1.53370023 0.0498000793
v -0.0250999928 1.53470027 0.0487000793
v -0.0252000093 1.53370023 0.0498000793
v -0.0230000019 1.53410017 0.0495000891
v -0.0317000151 1.53420031 0.0496001095
v -0.0317000151 1.53310025 0.0503001101
v -0.0282000303 1.53330028 0.0503001101
v -0.0421999618 1.53650022 0.042700097
v -0.0428000018 1.5370003 0.0414001197
v -0.0444999896 1.5364002 0.0424001068
v -0.0401999876 1.53400028 0.0467000976
v -0.0381000005 1.53340018 0.048100099
v -0.0379999802 1.53450024 0.0470000878
v -0.0418999717 1.53480017 0.045000121
v -0.0401999876 1.53400028 0.0467000976
v -0.0397999808 1.53520024 0.0453001112
v -0.0434999987 1.5356003 0.0438001007
v -0.0418999717 1.53480017 0.045000121
v -0.0411000177 1.53590024 0.0439001173
v -0.0199999809 1.53540027 0.048700083
v -0.0213000178 1.53530025 0.0484000929
v -0.0210000277 1.53450024 0.0495000891
v -0.0317000151 1.53420031 0.0496001095
v -0.0350000188 1.53420031 0.0486001186
v -0.0350999795 1.53310025 0.0495000891
v -0.0318999887 1.53180027 0.05050008
v -0.0318999887 1.53080022 0.0506000966
v -0.0282999873 1.53120029 0.0508001298
v -0.0252000093 1.53290021 0.0502000898
v -0.0253000259 1.53190029 0.0506000966
v -0.0228000283 1.53260028 0.0503001101
v -0.040899992 1.53120029 0.0472001284
v -0.0382999703 1.53070021 0.0485000983
v -0.0382000208 1.53180027 0.0483001284
v -0.0457000099 1.5356003 0.0425001159
v -0.0468000099 1.53480017 0.0421001166
v -0.04509997 1.53340018 0.0438001007
v -0.04509997 1.53340018 0.0438001007
v -0.0432000086 1.5321002 0.0455000773
v -0.0425999686 1.53330028 0.0455000773
v -0.0432000086 1.5321002 0.0455000773
v -0.040899992 1.53120029 0.0472001284
v -0.0404999778 1.53250027 0.0470000878
v -0.0210000277 1.53390026 0.0498000793
v -0.0207999945 1.53340018 0.0502000898
v -0.0194000006 1.53410017 0.0502000898
v -0.0228999853 1.53340018 0.0499000996
v -0.0228000283 1.53260028 0.0503001101
v -0.0207999945 1.53340018 0.0502000898
v -0.0353999697 1.53170025 0.0497001298
v -0.0355999991 1.53070021 0.0497001298
v -0.0318999887 1.53080022 0.0506000966
v -0.0282999873 1.53230023 0.0506000966
v -0.0282999873 1.53120029 0.0508001298
v -0.0253000259 1.53190029 0.0506000966
v -0.0382000208 1.53180027 0.0483001284
v -0.0382999703 1.53070021 0.0485000983
v -0.0355999991 1.53070021 0.0497001298
v -0.0202000141 1.53840029 0.0501000732
v -0.0217000246 1.53960025 0.0508001335
v -0.0217999816 1.53920019 0.049800083
v -0.027700007 1.54270017 0.0529001206
v -0.0315999985 1.54370022 0.052800104
v -0.0317000151 1.54280031 0.0518001206
v -0.0404000208 1.54180026 0.0490001328
v -0.0410000011 1.54320025 0.0500001237
v -0.0429999828 1.54240024 0.0488001034
v -0.0217000246 1.53960025 0.0508001335
v -0.0241000056 1.54110026 0.0519001335
v -0.0241000056 1.54060018 0.0508001335
v -0.0381000005 1.54240024 0.0501000732
v -0.0383999906 1.54370022 0.0512000807
v -0.0410000011 1.54320025 0.0500001237
v -0.0422999784 1.54100025 0.0478001125
v -0.0429999828 1.54240024 0.0488001034
v -0.0448999926 1.54130018 0.0476001315
v -0.0317000151 1.54280031 0.0518001206
v -0.0315999985 1.54370022 0.052800104
v -0.035300009 1.54400027 0.0522001237
v -0.0447000191 1.53900027 0.044900097
v -0.0461999699 1.53980029 0.0460001118
v -0.0472000204 1.53830028 0.0446001068
v -0.0350999795 1.54280031 0.0512000807
v -0.035300009 1.54400027 0.0522001237
v -0.0383999906 1.54370022 0.0512000807
v -0.0436999723 1.5400002 0.0465001315
v -0.0448999926 1.54130018 0.0476001315
v -0.0461999699 1.53980029 0.0460001118
v -0.0203000307 1.53800023 0.0494000837
v -0.0195000172 1.53740025 0.0492001027
v -0.019299984 1.53750026 0.0497001335
v -0.0241000056 1.54110026 0.0519001335
v -0.027700007 1.54270017 0.0529001206
v -0.0278000236 1.54200017 0.0517001003
v -0.0444999896 1.53440022 0.0440001264
v -0.0425999686 1.53330028 0.0455000773
v -0.0418999717 1.53480017 0.045000121
v -0.0317000151 1.53310025 0.0503001101
v -0.0318999887 1.53180027 0.05050008
v -0.0282999873 1.53230023 0.0506000966
v -0.0434999987 1.5356003 0.0438001007
v -0.0444999896 1.5364002 0.0424001068
v -0.0457000099 1.5356003 0.0425001159
v -0.0350999795 1.53310025 0.0495000891
v -0.0353999697 1.53170025 0.0497001298
v -0.0318999887 1.53180027 0.05050008
v -0.0404999778 1.53250027 0.0470000878
v -0.0382000208 1.53180027 0.0483001284
v -0.0381000005 1.53340018 0.048100099
v -0.0252000093 1.53370023 0.0498000793
v -0.0252000093 1.53290021 0.0502000898
v -0.0228999853 1.53340018 0.0499000996
v -0.0210000277 1.53450024 0.0495000891
v -0.0210000277 1.53390026 0.0498000793
v -0.0194000006 1.53440022 0.05000012
v -0.0282000303 1.53330028 0.0503001101
v -0.0282999873 1.53230023 0.0506000966
v -0.0252000093 1.53290021 0.0502000898
v -0.0230000019 1.53410017 0.0495000891
v -0.0228999853 1.53340018 0.0499000996
v -0.0210000277 1.53390026 0.0498000793
v -0.0425999686 1.53330028 0.0455000773
v -0.0404999778 1.53250027 0.0470000878
v -0.0401999876 1.53400028 0.0467000976
v -0.0350999795 1.53310025 0.0495000891
v -0.0381000005 1.53340018 0.048100099
v -0.0382000208 1.53180027 0.0483001284
vt 0.405600011 0.592599988 0
vt 0.346899986 0.568199992 0
vt 0.411500007 0.549099982 0
vt 0.587700009 0.483700007 0
vt 0.654100001 0.504800022 0
vt 0.632200003 0.533200026 0
vt 0.426899999 0.198899999 0
vt 0.443399996 0.158899993 0
vt 0.459300011 0.207499996 0
vt 0.266200006 0.565599978 0
vt 0.333999991 0.603299975 0
vt 0.255600005 0.597199976 0
vt 0.795099974 0.174899906 0
vt 0.838699996 0.154699996 0
vt 0.834699988 0.204699904 0
vt 0.475800008 0.148000002 0
vt 0.523199975 0.171800002 0
vt 0.484200001 0.193100005 0
vt 0.550700009 0.419200003 0
vt 0.573599994 0.499000013 0
vt 0.1043 0.530700028 0
vt 0.130199999 0.559700012 0
vt 0.0962999985 0.548799992 0
vt 0.723999977 0.148300007 0
vt 0.789900005 0.127399996 0
vt 0.651199996 0.143199995 0
vt 0.578999996 0.114399999 0
vt 0.645900011 0.102300003 0
vt 0.565599978 0.423400015 0
vt 0.595799983 0.469999999 0
vt 0.468699992 0.57069999 0
vt 0.182999998 0.578599989 0
vt 0.188099995 0.540300012 0
vt 0.721099973 0.106200002 0
vt 0.587700009 0.151199907 0
vt 0.518999994 0.130799994 0
vt 0.522899985 0.601300001 0
vt 0.470600009 0.622900009 0
vt 0.476000011 0.512399971 0
vt 0.519299984 0.542299986 0
vt 0.0699999928 0.525399983 0
vt 0.0911999866 0.567700028 0
vt 0.564499974 0.579400003 0
vt 0.515399992 0.461299986 0
vt 0.552900016 0.51819998 0
vt 0.869599998 0.179199904 0
vt 0.863799989 0.241899997 0
vt 0.139699906 0.522499979 0
vt 0.888100028 0.194199994 0
vt 0.876399994 0.259200007 0
vt 0.898299992 0.205899999 0
vt 0.887799978 0.271400005 0
vt 0.536599994 0.435200006 0
vt 0.126000002 0.584699988 0
vt 0.406699985 0.639999986 0
vt 0.600799978 0.557699978 0
vt 0.1796 0.60799998 0
vt 0.0689999983 0.558099985 0
vt 0.0734999701 0.541199982 0
vt 0.25150001 0.633000016 0
vt 0.0889999792 0.582899988 0
vt 0.0654999614 0.581399977 0
vt 0.0654999614 0.57099998 0
vt 0.619599998 0.591300011 0
vt 0.684499979 0.582099974 0
vt 0.63440001 0.615499973 0
vt 0.408600003 0.670099974 0
vt 0.476700008 0.681900024 0
vt 0.40990001 0.692600012 0
vt 0.661800027 0.561699986 0
vt 0.722899973 0.542200029 0
vt 0.333999991 0.673099995 0
vt 0.575699985 0.61500001 0
vt 0.585500002 0.641499996 0
vt 0.47389999 0.656499982 0
vt 0.534600019 0.664099991 0
vt 0.178800002 0.628000021 0
vt 0.126699999 0.617299974 0
vt 0.126100004 0.602800012 0
vt 0.529100001 0.637000024 0
vt 0.251599997 0.673300028 0
vt 0.2509 0.656400025 0
vt 0.0880999491 0.595499992 0
vt 0.179499999 0.643700004 0
vt 0.433400005 0.123999998 0
vt 0.471100003 0.109399997 0
vt 0.784600019 0.0906999707 0
vt 0.517099977 0.0944999978 0
vt 0.576799989 0.0790999532 0
vt 0.645600021 0.070299983 0
vt 0.927699983 0.175099999 0
vt 0.834999979 0.112199999 0
vt 0.874000013 0.1347 0
vt 0.906799972 0.157000005 0
vt 0.411599994 0.162499994 0
vt 0.719299972 0.0737000108 0
vt 0.646200001 0.0470999405 0
vt 0.575999975 0.0392999612 0
vt 0.646700025 0.0292999707 0
vt 0.467999995 0.0778999925 0
vt 0.515600026 0.074000001 0
vt 0.469300002 0.0908999965 0
vt 0.785099983 0.0615999587 0
vt 0.83890003 0.0557999611 0
vt 0.837000012 0.0806999803 0
vt 0.937099993 0.108199999 0
vt 0.950100005 0.161400005 0
vt 0.921800017 0.130199999 0
vt 0.89319998 0.0780000016 0
vt 0.881200016 0.103799902 0
vt 0.395799994 0.1193 0
vt 0.430400014 0.109399997 0
vt 0.394400001 0.128099993 0
vt 0.4278 0.0998999998 0
vt 0.720899999 0.0486999713 0
vt 0.576200008 0.0561999604 0
vt 0.515600026 0.0584999882 0
vt 0.722100019 0.0292999707 0
vt 0.333299994 0.646300018 0
vt 0.694999993 0.526899993 0
vt 0.399199992 0.139300004 0
vt 0.351300001 0.83829999 0
vt 0.409999996 0.862699986 0
vt 0.415800005 0.819199979 0
vt 0.592100024 0.753799975 0
vt 0.658500016 0.774900019 0
vt 0.600199997 0.740100026 0
vt 0.387699991 0.405800015 0
vt 0.404199988 0.365799993 0
vt 0.372399986 0.369399995 0
vt 0.270599991 0.835699975 0
vt 0.338400006 0.873399973 0
vt 0.799499989 0.361600012 0
vt 0.755900025 0.381799996 0
vt 0.79549998 0.411599994 0
vt 0.483900011 0.378699988 0
vt 0.4366 0.354900002 0
vt 0.444999993 0.400000006 0
vt 0.555100024 0.689300001 0
vt 0.569999993 0.693499982 0
vt 0.1087 0.800800025 0
vt 0.134499997 0.829900026 0
vt 0.144099995 0.792599976 0
vt 0.684800029 0.355300009 0
vt 0.750699997 0.334399998 0
vt 0.681800008 0.31310001 0
vt 0.611999989 0.350199997 0
vt 0.539799988 0.321399987 0
vt 0.548500001 0.358099997 0
vt 0.580799997 0.693199992 0
vt 0.473100007 0.840799987 0
vt 0.480399996 0.782500029 0
vt 0.187399998 0.848699987 0
vt 0.192399994 0.810400009 0
vt 0.606700003 0.309300005 0
vt 0.479799986 0.337799996 0
vt 0.527199984 0.871399999 0
vt 0.523699999 0.812399983 0
vt 0.519800007 0.73150003 0
vt 0.0742999911 0.79549998 0
vt 0.100699998 0.818899989 0
vt 0.0954999924 0.837800026 0
vt 0.420100003 0.414400011 0
vt 0.568799973 0.8495 0
vt 0.557299972 0.788299978 0
vt 0.540899992 0.705299973 0
vt 0.83039999 0.386099994 0
vt 0.824599981 0.448799998 0
vt 0.84890002 0.401199996 0
vt 0.837199986 0.466100007 0
vt 0.859099984 0.412900001 0
vt 0.577899992 0.76910001 0
vt 0.130400002 0.854799986 0
vt 0.474900007 0.893000007 0
vt 0.636500001 0.803300023 0
vt 0.184 0.878099978 0
vt 0.25999999 0.867299974 0
vt 0.073399961 0.828199983 0
vt 0.4111 0.910099983 0
vt 0.605199993 0.827799976 0
vt 0.255899996 0.903100014 0
vt 0.0934000015 0.852999985 0
vt 0.0697999522 0.851499975 0
vt 0.0924999714 0.86559999 0
vt 0.623899996 0.861400008 0
vt 0.688799977 0.852199972 0
vt 0.666199982 0.831799984 0
vt 0.412999988 0.940199971 0
vt 0.481000006 0.952099979 0
vt 0.478300005 0.926599979 0
vt 0.699400008 0.796999991 0
vt 0.338400006 0.943199992 0
vt 0.414299995 0.962700009 0
vt 0.579999983 0.885100007 0
vt 0.638800025 0.885599971 0
vt 0.538900018 0.934199989 0
vt 0.533500016 0.907100022 0
vt 0.131099895 0.887399971 0
vt 0.1831 0.898100019 0
vt 0.130400002 0.872900009 0
vt 0.589900017 0.911599994 0
vt 0.256000012 0.943400025 0
vt 0.255299985 0.926500022 0
vt 0.183899894 0.913800001 0
vt 0.394199997 0.330900013 0
vt 0.745400012 0.297600001 0
vt 0.680100024 0.280600011 0
vt 0.477899998 0.301400006 0
vt 0.431899995 0.316399992 0
vt 0.537599981 0.2861 0
vt 0.888499975 0.381999999 0
vt 0.867600024 0.363900006 0
vt 0.795799971 0.319099993 0
vt 0.834800005 0.341600001 0
vt 0.360000014 0.346199989 0
vt 0.606400013 0.277200013 0
vt 0.606999993 0.254000008 0
vt 0.536800027 0.246299997 0
vt 0.536899984 0.263200015 0
vt 0.476399988 0.280999988 0
vt 0.428799987 0.284799993 0
vt 0.430099994 0.297800004 0
vt 0.799700022 0.262699991 0
vt 0.745899975 0.2685 0
vt 0.797800004 0.287699997 0
vt 0.910899997 0.368299991 0
vt 0.897899985 0.315100014 0
vt 0.882499993 0.337199986 0
vt 0.842000008 0.310699999 0
vt 0.853999972 0.28490001 0
vt 0.391200006 0.316399992 0
vt 0.356599987 0.326200008 0
vt 0.355199993 0.335000008 0
vt 0.388599992 0.306800008 0
vt 0.681699991 0.255699992 0
vt 0.607500017 0.236200005 0
vt 0.476399988 0.265399992 0
vt 0.682900012 0.236200005 0
vt 0.337700009 0.916400015 0
vt 0.0697999522 0.841099977 0
vt 0.576399982 0.423099995 0
vt 0.334199995 0.691699982 0
vt 0.78609997 0.0390999913 0
vt 0.976999998 0.148300007 0
vt 0.0777999684 0.81129998 0
vt 0.84859997 0.478399992 0
vt 0.727299988 0.812300026 0
vt 0.33860001 0.961799979 0
vt 0.746900022 0.246000007 0
vt 0.93779999 0.355199993 0
vn -0.0703768134 -0.972091794 0.22379595
vn 0.0733678937 -0.995319426 -0.0628998652
vn -0.116430402 -0.990193009 -0.0772133842
vn -0.484251291 -0.862722516 0.145638451
vn -0.360588193 -0.846398115 0.391901284
vn -0.26548931 -0.851158917 0.452818066
vn 0.224497005 0.91999203 0.321272433
vn 0.0841106698 0.880019188 0.467431039
vn 0.221264705 0.955528021 0.194957152
vn 0.261852801 -0.964826882 -0.0232860222
vn 0.0674163625 -0.975935578 0.207376361
vn 0.194405496 -0.950176179 0.243663058
vn -0.244491607 0.966887891 0.0731552616
vn -0.131657794 0.925633371 0.354780436
vn -0.341841012 0.935980916 0.0841708481
vn 0.0171210095 0.913458586 0.406571627
vn 0.0757477805 0.993175089 0.0886878148
vn 0.139227197 0.979260027 0.147192642
vn -0.685269475 -0.728270471 -0.00527975056
vn -0.403675407 -0.905744195 0.129125953
vn 0.53201282 -0.842943728 0.0800520927
vn 0.464781612 -0.855522871 0.228163749
vn 0.519323409 -0.834378421 0.184705272
vn -0.0486477017 0.990686774 0.127173945
vn -0.0378125906 0.892182708 0.450089335
vn 0.0201119091 0.996350706 0.0829503983
vn -0.113957502 0.890968323 0.439532936
vn -0.0524625704 0.833724916 0.54968226
vn -0.789050281 -0.606971204 0.0947934017
vn -0.607756376 -0.779639721 0.150977671
vn -0.1445999 -0.968739808 0.201579154
vn 0.334523708 -0.913203001 0.232710749
vn 0.443441808 -0.895947814 0.0252391808
vn 0.0290847402 0.872511923 0.487726539
vn 0.0313429199 0.999373317 0.0164497234
vn -0.074375093 0.92820847 0.364550918
vn -0.0485562608 -0.76948458 0.636816919
vn -0.0215769392 -0.767066002 0.641205251
vn -0.281847388 -0.951994181 -0.119453348
vn -0.2551364 -0.950993717 0.174689054
vn 0.54004091 -0.839527786 0.0595737845
vn 0.422721088 -0.785624623 0.451775372
vn -0.1163086 -0.773142576 0.623476446
vn -0.475052595 -0.873778224 -0.104098938
vn -0.342638314 -0.926835477 0.153541654
vn -0.199991405 0.913710415 0.353746533
vn -0.384659708 0.91605401 0.113499634
vn 0.503841877 -0.850998104 0.148140267
vn -0.209391505 0.911696911 0.353502631
vn -0.474817306 0.866500616 0.154030338
vn -0.288042814 0.926601827 0.241744846
vn -0.550619721 0.810090423 0.201423928
vn -0.595223904 -0.800101995 -0.0744678676
vn 0.321433902 -0.817593277 0.477725476
vn -0.0337236486 -0.770028472 0.637117565
vn -0.160043806 -0.826740324 0.539339066
vn 0.197827399 -0.860528111 0.469420582
vn 0.453888088 -0.801751018 0.388820171
vn 0.513236403 -0.849859774 0.11969506
vn 0.0903071687 -0.857658982 0.506226838
vn 0.341577709 -0.747613072 0.569560647
vn 0.350604385 -0.723823488 0.594269454
vn 0.373766601 -0.737004101 0.563137114
vn -0.0345476791 -0.629885375 0.775919497
vn -0.0610076711 -0.641725779 0.764504015
vn -0.0137948897 -0.533912361 0.845427275
vn -0.0168771092 -0.579835474 0.814558923
vn 0.0281388704 -0.533845961 0.845113575
vn -0.01483237 -0.531188369 0.847123981
vn -0.113226399 -0.711098254 0.693915844
vn -0.0972352028 -0.65705508 0.747545421
vn 0.0131232701 -0.657782137 0.753093898
vn 0.00250255992 -0.555881262 0.831258118
vn 0.0375690386 -0.499934137 0.865248203
vn 0.0248732492 -0.580142975 0.814135015
vn 0.0695216581 -0.56978488 0.818848073
vn 0.165595993 -0.848916411 0.501915336
vn 0.176245898 -0.796204329 0.578788519
vn 0.233227104 -0.781838894 0.578215241
vn 0.0505097508 -0.601356268 0.79738301
vn 0.0687591434 -0.738466382 0.670775354
vn 0.0716887712 -0.783907473 0.616725147
vn 0.324176401 -0.746655524 0.580874443
vn 0.157143801 -0.839707792 0.519804537
vn -0.0180367194 0.66760385 0.74429822
vn -0.146338895 0.649659216 0.746007979
vn 0.151893899 0.426169485 0.891800404
vn -0.257001102 0.601256311 0.756598413
vn -0.249556407 0.434747666 0.865283787
vn -0.125343993 0.332877457 0.93460238
vn 0.0817904994 0.806155801 0.586023271
vn 0.173595697 0.546087921 0.819544017
vn 0.128730193 0.641545415 0.756206393
vn 0.0883532092 0.66809696 0.738810003
vn 0.0417500101 0.825204015 0.563289762
vn 0.0803260207 0.374102056 0.923902273
vn -0.1050459 0.120305352 0.987163603
vn -0.221262902 0.180855662 0.958297372
vn -0.0801115632 0.0903657749 0.992681324
vn -0.184882805 0.458758384 0.869113982
vn -0.272266001 0.405209661 0.872740686
vn -0.178690597 0.500242114 0.847247005
vn 0.176246896 0.162330151 0.970868707
vn 0.233378395 0.228312254 0.945202708
vn 0.240065604 0.236921951 0.941401303
vn 0.350054711 0.255323172 0.90126121
vn 0.292740792 0.451501966 0.842881203
vn 0.291548699 0.34312588 0.892896414
vn 0.309066206 0.229533553 0.922926009
vn 0.2828812 0.314285278 0.906202495
vn -0.0243847892 0.467797667 0.883499205
vn -0.0477931388 0.545501053 0.836746275
vn -0.000366227003 0.513481021 0.858100891
vn -0.0480676182 0.523861051 0.850446403
vn 0.0971127674 0.0994321778 0.990294099
vn -0.2415867 0.224435151 0.944068193
vn -0.255139589 0.341508567 0.904585779
vn 0.102573603 0.117161557 0.987801611
vn 0.00753813889 -0.798403502 0.602075756
vn -0.176830605 -0.726397216 0.664137125
vn 0.0442526899 0.661471069 0.748664081
vn -0.0393393598 -0.997951627 -0.0504484549
vn 0.0230419599 -0.9738065 0.22620815
vn 0.141880602 -0.986786187 -0.0782495514
vn 0.448782712 -0.855327129 0.258862585
vn 0.296644986 -0.815041184 0.497704268
vn 0.588042676 -0.7586447 0.280470878
vn -0.315143406 0.910546303 0.267563641
vn -0.204906002 0.884477496 0.419181526
vn -0.210309699 0.828756511 0.518587172
vn -0.234663501 -0.970516324 -0.0550569594
vn -0.0984561369 -0.975802422 0.195233658
vn 0.0138556296 0.919723213 0.392322928
vn 0.183266193 0.975110471 0.124791943
vn 0.338975489 0.928024411 0.15448764
vn -0.114692204 0.986969173 0.112861045
vn -0.128881902 0.916761994 0.378070116
vn -0.176246405 0.978556693 0.106602445
vn 0.659641385 -0.737098992 0.146827668
vn 0.743902028 -0.612456501 0.267407984
vn -0.520289779 -0.853894174 0.0127874231
vn -0.496239513 -0.85712707 0.138129056
vn -0.530574918 -0.847638071 -3.70514464e-08
vn 0.0176400505 0.994650424 0.101781443
vn -0.101322502 0.892523706 0.439471424
vn -0.145086601 0.872290015 0.466969043
vn -0.0448020585 0.996633112 0.0686681047
vn -0.0111699104 0.901469707 0.432698131
vn -0.0545980893 0.998361707 0.0171210524
vn 0.81377548 -0.464844525 0.348839372
vn 0.112156503 -0.968239307 0.223458558
vn 0.312793195 -0.948573112 -0.0486784317
vn -0.360860109 -0.917684495 0.166238561
vn -0.41972819 -0.903973699 -0.081607908
vn -0.0939695165 0.836020529 0.540591836
vn -0.0489528701 0.915119886 0.400199026
vn -0.0965914726 -0.77071768 0.629813015
vn 0.222513899 -0.948316574 0.226237148
vn 0.501764774 -0.864942312 0.010345892
vn -0.554047108 -0.832047224 -0.0270095766
vn -0.530656874 -0.845669508 0.0569781214
vn -0.522314429 -0.792261302 0.315451771
vn -0.265945286 0.953118324 0.14435634
vn -0.0328685008 -0.77758342 0.627920151
vn 0.320020109 -0.916723609 0.239175752
vn 0.644081771 -0.760940611 0.0782822594
vn 0.0986080691 0.908592403 0.405877233
vn 0.346356601 0.919253528 0.187110141
vn 0.0930532217 0.925496876 0.36714682
vn 0.404811293 0.871028006 0.278277218
vn 0.198987395 0.932676971 0.300861537
vn 0.379052192 -0.89968431 0.216535762
vn -0.429219097 -0.825416625 0.366685569
vn -0.116890296 -0.775474072 0.620464742
vn 0.166816801 -0.840309978 0.515801549
vn -0.30162251 -0.870502591 0.388907671
vn -0.230113894 -0.956743121 0.178017855
vn -0.541742325 -0.809149504 0.227579966
vn -0.109623 -0.777646184 0.619071126
vn 0.0332658216 -0.821178615 0.569700837
vn -0.2021299 -0.873861372 0.442164779
vn -0.457178205 -0.737833202 0.496578485
vn -0.471273392 -0.706818521 0.527550161
vn -0.395225108 -0.743602991 0.539306641
vn -0.143377706 -0.622340977 0.769502878
vn -0.104955196 -0.641878068 0.759590209
vn -0.0407121703 -0.710021675 0.703002155
vn -0.182047397 -0.604617178 0.775433421
vn -0.224193797 -0.523495436 0.822003484
vn -0.210094601 -0.593019962 0.777295172
vn 0.0230420195 -0.711618662 0.702188015
vn -0.192820996 -0.679329336 0.708047926
vn -0.202217802 -0.569634378 0.796633422
vn -0.204720899 -0.571802437 0.794437826
vn -0.181498393 -0.534301937 0.825578511
vn -0.255840391 -0.582942545 0.771183372
vn -0.233627602 -0.605600536 0.76070112
vn -0.230816901 -0.74778229 0.622531354
vn -0.257641196 -0.850502908 0.458547682
vn -0.339159906 -0.791759789 0.508022666
vn -0.241010606 -0.524473488 0.81660372
vn -0.192761704 -0.689559579 0.698104918
vn -0.196144506 -0.764466226 0.61409986
vn -0.237590998 -0.828471005 0.50713557
vn -0.185616598 0.629698515 0.754338205
vn -0.376913309 0.425011665 0.822983325
vn -0.292223096 0.402459085 0.867543876
vn 0.03839349 0.595771313 0.802236021
vn -0.0591453314 0.640527368 0.765654325
vn 0.0278947894 0.464629084 0.885065973
vn -0.251660496 0.774116993 0.580870032
vn -0.277754396 0.662478328 0.695683181
vn -0.390706509 0.539273858 0.74601078
vn -0.315322489 0.626555443 0.712741196
vn -0.240612298 0.665926039 0.706150174
vn -0.121070698 0.356894583 0.926265776
vn -0.145512998 0.138249561 0.979649425
vn -0.0196846109 0.171637654 0.984963477
vn 0.00341808703 0.233928949 0.97224772
vn 0.0413839184 0.404042661 0.913803518
vn -0.0456875488 0.431544781 0.900933802
vn -0.0418727882 0.472442269 0.880366504
vn -0.45388779 0.262560278 0.851497471
vn -0.419791102 0.175363049 0.890518606
vn -0.470113695 0.253948063 0.845282972
vn -0.498891801 0.435076863 0.749543309
vn -0.579095781 0.236155063 0.780306876
vn -0.519132495 0.335375965 0.786145389
vn -0.487184107 0.333182275 0.80724287
vn -0.5162341 0.262771279 0.815140307
vn -0.170665607 0.50757134 0.844538212
vn -0.267291814 0.534461439 0.801814318
vn -0.245500505 0.528753817 0.81249553
vn -0.190895602 0.545097828 0.816349804
vn -0.334946185 0.135473862 0.932447314
vn -0.149727896 0.0939995125 0.984248817
vn 0.0301831905 0.346725672 0.937480927
vn -0.35042581 0.0841729194 0.932800412
vn -0.152962193 -0.821332693 0.549559116
vn -0.493341297 -0.745490074 0.448172957
vn -0.833894372 -0.53069061 0.151617065
vn 0.0346087217 -0.650760949 0.758493721
vn 0.160561904 0.190653861 0.968437493
vn 0.349412709 0.30259648 0.886761725
vn -0.572720706 -0.819680989 0.0106815845
vn 0.466269404 0.808174014 0.359788626
vn -0.0827369615 -0.652557373 0.753208876
vn -0.202803105 -0.644727767 0.737019122
vn -0.402460307 0.198986962 0.893549204
vn -0.522245407 0.323748171 0.788953125
f 1/1/1 2/2/2 3/3/3
f 4/4/4 5/5/5 6/6/6
f 7/7/7 8/8/8 9/9/9
f 10/10/10 11/11/11 12/12/12
f 13/13/13 14/14/14 15/15/15
f 16/16/16 17/17/17 18/18/18
f 19/19/19 20/4/4 21/20/20
f 22/21/21 23/22/22 24/23/23
f 25/24/24 26/25/25 27/13/13
f 28/26/26 29/27/27 30/28/28
f 31/29/29 32/30/30 33/4/4
f 34/3/3 35/31/31 36/1/1
f 37/10/10 38/32/32 39/33/33
f 40/26/26 41/34/34 42/24/24
f 43/35/35 44/36/36 45/27/27
f 46/31/31 47/37/37 48/38/38
f 49/39/39 50/40/40 51/31/31
f 52/23/23 53/41/41 54/21/21
f 55/22/22 56/42/42 57/23/23
f 58/9/9 59/16/16 60/18/18
f 61/40/40 62/43/43 63/37/37
f 64/44/44 65/45/45 66/40/40
f 67/15/15 68/46/46 69/47/47
f 70/33/33 71/22/22 72/48/48
f 73/47/47 74/49/49 75/50/50
f 76/50/50 77/51/51 78/52/52
f 79/53/53 80/20/20 81/45/45
f 82/32/32 83/54/54 84/22/22
f 85/1/1 86/38/38 87/55/55
f 88/20/20 89/6/6 90/56/56
f 91/12/12 92/57/57 93/32/32
f 94/23/23 95/58/58 96/59/59
f 97/55/55 98/11/11 99/1/1
f 100/45/45 101/56/56 102/43/43
f 103/11/11 104/60/60 105/12/12
f 106/61/61 107/62/62 108/63/63
f 109/64/64 110/65/65 111/66/66
f 112/67/67 113/68/68 114/69/69
f 115/70/70 116/71/71 117/65/65
f 118/69/69 119/72/72 120/67/67
f 121/73/73 122/66/66 123/74/74
f 124/75/75 125/76/76 126/68/68
f 127/77/77 128/78/78 129/79/79
f 130/80/80 131/74/74 132/76/76
f 133/72/72 134/81/81 135/82/82
f 136/79/79 137/83/83 138/61/61
f 139/82/82 140/84/84 141/77/77
f 142/16/16 143/85/85 144/86/86
f 145/34/34 146/87/87 147/25/25
f 148/27/27 149/88/88 150/89/89
f 151/86/86 152/36/36 153/16/16
f 154/28/28 155/89/89 156/90/90
f 157/49/49 158/91/91 159/51/51
f 160/25/25 161/92/92 162/14/14
f 163/14/14 164/93/93 165/46/46
f 166/46/46 167/94/94 168/49/49
f 169/95/95 170/85/85 171/8/8
f 172/28/28 173/96/96 174/34/34
f 175/97/97 176/98/98 177/99/99
f 178/100/100 179/101/101 180/102/102
f 181/103/103 182/104/104 183/105/105
f 184/106/106 185/107/107 186/108/108
f 187/108/108 188/109/109 189/106/106
f 190/110/110 191/104/104 192/109/109
f 193/111/111 194/112/112 195/113/113
f 196/102/102 197/114/114 198/100/100
f 199/99/99 200/115/115 201/97/97
f 202/116/116 203/117/117 204/98/98
f 205/118/118 206/103/103 207/115/115
f 208/54/54 209/61/61 210/42/42
f 211/119/119 212/82/82 213/60/60
f 214/37/37 215/73/73 216/80/80
f 217/57/57 218/79/79 219/54/54
f 220/38/38 221/80/80 222/75/75
f 223/43/43 224/64/64 225/73/73
f 226/67/67 227/119/119 228/55/55
f 229/6/6 230/120/120 231/70/70
f 232/55/55 233/75/75 234/67/67
f 235/56/56 236/70/70 237/64/64
f 238/42/42 239/63/63 240/58/58
f 241/60/60 242/77/77 243/57/57
f 244/93/93 245/108/108 246/94/94
f 247/90/90 248/116/116 249/97/97
f 250/94/94 251/107/107 252/91/91
f 253/97/97 254/96/96 255/90/90
f 256/87/87 257/105/105 258/92/92
f 259/102/102 260/88/88 261/86/86
f 262/121/121 263/112/112 264/85/85
f 265/89/89 266/101/101 267/116/116
f 268/86/86 269/112/112 270/102/102
f 271/92/92 272/110/110 273/93/93
f 274/115/115 275/87/87 276/96/96
f 277/122/122 278/123/123 279/124/124
f 280/125/125 281/126/126 282/127/127
f 283/128/128 284/129/129 285/130/130
f 286/131/131 287/132/132 288/122/122
f 289/133/133 290/134/134 291/135/135
f 292/136/136 293/137/137 294/138/138
f 295/139/139 296/125/125 297/140/140
f 298/141/141 299/142/142 300/143/143
f 301/144/144 302/145/145 303/146/146
f 304/147/147 305/148/148 306/149/149
f 307/140/140 308/127/127 309/150/150
f 310/124/124 311/151/151 312/152/152
f 313/153/153 314/131/131 315/154/154
f 316/147/147 317/146/146 318/155/155
f 319/149/149 320/156/156 321/136/136
f 322/151/151 323/157/157 324/158/158
f 325/152/152 326/158/158 327/159/159
f 328/160/160 329/161/161 330/141/141
f 331/162/162 332/142/142 333/161/161
f 334/137/137 335/163/163 336/138/138
f 337/158/158 338/164/164 339/165/165
f 340/159/159 341/165/165 342/166/166
f 343/167/167 344/135/135 345/168/168
f 346/142/142 347/154/154 348/143/143
f 349/169/169 350/168/168 351/170/170
f 352/170/170 353/171/171 354/169/169
f 355/166/166 356/172/172 357/139/139
f 358/173/173 359/153/153 360/142/142
f 361/123/123 362/174/174 363/151/151
f 364/172/172 365/175/175 366/125/125
f 367/176/176 368/177/177 369/153/153
f 370/161/161 371/178/178 372/162/162
f 373/132/132 374/179/179 375/123/123
f 376/165/165 377/180/180 378/172/172
f 379/181/181 380/132/132 381/177/177
f 382/182/182 383/183/183 384/184/184
f 385/185/185 386/186/186 387/187/187
f 388/188/188 389/189/189 390/190/190
f 391/186/186 392/191/191 393/187/187
f 394/192/192 395/193/193 396/188/188
f 397/194/194 398/195/195 399/185/185
f 400/190/190 401/196/196 402/197/197
f 403/198/198 404/199/199 405/200/200
f 406/197/197 407/201/201 408/194/194
f 409/202/202 410/192/192 411/203/203
f 412/184/184 413/200/200 414/182/182
f 415/204/204 416/203/203 417/199/199
f 418/137/137 419/205/205 420/129/129
f 421/146/146 422/206/206 423/207/207
f 424/148/148 425/208/208 426/156/156
f 427/156/156 428/209/209 429/137/137
f 430/155/155 431/210/210 432/148/148
f 433/169/169 434/211/211 435/212/212
f 436/213/213 437/145/145 438/133/133
f 439/214/214 440/133/133 441/167/167
f 442/212/212 443/167/167 444/169/169
f 445/130/130 446/205/205 447/215/215
f 448/155/155 449/207/207 450/216/216
f 451/217/217 452/218/218 453/219/219
f 454/220/220 455/221/221 456/222/222
f 457/223/223 458/224/224 459/225/225
f 460/226/226 461/227/227 462/228/228
f 463/227/227 464/229/229 465/228/228
f 466/230/230 467/225/225 468/229/229
f 469/231/231 470/232/232 471/233/233
f 472/222/222 473/234/234 474/231/231
f 475/235/235 476/236/236 477/217/217
f 478/219/219 479/237/237 480/220/220
f 481/224/224 482/238/238 483/235/235
f 484/182/182 485/173/173 486/162/162
f 487/203/203 488/239/239 489/181/181
f 490/157/157 491/194/194 492/164/164
f 493/200/200 494/176/176 495/173/173
f 496/174/174 497/197/197 498/157/157
f 499/164/164 500/185/185 501/180/180
f 502/239/239 503/188/188 504/179/179
f 505/175/175 506/191/191 507/126/126
f 508/179/179 509/190/190 510/174/174
f 511/180/180 512/187/187 513/175/175
f 514/162/162 515/240/240 516/182/182
f 517/199/199 518/181/181 519/176/176
f 520/228/228 521/214/214 522/212/212
f 523/216/216 524/219/219 525/210/210
f 526/212/212 527/226/226 528/228/228
f 529/207/207 530/217/217 531/216/216
f 532/225/225 533/206/206 534/213/213
f 535/208/208 536/222/222 537/209/209
f 538/205/205 539/233/233 540/215/215
f 541/210/210 542/220/220 543/208/208
f 544/209/209 545/231/231 546/205/205
f 547/229/229 548/213/213 549/214/214
f 550/207/207 551/224/224 552/235/235
f 553/1/1 554/11/11 555/2/2
f 556/4/4 557/30/30 558/5/5
f 559/7/7 560/95/95 561/8/8
f 562/10/10 563/2/2 564/11/11
f 565/13/13 566/25/25 567/14/14
f 568/16/16 569/36/36 570/17/17
f 571/19/19 572/29/29 573/4/4
f 574/21/21 575/48/48 576/22/22
f 577/24/24 578/34/34 579/25/25
f 580/26/26 581/35/35 582/27/27
f 583/29/29 584/241/241 585/30/30
f 586/3/3 587/39/39 588/31/31
f 589/10/10 590/12/12 591/32/32
f 592/26/26 593/28/28 594/34/34
f 595/35/35 596/17/17 597/36/36
f 598/31/31 599/40/40 600/37/37
f 601/39/39 602/44/44 603/40/40
f 604/23/23 605/59/59 606/41/41
f 607/22/22 608/54/54 609/42/42
f 610/9/9 611/8/8 612/16/16
f 613/40/40 614/45/45 615/43/43
f 616/44/44 617/53/53 618/45/45
f 619/15/15 620/14/14 621/46/46
f 622/33/33 623/32/32 624/22/22
f 625/47/47 626/46/46 627/49/49
f 628/50/50 629/49/49 630/51/51
f 631/53/53 632/19/19 633/20/20
f 634/32/32 635/57/57 636/54/54
f 637/1/1 638/31/31 639/38/38
f 640/20/20 641/4/4 642/6/6
f 643/12/12 644/60/60 645/57/57
f 646/23/23 647/42/42 648/58/58
f 649/55/55 650/119/119 651/11/11
f 652/45/45 653/20/20 654/56/56
f 655/11/11 656/119/119 657/60/60
f 658/61/61 659/83/83 660/62/62
f 661/64/64 662/70/70 663/65/65
f 664/67/67 665/75/75 666/68/68
f 667/70/70 668/120/120 669/71/71
f 670/69/69 671/242/242 672/72/72
f 673/73/73 674/64/64 675/66/66
f 676/75/75 677/80/80 678/76/76
f 679/77/77 680/84/84 681/78/78
f 682/80/80 683/73/73 684/74/74
f 685/72/72 686/242/242 687/81/81
f 688/79/79 689/78/78 690/83/83
f 691/82/82 692/81/81 693/84/84
f 694/16/16 695/8/8 696/85/85
f 697/34/34 698/96/96 699/87/87
f 700/27/27 701/36/36 702/88/88
f 703/86/86 704/88/88 705/36/36
f 706/28/28 707/27/27 708/89/89
f 709/49/49 710/94/94 711/91/91
f 712/25/25 713/87/87 714/92/92
f 715/14/14 716/92/92 717/93/93
f 718/46/46 719/93/93 720/94/94
f 721/95/95 722/121/121 723/85/85
f 724/28/28 725/90/90 726/96/96
f 727/97/97 728/116/116 729/98/98
f 730/100/100 731/117/117 732/101/101
f 733/103/103 734/243/243 735/104/104
f 736/106/106 737/244/244 738/107/107
f 739/108/108 740/110/110 741/109/109
f 742/110/110 743/105/105 744/104/104
f 745/111/111 746/114/114 747/112/112
f 748/102/102 749/112/112 750/114/114
f 751/99/99 752/118/118 753/115/115
f 754/116/116 755/101/101 756/117/117
f 757/118/118 758/243/243 759/103/103
f 760/54/54 761/79/79 762/61/61
f 763/119/119 764/72/72 765/82/82
f 766/37/37 767/43/43 768/73/73
f 769/57/57 770/77/77 771/79/79
f 772/38/38 773/37/37 774/80/80
f 775/43/43 776/56/56 777/64/64
f 778/67/67 779/72/72 780/119/119
f 781/6/6 782/5/5 783/120/120
f 784/55/55 785/38/38 786/75/75
f 787/56/56 788/6/6 789/70/70
f 790/42/42 791/61/61 792/63/63
f 793/60/60 794/82/82 795/77/77
f 796/93/93 797/110/110 798/108/108
f 799/90/90 800/89/89 801/116/116
f 802/94/94 803/108/108 804/107/107
f 805/97/97 806/115/115 807/96/96
f 808/87/87 809/103/103 810/105/105
f 811/102/102 812/101/101 813/88/88
f 814/121/121 815/113/113 816/112/112
f 817/89/89 818/88/88 819/101/101
f 820/86/86 821/85/85 822/112/112
f 823/92/92 824/105/105 825/110/110
f 826/115/115 827/103/103 828/87/87
f 829/122/122 830/132/132 831/123/123
f 832/125/125 833/175/175 834/126/126
f 835/128/128 836/163/163 837/129/129
f 838/131/131 839/177/177 840/132/132
f 841/133/133 842/145/145 843/134/134
f 844/136/136 845/156/156 846/137/137
f 847/139/139 848/172/172 849/125/125
f 850/141/141 851/161/161 852/142/142
f 853/144/144 854/134/134 855/145/145
f 856/147/147 857/155/155 858/148/148
f 859/140/140 860/125/125 861/127/127
f 862/124/124 863/123/123 864/151/151
f 865/153/153 866/177/177 867/131/131
f 868/147/147 869/144/144 870/146/146
f 871/149/149 872/148/148 873/156/156
f 874/151/151 875/174/174 876/157/157
f 877/152/152 878/151/151 879/158/158
f 880/160/160 881/245/245 882/161/161
f 883/162/162 884/173/173 885/142/142
f 886/137/137 887/129/129 888/163/163
f 889/158/158 890/157/157 891/164/164
f 892/159/159 893/158/158 894/165/165
f 895/167/167 896/133/133 897/135/135
f 898/142/142 899/153/153 900/154/154
f 901/169/169 902/167/167 903/168/168
f 904/170/170 905/246/246 906/171/171
f 907/166/166 908/165/165 909/172/172
f 910/173/173 911/176/176 912/153/153
f 913/123/123 914/179/179 915/174/174
f 916/172/172 917/180/180 918/175/175
f 919/176/176 920/181/181 921/177/177
f 922/161/161 923/245/245 924/178/178
f 925/132/132 926/239/239 927/179/179
f 928/165/165 929/164/164 930/180/180
f 931/181/181 932/239/239 933/132/132
f 934/182/182 935/240/240 936/183/183
f 937/185/185 938/195/195 939/186/186
f 940/188/188 941/193/193 942/189/189
f 943/186/186 944/247/247 945/191/191
f 946/192/192 947/248/248 948/193/193
f 949/194/194 950/201/201 951/195/195
f 952/190/190 953/189/189 954/196/196
f 955/198/198 956/204/204 957/199/199
f 958/197/197 959/196/196 960/201/201
f 961/202/202 962/248/248 963/192/192
f 964/184/184 965/198/198 966/200/200
f 967/204/204 968/202/202 969/203/203
f 970/137/137 971/209/209 972/205/205
f 973/146/146 974/145/145 975/206/206
f 976/148/148 977/210/210 978/208/208
f 979/156/156 980/208/208 981/209/209
f 982/155/155 983/216/216 984/210/210
f 985/169/169 986/171/171 987/211/211
f 988/213/213 989/206/206 990/145/145
f 991/214/214 992/213/213 993/133/133
f 994/212/212 995/214/214 996/167/167
f 997/130/130 998/129/129 999/205/205
f 1000/155/155 1001/146/146 1002/207/207
f 1003/217/217 1004/236/236 1005/218/218
f 1006/220/220 1007/237/237 1008/221/221
f 1009/223/223 1010/249/249 1011/224/224
f 1012/226/226 1013/250/250 1014/227/227
f 1015/227/227 1016/230/230 1017/229/229
f 1018/230/230 1019/223/223 1020/225/225
f 1021/231/231 1022/234/234 1023/232/232
f 1024/222/222 1025/221/221 1026/234/234
f 1027/235/235 1028/238/238 1029/236/236
f 1030/219/219 1031/218/218 1032/237/237
f 1033/224/224 1034/249/249 1035/238/238
f 1036/182/182 1037/200/200 1038/173/173
f 1039/203/203 1040/192/192 1041/239/239
f 1042/157/157 1043/197/197 1044/194/194
f 1045/200/200 1046/199/199 1047/176/176
f 1048/174/174 1049/190/190 1050/197/197
f 1051/164/164 1052/194/194 1053/185/185
f 1054/239/239 1055/192/192 1056/188/188
f 1057/175/175 1058/187/187 1059/191/191
f 1060/179/179 1061/188/188 1062/190/190
f 1063/180/180 1064/185/185 1065/187/187
f 1066/162/162 1067/178/178 1068/240/240
f 1069/199/199 1070/203/203 1071/181/181
f 1072/228/228 1073/229/229 1074/214/214
f 1075/216/216 1076/217/217 1077/219/219
f 1078/212/212 1079/211/211 1080/226/226
f 1081/207/207 1082/235/235 1083/217/217
f 1084/225/225 1085/224/224 1086/206/206
f 1087/208/208 1088/220/220 1089/222/222
f 1090/205/205 1091/231/231 1092/233/233
f 1093/210/210 1094/219/219 1095/220/220
f 1096/209/209 1097/222/222 1098/231/231
f 1099/229/229 1100/225/225 1101/213/213
f 1102/207/207 1103/206/206 1104/224/224
