# MuJoCo material-split OBJ
v -15 10.1000013 0
v 0 12.6000004 -25
v 0 12.6000004 0
v 0 12.6000004 0
v 15 10.0999994 -25
v 15 10.0999994 0
v 0 12.6000004 25
v 15 10.0999994 0
v 15 10.0999994 25
v -15 10.1000013 25
v 0 12.6000004 0
v 0 12.6000004 25
v -15 10.1000013 0
v -15 10.1000013 -25
v 0 12.6000004 -25
v 0 12.6000004 0
v 0 12.6000004 -25
v 15 10.0999994 -25
v 0 12.6000004 25
v 0 12.6000004 0
v 15 10.0999994 0
v -15 10.1000013 25
v -15 10.1000013 0
v 0 12.6000004 0
vt 2 0.5 0
vt 0.5 3 0
vt 0.5 0.5 0
vt -1 3 0
vt -1 0.5 0
vt 0.5 -2 0
vt -1 -2 0
vt 2 -2 0
vt 2 3 0
vn 13.9271507 -0.371391624 0
vn -13.9271507 -0.371389776 0
f 1/1/1 2/2/1 3/3/1
f 4/3/2 5/4/2 6/5/2
f 7/6/2 8/5/2 9/7/2
f 10/8/1 11/3/1 12/6/1
f 13/1/1 14/9/1 15/2/1
f 16/3/2 17/2/2 18/4/2
f 19/6/2 20/3/2 21/5/2
f 22/8/1 23/1/1 24/3/1
