# MuJoCo material-split OBJ
v 13.7035427 0.101000004 12.8970013
v 13.568018 0.101000004 8.60110855
v 13.568018 0.101000004 12.8970013
v 14.9735432 0.101000004 12.8970013
v 14.8380184 0.101000004 8.60110855
v 14.8380184 0.101000004 12.8970013
v 13.7035427 0.101000004 12.8970013
v 13.7035427 0.101000004 8.60110855
v 13.568018 0.101000004 8.60110855
v 14.9735432 0.101000004 12.8970013
v 14.9735441 0.101000004 8.60110855
v 14.8380184 0.101000004 8.60110855
vt 1 -2.09664488 0
vt 0 3.09664488 0
vt 0 -2.09664488 0
vt 1 3.09664488 0
vn 0 1 0
f 1/1/1 2/2/1 3/3/1
f 4/1/1 5/2/1 6/3/1
f 7/1/1 8/4/1 9/2/1
f 10/1/1 11/4/1 12/2/1
