# MuJoCo material-split OBJ
v 8.43700695 0.101000004 30.1400089
v 8.3014822 0.101000004 25.8441105
v 8.3014822 0.101000004 30.1400089
v 12.5870037 0.101000004 30.1400089
v 12.451479 0.101000004 25.8441105
v 12.451479 0.101000004 30.1400089
v 12.5969553 0.101000004 30.1358013
v 8.30106163 0.101000004 30.271328
v 12.5969553 0.101000004 30.271328
v 12.5969553 0.101000004 25.7158031
v 8.30106163 0.101000004 25.8513279
v 12.5969553 0.101000004 25.8513279
v 8.43700695 0.101000004 30.1400089
v 8.43700695 0.101000004 25.8441105
v 8.3014822 0.101000004 25.8441105
v 12.5870037 0.101000004 30.1400089
v 12.5870037 0.101000004 25.8441105
v 12.451479 0.101000004 25.8441105
v 12.5969553 0.101000004 30.1358013
v 8.30106163 0.101000004 30.1358013
v 8.30106163 0.101000004 30.271328
v 12.5969553 0.101000004 25.7158031
v 8.30106163 0.101000004 25.7158031
v 8.30106163 0.101000004 25.8513279
v 2.9470067 0.101000004 -11.1712418
v 2.81148148 0.101000004 -15.4671383
v 2.81148148 0.101000004 -11.1712418
v 7.09700298 0.101000004 -11.1712418
v 6.96147823 0.101000004 -15.4671383
v 6.96147823 0.101000004 -11.1712418
v 7.10695457 0.101000004 -11.1754475
v 2.81106138 0.101000004 -11.0399227
v 7.10695457 0.101000004 -11.0399227
v 7.10695457 0.101000004 -15.5954475
v 2.81106138 0.101000004 -15.4599218
v 7.10695457 0.101000004 -15.4599218
v 2.9470067 0.101000004 -11.1712418
v 2.9470067 0.101000004 -15.4671383
v 2.81148148 0.101000004 -15.4671383
v 7.09700298 0.101000004 -11.1712418
v 7.09700298 0.101000004 -15.4671383
v 6.96147823 0.101000004 -15.4671383
v 7.10695457 0.101000004 -11.1754475
v 2.81106138 0.101000004 -11.1754475
v 2.81106138 0.101000004 -11.0399227
v 7.10695457 0.101000004 -15.5954475
v 2.81106138 0.101000004 -15.5954475
v 2.81106138 0.101000004 -15.4599218
v -6.93106365 0.101000004 -11.1712418
v -7.0665884 0.101000004 -15.4671383
v -7.0665884 0.101000004 -11.1712418
v -2.78106689 0.101000004 -11.1712418
v -2.91659212 0.101000004 -15.4671383
v -2.91659212 0.101000004 -11.1712418
v -2.7711153 0.101000004 -11.1754475
v -7.06700897 0.101000004 -11.0399227
v -2.7711153 0.101000004 -11.0399227
v -2.7711153 0.101000004 -15.5954475
v -7.06700897 0.101000004 -15.4599218
v -2.7711153 0.101000004 -15.4599218
v -6.93106365 0.101000004 -11.1712418
v -6.93106365 0.101000004 -15.4671383
v -7.0665884 0.101000004 -15.4671383
v -2.78106689 0.101000004 -11.1712418
v -2.78106689 0.101000004 -15.4671383
v -2.91659212 0.101000004 -15.4671383
v -2.7711153 0.101000004 -11.1754475
v -7.06700897 0.101000004 -11.1754475
v -7.06700897 0.101000004 -11.0399227
v -2.7711153 0.101000004 -15.5954475
v -7.06700897 0.101000004 -15.5954475
v -7.06700897 0.101000004 -15.4599218
vt 1 -2.09664488 0
vt 0 3.09664488 0
vt 0 -2.09664488 0
vt 1 3.09664488 0
vn 0 1 0
f 1/1/1 2/2/1 3/3/1
f 4/1/1 5/2/1 6/3/1
f 7/1/1 8/2/1 9/3/1
f 10/1/1 11/2/1 12/3/1
f 13/1/1 14/4/1 15/2/1
f 16/1/1 17/4/1 18/2/1
f 19/1/1 20/4/1 21/2/1
f 22/1/1 23/4/1 24/2/1
f 25/1/1 26/2/1 27/3/1
f 28/1/1 29/2/1 30/3/1
f 31/1/1 32/2/1 33/3/1
f 34/1/1 35/2/1 36/3/1
f 37/1/1 38/4/1 39/2/1
f 40/1/1 41/4/1 42/2/1
f 43/1/1 44/4/1 45/2/1
f 46/1/1 47/4/1 48/2/1
f 49/1/1 50/2/1 51/3/1
f 52/1/1 53/2/1 54/3/1
f 55/1/1 56/2/1 57/3/1
f 58/1/1 59/2/1 60/3/1
f 61/1/1 62/4/1 63/2/1
f 64/1/1 65/4/1 66/2/1
f 67/1/1 68/4/1 69/2/1
f 70/1/1 71/4/1 72/2/1
