# MuJoCo material-split OBJ
v 14.9696445 0.101000004 12.9001274
v 13.570715 0.101000004 13.0356522
v 14.9696445 0.101000004 13.0356522
v 14.9696455 0.101000004 8.47013187
v 13.5707169 0.101000004 8.60565758
v 14.9696455 0.101000004 8.60565758
v 14.9696445 0.101000004 12.9001274
v 13.570715 0.101000004 12.9001274
v 13.570715 0.101000004 13.0356522
v 14.9696455 0.101000004 8.47013187
v 13.5707169 0.101000004 8.47013187
v 13.5707169 0.101000004 8.60565758
vt 1 -0.397341311 0
vt 0 1.39734101 0
vt 0 -0.397341311 0
vt 1 1.39734101 0
vn 0 1 0
f 1/1/1 2/2/1 3/3/1
f 4/1/1 5/2/1 6/3/1
f 7/1/1 8/4/1 9/2/1
f 10/1/1 11/4/1 12/2/1
