# MuJoCo material-split OBJ
v -15 2.59857082 25.0000019
v -7.5 0.0985708237 25
v -7.5 2.59857082 25
v -15 10.0985708 25.0000019
v -7.5 5.09857082 25
v 0 5.09857082 25
v 0 12.5985708 25
v 0 5.09857082 25
v 7.5 5.09857082 25
v 7.5 5.09857082 25
v 15 2.59857082 24.9999981
v 15 5.09857082 24.9999981
v 7.5 2.59857082 25
v 15 0.0985708237 24.9999981
v 15 2.59857082 24.9999981
v -15 5.09857082 25.0000019
v -7.5 2.59857082 25
v -7.5 5.09857082 25
v -7.5 0.0985708237 24.9500008
v -15 2.59857082 24.9500008
v -7.5 2.59857082 24.9500008
v 0 5.09857082 24.9500008
v -7.5 5.09857082 24.9500008
v -15 10.0985708 24.9500008
v 7.5 5.09857082 24.9499989
v 0 5.09857082 24.9500008
v 0 12.5985708 24.9500008
v 15 2.59857082 24.9499989
v 7.5 5.09857082 24.9499989
v 15 5.09857082 24.9499989
v 15 0.0985708237 24.9499989
v 7.5 2.59857082 24.9499989
v 15 2.59857082 24.9499989
v -7.5 2.59857082 24.9500008
v -15 5.09857082 24.9500008
v -7.5 5.09857082 24.9500008
v -7.5 2.59857082 25
v -7.5 5.09857082 24.9500008
v -7.5 5.09857082 25
v -15 2.59857082 25.0000019
v -15 0.0985708237 24.9500008
v -15 0.0985708237 25.0000019
v 15 5.09857082 24.9999981
v 15 10.0985708 24.9499989
v 15 10.0985708 24.9999981
v -7.5 0.0985708237 25
v -7.5 2.59857082 24.9500008
v -7.5 2.59857082 25
v -7.5 5.09857082 25
v 0 5.09857082 24.9500008
v 0 5.09857082 25
v -15 5.09857082 25.0000019
v -15 2.59857082 24.9500008
v -15 2.59857082 25.0000019
v 15 10.0985708 24.9999981
v 0 12.5985708 24.9500008
v 0 12.5985708 25
v 0 5.09857082 25
v 7.5 5.09857082 24.9499989
v 7.5 5.09857082 25
v 15 0.0985708237 24.9999981
v 15 2.59857082 24.9499989
v 15 2.59857082 24.9999981
v 7.5 5.09857082 25
v 7.5 2.59857082 24.9499989
v 7.5 2.59857082 25
v -15 0.0985708237 25.0000019
v -7.5 0.0985708237 24.9500008
v -7.5 0.0985708237 25
v 7.5 2.59857082 25
v 7.5 0.0985708237 24.9499989
v 7.5 0.0985708237 25
v 15 2.59857082 24.9999981
v 15 5.09857082 24.9499989
v 15 5.09857082 24.9999981
v -15 10.0985708 25.0000019
v -15 5.09857082 24.9500008
v -15 5.09857082 25.0000019
v 7.5 0.0985708237 25
v 15 0.0985708237 24.9499989
v 15 0.0985708237 24.9999981
v 0 12.5985708 25
v -15 10.0985708 24.9500008
v -15 10.0985708 25.0000019
v -15 2.59857082 25.0000019
v -15 0.0985708237 25.0000019
v -7.5 0.0985708237 25
v 0 5.09857082 25
v 0 12.5985708 25
v -15 10.0985708 25.0000019
v -15 10.0985708 25.0000019
v -15 5.09857082 25.0000019
v -7.5 5.09857082 25
v 15 5.09857082 24.9999981
v 15 10.0985708 24.9999981
v 7.5 5.09857082 25
v 15 10.0985708 24.9999981
v 0 12.5985708 25
v 7.5 5.09857082 25
v 7.5 5.09857082 25
v 7.5 2.59857082 25
v 15 2.59857082 24.9999981
v 7.5 2.59857082 25
v 7.5 0.0985708237 25
v 15 0.0985708237 24.9999981
v -15 5.09857082 25.0000019
v -15 2.59857082 25.0000019
v -7.5 2.59857082 25
v -7.5 0.0985708237 24.9500008
v -15 0.0985708237 24.9500008
v -15 2.59857082 24.9500008
v -15 10.0985708 24.9500008
v 0 12.5985708 24.9500008
v 0 5.09857082 24.9500008
v -7.5 5.09857082 24.9500008
v -15 5.09857082 24.9500008
v -15 10.0985708 24.9500008
v 0 12.5985708 24.9500008
v 15 10.0985708 24.9499989
v 7.5 5.09857082 24.9499989
v 15 10.0985708 24.9499989
v 15 5.09857082 24.9499989
v 7.5 5.09857082 24.9499989
v 15 2.59857082 24.9499989
v 7.5 2.59857082 24.9499989
v 7.5 5.09857082 24.9499989
v 15 0.0985708237 24.9499989
v 7.5 0.0985708237 24.9499989
v 7.5 2.59857082 24.9499989
v -7.5 2.59857082 24.9500008
v -15 2.59857082 24.9500008
v -15 5.09857082 24.9500008
v -7.5 2.59857082 25
v -7.5 2.59857082 24.9500008
v -7.5 5.09857082 24.9500008
v -15 2.59857082 25.0000019
v -15 2.59857082 24.9500008
v -15 0.0985708237 24.9500008
v 15 5.09857082 24.9999981
v 15 5.09857082 24.9499989
v 15 10.0985708 24.9499989
v -7.5 0.0985708237 25
v -7.5 0.0985708237 24.9500008
v -7.5 2.59857082 24.9500008
v -7.5 5.09857082 25
v -7.5 5.09857082 24.9500008
v 0 5.09857082 24.9500008
v -15 5.09857082 25.0000019
v -15 5.09857082 24.9500008
v -15 2.59857082 24.9500008
v 15 10.0985708 24.9999981
v 15 10.0985708 24.9499989
v 0 12.5985708 24.9500008
v 0 5.09857082 25
v 0 5.09857082 24.9500008
v 7.5 5.09857082 24.9499989
v 15 0.0985708237 24.9999981
v 15 0.0985708237 24.9499989
v 15 2.59857082 24.9499989
v 7.5 5.09857082 25
v 7.5 5.09857082 24.9499989
v 7.5 2.59857082 24.9499989
v -15 0.0985708237 25.0000019
v -15 0.0985708237 24.9500008
v -7.5 0.0985708237 24.9500008
v 7.5 2.59857082 25
v 7.5 2.59857082 24.9499989
v 7.5 0.0985708237 24.9499989
v 15 2.59857082 24.9999981
v 15 2.59857082 24.9499989
v 15 5.09857082 24.9499989
v -15 10.0985708 25.0000019
v -15 10.0985708 24.9500008
v -15 5.09857082 24.9500008
v 7.5 0.0985708237 25
v 7.5 0.0985708237 24.9499989
v 15 0.0985708237 24.9499989
v 0 12.5985708 25
v 0 12.5985708 24.9500008
v -15 10.0985708 24.9500008
v 0 0.0985708237 -25
v 3.75 5.09857082 -25
v 7.5 5.09857082 -25
v 15 6.34857082 -24.9999981
v 11.25 5.09857082 -25
v 11.25 6.50482082 -25
v -3.75 6.81732082 -25
v 0 5.09857082 -25
v -3.75 5.09857082 -25
v -15 0.0985708237 -25.0000019
v -11.25 5.09857082 -25
v -7.5 5.09857082 -25
v -3.75 11.9735708 -25
v 0 10.2552357 -25
v -3.75 10.2548208 -25
v -15 10.0985708 -25.0000019
v -11.25 9.31732082 -25
v -15 8.84857082 -25.0000019
v -11.25 10.7235708 -25
v -7.5 9.78607082 -25
v -11.25 9.31732082 -25
v -7.5 11.3485708 -25
v -3.75 10.2548208 -25
v -7.5 9.78607082 -25
v -15 8.84857082 -25.0000019
v -11.25 7.91107082 -25
v -15 7.59857082 -25.0000019
v -7.5 9.78607082 -25
v -3.75 8.53607082 -25
v -7.5 8.22357082 -25
v -15 7.59857082 -25.0000019
v -11.25 6.50482082 -25
v -15 6.34857082 -25.0000019
v -7.5 8.22357082 -25
v -3.75 6.81732082 -25
v -7.5 6.66107082 -25
v -15 6.34857082 -25.0000019
v -11.25 5.09857082 -25
v -15 5.09857082 -25.0000019
v -11.25 6.50482082 -25
v -7.5 5.09857082 -25
v -11.25 5.09857082 -25
v -7.5 6.66107082 -25
v -3.75 5.09857082 -25
v -7.5 5.09857082 -25
v 15 10.0985708 -24.9999981
v 11.25 9.31732082 -25
v 11.25 10.7235708 -25
v 15 8.84857082 -24.9999981
v 11.25 7.91107082 -25
v 11.25 9.31732082 -25
v 15 7.59857082 -24.9999981
v 11.25 6.50482082 -25
v 11.25 7.91107082 -25
v 3.75 11.9735708 -25
v 0 10.2552357 -25
v 0 12.5985708 -25
v 7.5 11.3485708 -25
v 3.75 10.2548208 -25
v 3.75 11.9735708 -25
v 11.25 10.7235708 -25
v 7.5 9.78607082 -25
v 7.5 11.3485708 -25
v 7.5 9.78607082 -25
v 3.75 8.53607082 -25
v 3.75 10.2548208 -25
v 7.5 8.22357082 -25
v 3.75 6.81732082 -25
v 3.75 8.53607082 -25
v 3.75 6.81732082 -25
v 0 5.09857082 -25
v 0 6.81850672 -25
v 7.5 6.66107082 -25
v 3.75 5.09857082 -25
v 3.75 6.81732082 -25
v 11.25 6.50482082 -25
v 7.5 5.09857082 -25
v 7.5 6.66107082 -25
v 7.5 5.09857082 -24.9499989
v 3.75 5.09857082 -24.9499989
v 0 0.0985708237 -24.9500008
v 11.25 5.09857082 -24.9499989
v 15 6.34857082 -24.9499989
v 11.25 6.50482082 -24.9499989
v -3.75 6.81732082 -24.9500008
v 0 5.09857082 -24.9500008
v 0 6.81850672 -24.9500008
v -7.5 5.09857082 -24.9500008
v -11.25 5.09857082 -24.9500008
v -15 0.0985708237 -24.9500008
v -3.75 11.9735708 -24.9500008
v 0 10.2552357 -24.9500008
v 0 12.5985708 -24.9500008
v -15 10.0985708 -24.9500008
v -11.25 9.31732082 -24.9500008
v -11.25 10.7235708 -24.9500008
v -11.25 10.7235708 -24.9500008
v -7.5 9.78607082 -24.9500008
v -7.5 11.3485708 -24.9500008
v -7.5 11.3485708 -24.9500008
v -3.75 10.2548208 -24.9500008
v -3.75 11.9735708 -24.9500008
v -15 8.84857082 -24.9500008
v -11.25 7.91107082 -24.9500008
v -11.25 9.31732082 -24.9500008
v -7.5 9.78607082 -24.9500008
v -3.75 8.53607082 -24.9500008
v -3.75 10.2548208 -24.9500008
v -15 7.59857082 -24.9500008
v -11.25 6.50482082 -24.9500008
v -11.25 7.91107082 -24.9500008
v -7.5 8.22357082 -24.9500008
v -3.75 6.81732082 -24.9500008
v -3.75 8.53607082 -24.9500008
v -15 6.34857082 -24.9500008
v -11.25 5.09857082 -24.9500008
v -11.25 6.50482082 -24.9500008
v -11.25 6.50482082 -24.9500008
v -7.5 5.09857082 -24.9500008
v -7.5 6.66107082 -24.9500008
v -7.5 6.66107082 -24.9500008
v -3.75 5.09857082 -24.9500008
v -3.75 6.81732082 -24.9500008
v 11.25 9.31732082 -24.9499989
v 15 10.0985708 -24.9499989
v 11.25 10.7235708 -24.9499989
v 11.25 7.91107082 -24.9499989
v 15 8.84857082 -24.9499989
v 11.25 9.31732082 -24.9499989
v 11.25 6.50482082 -24.9499989
v 15 7.59857082 -24.9499989
v 11.25 7.91107082 -24.9499989
v 0 10.2552357 -24.9500008
v 3.75 11.9735708 -24.9500008
v 0 12.5985708 -24.9500008
v 3.75 10.2548208 -24.9500008
v 7.5 11.3485708 -24.9499989
v 3.75 11.9735708 -24.9500008
v 7.5 9.78607082 -24.9499989
v 11.25 10.7235708 -24.9499989
v 7.5 11.3485708 -24.9499989
v 3.75 8.53607082 -24.9499989
v 7.5 9.78607082 -24.9499989
v 3.75 10.2548208 -24.9500008
v 3.75 6.81732082 -24.9499989
v 7.5 8.22357082 -24.9499989
v 3.75 8.53607082 -24.9499989
v 0 5.09857082 -24.9500008
v 3.75 6.81732082 -24.9499989
v 0 6.81850672 -24.9500008
v 3.75 5.09857082 -24.9499989
v 7.5 6.66107082 -24.9499989
v 3.75 6.81732082 -24.9499989
v 7.5 5.09857082 -24.9499989
v 11.25 6.50482082 -24.9499989
v 7.5 6.66107082 -24.9499989
v -11.25 6.50482082 -25
v -11.25 7.91107082 -24.9500008
v -11.25 6.50482082 -24.9500008
v 15 5.09857082 -24.9999981
v 15 0.0985708237 -24.9499989
v 15 0.0985708237 -24.9999981
v -15 8.84857082 -25.0000019
v -15 10.0985708 -24.9500008
v -15 10.0985708 -25.0000019
v -7.5 6.66107082 -25
v -7.5 8.22357082 -24.9500008
v -7.5 8.22357082 -25
v 11.25 6.50482082 -25
v 7.5 6.66107082 -24.9499989
v 11.25 6.50482082 -24.9499989
v -15 7.59857082 -25.0000019
v -15 8.84857082 -24.9500008
v -15 8.84857082 -25.0000019
v -3.75 6.81732082 -25
v -3.75 8.53607082 -24.9500008
v -3.75 6.81732082 -24.9500008
v -15 6.34857082 -25.0000019
v -15 7.59857082 -24.9500008
v -15 7.59857082 -25.0000019
v -3.75 6.81732082 -25
v 0 6.81850672 -24.9500008
v 0 6.81850672 -25
v -3.75 11.9735708 -25
v 0 12.5985708 -24.9500008
v 0 12.5985708 -25
v -11.25 6.50482082 -25
v -7.5 6.66107082 -24.9500008
v -7.5 6.66107082 -25
v 3.75 8.53607082 -25
v 3.75 10.2548208 -24.9500008
v 3.75 10.2548208 -25
v -7.5 11.3485708 -25
v -3.75 11.9735708 -24.9500008
v -3.75 11.9735708 -25
v 7.5 8.22357082 -25
v 7.5 9.78607082 -24.9499989
v 7.5 8.22357082 -24.9499989
v -15 10.0985708 -25.0000019
v -11.25 10.7235708 -24.9500008
v -11.25 10.7235708 -25
v 3.75 10.2548208 -25
v 0 10.2552357 -24.9500008
v 0 10.2552357 -25
v -11.25 10.7235708 -25
v -7.5 11.3485708 -24.9500008
v -7.5 11.3485708 -25
v 11.25 7.91107082 -25
v 11.25 9.31732082 -24.9499989
v 11.25 9.31732082 -25
v -15 0.0985708237 -25.0000019
v -15 5.09857082 -24.9500008
v -15 5.09857082 -25.0000019
v 15 6.34857082 -24.9999981
v 15 5.09857082 -24.9499989
v 15 5.09857082 -24.9999981
v 3.75 6.81732082 -25
v 3.75 8.53607082 -24.9499989
v 3.75 8.53607082 -25
v 15 0.0985708237 -24.9999981
v 0 0.0985708237 -24.9500008
v 0 0.0985708237 -25
v 11.25 9.31732082 -25
v 7.5 9.78607082 -24.9499989
v 7.5 9.78607082 -25
v 15 7.59857082 -24.9999981
v 15 6.34857082 -24.9499989
v 15 6.34857082 -24.9999981
v 7.5 6.66107082 -25
v 7.5 8.22357082 -24.9499989
v 7.5 6.66107082 -24.9499989
v 15 10.0985708 -24.9999981
v 15 8.84857082 -24.9499989
v 15 8.84857082 -24.9999981
v 15 8.84857082 -24.9999981
v 15 7.59857082 -24.9499989
v 15 7.59857082 -24.9999981
v -11.25 7.91107082 -25
v -11.25 9.31732082 -24.9500008
v -11.25 7.91107082 -24.9500008
v 11.25 6.50482082 -25
v 11.25 7.91107082 -24.9499989
v 11.25 7.91107082 -25
v 3.75 11.9735708 -25
v 0 12.5985708 -24.9500008
v 3.75 11.9735708 -24.9500008
v 0 10.2552357 -25
v -3.75 10.2548208 -24.9500008
v -3.75 10.2548208 -25
v 15 10.0985708 -24.9999981
v 11.25 10.7235708 -24.9499989
v 15 10.0985708 -24.9499989
v -7.5 8.22357082 -25
v -7.5 9.78607082 -24.9500008
v -7.5 9.78607082 -25
v -15 5.09857082 -25.0000019
v -15 6.34857082 -24.9500008
v -15 6.34857082 -25.0000019
v 11.25 10.7235708 -25
v 7.5 11.3485708 -24.9499989
v 11.25 10.7235708 -24.9499989
v -3.75 8.53607082 -25
v -3.75 10.2548208 -24.9500008
v -3.75 8.53607082 -24.9500008
v 0 0.0985708237 -25
v -15 0.0985708237 -24.9500008
v -15 0.0985708237 -25.0000019
v -11.25 9.31732082 -25
v -7.5 9.78607082 -24.9500008
v -11.25 9.31732082 -24.9500008
v 0 6.81850672 -25
v 3.75 6.81732082 -24.9499989
v 3.75 6.81732082 -25
v 7.5 11.3485708 -25
v 3.75 11.9735708 -24.9500008
v 7.5 11.3485708 -24.9499989
v 0 0.0985708237 -25
v 0 5.09857082 -25
v 3.75 5.09857082 -25
v 7.5 5.09857082 -25
v 11.25 5.09857082 -25
v 15 0.0985708237 -24.9999981
v 11.25 5.09857082 -25
v 15 5.09857082 -24.9999981
v 15 0.0985708237 -24.9999981
v 7.5 5.09857082 -25
v 15 0.0985708237 -24.9999981
v 0 0.0985708237 -25
v 15 6.34857082 -24.9999981
v 15 5.09857082 -24.9999981
v 11.25 5.09857082 -25
v -3.75 6.81732082 -25
v 0 6.81850672 -25
v 0 5.09857082 -25
v -15 0.0985708237 -25.0000019
v -15 5.09857082 -25.0000019
v -11.25 5.09857082 -25
v -7.5 5.09857082 -25
v -3.75 5.09857082 -25
v 0 0.0985708237 -25
v -3.75 5.09857082 -25
v 0 5.09857082 -25
v 0 0.0985708237 -25
v -7.5 5.09857082 -25
v 0 0.0985708237 -25
v -15 0.0985708237 -25.0000019
v -3.75 11.9735708 -25
v 0 12.5985708 -25
v 0 10.2552357 -25
v -15 10.0985708 -25.0000019
v -11.25 10.7235708 -25
v -11.25 9.31732082 -25
v -11.25 10.7235708 -25
v -7.5 11.3485708 -25
v -7.5 9.78607082 -25
v -7.5 11.3485708 -25
v -3.75 11.9735708 -25
v -3.75 10.2548208 -25
v -15 8.84857082 -25.0000019
v -11.25 9.31732082 -25
v -11.25 7.91107082 -25
v -7.5 9.78607082 -25
v -3.75 10.2548208 -25
v -3.75 8.53607082 -25
v -15 7.59857082 -25.0000019
v -11.25 7.91107082 -25
v -11.25 6.50482082 -25
v -7.5 8.22357082 -25
v -3.75 8.53607082 -25
v -3.75 6.81732082 -25
v -15 6.34857082 -25.0000019
v -11.25 6.50482082 -25
v -11.25 5.09857082 -25
v -11.25 6.50482082 -25
v -7.5 6.66107082 -25
v -7.5 5.09857082 -25
v -7.5 6.66107082 -25
v -3.75 6.81732082 -25
v -3.75 5.09857082 -25
v 15 10.0985708 -24.9999981
v 15 8.84857082 -24.9999981
v 11.25 9.31732082 -25
v 15 8.84857082 -24.9999981
v 15 7.59857082 -24.9999981
v 11.25 7.91107082 -25
v 15 7.59857082 -24.9999981
v 15 6.34857082 -24.9999981
v 11.25 6.50482082 -25
v 3.75 11.9735708 -25
v 3.75 10.2548208 -25
v 0 10.2552357 -25
v 7.5 11.3485708 -25
v 7.5 9.78607082 -25
v 3.75 10.2548208 -25
v 11.25 10.7235708 -25
v 11.25 9.31732082 -25
v 7.5 9.78607082 -25
v 7.5 9.78607082 -25
v 7.5 8.22357082 -25
v 3.75 8.53607082 -25
v 7.5 8.22357082 -25
v 7.5 6.66107082 -25
v 3.75 6.81732082 -25
v 3.75 6.81732082 -25
v 3.75 5.09857082 -25
v 0 5.09857082 -25
v 7.5 6.66107082 -25
v 7.5 5.09857082 -25
v 3.75 5.09857082 -25
v 11.25 6.50482082 -25
v 11.25 5.09857082 -25
v 7.5 5.09857082 -25
v 3.75 5.09857082 -24.9499989
v 0 5.09857082 -24.9500008
v 0 0.0985708237 -24.9500008
v 0 0.0985708237 -24.9500008
v 15 0.0985708237 -24.9499989
v 7.5 5.09857082 -24.9499989
v 15 0.0985708237 -24.9499989
v 15 5.09857082 -24.9499989
v 11.25 5.09857082 -24.9499989
v 11.25 5.09857082 -24.9499989
v 7.5 5.09857082 -24.9499989
v 15 0.0985708237 -24.9499989
v 11.25 5.09857082 -24.9499989
v 15 5.09857082 -24.9499989
v 15 6.34857082 -24.9499989
v -3.75 6.81732082 -24.9500008
v -3.75 5.09857082 -24.9500008
v 0 5.09857082 -24.9500008
v -11.25 5.09857082 -24.9500008
v -15 5.09857082 -24.9500008
v -15 0.0985708237 -24.9500008
v -15 0.0985708237 -24.9500008
v 0 0.0985708237 -24.9500008
v -7.5 5.09857082 -24.9500008
v 0 0.0985708237 -24.9500008
v 0 5.09857082 -24.9500008
v -3.75 5.09857082 -24.9500008
v -3.75 5.09857082 -24.9500008
v -7.5 5.09857082 -24.9500008
v 0 0.0985708237 -24.9500008
v -3.75 11.9735708 -24.9500008
v -3.75 10.2548208 -24.9500008
v 0 10.2552357 -24.9500008
v -15 10.0985708 -24.9500008
v -15 8.84857082 -24.9500008
v -11.25 9.31732082 -24.9500008
v -11.25 10.7235708 -24.9500008
v -11.25 9.31732082 -24.9500008
v -7.5 9.78607082 -24.9500008
v -7.5 11.3485708 -24.9500008
v -7.5 9.78607082 -24.9500008
v -3.75 10.2548208 -24.9500008
v -15 8.84857082 -24.9500008
v -15 7.59857082 -24.9500008
v -11.25 7.91107082 -24.9500008
v -7.5 9.78607082 -24.9500008
v -7.5 8.22357082 -24.9500008
v -3.75 8.53607082 -24.9500008
v -15 7.59857082 -24.9500008
v -15 6.34857082 -24.9500008
v -11.25 6.50482082 -24.9500008
v -7.5 8.22357082 -24.9500008
v -7.5 6.66107082 -24.9500008
v -3.75 6.81732082 -24.9500008
v -15 6.34857082 -24.9500008
v -15 5.09857082 -24.9500008
v -11.25 5.09857082 -24.9500008
v -11.25 6.50482082 -24.9500008
v -11.25 5.09857082 -24.9500008
v -7.5 5.09857082 -24.9500008
v -7.5 6.66107082 -24.9500008
v -7.5 5.09857082 -24.9500008
v -3.75 5.09857082 -24.9500008
v 11.25 9.31732082 -24.9499989
v 15 8.84857082 -24.9499989
v 15 10.0985708 -24.9499989
v 11.25 7.91107082 -24.9499989
v 15 7.59857082 -24.9499989
v 15 8.84857082 -24.9499989
v 11.25 6.50482082 -24.9499989
v 15 6.34857082 -24.9499989
v 15 7.59857082 -24.9499989
v 0 10.2552357 -24.9500008
v 3.75 10.2548208 -24.9500008
v 3.75 11.9735708 -24.9500008
v 3.75 10.2548208 -24.9500008
v 7.5 9.78607082 -24.9499989
v 7.5 11.3485708 -24.9499989
v 7.5 9.78607082 -24.9499989
v 11.25 9.31732082 -24.9499989
v 11.25 10.7235708 -24.9499989
v 3.75 8.53607082 -24.9499989
v 7.5 8.22357082 -24.9499989
v 7.5 9.78607082 -24.9499989
v 3.75 6.81732082 -24.9499989
v 7.5 6.66107082 -24.9499989
v 7.5 8.22357082 -24.9499989
v 0 5.09857082 -24.9500008
v 3.75 5.09857082 -24.9499989
v 3.75 6.81732082 -24.9499989
v 3.75 5.09857082 -24.9499989
v 7.5 5.09857082 -24.9499989
v 7.5 6.66107082 -24.9499989
v 7.5 5.09857082 -24.9499989
v 11.25 5.09857082 -24.9499989
v 11.25 6.50482082 -24.9499989
v -11.25 6.50482082 -25
v -11.25 7.91107082 -25
v -11.25 7.91107082 -24.9500008
v 15 5.09857082 -24.9999981
v 15 5.09857082 -24.9499989
v 15 0.0985708237 -24.9499989
v -15 8.84857082 -25.0000019
v -15 8.84857082 -24.9500008
v -15 10.0985708 -24.9500008
v -7.5 6.66107082 -25
v -7.5 6.66107082 -24.9500008
v -7.5 8.22357082 -24.9500008
v 11.25 6.50482082 -25
v 7.5 6.66107082 -25
v 7.5 6.66107082 -24.9499989
v -15 7.59857082 -25.0000019
v -15 7.59857082 -24.9500008
v -15 8.84857082 -24.9500008
v -3.75 6.81732082 -25
v -3.75 8.53607082 -25
v -3.75 8.53607082 -24.9500008
v -15 6.34857082 -25.0000019
v -15 6.34857082 -24.9500008
v -15 7.59857082 -24.9500008
v -3.75 6.81732082 -25
v -3.75 6.81732082 -24.9500008
v 0 6.81850672 -24.9500008
v -3.75 11.9735708 -25
v -3.75 11.9735708 -24.9500008
v 0 12.5985708 -24.9500008
v -11.25 6.50482082 -25
v -11.25 6.50482082 -24.9500008
v -7.5 6.66107082 -24.9500008
v 3.75 8.53607082 -25
v 3.75 8.53607082 -24.9499989
v 3.75 10.2548208 -24.9500008
v -7.5 11.3485708 -25
v -7.5 11.3485708 -24.9500008
v -3.75 11.9735708 -24.9500008
v 7.5 8.22357082 -25
v 7.5 9.78607082 -25
v 7.5 9.78607082 -24.9499989
v -15 10.0985708 -25.0000019
v -15 10.0985708 -24.9500008
v -11.25 10.7235708 -24.9500008
v 3.75 10.2548208 -25
v 3.75 10.2548208 -24.9500008
v 0 10.2552357 -24.9500008
v -11.25 10.7235708 -25
v -11.25 10.7235708 -24.9500008
v -7.5 11.3485708 -24.9500008
v 11.25 7.91107082 -25
v 11.25 7.91107082 -24.9499989
v 11.25 9.31732082 -24.9499989
v -15 0.0985708237 -25.0000019
v -15 0.0985708237 -24.9500008
v -15 5.09857082 -24.9500008
v 15 6.34857082 -24.9999981
v 15 6.34857082 -24.9499989
v 15 5.09857082 -24.9499989
v 3.75 6.81732082 -25
v 3.75 6.81732082 -24.9499989
v 3.75 8.53607082 -24.9499989
v 15 0.0985708237 -24.9999981
v 15 0.0985708237 -24.9499989
v 0 0.0985708237 -24.9500008
v 11.25 9.31732082 -25
v 11.25 9.31732082 -24.9499989
v 7.5 9.78607082 -24.9499989
v 15 7.59857082 -24.9999981
v 15 7.59857082 -24.9499989
v 15 6.34857082 -24.9499989
v 7.5 6.66107082 -25
v 7.5 8.22357082 -25
v 7.5 8.22357082 -24.9499989
v 15 10.0985708 -24.9999981
v 15 10.0985708 -24.9499989
v 15 8.84857082 -24.9499989
v 15 8.84857082 -24.9999981
v 15 8.84857082 -24.9499989
v 15 7.59857082 -24.9499989
v -11.25 7.91107082 -25
v -11.25 9.31732082 -25
v -11.25 9.31732082 -24.9500008
v 11.25 6.50482082 -25
v 11.25 6.50482082 -24.9499989
v 11.25 7.91107082 -24.9499989
v 3.75 11.9735708 -25
v 0 12.5985708 -25
v 0 12.5985708 -24.9500008
v 0 10.2552357 -25
v 0 10.2552357 -24.9500008
v -3.75 10.2548208 -24.9500008
v 15 10.0985708 -24.9999981
v 11.25 10.7235708 -25
v 11.25 10.7235708 -24.9499989
v -7.5 8.22357082 -25
v -7.5 8.22357082 -24.9500008
v -7.5 9.78607082 -24.9500008
v -15 5.09857082 -25.0000019
v -15 5.09857082 -24.9500008
v -15 6.34857082 -24.9500008
v 11.25 10.7235708 -25
v 7.5 11.3485708 -25
v 7.5 11.3485708 -24.9499989
v -3.75 8.53607082 -25
v -3.75 10.2548208 -25
v -3.75 10.2548208 -24.9500008
v 0 0.0985708237 -25
v 0 0.0985708237 -24.9500008
v -15 0.0985708237 -24.9500008
v -11.25 9.31732082 -25
v -7.5 9.78607082 -25
v -7.5 9.78607082 -24.9500008
v 0 6.81850672 -25
v 0 6.81850672 -24.9500008
v 3.75 6.81732082 -24.9499989
v 7.5 11.3485708 -25
v 3.75 11.9735708 -25
v 3.75 11.9735708 -24.9500008
v 15 8.09857082 -25
v 15 10.0985708 -15.000001
v 15 8.09857082 -15.000001
v 15 0.0985708237 -25
v 15 2.09857082 -15.000001
v 15 0.0985708237 -15.000001
v 15 2.09857082 -25
v 15 4.09857082 -15.000001
v 15 2.09857082 -15.000001
v 15 4.09857082 -25
v 15 6.09857082 -15.000001
v 15 4.09857082 -15.000001
v 15 6.09857082 -25
v 15 8.09857082 -15.000001
v 15 6.09857082 -15.000001
v 15 0.0985708237 15.000001
v 15 2.09857082 25
v 15 0.0985708237 25
v 15 0.0985708237 5
v 15 2.09857082 15.000001
v 15 0.0985708237 15.000001
v 15 0.0985708237 -5
v 15 2.09857082 5
v 15 0.0985708237 5
v 15 0.0985708237 -15.000001
v 15 2.09857082 -5
v 15 0.0985708237 -5
v 15 2.09857082 15.000001
v 15 4.09857082 25
v 15 2.09857082 25
v 15 2.09857082 5
v 15 4.09857082 15.000001
v 15 2.09857082 15.000001
v 15 2.09857082 -5
v 15 4.09857082 5
v 15 2.09857082 5
v 15 2.09857082 -15.000001
v 15 4.09857082 -5
v 15 2.09857082 -5
v 15 4.09857082 15.000001
v 15 6.09857082 25
v 15 4.09857082 25
v 15 4.09857082 5
v 15 6.09857082 15.000001
v 15 4.09857082 15.000001
v 15 4.09857082 -5
v 15 6.09857082 5
v 15 4.09857082 5
v 15 4.09857082 -15.000001
v 15 6.09857082 -5
v 15 4.09857082 -5
v 15 6.09857082 15.000001
v 15 8.09857082 25
v 15 6.09857082 25
v 15 6.09857082 -5
v 15 8.09857082 5
v 15 6.09857082 5
v 15 8.09857082 15.000001
v 15 10.0985708 25
v 15 8.09857082 25
v 15 8.09857082 5
v 15 10.0985708 15.000001
v 15 8.09857082 15.000001
v 15 8.09857082 -5
v 15 10.0985708 5
v 15 8.09857082 5
v 15 8.09857082 -15.000001
v 15 10.0985708 -5
v 15 8.09857082 -5
v 14.9499998 10.0985708 -15.000001
v 14.9499998 8.09857082 -25
v 14.9499998 8.09857082 -15.000001
v 14.9499998 2.09857082 -15.000001
v 14.9499998 0.0985708237 -25
v 14.9499998 0.0985708237 -15.000001
v 14.9499998 4.09857082 -15.000001
v 14.9499998 2.09857082 -25
v 14.9499998 2.09857082 -15.000001
v 14.9499998 6.09857082 -15.000001
v 14.9499998 4.09857082 -25
v 14.9499998 4.09857082 -15.000001
v 14.9499998 8.09857082 -15.000001
v 14.9499998 6.09857082 -25
v 14.9499998 6.09857082 -15.000001
v 14.9499998 2.09857082 25
v 14.9499998 0.0985708237 15.000001
v 14.9499998 0.0985708237 25
v 14.9499998 2.09857082 15.000001
v 14.9499998 0.0985708237 5
v 14.9499998 0.0985708237 15.000001
v 14.9499998 2.09857082 5
v 14.9499998 0.0985708237 -5
v 14.9499998 0.0985708237 5
v 14.9499998 2.09857082 -5
v 14.9499998 0.0985708237 -15.000001
v 14.9499998 0.0985708237 -5
v 14.9499998 4.09857082 25
v 14.9499998 2.09857082 15.000001
v 14.9499998 2.09857082 25
v 14.9499998 4.09857082 15.000001
v 14.9499998 2.09857082 5
v 14.9499998 2.09857082 15.000001
v 14.9499998 4.09857082 5
v 14.9499998 2.09857082 -5
v 14.9499998 2.09857082 5
v 14.9499998 4.09857082 -5
v 14.9499998 2.09857082 -15.000001
v 14.9499998 2.09857082 -5
v 14.9499998 6.09857082 25
v 14.9499998 4.09857082 15.000001
v 14.9499998 4.09857082 25
v 14.9499998 6.09857082 15.000001
v 14.9499998 4.09857082 5
v 14.9499998 4.09857082 15.000001
v 14.9499998 6.09857082 5
v 14.9499998 4.09857082 -5
v 14.9499998 4.09857082 5
v 14.9499998 6.09857082 -5
v 14.9499998 4.09857082 -15.000001
v 14.9499998 4.09857082 -5
v 14.9499998 8.09857082 25
v 14.9499998 6.09857082 15.000001
v 14.9499998 6.09857082 25
v 14.9499998 8.09857082 5
v 14.9499998 6.09857082 -5
v 14.9499998 6.09857082 5
v 14.9499998 10.0985708 25
v 14.9499998 8.09857082 15.000001
v 14.9499998 8.09857082 25
v 14.9499998 10.0985708 15.000001
v 14.9499998 8.09857082 5
v 14.9499998 8.09857082 15.000001
v 14.9499998 10.0985708 5
v 14.9499998 8.09857082 -5
v 14.9499998 8.09857082 5
v 14.9499998 10.0985708 -5
v 14.9499998 8.09857082 -15.000001
v 14.9499998 8.09857082 -5
v 15 8.09857082 25
v 14.9499998 6.09857082 25
v 15 6.09857082 25
v 15 6.09857082 15.000001
v 14.9499998 8.09857082 15.000001
v 15 8.09857082 15.000001
v 15 10.0985708 15.000001
v 14.9499998 10.0985708 25
v 15 10.0985708 25
v 15 8.09857082 -5
v 14.9499998 8.09857082 -15.000001
v 15 8.09857082 -15.000001
v 15 8.09857082 5
v 14.9499998 6.09857082 5
v 15 6.09857082 5
v 15 10.0985708 5
v 14.9499998 10.0985708 15.000001
v 15 10.0985708 15.000001
v 15 0.0985708237 25
v 14.9499998 0.0985708237 15.000001
v 15 0.0985708237 15.000001
v 15 6.09857082 -5
v 14.9499998 8.09857082 -5
v 15 8.09857082 -5
v 15 10.0985708 -5
v 14.9499998 10.0985708 5
v 15 10.0985708 5
v 15 10.0985708 25
v 14.9499998 8.09857082 25
v 15 8.09857082 25
v 15 8.09857082 -15.000001
v 14.9499998 6.09857082 -15.000001
v 15 6.09857082 -15.000001
v 15 10.0985708 -15.000001
v 14.9499998 10.0985708 -5
v 15 10.0985708 -5
v 15 10.0985708 -25
v 14.9499998 10.0985708 -15.000001
v 15 10.0985708 -15.000001
v 15 8.09857082 -25
v 14.9499998 10.0985708 -25
v 15 10.0985708 -25
v 15 0.0985708237 -25
v 14.9499998 2.09857082 -25
v 15 2.09857082 -25
v 15 6.09857082 -25
v 14.9499998 8.09857082 -25
v 15 8.09857082 -25
v 15 0.0985708237 -15.000001
v 14.9499998 0.0985708237 -25
v 15 0.0985708237 -25
v 15 4.09857082 -25
v 14.9499998 6.09857082 -25
v 15 6.09857082 -25
v 15 0.0985708237 -5
v 14.9499998 0.0985708237 -15.000001
v 15 0.0985708237 -15.000001
v 15 6.09857082 5
v 14.9499998 6.09857082 15.000001
v 15 6.09857082 15.000001
v 15 2.09857082 -25
v 14.9499998 4.09857082 -25
v 15 4.09857082 -25
v 15 0.0985708237 5
v 14.9499998 0.0985708237 -5
v 15 0.0985708237 -5
v 15 0.0985708237 15.000001
v 14.9499998 0.0985708237 5
v 15 0.0985708237 5
v 15 6.09857082 -15.000001
v 14.9499998 6.09857082 -5
v 15 6.09857082 -5
v 15 2.09857082 25
v 14.9499998 0.0985708237 25
v 15 0.0985708237 25
v 15 4.09857082 25
v 14.9499998 2.09857082 25
v 15 2.09857082 25
v 15 6.09857082 25
v 14.9499998 4.09857082 25
v 15 4.09857082 25
v 15 8.09857082 15.000001
v 14.9499998 8.09857082 5
v 15 8.09857082 5
v 15 8.09857082 -25
v 15 10.0985708 -25
v 15 10.0985708 -15.000001
v 15 0.0985708237 -25
v 15 2.09857082 -25
v 15 2.09857082 -15.000001
v 15 2.09857082 -25
v 15 4.09857082 -25
v 15 4.09857082 -15.000001
v 15 4.09857082 -25
v 15 6.09857082 -25
v 15 6.09857082 -15.000001
v 15 6.09857082 -25
v 15 8.09857082 -25
v 15 8.09857082 -15.000001
v 15 0.0985708237 15.000001
v 15 2.09857082 15.000001
v 15 2.09857082 25
v 15 0.0985708237 5
v 15 2.09857082 5
v 15 2.09857082 15.000001
v 15 0.0985708237 -5
v 15 2.09857082 -5
v 15 2.09857082 5
v 15 0.0985708237 -15.000001
v 15 2.09857082 -15.000001
v 15 2.09857082 -5
v 15 2.09857082 15.000001
v 15 4.09857082 15.000001
v 15 4.09857082 25
v 15 2.09857082 5
v 15 4.09857082 5
v 15 4.09857082 15.000001
v 15 2.09857082 -5
v 15 4.09857082 -5
v 15 4.09857082 5
v 15 2.09857082 -15.000001
v 15 4.09857082 -15.000001
v 15 4.09857082 -5
v 15 4.09857082 15.000001
v 15 6.09857082 15.000001
v 15 6.09857082 25
v 15 4.09857082 5
v 15 6.09857082 5
v 15 6.09857082 15.000001
v 15 4.09857082 -5
v 15 6.09857082 -5
v 15 6.09857082 5
v 15 4.09857082 -15.000001
v 15 6.09857082 -15.000001
v 15 6.09857082 -5
v 15 6.09857082 15.000001
v 15 8.09857082 15.000001
v 15 8.09857082 25
v 15 6.09857082 -5
v 15 8.09857082 -5
v 15 8.09857082 5
v 15 8.09857082 15.000001
v 15 10.0985708 15.000001
v 15 10.0985708 25
v 15 8.09857082 5
v 15 10.0985708 5
v 15 10.0985708 15.000001
v 15 8.09857082 -5
v 15 10.0985708 -5
v 15 10.0985708 5
v 15 8.09857082 -15.000001
v 15 10.0985708 -15.000001
v 15 10.0985708 -5
v 14.9499998 10.0985708 -15.000001
v 14.9499998 10.0985708 -25
v 14.9499998 8.09857082 -25
v 14.9499998 2.09857082 -15.000001
v 14.9499998 2.09857082 -25
v 14.9499998 0.0985708237 -25
v 14.9499998 4.09857082 -15.000001
v 14.9499998 4.09857082 -25
v 14.9499998 2.09857082 -25
v 14.9499998 6.09857082 -15.000001
v 14.9499998 6.09857082 -25
v 14.9499998 4.09857082 -25
v 14.9499998 8.09857082 -15.000001
v 14.9499998 8.09857082 -25
v 14.9499998 6.09857082 -25
v 14.9499998 2.09857082 25
v 14.9499998 2.09857082 15.000001
v 14.9499998 0.0985708237 15.000001
v 14.9499998 2.09857082 15.000001
v 14.9499998 2.09857082 5
v 14.9499998 0.0985708237 5
v 14.9499998 2.09857082 5
v 14.9499998 2.09857082 -5
v 14.9499998 0.0985708237 -5
v 14.9499998 2.09857082 -5
v 14.9499998 2.09857082 -15.000001
v 14.9499998 0.0985708237 -15.000001
v 14.9499998 4.09857082 25
v 14.9499998 4.09857082 15.000001
v 14.9499998 2.09857082 15.000001
v 14.9499998 4.09857082 15.000001
v 14.9499998 4.09857082 5
v 14.9499998 2.09857082 5
v 14.9499998 4.09857082 5
v 14.9499998 4.09857082 -5
v 14.9499998 2.09857082 -5
v 14.9499998 4.09857082 -5
v 14.9499998 4.09857082 -15.000001
v 14.9499998 2.09857082 -15.000001
v 14.9499998 6.09857082 25
v 14.9499998 6.09857082 15.000001
v 14.9499998 4.09857082 15.000001
v 14.9499998 6.09857082 15.000001
v 14.9499998 6.09857082 5
v 14.9499998 4.09857082 5
v 14.9499998 6.09857082 5
v 14.9499998 6.09857082 -5
v 14.9499998 4.09857082 -5
v 14.9499998 6.09857082 -5
v 14.9499998 6.09857082 -15.000001
v 14.9499998 4.09857082 -15.000001
v 14.9499998 8.09857082 25
v 14.9499998 8.09857082 15.000001
v 14.9499998 6.09857082 15.000001
v 14.9499998 8.09857082 5
v 14.9499998 8.09857082 -5
v 14.9499998 6.09857082 -5
v 14.9499998 10.0985708 25
v 14.9499998 10.0985708 15.000001
v 14.9499998 8.09857082 15.000001
v 14.9499998 10.0985708 15.000001
v 14.9499998 10.0985708 5
v 14.9499998 8.09857082 5
v 14.9499998 10.0985708 5
v 14.9499998 10.0985708 -5
v 14.9499998 8.09857082 -5
v 14.9499998 10.0985708 -5
v 14.9499998 10.0985708 -15.000001
v 14.9499998 8.09857082 -15.000001
v 15 8.09857082 25
v 14.9499998 8.09857082 25
v 14.9499998 6.09857082 25
v 15 6.09857082 15.000001
v 14.9499998 6.09857082 15.000001
v 14.9499998 8.09857082 15.000001
v 15 10.0985708 15.000001
v 14.9499998 10.0985708 15.000001
v 14.9499998 10.0985708 25
v 15 8.09857082 -5
v 14.9499998 8.09857082 -5
v 14.9499998 8.09857082 -15.000001
v 15 8.09857082 5
v 14.9499998 8.09857082 5
v 14.9499998 6.09857082 5
v 15 10.0985708 5
v 14.9499998 10.0985708 5
v 14.9499998 10.0985708 15.000001
v 15 0.0985708237 25
v 14.9499998 0.0985708237 25
v 14.9499998 0.0985708237 15.000001
v 15 6.09857082 -5
v 14.9499998 6.09857082 -5
v 14.9499998 8.09857082 -5
v 15 10.0985708 -5
v 14.9499998 10.0985708 -5
v 14.9499998 10.0985708 5
v 15 10.0985708 25
v 14.9499998 10.0985708 25
v 14.9499998 8.09857082 25
v 15 8.09857082 -15.000001
v 14.9499998 8.09857082 -15.000001
v 14.9499998 6.09857082 -15.000001
v 15 10.0985708 -15.000001
v 14.9499998 10.0985708 -15.000001
v 14.9499998 10.0985708 -5
v 15 10.0985708 -25
v 14.9499998 10.0985708 -25
v 14.9499998 10.0985708 -15.000001
v 15 8.09857082 -25
v 14.9499998 8.09857082 -25
v 14.9499998 10.0985708 -25
v 15 0.0985708237 -25
v 14.9499998 0.0985708237 -25
v 14.9499998 2.09857082 -25
v 15 6.09857082 -25
v 14.9499998 6.09857082 -25
v 14.9499998 8.09857082 -25
v 15 0.0985708237 -15.000001
v 14.9499998 0.0985708237 -15.000001
v 14.9499998 0.0985708237 -25
v 15 4.09857082 -25
v 14.9499998 4.09857082 -25
v 14.9499998 6.09857082 -25
v 15 0.0985708237 -5
v 14.9499998 0.0985708237 -5
v 14.9499998 0.0985708237 -15.000001
v 15 6.09857082 5
v 14.9499998 6.09857082 5
v 14.9499998 6.09857082 15.000001
v 15 2.09857082 -25
v 14.9499998 2.09857082 -25
v 14.9499998 4.09857082 -25
v 15 0.0985708237 5
v 14.9499998 0.0985708237 5
v 14.9499998 0.0985708237 -5
v 15 0.0985708237 15.000001
v 14.9499998 0.0985708237 15.000001
v 14.9499998 0.0985708237 5
v 15 6.09857082 -15.000001
v 14.9499998 6.09857082 -15.000001
v 14.9499998 6.09857082 -5
v 15 2.09857082 25
v 14.9499998 2.09857082 25
v 14.9499998 0.0985708237 25
v 15 4.09857082 25
v 14.9499998 4.09857082 25
v 14.9499998 2.09857082 25
v 15 6.09857082 25
v 14.9499998 6.09857082 25
v 14.9499998 4.09857082 25
v 15 8.09857082 15.000001
v 14.9499998 8.09857082 15.000001
v 14.9499998 8.09857082 5
v -15 2.09857082 -25
v -15 0.0985708237 -15.000001
v -15 2.09857082 -15.000001
v -15 10.0985708 -25
v -15 8.09857082 -15.000001
v -15 10.0985708 -15.000001
v -15 8.09857082 -25
v -15 6.09857082 -15.000001
v -15 8.09857082 -15.000001
v -15 6.09857082 -25
v -15 4.09857082 -15.000001
v -15 6.09857082 -15.000001
v -15 4.09857082 -25
v -15 2.09857082 -15.000001
v -15 4.09857082 -15.000001
v -15 10.0985708 15.000001
v -15 8.09857082 25
v -15 10.0985708 25
v -15 10.0985708 5
v -15 8.09857082 15.000001
v -15 10.0985708 15.000001
v -15 10.0985708 -5
v -15 8.09857082 5
v -15 10.0985708 5
v -15 10.0985708 -15.000001
v -15 8.09857082 -5
v -15 10.0985708 -5
v -15 8.09857082 15.000001
v -15 6.09857082 25
v -15 8.09857082 25
v -15 8.09857082 -5
v -15 6.09857082 5
v -15 8.09857082 5
v -15 6.09857082 15.000001
v -15 4.09857082 25
v -15 6.09857082 25
v -15 6.09857082 5
v -15 4.09857082 15.000001
v -15 6.09857082 15.000001
v -15 6.09857082 -5
v -15 4.09857082 5
v -15 6.09857082 5
v -15 6.09857082 -15.000001
v -15 4.09857082 -5
v -15 6.09857082 -5
v -15 4.09857082 15.000001
v -15 2.09857082 25
v -15 4.09857082 25
v -15 4.09857082 5
v -15 2.09857082 15.000001
v -15 4.09857082 15.000001
v -15 4.09857082 -5
v -15 2.09857082 5
v -15 4.09857082 5
v -15 4.09857082 -15.000001
v -15 2.09857082 -5
v -15 4.09857082 -5
v -15 2.09857082 15.000001
v -15 0.0985708237 25
v -15 2.09857082 25
v -15 2.09857082 5
v -15 0.0985708237 15.000001
v -15 2.09857082 15.000001
v -15 2.09857082 -5
v -15 0.0985708237 5
v -15 2.09857082 5
v -15 2.09857082 -15.000001
v -15 0.0985708237 -5
v -15 2.09857082 -5
v -14.9499998 0.0985708237 -15.000001
v -14.9499998 2.09857082 -25
v -14.9499998 2.09857082 -15.000001
v -14.9499998 8.09857082 -15.000001
v -14.9499998 10.0985708 -25
v -14.9499998 10.0985708 -15.000001
v -14.9499998 6.09857082 -15.000001
v -14.9499998 8.09857082 -25
v -14.9499998 8.09857082 -15.000001
v -14.9499998 4.09857082 -15.000001
v -14.9499998 6.09857082 -25
v -14.9499998 6.09857082 -15.000001
v -14.9499998 2.09857082 -15.000001
v -14.9499998 4.09857082 -25
v -14.9499998 4.09857082 -15.000001
v -14.9499998 8.09857082 25
v -14.9499998 10.0985708 15.000001
v -14.9499998 10.0985708 25
v -14.9499998 8.09857082 15.000001
v -14.9499998 10.0985708 5
v -14.9499998 10.0985708 15.000001
v -14.9499998 8.09857082 5
v -14.9499998 10.0985708 -5
v -14.9499998 10.0985708 5
v -14.9499998 8.09857082 -5
v -14.9499998 10.0985708 -15.000001
v -14.9499998 10.0985708 -5
v -14.9499998 6.09857082 25
v -14.9499998 8.09857082 15.000001
v -14.9499998 8.09857082 25
v -14.9499998 6.09857082 5
v -14.9499998 8.09857082 -5
v -14.9499998 8.09857082 5
v -14.9499998 4.09857082 25
v -14.9499998 6.09857082 15.000001
v -14.9499998 6.09857082 25
v -14.9499998 4.09857082 15.000001
v -14.9499998 6.09857082 5
v -14.9499998 6.09857082 15.000001
v -14.9499998 4.09857082 5
v -14.9499998 6.09857082 -5
v -14.9499998 6.09857082 5
v -14.9499998 4.09857082 -5
v -14.9499998 6.09857082 -15.000001
v -14.9499998 6.09857082 -5
v -14.9499998 2.09857082 25
v -14.9499998 4.09857082 15.000001
v -14.9499998 4.09857082 25
v -14.9499998 2.09857082 15.000001
v -14.9499998 4.09857082 5
v -14.9499998 4.09857082 15.000001
v -14.9499998 2.09857082 5
v -14.9499998 4.09857082 -5
v -14.9499998 4.09857082 5
v -14.9499998 2.09857082 -5
v -14.9499998 4.09857082 -15.000001
v -14.9499998 4.09857082 -5
v -14.9499998 0.0985708237 25
v -14.9499998 2.09857082 15.000001
v -14.9499998 2.09857082 25
v -14.9499998 0.0985708237 15.000001
v -14.9499998 2.09857082 5
v -14.9499998 2.09857082 15.000001
v -14.9499998 0.0985708237 5
v -14.9499998 2.09857082 -5
v -14.9499998 2.09857082 5
v -14.9499998 0.0985708237 -5
v -14.9499998 2.09857082 -15.000001
v -14.9499998 2.09857082 -5
v -15 2.09857082 25
v -14.9499998 4.09857082 25
v -15 4.09857082 25
v -15 0.0985708237 15.000001
v -14.9499998 0.0985708237 25
v -15 0.0985708237 25
v -15 0.0985708237 5
v -14.9499998 0.0985708237 15.000001
v -15 0.0985708237 15.000001
v -15 10.0985708 25
v -14.9499998 10.0985708 15.000001
v -15 10.0985708 15.000001
v -15 6.09857082 15.000001
v -14.9499998 6.09857082 5
v -15 6.09857082 5
v -15 0.0985708237 -5
v -14.9499998 0.0985708237 5
v -15 0.0985708237 5
v -15 0.0985708237 25
v -14.9499998 2.09857082 25
v -15 2.09857082 25
v -15 0.0985708237 -15.000001
v -14.9499998 0.0985708237 -5
v -15 0.0985708237 -5
v -15 0.0985708237 -25
v -14.9499998 0.0985708237 -15.000001
v -15 0.0985708237 -15.000001
v -15 6.09857082 -5
v -14.9499998 6.09857082 -15.000001
v -15 6.09857082 -15.000001
v -15 2.09857082 -25
v -14.9499998 0.0985708237 -25
v -15 0.0985708237 -25
v -15 10.0985708 -25
v -14.9499998 8.09857082 -25
v -15 8.09857082 -25
v -15 4.09857082 -25
v -14.9499998 2.09857082 -25
v -15 2.09857082 -25
v -15 8.09857082 15.000001
v -14.9499998 6.09857082 15.000001
v -15 6.09857082 15.000001
v -15 10.0985708 -15.000001
v -14.9499998 10.0985708 -25
v -15 10.0985708 -25
v -15 6.09857082 -25
v -14.9499998 4.09857082 -25
v -15 4.09857082 -25
v -15 6.09857082 5
v -14.9499998 8.09857082 5
v -15 8.09857082 5
v -15 10.0985708 -5
v -14.9499998 10.0985708 -15.000001
v -15 10.0985708 -15.000001
v -15 8.09857082 -25
v -14.9499998 6.09857082 -25
v -15 6.09857082 -25
v -15 8.09857082 -5
v -14.9499998 6.09857082 -5
v -15 6.09857082 -5
v -15 10.0985708 5
v -14.9499998 10.0985708 -5
v -15 10.0985708 -5
v -15 6.09857082 -15.000001
v -14.9499998 8.09857082 -15.000001
v -15 8.09857082 -15.000001
v -15 10.0985708 15.000001
v -14.9499998 10.0985708 5
v -15 10.0985708 5
v -15 8.09857082 25
v -14.9499998 10.0985708 25
v -15 10.0985708 25
v -15 8.09857082 5
v -14.9499998 8.09857082 15.000001
v -15 8.09857082 15.000001
v -15 6.09857082 25
v -14.9499998 8.09857082 25
v -15 8.09857082 25
v -15 4.09857082 25
v -14.9499998 6.09857082 25
v -15 6.09857082 25
v -15 8.09857082 -15.000001
v -14.9499998 8.09857082 -5
v -15 8.09857082 -5
v -15 2.09857082 -25
v -15 0.0985708237 -25
v -15 0.0985708237 -15.000001
v -15 10.0985708 -25
v -15 8.09857082 -25
v -15 8.09857082 -15.000001
v -15 8.09857082 -25
v -15 6.09857082 -25
v -15 6.09857082 -15.000001
v -15 6.09857082 -25
v -15 4.09857082 -25
v -15 4.09857082 -15.000001
v -15 4.09857082 -25
v -15 2.09857082 -25
v -15 2.09857082 -15.000001
v -15 10.0985708 15.000001
v -15 8.09857082 15.000001
v -15 8.09857082 25
v -15 10.0985708 5
v -15 8.09857082 5
v -15 8.09857082 15.000001
v -15 10.0985708 -5
v -15 8.09857082 -5
v -15 8.09857082 5
v -15 10.0985708 -15.000001
v -15 8.09857082 -15.000001
v -15 8.09857082 -5
v -15 8.09857082 15.000001
v -15 6.09857082 15.000001
v -15 6.09857082 25
v -15 8.09857082 -5
v -15 6.09857082 -5
v -15 6.09857082 5
v -15 6.09857082 15.000001
v -15 4.09857082 15.000001
v -15 4.09857082 25
v -15 6.09857082 5
v -15 4.09857082 5
v -15 4.09857082 15.000001
v -15 6.09857082 -5
v -15 4.09857082 -5
v -15 4.09857082 5
v -15 6.09857082 -15.000001
v -15 4.09857082 -15.000001
v -15 4.09857082 -5
v -15 4.09857082 15.000001
v -15 2.09857082 15.000001
v -15 2.09857082 25
v -15 4.09857082 5
v -15 2.09857082 5
v -15 2.09857082 15.000001
v -15 4.09857082 -5
v -15 2.09857082 -5
v -15 2.09857082 5
v -15 4.09857082 -15.000001
v -15 2.09857082 -15.000001
v -15 2.09857082 -5
v -15 2.09857082 15.000001
v -15 0.0985708237 15.000001
v -15 0.0985708237 25
v -15 2.09857082 5
v -15 0.0985708237 5
v -15 0.0985708237 15.000001
v -15 2.09857082 -5
v -15 0.0985708237 -5
v -15 0.0985708237 5
v -15 2.09857082 -15.000001
v -15 0.0985708237 -15.000001
v -15 0.0985708237 -5
v -14.9499998 0.0985708237 -15.000001
v -14.9499998 0.0985708237 -25
v -14.9499998 2.09857082 -25
v -14.9499998 8.09857082 -15.000001
v -14.9499998 8.09857082 -25
v -14.9499998 10.0985708 -25
v -14.9499998 6.09857082 -15.000001
v -14.9499998 6.09857082 -25
v -14.9499998 8.09857082 -25
v -14.9499998 4.09857082 -15.000001
v -14.9499998 4.09857082 -25
v -14.9499998 6.09857082 -25
v -14.9499998 2.09857082 -15.000001
v -14.9499998 2.09857082 -25
v -14.9499998 4.09857082 -25
v -14.9499998 8.09857082 25
v -14.9499998 8.09857082 15.000001
v -14.9499998 10.0985708 15.000001
v -14.9499998 8.09857082 15.000001
v -14.9499998 8.09857082 5
v -14.9499998 10.0985708 5
v -14.9499998 8.09857082 5
v -14.9499998 8.09857082 -5
v -14.9499998 10.0985708 -5
v -14.9499998 8.09857082 -5
v -14.9499998 8.09857082 -15.000001
v -14.9499998 10.0985708 -15.000001
v -14.9499998 6.09857082 25
v -14.9499998 6.09857082 15.000001
v -14.9499998 8.09857082 15.000001
v -14.9499998 6.09857082 5
v -14.9499998 6.09857082 -5
v -14.9499998 8.09857082 -5
v -14.9499998 4.09857082 25
v -14.9499998 4.09857082 15.000001
v -14.9499998 6.09857082 15.000001
v -14.9499998 4.09857082 15.000001
v -14.9499998 4.09857082 5
v -14.9499998 6.09857082 5
v -14.9499998 4.09857082 5
v -14.9499998 4.09857082 -5
v -14.9499998 6.09857082 -5
v -14.9499998 4.09857082 -5
v -14.9499998 4.09857082 -15.000001
v -14.9499998 6.09857082 -15.000001
v -14.9499998 2.09857082 25
v -14.9499998 2.09857082 15.000001
v -14.9499998 4.09857082 15.000001
v -14.9499998 2.09857082 15.000001
v -14.9499998 2.09857082 5
v -14.9499998 4.09857082 5
v -14.9499998 2.09857082 5
v -14.9499998 2.09857082 -5
v -14.9499998 4.09857082 -5
v -14.9499998 2.09857082 -5
v -14.9499998 2.09857082 -15.000001
v -14.9499998 4.09857082 -15.000001
v -14.9499998 0.0985708237 25
v -14.9499998 0.0985708237 15.000001
v -14.9499998 2.09857082 15.000001
v -14.9499998 0.0985708237 15.000001
v -14.9499998 0.0985708237 5
v -14.9499998 2.09857082 5
v -14.9499998 0.0985708237 5
v -14.9499998 0.0985708237 -5
v -14.9499998 2.09857082 -5
v -14.9499998 0.0985708237 -5
v -14.9499998 0.0985708237 -15.000001
v -14.9499998 2.09857082 -15.000001
v -15 2.09857082 25
v -14.9499998 2.09857082 25
v -14.9499998 4.09857082 25
v -15 0.0985708237 15.000001
v -14.9499998 0.0985708237 15.000001
v -14.9499998 0.0985708237 25
v -15 0.0985708237 5
v -14.9499998 0.0985708237 5
v -14.9499998 0.0985708237 15.000001
v -15 10.0985708 25
v -14.9499998 10.0985708 25
v -14.9499998 10.0985708 15.000001
v -15 6.09857082 15.000001
v -14.9499998 6.09857082 15.000001
v -14.9499998 6.09857082 5
v -15 0.0985708237 -5
v -14.9499998 0.0985708237 -5
v -14.9499998 0.0985708237 5
v -15 0.0985708237 25
v -14.9499998 0.0985708237 25
v -14.9499998 2.09857082 25
v -15 0.0985708237 -15.000001
v -14.9499998 0.0985708237 -15.000001
v -14.9499998 0.0985708237 -5
v -15 0.0985708237 -25
v -14.9499998 0.0985708237 -25
v -14.9499998 0.0985708237 -15.000001
v -15 6.09857082 -5
v -14.9499998 6.09857082 -5
v -14.9499998 6.09857082 -15.000001
v -15 2.09857082 -25
v -14.9499998 2.09857082 -25
v -14.9499998 0.0985708237 -25
v -15 10.0985708 -25
v -14.9499998 10.0985708 -25
v -14.9499998 8.09857082 -25
v -15 4.09857082 -25
v -14.9499998 4.09857082 -25
v -14.9499998 2.09857082 -25
v -15 8.09857082 15.000001
v -14.9499998 8.09857082 15.000001
v -14.9499998 6.09857082 15.000001
v -15 10.0985708 -15.000001
v -14.9499998 10.0985708 -15.000001
v -14.9499998 10.0985708 -25
v -15 6.09857082 -25
v -14.9499998 6.09857082 -25
v -14.9499998 4.09857082 -25
v -15 6.09857082 5
v -14.9499998 6.09857082 5
v -14.9499998 8.09857082 5
v -15 10.0985708 -5
v -14.9499998 10.0985708 -5
v -14.9499998 10.0985708 -15.000001
v -15 8.09857082 -25
v -14.9499998 8.09857082 -25
v -14.9499998 6.09857082 -25
v -15 8.09857082 -5
v -14.9499998 8.09857082 -5
v -14.9499998 6.09857082 -5
v -15 10.0985708 5
v -14.9499998 10.0985708 5
v -14.9499998 10.0985708 -5
v -15 6.09857082 -15.000001
v -14.9499998 6.09857082 -15.000001
v -14.9499998 8.09857082 -15.000001
v -15 10.0985708 15.000001
v -14.9499998 10.0985708 15.000001
v -14.9499998 10.0985708 5
v -15 8.09857082 25
v -14.9499998 8.09857082 25
v -14.9499998 10.0985708 25
v -15 8.09857082 5
v -14.9499998 8.09857082 5
v -14.9499998 8.09857082 15.000001
v -15 6.09857082 25
v -14.9499998 6.09857082 25
v -14.9499998 8.09857082 25
v -15 4.09857082 25
v -14.9499998 4.09857082 25
v -14.9499998 6.09857082 25
v -15 8.09857082 -15.000001
v -14.9499998 8.09857082 -15.000001
v -14.9499998 8.09857082 -5
vt 16.1568508 -2.18806505 0
vt 8.32842445 -4.87613106 0
vt 8.32842541 -2.18806505 0
vt 16.1568508 5.87613106 0
vt 8.32842541 0.5 0
vt 0.5 0.5 0
vt 0.5 5.87613106 0
vt -7.32842398 0.5 0
vt -15.1568499 -2.18806505 0
vt -15.1568499 0.5 0
vt -7.32842398 -2.18806505 0
vt -15.1568499 -4.87613106 0
vt 16.1568508 0.5 0
vt 16.1568508 -4.87613106 0
vt -15.1568499 5.87613106 0
vt -7.32842398 -4.87613106 0
vt 6.76277018 0.5 0
vt 0.5 3.90114307 0
vt 0.5 7.30228615 0
vt -1.06569302 14.1045704 0
vt 0.5 10.7034302 0
vt -1.06569302 10.7034302 0
vt -1.06569302 -2.90114307 0
vt 0.5 -2.90114307 0
vt 6.76277018 -13.1045704 0
vt 0.5 -9.70343018 0
vt 0.5 -6.30228615 0
vt -5.76277018 -2.90114307 0
vt -4.19707823 0.5 0
vt -4.19707823 -2.90114307 0
vt -5.76277018 -13.1045704 0
vt -4.19707823 -9.70343018 0
vt -4.19707823 -13.1045704 0
vt -5.76277018 -9.70343018 0
vt -4.19707823 -6.30228615 0
vt -5.76277018 -6.30228615 0
vt -2.63138509 -9.70343018 0
vt -2.63138509 -13.1045704 0
vt -2.63138509 -2.90114307 0
vt -2.63138509 -6.30228615 0
vt -1.06569302 -9.70343018 0
vt -1.06569302 -13.1045704 0
vt -1.06569302 -6.30228615 0
vt 0.5 -13.1045704 0
vt -5.76277018 14.1045704 0
vt -4.19707823 10.7034302 0
vt -5.76277018 10.7034302 0
vt -4.19707823 14.1045704 0
vt -2.63138509 10.7034302 0
vt -2.63138509 14.1045704 0
vt -5.76277018 3.90114307 0
vt -5.76277018 0.5 0
vt -5.76277018 7.30228615 0
vt -4.19707823 3.90114307 0
vt -4.19707823 7.30228615 0
vt -2.63138509 3.90114307 0
vt -2.63138509 7.30228615 0
vt -1.06569302 3.90114307 0
vt -1.06569302 0.5 0
vt -1.06569302 7.30228615 0
vt 0.5 14.1045704 0
vt 6.76277018 14.1045704 0
vt 3.76105905 26.7989902 0
vt 5.93509817 16.2793999 0
vt 3.76105785 16.2793999 0
vt -4.93509817 26.7989902 0
vt -2.76105905 16.2793999 0
vt -4.93509817 16.2793999 0
vt -2.76105905 26.7989902 0
vt -0.587019801 16.2793999 0
vt -0.587019503 26.7989902 0
vt 1.58701992 16.2793999 0
vt 1.58701992 26.7989902 0
vt -4.93509817 -15.2793999 0
vt -2.76105905 -25.7989902 0
vt -4.93509817 -25.7989902 0
vt -4.93509817 -4.759799 0
vt -2.76105785 -15.2793999 0
vt -4.93509817 5.759799 0
vt -2.76105905 -4.759799 0
vt -2.76105905 5.759799 0
vt -0.587019503 -25.7989902 0
vt -0.587019086 -15.2793999 0
vt -0.587019503 -4.759799 0
vt -0.587019801 5.759799 0
vt 1.58701992 -25.7989902 0
vt 1.58701992 -15.2793999 0
vt 1.58701992 -4.759799 0
vt 1.58701992 5.759799 0
vt 3.76105905 -25.7989902 0
vt 3.76105905 -4.759799 0
vt 3.76105905 -15.2793999 0
vt 5.93509817 -25.7989902 0
vt 5.93509817 -15.2793999 0
vt 3.76105785 5.759799 0
vt 5.93509817 -4.759799 0
vt 5.93509817 5.759799 0
vt 5.93509817 26.7989902 0
vt 30.3090305 -2.70338297 0
vt 18.3854198 -4.83897305 0
vt 18.3854198 -2.70338297 0
vt 30.3090305 5.83897305 0
vt 18.3854198 3.70338297 0
vt 18.3854198 5.83897305 0
vt 30.3090305 3.70338297 0
vt 18.3854198 1.56779504 0
vt 30.3090305 1.56779408 0
vt 18.3854198 -0.567794919 0
vt 30.3090305 -0.567795396 0
vt -17.3854198 5.83897305 0
vt -29.3090305 3.70338297 0
vt -29.3090305 5.83897305 0
vt -5.46180582 5.83897305 0
vt -17.3854198 3.70338297 0
vt 6.46181202 5.83897305 0
vt -5.46180582 3.70338297 0
vt 6.46181011 3.70338297 0
vt -29.3090305 1.56779504 0
vt -5.46180582 1.56779504 0
vt -17.3854198 1.56779408 0
vt -29.3090305 -0.567794621 0
vt -17.3854198 -0.567794621 0
vt 6.46180916 1.56779504 0
vt -5.46180725 -0.5677948 0
vt 6.46180916 -0.5677948 0
vt -29.3090305 -2.70338297 0
vt -17.3854198 -2.70338488 0
vt -5.46180725 -2.70338297 0
vt 6.4618082 -2.70338297 0
vt -29.3090305 -4.83897305 0
vt -17.3854198 -4.83897305 0
vt -5.46180916 -4.83897305 0
vt 6.46180725 -4.83897305 0
vt 30.3090305 -4.83897305 0
vn 0 0 0.5
vn 0 -7.28525038e-07 0.5
vn 0 0 -0.5
vn 0 7.45059992e-07 -0.5
vn 15 0 -9.99999997e-07
vn -15 0 9.99999997e-07
vn 0 -5 0
vn 6.7082057 4.47213602 -4.47213722e-07
vn -6.70820236 4.47213697 4.47213495e-07
vn -2.18557511e-06 -7.28525038e-07 0.5
vn 2.62269009e-06 -0 0.5
vn 2.16067497e-06 7.45059992e-07 -0.5
vn -2.59279477e-06 0 -0.5
vn 6.70820379 4.47213602 -4.4721358e-07
vn -6.7082057 4.47213602 4.47213722e-07
vn 0 -5.96064979e-07 -0.5
vn -2.45877004e-06 -0 -0.5
vn -2.18557511e-06 -0 -0.5
vn -1.96701012e-06 -0 -0.5
vn 2.91409492e-06 0 -0.5
vn 2.18557511e-06 0 -0.5
vn 0 -1.019725e-06 -0.5
vn 2.38424991e-06 -5.96064979e-07 -0.5
vn 2.62267531e-06 0 -0.5
vn 1.78819494e-06 -5.96064979e-07 -0.5
vn 0 -5.9716001e-07 -0.5
vn 0 6.49785022e-07 0.5
vn 0 9.5384496e-07 0.5
vn 2.93056519e-06 0 0.5
vn 2.86102522e-06 0 0.5
vn 2.31645026e-06 6.50230049e-07 0.5
vn 2.38419011e-06 0 0.5
vn 1.95069015e-06 6.50230049e-07 0.5
vn 0 6.50230049e-07 0.5
vn -2.93056519e-06 0 0.5
vn -2.38419011e-06 0 0.5
vn -2.31645026e-06 6.50230049e-07 0.5
vn -2.86102522e-06 0 0.5
vn -1.95069015e-06 6.50230049e-07 0.5
vn 15 0 9.99999997e-07
vn -15 0 -9.99999997e-07
vn 1.8605206 4.96138954 1.24034699e-07
vn -0.0142380595 4.99999809 -9.49203938e-10
vn -6.70821142 4.47213507 -4.47214092e-07
vn -1.86052203 4.96138954 -1.24034798e-07
vn -6.70819807 4.47213697 -4.4721321e-07
vn -6.7082057 4.47213602 -4.47213722e-07
vn -0.00499784993 -5 -3.33190003e-10
vn -5.26684666 -4.68164635 -3.51123106e-07
vn 6.70819807 4.47213697 4.4721321e-07
vn 0.00497996993 -5 3.31997985e-10
vn 6.70820141 4.4721365 4.47213409e-07
vn 6.70820236 4.47213697 4.47213495e-07
vn 5.26685095 -4.68164635 3.5112339e-07
vn 0.0142335901 4.99999809 9.48905954e-10
vn 6.70820713 4.47213602 4.47213807e-07
vn -2.91409492e-06 -0 -0.5
vn -2.62267531e-06 -0 -0.5
vn -2.38424991e-06 -5.96064979e-07 -0.5
vn -1.78819494e-06 -5.96064979e-07 -0.5
vn 2.45877004e-06 0 -0.5
vn 1.96701012e-06 0 -0.5
vn 2.68221015e-06 0 0.5
vn 2.08615506e-06 0 0.5
vn 2.14576517e-06 0 0.5
vn 1.78813502e-06 0 0.5
vn -2.68221015e-06 0 0.5
vn -1.78813502e-06 0 0.5
vn -2.14576517e-06 0 0.5
vn -2.08615506e-06 0 0.5
vn 1.86052203 4.96138954 1.24034798e-07
vn -0.0142335901 4.99999809 -9.48905954e-10
vn -1.8605206 4.96138954 -1.24034699e-07
vn -6.70820713 4.47213602 -4.47213807e-07
vn -6.70820141 4.4721365 -4.47213409e-07
vn -0.00497996993 -5 -3.31997985e-10
vn -6.70820236 4.47213697 -4.47213495e-07
vn -5.26685095 -4.68164635 -3.5112339e-07
vn 6.70821142 4.47213507 4.47214092e-07
vn 0.00499784993 -5 3.33190003e-10
vn 6.7082057 4.47213602 4.47213722e-07
vn 5.26684666 -4.68164635 3.51123106e-07
vn 0.0142380595 4.99999809 9.49203938e-10
vn 0.5 0 0
vn -0.5 0 0
vn 0 0 25
vn 0 0 -25
vn 0 5 0
f 1/1/1 2/2/1 3/3/1
f 4/4/1 5/5/1 6/6/1
f 7/7/2 8/6/2 9/8/2
f 10/8/1 11/9/1 12/10/1
f 13/11/1 14/12/1 15/9/1
f 16/13/1 17/3/1 18/5/1
f 19/2/3 20/1/3 21/3/3
f 22/6/3 23/5/3 24/4/3
f 25/8/4 26/6/4 27/7/4
f 28/9/3 29/8/3 30/10/3
f 31/12/3 32/11/3 33/9/3
f 34/3/3 35/13/3 36/5/3
f 37/3/5 38/5/5 39/5/5
f 40/1/6 41/14/6 42/14/6
f 43/10/5 44/15/5 45/15/5
f 46/2/5 47/3/5 48/3/5
f 49/5/7 50/6/7 51/6/7
f 52/13/6 53/1/6 54/1/6
f 55/15/8 56/7/8 57/7/8
f 58/6/7 59/8/7 60/8/7
f 61/12/5 62/9/5 63/9/5
f 64/8/6 65/11/6 66/11/6
f 67/14/7 68/2/7 69/2/7
f 70/11/6 71/16/6 72/16/6
f 73/9/5 74/10/5 75/10/5
f 76/4/6 77/13/6 78/13/6
f 79/16/7 80/12/7 81/12/7
f 82/7/9 83/4/9 84/4/9
f 85/1/1 86/14/1 87/2/1
f 88/6/10 89/7/10 90/4/10
f 91/4/1 92/13/1 93/5/1
f 94/10/1 95/15/1 96/8/1
f 97/15/11 98/7/11 99/8/11
f 100/8/1 101/11/1 102/9/1
f 103/11/1 104/16/1 105/12/1
f 106/13/1 107/1/1 108/3/1
f 109/2/3 110/14/3 111/1/3
f 112/4/12 113/7/12 114/6/12
f 115/5/3 116/13/3 117/4/3
f 118/7/13 119/15/13 120/8/13
f 121/15/3 122/10/3 123/8/3
f 124/9/3 125/11/3 126/8/3
f 127/12/3 128/16/3 129/11/3
f 130/3/3 131/1/3 132/13/3
f 133/3/5 134/3/5 135/5/5
f 136/1/6 137/1/6 138/14/6
f 139/10/5 140/10/5 141/15/5
f 142/2/5 143/2/5 144/3/5
f 145/5/7 146/5/7 147/6/7
f 148/13/6 149/13/6 150/1/6
f 151/15/14 152/15/14 153/7/14
f 154/6/7 155/6/7 156/8/7
f 157/12/5 158/12/5 159/9/5
f 160/8/6 161/8/6 162/11/6
f 163/14/7 164/14/7 165/2/7
f 166/11/6 167/11/6 168/16/6
f 169/9/5 170/9/5 171/10/5
f 172/4/6 173/4/6 174/13/6
f 175/16/7 176/16/7 177/12/7
f 178/7/15 179/7/15 180/4/15
f 181/17/3 182/18/3 183/19/3
f 184/20/3 185/21/3 186/22/3
f 187/23/16 188/6/16 189/24/16
f 190/25/3 191/26/3 192/27/3
f 193/28/16 194/29/16 195/30/16
f 196/31/17 197/32/17 198/33/17
f 199/34/18 200/35/18 201/32/18
f 202/36/19 203/30/19 204/35/19
f 205/33/3 206/37/3 207/38/3
f 208/35/3 209/39/3 210/40/3
f 211/38/3 212/41/3 213/42/3
f 214/40/3 215/23/3 216/43/3
f 217/42/3 218/26/3 219/44/3
f 220/41/3 221/27/3 222/26/3
f 223/43/3 224/24/3 225/27/3
f 226/45/20 227/46/20 228/47/20
f 229/48/21 230/49/21 231/46/21
f 232/50/3 233/22/3 234/49/3
f 235/51/22 236/29/22 237/52/22
f 238/53/23 239/54/23 240/51/23
f 241/47/24 242/55/24 243/53/24
f 244/55/25 245/56/25 246/54/25
f 247/57/16 248/58/16 249/56/16
f 250/58/26 251/6/26 252/59/26
f 253/60/16 254/18/16 255/58/16
f 256/22/3 257/19/3 258/60/3
f 259/19/1 260/18/1 261/17/1
f 262/21/1 263/20/1 264/22/1
f 265/23/27 266/6/27 267/59/27
f 268/27/1 269/26/1 270/25/1
f 271/28/28 272/29/28 273/52/28
f 274/31/29 275/32/29 276/34/29
f 277/34/30 278/35/30 279/36/30
f 280/36/31 281/30/31 282/28/31
f 283/33/32 284/37/32 285/32/32
f 286/35/33 287/39/33 288/30/33
f 289/38/1 290/41/1 291/37/1
f 292/40/1 293/23/1 294/39/1
f 295/42/1 296/26/1 297/41/1
f 298/41/1 299/27/1 300/43/1
f 301/43/34 302/24/34 303/23/34
f 304/46/35 305/45/35 306/47/35
f 307/49/36 308/48/36 309/46/36
f 310/22/1 311/50/1 312/49/1
f 313/29/28 314/51/28 315/52/28
f 316/54/37 317/53/37 318/51/37
f 319/55/38 320/47/38 321/53/38
f 322/56/39 323/55/39 324/54/39
f 325/58/1 326/57/1 327/56/1
f 328/6/27 329/58/27 330/59/27
f 331/18/34 332/60/34 333/58/34
f 334/19/1 335/22/1 336/60/1
f 337/41/40 338/37/40 339/41/40
f 340/61/40 341/62/40 342/62/40
f 343/33/41 344/31/41 345/31/41
f 346/43/41 347/40/41 348/40/41
f 349/22/42 350/60/42 351/22/42
f 352/38/41 353/33/41 354/33/41
f 355/23/40 356/39/40 357/23/40
f 358/42/41 359/38/41 360/38/41
f 361/23/43 362/59/43 363/59/43
f 364/28/44 365/52/44 366/52/44
f 367/41/45 368/43/45 369/43/45
f 370/56/41 371/54/41 372/54/41
f 373/36/46 374/28/46 375/28/46
f 376/57/40 377/55/40 378/57/40
f 379/31/47 380/34/47 381/34/47
f 382/54/48 383/29/48 384/29/48
f 385/34/47 386/36/47 387/36/47
f 388/49/41 389/46/41 390/46/41
f 391/25/41 392/44/41 393/44/41
f 394/20/40 395/61/40 396/61/40
f 397/58/41 398/56/41 399/56/41
f 400/62/7 401/17/7 402/17/7
f 403/46/49 404/55/49 405/55/49
f 406/50/40 407/20/40 408/20/40
f 409/60/40 410/57/40 411/60/40
f 412/45/40 413/48/40 414/48/40
f 415/48/40 416/50/40 417/50/40
f 418/37/40 419/32/40 420/37/40
f 421/22/41 422/49/41 423/49/41
f 424/51/50 425/52/50 426/51/50
f 427/29/51 428/30/51 429/30/51
f 430/45/52 431/47/52 432/45/52
f 433/40/41 434/35/41 435/35/41
f 436/44/41 437/42/41 438/42/41
f 439/47/53 440/53/53 441/47/53
f 442/39/40 443/30/40 444/39/40
f 445/17/7 446/25/7 447/25/7
f 448/32/54 449/35/54 450/32/54
f 451/59/55 452/58/55 453/58/55
f 454/53/56 455/51/56 456/53/56
f 457/17/3 458/6/3 459/18/3
f 460/19/3 461/21/3 462/62/3
f 463/21/3 464/61/3 465/62/3
f 466/19/3 467/62/3 468/17/3
f 469/20/3 470/61/3 471/21/3
f 472/23/26 473/59/26 474/6/26
f 475/25/3 476/44/3 477/26/3
f 478/27/3 479/24/3 480/17/3
f 481/24/3 482/6/3 483/17/3
f 484/27/3 485/17/3 486/25/3
f 487/28/22 488/52/22 489/29/22
f 490/31/57 491/34/57 492/32/57
f 493/34/58 494/36/58 495/35/58
f 496/36/59 497/28/59 498/30/59
f 499/33/18 500/32/18 501/37/18
f 502/35/60 503/30/60 504/39/60
f 505/38/3 506/37/3 507/41/3
f 508/40/16 509/39/16 510/23/16
f 511/42/3 512/41/3 513/26/3
f 514/41/3 515/43/3 516/27/3
f 517/43/16 518/23/16 519/24/16
f 520/45/61 521/48/61 522/46/61
f 523/48/3 524/50/3 525/49/3
f 526/50/3 527/20/3 528/22/3
f 529/51/16 530/54/16 531/29/16
f 532/53/62 533/55/62 534/54/62
f 535/47/21 536/46/21 537/55/21
f 538/55/3 539/57/3 540/56/3
f 541/57/3 542/60/3 543/58/3
f 544/58/16 545/18/16 546/6/16
f 547/60/3 548/19/3 549/18/3
f 550/22/3 551/21/3 552/19/3
f 553/18/1 554/6/1 555/17/1
f 556/17/1 557/62/1 558/19/1
f 559/62/1 560/61/1 561/21/1
f 562/21/1 563/19/1 564/62/1
f 565/21/1 566/61/1 567/20/1
f 568/23/34 569/24/34 570/6/34
f 571/26/1 572/44/1 573/25/1
f 574/25/1 575/17/1 576/27/1
f 577/17/1 578/6/1 579/24/1
f 580/24/1 581/27/1 582/17/1
f 583/28/1 584/30/1 585/29/1
f 586/31/63 587/33/63 588/32/63
f 589/34/64 590/32/64 591/35/64
f 592/36/65 593/35/65 594/30/65
f 595/33/66 596/38/66 597/37/66
f 598/35/1 599/40/1 600/39/1
f 601/38/1 602/42/1 603/41/1
f 604/40/1 605/43/1 606/23/1
f 607/42/1 608/44/1 609/26/1
f 610/41/1 611/26/1 612/27/1
f 613/43/1 614/27/1 615/24/1
f 616/46/67 617/48/67 618/45/67
f 619/49/68 620/50/68 621/48/68
f 622/22/1 623/20/1 624/50/1
f 625/29/1 626/54/1 627/51/1
f 628/54/69 629/55/69 630/53/69
f 631/55/70 632/46/70 633/47/70
f 634/56/1 635/57/1 636/55/1
f 637/58/1 638/60/1 639/57/1
f 640/6/34 641/18/34 642/58/34
f 643/18/1 644/19/1 645/60/1
f 646/19/1 647/21/1 648/22/1
f 649/41/40 650/37/40 651/37/40
f 652/61/40 653/61/40 654/62/40
f 655/33/41 656/33/41 657/31/41
f 658/43/41 659/43/41 660/40/41
f 661/22/71 662/60/71 663/60/71
f 664/38/41 665/38/41 666/33/41
f 667/23/40 668/39/40 669/39/40
f 670/42/41 671/42/41 672/38/41
f 673/23/72 674/23/72 675/59/72
f 676/28/46 677/28/46 678/52/46
f 679/41/73 680/41/73 681/43/73
f 682/56/41 683/56/41 684/54/41
f 685/36/74 686/36/74 687/28/74
f 688/57/40 689/55/40 690/55/40
f 691/31/75 692/31/75 693/34/75
f 694/54/76 695/54/76 696/29/76
f 697/34/77 698/34/77 699/36/77
f 700/49/41 701/49/41 702/46/41
f 703/25/41 704/25/41 705/44/41
f 706/20/40 707/20/40 708/61/40
f 709/58/41 710/58/41 711/56/41
f 712/62/7 713/62/7 714/17/7
f 715/46/78 716/46/78 717/55/78
f 718/50/40 719/50/40 720/20/40
f 721/60/40 722/57/40 723/57/40
f 724/45/40 725/45/40 726/48/40
f 727/48/40 728/48/40 729/50/40
f 730/37/40 731/32/40 732/32/40
f 733/22/41 734/22/41 735/49/41
f 736/51/79 737/52/79 738/52/79
f 739/29/80 740/29/80 741/30/80
f 742/45/81 743/47/81 744/47/81
f 745/40/41 746/40/41 747/35/41
f 748/44/41 749/44/41 750/42/41
f 751/47/81 752/53/81 753/53/81
f 754/39/40 755/30/40 756/30/40
f 757/17/7 758/17/7 759/25/7
f 760/32/82 761/35/82 762/35/82
f 763/59/83 764/59/83 765/58/83
f 766/53/50 767/51/50 768/51/50
f 769/63/84 770/64/84 771/65/84
f 772/66/84 773/67/84 774/68/84
f 775/69/84 776/70/84 777/67/84
f 778/71/84 779/72/84 780/70/84
f 781/73/84 782/65/84 783/72/84
f 784/74/84 785/75/84 786/76/84
f 787/77/84 788/78/84 789/74/84
f 790/79/84 791/80/84 792/77/84
f 793/68/84 794/81/84 795/79/84
f 796/78/84 797/82/84 798/75/84
f 799/80/84 800/83/84 801/78/84
f 802/81/84 803/84/84 804/80/84
f 805/67/84 806/85/84 807/81/84
f 808/83/84 809/86/84 810/82/84
f 811/84/84 812/87/84 813/83/84
f 814/85/84 815/88/84 816/84/84
f 817/70/84 818/89/84 819/85/84
f 820/87/84 821/90/84 822/86/84
f 823/89/84 824/91/84 825/88/84
f 826/92/84 827/93/84 828/90/84
f 829/91/84 830/94/84 831/92/84
f 832/95/84 833/96/84 834/91/84
f 835/65/84 836/97/84 837/95/84
f 838/64/85 839/63/85 840/65/85
f 841/67/85 842/66/85 843/68/85
f 844/70/85 845/69/85 846/67/85
f 847/72/85 848/71/85 849/70/85
f 850/65/85 851/73/85 852/72/85
f 853/75/85 854/74/85 855/76/85
f 856/78/85 857/77/85 858/74/85
f 859/80/85 860/79/85 861/77/85
f 862/81/85 863/68/85 864/79/85
f 865/82/85 866/78/85 867/75/85
f 868/83/85 869/80/85 870/78/85
f 871/84/85 872/81/85 873/80/85
f 874/85/85 875/67/85 876/81/85
f 877/86/85 878/83/85 879/82/85
f 880/87/85 881/84/85 882/83/85
f 883/88/85 884/85/85 885/84/85
f 886/89/85 887/70/85 888/85/85
f 889/90/85 890/87/85 891/86/85
f 892/91/85 893/89/85 894/88/85
f 895/93/85 896/92/85 897/90/85
f 898/94/85 899/91/85 900/92/85
f 901/96/85 902/95/85 903/91/85
f 904/97/85 905/65/85 906/95/85
f 907/90/86 908/86/86 909/86/86
f 910/87/87 911/92/87 912/92/87
f 913/94/88 914/93/88 915/93/88
f 916/95/7 917/65/7 918/65/7
f 919/91/86 920/88/86 921/88/86
f 922/96/88 923/94/88 924/94/88
f 925/76/7 926/74/7 927/74/7
f 928/89/87 929/95/87 930/95/87
f 931/97/88 932/96/88 933/96/88
f 934/93/86 935/90/86 936/90/86
f 937/65/86 938/72/86 939/72/86
f 940/64/88 941/97/88 942/97/88
f 943/98/88 944/64/88 945/64/88
f 946/63/87 947/98/87 948/98/87
f 949/66/87 950/69/87 951/69/87
f 952/73/87 953/63/87 954/63/87
f 955/68/7 956/66/7 957/66/7
f 958/71/87 959/73/87 960/73/87
f 961/79/7 962/68/7 963/68/7
f 964/88/88 965/87/88 966/87/88
f 967/69/87 968/71/87 969/71/87
f 970/77/7 971/79/7 972/79/7
f 973/74/7 974/77/7 975/77/7
f 976/72/88 977/89/88 978/89/88
f 979/75/86 980/76/86 981/76/86
f 982/82/86 983/75/86 984/75/86
f 985/86/86 986/82/86 987/82/86
f 988/92/7 989/91/7 990/91/7
f 991/63/84 992/98/84 993/64/84
f 994/66/84 995/69/84 996/67/84
f 997/69/84 998/71/84 999/70/84
f 1000/71/84 1001/73/84 1002/72/84
f 1003/73/84 1004/63/84 1005/65/84
f 1006/74/84 1007/78/84 1008/75/84
f 1009/77/84 1010/80/84 1011/78/84
f 1012/79/84 1013/81/84 1014/80/84
f 1015/68/84 1016/67/84 1017/81/84
f 1018/78/84 1019/83/84 1020/82/84
f 1021/80/84 1022/84/84 1023/83/84
f 1024/81/84 1025/85/84 1026/84/84
f 1027/67/84 1028/70/84 1029/85/84
f 1030/83/84 1031/87/84 1032/86/84
f 1033/84/84 1034/88/84 1035/87/84
f 1036/85/84 1037/89/84 1038/88/84
f 1039/70/84 1040/72/84 1041/89/84
f 1042/87/84 1043/92/84 1044/90/84
f 1045/89/84 1046/95/84 1047/91/84
f 1048/92/84 1049/94/84 1050/93/84
f 1051/91/84 1052/96/84 1053/94/84
f 1054/95/84 1055/97/84 1056/96/84
f 1057/65/84 1058/64/84 1059/97/84
f 1060/64/85 1061/98/85 1062/63/85
f 1063/67/85 1064/69/85 1065/66/85
f 1066/70/85 1067/71/85 1068/69/85
f 1069/72/85 1070/73/85 1071/71/85
f 1072/65/85 1073/63/85 1074/73/85
f 1075/75/85 1076/78/85 1077/74/85
f 1078/78/85 1079/80/85 1080/77/85
f 1081/80/85 1082/81/85 1083/79/85
f 1084/81/85 1085/67/85 1086/68/85
f 1087/82/85 1088/83/85 1089/78/85
f 1090/83/85 1091/84/85 1092/80/85
f 1093/84/85 1094/85/85 1095/81/85
f 1096/85/85 1097/70/85 1098/67/85
f 1099/86/85 1100/87/85 1101/83/85
f 1102/87/85 1103/88/85 1104/84/85
f 1105/88/85 1106/89/85 1107/85/85
f 1108/89/85 1109/72/85 1110/70/85
f 1111/90/85 1112/92/85 1113/87/85
f 1114/91/85 1115/95/85 1116/89/85
f 1117/93/85 1118/94/85 1119/92/85
f 1120/94/85 1121/96/85 1122/91/85
f 1123/96/85 1124/97/85 1125/95/85
f 1126/97/85 1127/64/85 1128/65/85
f 1129/90/86 1130/90/86 1131/86/86
f 1132/87/87 1133/87/87 1134/92/87
f 1135/94/88 1136/94/88 1137/93/88
f 1138/95/7 1139/95/7 1140/65/7
f 1141/91/86 1142/91/86 1143/88/86
f 1144/96/88 1145/96/88 1146/94/88
f 1147/76/7 1148/76/7 1149/74/7
f 1150/89/87 1151/89/87 1152/95/87
f 1153/97/88 1154/97/88 1155/96/88
f 1156/93/86 1157/93/86 1158/90/86
f 1159/65/86 1160/65/86 1161/72/86
f 1162/64/88 1163/64/88 1164/97/88
f 1165/98/88 1166/98/88 1167/64/88
f 1168/63/87 1169/63/87 1170/98/87
f 1171/66/87 1172/66/87 1173/69/87
f 1174/73/87 1175/73/87 1176/63/87
f 1177/68/7 1178/68/7 1179/66/7
f 1180/71/87 1181/71/87 1182/73/87
f 1183/79/7 1184/79/7 1185/68/7
f 1186/88/88 1187/88/88 1188/87/88
f 1189/69/87 1190/69/87 1191/71/87
f 1192/77/7 1193/77/7 1194/79/7
f 1195/74/7 1196/74/7 1197/77/7
f 1198/72/88 1199/72/88 1200/89/88
f 1201/75/86 1202/75/86 1203/76/86
f 1204/82/86 1205/82/86 1206/75/86
f 1207/86/86 1208/86/86 1209/82/86
f 1210/92/7 1211/92/7 1212/91/7
f 1213/99/85 1214/100/85 1215/101/85
f 1216/102/85 1217/103/85 1218/104/85
f 1219/105/85 1220/106/85 1221/103/85
f 1222/107/85 1223/108/85 1224/106/85
f 1225/109/85 1226/101/85 1227/108/85
f 1228/110/85 1229/111/85 1230/112/85
f 1231/113/85 1232/114/85 1233/110/85
f 1234/115/85 1235/116/85 1236/113/85
f 1237/104/85 1238/117/85 1239/115/85
f 1240/114/85 1241/118/85 1242/111/85
f 1243/117/85 1244/119/85 1245/116/85
f 1246/120/85 1247/121/85 1248/118/85
f 1249/119/85 1250/122/85 1251/120/85
f 1252/123/85 1253/124/85 1254/119/85
f 1255/106/85 1256/125/85 1257/123/85
f 1258/122/85 1259/126/85 1260/121/85
f 1261/124/85 1262/127/85 1263/122/85
f 1264/125/85 1265/128/85 1266/124/85
f 1267/108/85 1268/129/85 1269/125/85
f 1270/127/85 1271/130/85 1272/126/85
f 1273/128/85 1274/131/85 1275/127/85
f 1276/129/85 1277/132/85 1278/128/85
f 1279/101/85 1280/133/85 1281/129/85
f 1282/100/84 1283/99/84 1284/101/84
f 1285/103/84 1286/102/84 1287/104/84
f 1288/106/84 1289/105/84 1290/103/84
f 1291/108/84 1292/107/84 1293/106/84
f 1294/101/84 1295/109/84 1296/108/84
f 1297/111/84 1298/110/84 1299/112/84
f 1300/114/84 1301/113/84 1302/110/84
f 1303/116/84 1304/115/84 1305/113/84
f 1306/117/84 1307/104/84 1308/115/84
f 1309/118/84 1310/114/84 1311/111/84
f 1312/119/84 1313/117/84 1314/116/84
f 1315/121/84 1316/120/84 1317/118/84
f 1318/122/84 1319/119/84 1320/120/84
f 1321/124/84 1322/123/84 1323/119/84
f 1324/125/84 1325/106/84 1326/123/84
f 1327/126/84 1328/122/84 1329/121/84
f 1330/127/84 1331/124/84 1332/122/84
f 1333/128/84 1334/125/84 1335/124/84
f 1336/129/84 1337/108/84 1338/125/84
f 1339/130/84 1340/127/84 1341/126/84
f 1342/131/84 1343/128/84 1344/127/84
f 1345/132/84 1346/129/84 1347/128/84
f 1348/133/84 1349/101/84 1350/129/84
f 1351/126/86 1352/121/86 1353/121/86
f 1354/131/7 1355/130/7 1356/130/7
f 1357/132/7 1358/131/7 1359/131/7
f 1360/112/88 1361/110/88 1362/110/88
f 1363/120/88 1364/119/88 1365/119/88
f 1366/133/7 1367/132/7 1368/132/7
f 1369/130/86 1370/126/86 1371/126/86
f 1372/100/7 1373/133/7 1374/133/7
f 1375/134/7 1376/100/7 1377/100/7
f 1378/123/88 1379/106/88 1380/106/88
f 1381/99/87 1382/134/87 1383/134/87
f 1384/102/87 1385/105/87 1386/105/87
f 1387/109/87 1388/99/87 1389/99/87
f 1390/114/87 1391/120/87 1392/120/87
f 1393/104/88 1394/102/88 1395/102/88
f 1396/107/87 1397/109/87 1398/109/87
f 1399/119/86 1400/116/86 1401/116/86
f 1402/115/88 1403/104/88 1404/104/88
f 1405/105/87 1406/107/87 1407/107/87
f 1408/117/87 1409/123/87 1410/123/87
f 1411/113/88 1412/115/88 1413/115/88
f 1414/106/86 1415/103/86 1416/103/86
f 1417/110/88 1418/113/88 1419/113/88
f 1420/111/86 1421/112/86 1422/112/86
f 1423/116/7 1424/114/7 1425/114/7
f 1426/118/86 1427/111/86 1428/111/86
f 1429/121/86 1430/118/86 1431/118/86
f 1432/103/7 1433/117/7 1434/117/7
f 1435/99/85 1436/134/85 1437/100/85
f 1438/102/85 1439/105/85 1440/103/85
f 1441/105/85 1442/107/85 1443/106/85
f 1444/107/85 1445/109/85 1446/108/85
f 1447/109/85 1448/99/85 1449/101/85
f 1450/110/85 1451/114/85 1452/111/85
f 1453/113/85 1454/116/85 1455/114/85
f 1456/115/85 1457/117/85 1458/116/85
f 1459/104/85 1460/103/85 1461/117/85
f 1462/114/85 1463/120/85 1464/118/85
f 1465/117/85 1466/123/85 1467/119/85
f 1468/120/85 1469/122/85 1470/121/85
f 1471/119/85 1472/124/85 1473/122/85
f 1474/123/85 1475/125/85 1476/124/85
f 1477/106/85 1478/108/85 1479/125/85
f 1480/122/85 1481/127/85 1482/126/85
f 1483/124/85 1484/128/85 1485/127/85
f 1486/125/85 1487/129/85 1488/128/85
f 1489/108/85 1490/101/85 1491/129/85
f 1492/127/85 1493/131/85 1494/130/85
f 1495/128/85 1496/132/85 1497/131/85
f 1498/129/85 1499/133/85 1500/132/85
f 1501/101/85 1502/100/85 1503/133/85
f 1504/100/84 1505/134/84 1506/99/84
f 1507/103/84 1508/105/84 1509/102/84
f 1510/106/84 1511/107/84 1512/105/84
f 1513/108/84 1514/109/84 1515/107/84
f 1516/101/84 1517/99/84 1518/109/84
f 1519/111/84 1520/114/84 1521/110/84
f 1522/114/84 1523/116/84 1524/113/84
f 1525/116/84 1526/117/84 1527/115/84
f 1528/117/84 1529/103/84 1530/104/84
f 1531/118/84 1532/120/84 1533/114/84
f 1534/119/84 1535/123/84 1536/117/84
f 1537/121/84 1538/122/84 1539/120/84
f 1540/122/84 1541/124/84 1542/119/84
f 1543/124/84 1544/125/84 1545/123/84
f 1546/125/84 1547/108/84 1548/106/84
f 1549/126/84 1550/127/84 1551/122/84
f 1552/127/84 1553/128/84 1554/124/84
f 1555/128/84 1556/129/84 1557/125/84
f 1558/129/84 1559/101/84 1560/108/84
f 1561/130/84 1562/131/84 1563/127/84
f 1564/131/84 1565/132/84 1566/128/84
f 1567/132/84 1568/133/84 1569/129/84
f 1570/133/84 1571/100/84 1572/101/84
f 1573/126/86 1574/126/86 1575/121/86
f 1576/131/7 1577/131/7 1578/130/7
f 1579/132/7 1580/132/7 1581/131/7
f 1582/112/88 1583/112/88 1584/110/88
f 1585/120/88 1586/120/88 1587/119/88
f 1588/133/7 1589/133/7 1590/132/7
f 1591/130/86 1592/130/86 1593/126/86
f 1594/100/7 1595/100/7 1596/133/7
f 1597/134/7 1598/134/7 1599/100/7
f 1600/123/88 1601/123/88 1602/106/88
f 1603/99/87 1604/99/87 1605/134/87
f 1606/102/87 1607/102/87 1608/105/87
f 1609/109/87 1610/109/87 1611/99/87
f 1612/114/87 1613/114/87 1614/120/87
f 1615/104/88 1616/104/88 1617/102/88
f 1618/107/87 1619/107/87 1620/109/87
f 1621/119/86 1622/119/86 1623/116/86
f 1624/115/88 1625/115/88 1626/104/88
f 1627/105/87 1628/105/87 1629/107/87
f 1630/117/87 1631/117/87 1632/123/87
f 1633/113/88 1634/113/88 1635/115/88
f 1636/106/86 1637/106/86 1638/103/86
f 1639/110/88 1640/110/88 1641/113/88
f 1642/111/86 1643/111/86 1644/112/86
f 1645/116/7 1646/116/7 1647/114/7
f 1648/118/86 1649/118/86 1650/111/86
f 1651/121/86 1652/121/86 1653/118/86
f 1654/103/7 1655/103/7 1656/117/7
